<svg xmlns="http://www.w3.org/2000/svg" xmlns:xlink="http://www.w3.org/1999/xlink" xmlns:inkscape="http://www.inkscape.org/namespaces/inkscape" version="1.1" width="233" height="166" viewBox="0 0 233 166">
<defs>
<path id="font_1_3" d="M.33399964 .30233766C.33999635 .32835389 .36299134 .42037965 .43299867 .42037965 .43798829 .42037965 .46199037 .42037965 .48298646 .40734864 .45498658 .402359 .43499757 .37734986 .43499757 .35334779 .43499757 .33735658 .44599916 .31835938 .47299195 .31835938 .49499513 .31835938 .5269928 .3363495 .5269928 .37635804 .5269928 .42837525 .46798707 .4423828 .43399049 .4423828 .37599183 .4423828 .34098817 .38935853 .32899476 .36634828 .3039856 .43237306 .25 .4423828 .22099304 .4423828 .116989139 .4423828 .05999756 .3133545 .05999756 .28834535 .05999756 .27833558 .069992069 .27833558 .07199097 .27833558 .07998657 .27833558 .08299255 .28033448 .084991458 .28933717 .11898804 .39535523 .18499756 .42037965 .21899414 .42037965 .23799134 .42037965 .272995 .4113617 .272995 .35334779 .272995 .32235719 .2559967 .25532533 .21899414 .11528015 .20298767 .053268434 .16799927 .011245728 .12399292 .011245728 .117996219 .011245728 .09498596 .011245728 .07398987 .024276734 .09899902 .029266358 .12098694 .05027771 .12098694 .07827759 .12098694 .105270389 .09899902 .11328125 .083999637 .11328125 .053985597 .11328125 .0289917 .08728027 .0289917 .055267335 .0289917 .009246826 .07899475-.0107421879 .12298584-.0107421879 .18899536-.0107421879 .22499085 .059280397 .22799683 .0652771 .23999024 .028274537 .27598573-.0107421879 .33599855-.0107421879 .43899537-.0107421879 .49598695 .118270877 .49598695 .14328003 .49598695 .1532898 .4869995 .1532898 .48399354 .1532898 .47499085 .1532898 .47299195 .14929199 .47099305 .14228821 .43798829 .03527832 .36999513 .011245728 .33799745 .011245728 .29899598 .011245728 .2829895 .043273927 .2829895 .07727051 .2829895 .09927368 .2889862 .121276859 .2999878 .16529846L.33399964 .30233766Z"/>
<path id="font_1_4" d="M.48599244 .38136292C.48999024 .39537049 .48999024 .39736939 .48999024 .40437318 .48999024 .42237855 .47599793 .43138124 .46099855 .43138124 .45098878 .43138124 .43499757 .42536927 .42599488 .41036988 .42399598 .405365 .41600038 .37435914 .4119873 .35635377 .40499879 .33035279 .397995 .30334474 .3919983 .27633668L.34700013 .09628296C.34298707 .08126831 .2999878 .011245728 .23399353 .011245728 .18299866 .011245728 .17199707 .055267335 .17199707 .0922699 .17199707 .1382904 .18899536 .20030213 .22299195 .28833009 .23899842 .3293457 .24299622 .3403473 .24299622 .36035157 .24299622 .405365 .21099854 .4423828 .16099549 .4423828 .06599426 .4423828 .0289917 .29733277 .0289917 .28833009 .0289917 .27833558 .038986207 .27833558 .040985109 .27833558 .050994874 .27833558 .051986696 .28033448 .056991579 .29634095 .083999637 .3903656 .12399292 .42037965 .1579895 .42037965 .1659851 .42037965 .18299866 .42037965 .18299866 .3883667 .18299866 .36335755 .17298889 .3373413 .1659851 .31834413 .12599182 .21231079 .10798645 .1552887 .10798645 .10827637 .10798645 .019256592 .17098999-.0107421879 .22999573-.0107421879 .2689972-.0107421879 .30299378 .0062561037 .33099366 .03425598 .31799317-.017745972 .30599977-.06674194 .2659912-.11973572 .23999024-.15385437 .20199585-.18309021 .1559906-.18309021 .14199829-.18309021 .09700012-.18005371 .07998657-.14074707 .09599304-.14074707 .10899353-.14074707 .12298584-.1287384 .1329956-.11973572 .14299011-.10673523 .14299011-.08773804 .14299011-.056747438 .115997318-.052734376 .10598755-.052734376 .08299255-.052734376 .049987794-.068740848 .049987794-.11773682 .049987794-.16796875 .09399414-.20507813 .1559906-.20507813 .25898744-.20507813 .3619995-.11373901 .3899994-.00074768069L.48599244 .38136292Z"/>
<path id="font_2_83" d="M.6239929 .4967041C.6239929 .59465029 .5249939 .6826172 .3880005 .6826172H.034988405V.6516113H.05899048C.13598633 .6516113 .13798523 .64060977 .13798523 .6046295V.07795715C.13798523 .041992189 .13598633 .0309906 .05899048 .0309906H.034988405V0C.069992069 .0029907227 .14399719 .0029907227 .18199158 .0029907227 .21998596 .0029907227 .29499818 .0029907227 .32998658 0V.0309906H.30599977C.22898865 .0309906 .22698975 .041992189 .22698975 .07795715V.3157959H.3959961C.5159912 .3157959 .6239929 .39675904 .6239929 .4967041M.5209961 .4967041C.5209961 .4497223 .5209961 .34179688 .3619995 .34179688H.22399903V.6116333C.22399903 .64460757 .22599793 .6516113 .272995 .6516113H.3619995C.5209961 .6516113 .5209961 .54566958 .5209961 .4967041Z"/>
<path id="font_2_90" d="M.72698977-.010345459C.72698977-.00033569337 .72698977 .010650635 .71598818 .010650635 .70700076 .010650635 .70599368 .0026550294 .7049866-.0073394777 .69898989-.061340333 .6569977-.09133911 .6139984-.09133911 .5669861-.09133911 .5419922-.05734253 .5179901 .006652832 .6359863 .059570314 .72099307 .1876831 .72099307 .3387909 .72099307 .5429535 .56999209 .7050781 .3880005 .7050781 .20899964 .7050781 .055999757 .54496768 .055999757 .3387909 .055999757 .13664246 .20698548-.022460938 .3889923-.022460938 .41999818-.022460938 .45498658-.016464234 .48399354-.007461548 .49899293-.1023407 .5130005-.19433594 .60598757-.19433594 .70799258-.1945343 .72698977-.061538698 .72698977-.010528564V-.010345459M.62098696 .33866883C.62098696 .2605896 .60899356 .11946106 .5029907 .04147339 .48098756 .097457889 .44898988 .14746094 .3899994 .14746094 .33898927 .14746094 .30799867 .10446167 .30799867 .06347656 .30799867 .036468507 .32099916 .017471314 .32199098 .015472412 .2679901 .035461427 .1559906 .10845947 .1559906 .33866883 .1559906 .59898379 .29599 .68006899 .3880005 .68006899 .4850006 .6794586 .62098696 .5934601 .62098696 .3384552V.33866883M.47698976 .025497437C.44299317 .0065307619 .41099549 .002532959 .3889923 .002532959 .33799745 .002532959 .32998658 .048461915 .32998658 .06347656 .32998658 .09246826 .35099793 .12545777 .3899994 .12545777 .44400025 .12545777 .46598817 .083465579 .47698976 .025497437Z"/>
<path id="font_2_95" d="M.7319946 .08753967C.7319946 .09353638 .7319946 .104537967 .71899417 .104537967 .70799258 .104537967 .70799258 .09555054 .70700076 .08854675 .70098879 .017532349 .66600039-.00047302247 .6409912-.00047302247 .59199526-.00047302247 .58399966 .05053711 .56999209 .14355469L.5569916 .22355652C.5389862 .28756715 .48999024 .3205719 .43499757 .3395691 .5319977 .36357118 .6100006 .4245758 .6100006 .502594 .6100006 .5986023 .49598695 .6826172 .34899903 .6826172H.034988405V.6516113H.05899048C.13598633 .6516113 .13798523 .64060977 .13798523 .604599V.077545169C.13798523 .04197693 .13598633 .0309906 .05899048 .0309906H.034988405V0C.070999149 .0029907227 .14199829 .0029907227 .18099976 .0029907227 .21998596 .0029907227 .29100038 .0029907227 .32699586 0V.0309906H.30299378C.22599793 .0309906 .22399903 .04197693 .22399903 .077926639V.3305359H.33898927C.35499574 .3305359 .39698792 .3305359 .43199159 .29658509 .46998597 .26063539 .46998597 .22969055 .46998597 .16279602 .46998597 .09788513 .46998597 .05795288 .5109863 .019989014 .5519867-.016464234 .6069946-.022460938 .6369934-.022460938 .71499636-.022460938 .7319946 .059524537 .7319946 .087524417V.08753967M.5069885 .5025635C.5069885 .43354798 .48298646 .35253907 .33499146 .35253907H.22399903V.6116028C.22399903 .6345978 .22399903 .64660647 .24598694 .6496124 .2559967 .6516113 .2849884 .6516113 .30499269 .6516113 .394989 .6516113 .5069885 .6476135 .5069885 .5025635Z"/>
<path id="font_2_97" d="M.49899293 .18579102C.49899293 .2858429 .43299867 .36791993 .34899903 .38793946L.22099304 .4189453C.15899658 .43388368 .11999512 .48773194 .11999512 .5458069 .11999512 .61595156 .17399597 .677063 .2519989 .677063 .4189911 .677063 .44099427 .5127411 .44699098 .46777345 .44799806 .461792 .44799806 .45581056 .45899964 .45581056 .47200013 .45581056 .47200013 .46080018 .47200013 .47973634V.68107607C.47200013 .69807437 .47200013 .7050781 .46099855 .7050781 .45399476 .7050781 .45298768 .70407107 .44599916 .69207766L.41099549 .63497927C.3809967 .66404727 .33999635 .7050781 .25099183 .7050781 .13999939 .7050781 .055999757 .61694338 .055999757 .5107422 .055999757 .42790223 .10899353 .35490418 .18699646 .32788087 .19799805 .32388307 .24899292 .3118744 .31900025 .29486085 .34599305 .28785707 .37599183 .280838 .4039917 .24382019 .4249878 .2177887 .43499757 .18478394 .43499757 .1517334 .43499757 .0806427 .3849945 .008529663 .30099488 .008529663 .27198792 .008529663 .19599915 .013534546 .14299011 .06260681 .084991458 .11668396 .08198547 .18078614 .08099365 .21679688 .07998657 .22679138 .07199097 .22679138 .068984989 .22679138 .055999757 .22679138 .055999757 .2197876 .055999757 .20178223V.0015258789C.055999757-.015472412 .055999757-.022460938 .066986087-.022460938 .07398987-.022460938 .07499695-.020462037 .08198547-.009475708 .08198547-.009475708 .084991458-.0054626467 .117996219 .047592164 .14898682 .013534546 .21299744-.022460938 .3019867-.022460938 .4189911-.022460938 .49899293 .07562256 .49899293 .18579102Z"/>
<path id="font_3_1" d="M.33099366-.2400055C.33099366-.23701477 .33099366-.23500061 .31399537-.21800232 .18899536-.0920105 .15699768 .09700012 .15699768 .25 .15699768 .42399598 .19499207 .59799197 .31799317 .72299197 .33099366 .73498538 .33099366 .7369995 .33099366 .73999026 .33099366 .746994 .32699586 .75 .32099916 .75 .31098939 .75 .22099304 .6819916 .1619873 .5549927 .11099243 .44499208 .09899902 .33399964 .09899902 .25 .09899902 .17199707 .10998535 .050994874 .16499329-.06201172 .22499085-.18501282 .31098939-.25 .32099916-.25 .32699586-.25 .33099366-.24700928 .33099366-.2400055Z"/>
<path id="font_4_1" d="M.5159912 .31925965C.5159912 .42918397 .5029907 .50813296 .45700074 .5780945 .42599488 .62405398 .3639984 .6640625 .28399659 .6640625 .051986696 .6640625 .051986696 .39120484 .051986696 .31925965 .051986696 .2472992 .051986696-.01953125 .28399659-.01953125 .5159912-.01953125 .5159912 .2472992 .5159912 .31925965M.28399659 .008468628C.23799134 .008468628 .1769867 .035446168 .15699768 .117385867 .14299011 .17634583 .14299011 .25830079 .14299011 .33224488 .14299011 .40519715 .14299011 .4811554 .1579895 .53611758 .1789856 .6150665 .24299622 .63604739 .28399659 .63604739 .33799745 .63604739 .3899994 .6030731 .4079895 .545105 .42399598 .4911499 .4249878 .41918946 .4249878 .33224488 .4249878 .25830079 .4249878 .18434143 .4119873 .12138367 .3919983 .030441285 .32398988 .008468628 .28399659 .008468628Z"/>
<path id="font_1_1" d="M.20298767 .0009918213C.20298767 .066986087 .17799378 .10598755 .13899231 .10598755 .10598755 .10598755 .085998538 .08099365 .085998538 .052993776 .085998538 .025985718 .10598755 0 .13899231 0 .15098572 0 .1639862 .0039978029 .17399597 .0129852299 .1769867 .01499939 .17799378 .015991211 .1789856 .015991211 .17999268 .015991211 .18099976 .01499939 .18099976 .0009918213 .18099976-.07316589 .1459961-.13328552 .11299133-.16635132 .101989749-.17736817 .101989749-.17936707 .101989749-.18237305 .101989749-.18936157 .10699463-.19335938 .11199951-.19335938 .12298584-.19335938 .20298767-.116256717 .20298767 .0009918213Z"/>
<path id="font_4_2" d="M.33499146 .63612368C.33499146 .6630554 .33299256 .6640625 .30499269 .6640625 .24099732 .6014404 .1499939 .6004486 .10899353 .6004486V.5644531C.1329956 .5644531 .19898987 .5644531 .2539978 .592453V.08203125C.2539978 .04899597 .2539978 .035995485 .1539917 .035995485H.115997318V0C.13398743 .0009918213 .25698854 .0039978029 .2939911 .0039978029 .32499696 .0039978029 .45098878 .0009918213 .47299195 0V.035995485H.43499757C.33499146 .035995485 .33499146 .04899597 .33499146 .08203125V.63612368Z"/>
<path id="font_3_2" d="M.2889862 .25C.2889862 .32798768 .27799989 .44898988 .22299195 .56199648 .16299439 .68499758 .07699585 .75 .066986087 .75 .06098938 .75 .056991579 .74598696 .056991579 .73999026 .056991579 .7369995 .056991579 .73498538 .07598877 .71699526 .17399597 .6179962 .23098755 .45899964 .23098755 .25 .23098755 .07899475 .19400025-.09700012 .069992069-.2230072 .056991579-.23500061 .056991579-.23701477 .056991579-.2400055 .056991579-.2460022 .06098938-.25 .066986087-.25 .07699585-.25 .16699219-.18200684 .22599793-.055007936 .2769928 .054992677 .2889862 .16600037 .2889862 .25Z"/>
<path id="font_2_104" d="M.68499758 .45214845 .66600039 .6767578H.054992677L.035995485 .45214845H.06098938C.07499695 .6128235 .08999634 .64575198 .24099732 .64575198 .25898744 .64575198 .2849884 .64575198 .29499818 .64375308 .31599427 .6397705 .31599427 .6287842 .31599427 .60583499V.07901001C.31599427 .04499817 .31599427 .0309906 .21099854 .0309906H.17098999V0C.21199036 .0029907227 .31399537 .0029907227 .3600006 .0029907227 .4059906 .0029907227 .5089874 .0029907227 .5499878 0V.0309906H.5099945C.40499879 .0309906 .40499879 .04499817 .40499879 .07901001V.60583499C.40499879 .62579348 .40499879 .6397705 .4229889 .64375308 .43399049 .64575198 .46099855 .64575198 .47999574 .64575198 .6309967 .64575198 .6459961 .6128235 .6599884 .45214845H.68499758Z"/>
<path id="font_4_3" d="M.5049896 .18203736H.47099305C.46798707 .16001892 .45799256 .100997928 .44499208 .09098816 .43699647 .084991458 .3600006 .084991458 .34599305 .084991458H.1619873C.2669983 .17803955 .3019867 .20603943 .3619995 .25306703 .43598939 .312088 .5049896 .374115 .5049896 .46914674 .5049896 .5900879 .39898683 .6640625 .2709961 .6640625 .14698792 .6640625 .06298828 .57710269 .06298828 .4851532 .06298828 .43414308 .10598755 .42915345 .115997318 .42915345 .13999939 .42915345 .16899109 .44615174 .16899109 .48214723 .16899109 .5001526 .1619873 .53515627 .10998535 .53515627 .14099121 .6060791 .20899964 .62805178 .2559967 .62805178 .35598756 .62805178 .4079895 .5501404 .4079895 .46914674 .4079895 .38212586 .34599305 .3130951 .31399537 .27708436L.07299805 .038986207C.06298828 .02999878 .06298828 .027999878 .06298828 0H.47499085L.5049896 .18203736Z"/>
<path id="font_1_2" d="M.08799744 .059265138C.084991458 .044265748 .07899475 .021255494 .07899475 .01625061 .07899475-.0017547608 .09298706-.0107421879 .10798645-.0107421879 .11999512-.0107421879 .13798523-.002746582 .14498902 .01725769 .14698792 .021255494 .18099976 .15730286 .18499756 .17530823 .19299317 .20831299 .21099854 .27833558 .21699524 .30534364 .22099304 .31835938 .24899292 .36535646 .272995 .38734437 .2809906 .39434815 .30999757 .42037965 .35299684 .42037965 .3789978 .42037965 .3939972 .4083557 .394989 .4083557 .36499024 .40335084 .34298707 .37934876 .34298707 .35334779 .34298707 .33735658 .35398866 .31835938 .3809967 .31835938 .4079895 .31835938 .43598939 .34135438 .43598939 .37734986 .43598939 .41235353 .4039917 .4423828 .35299684 .4423828 .28799439 .4423828 .24398804 .39335633 .22499085 .36535646 .21699524 .4103546 .18099976 .4423828 .13398743 .4423828 .08799744 .4423828 .068984989 .40335084 .05999756 .38534547 .041992189 .35134889 .0289917 .29133607 .0289917 .28834535 .0289917 .27833558 .038986207 .27833558 .040985109 .27833558 .050994874 .27833558 .051986696 .27934266 .057998659 .30134584 .07499695 .37234498 .09498596 .42037965 .1309967 .42037965 .147995 .42037965 .1619873 .41235353 .1619873 .37435914 .1619873 .35334779 .15899658 .3423462 .1459961 .29034425L.08799744 .059265138Z"/>
</defs>
<path transform="matrix(1.00002,0,0,-1,18.303009,147.929)" stroke-width=".79701" stroke-linecap="butt" stroke-miterlimit="10" stroke-linejoin="miter" fill="none" stroke="#000000" d="M-17.00801 0H203.38913"/>
<path transform="matrix(1.00002,0,0,-1,221.69622,147.929)" stroke-width=".6376" stroke-linecap="round" stroke-linejoin="round" fill="none" stroke="#000000" d="M-1.55415 2.0722C-1.42464 1.29512 0 .1295 .38852 0 0-.1295-1.42464-1.29512-1.55415-2.0722"/>
<use data-text="x" xlink:href="#font_1_3" transform="matrix(9.962799,0,0,-9.9626,226.12317,150.074)"/>
<path transform="matrix(1.00002,0,0,-1,18.303009,147.929)" stroke-width=".79701" stroke-linecap="butt" stroke-miterlimit="10" stroke-linejoin="miter" fill="none" stroke="#000000" d="M0-17.00801V135.35697"/>
<path transform="matrix(0,-1,-1.00002,-0,18.303009,12.572037)" stroke-width=".6376" stroke-linecap="round" stroke-linejoin="round" fill="none" stroke="#000000" d="M-1.55415 2.0722C-1.42464 1.29512 0 .1295 .38852 0 0-.1295-1.42464-1.29512-1.55415-2.0722"/>
<use data-text="y" xlink:href="#font_1_4" transform="matrix(9.962799,0,0,-9.9626,15.681953,6.208008)"/>
<path transform="matrix(1.00002,0,0,-1,18.303009,147.929)" d="M36.41367 51.03394C36.41367 52.35448 35.34317 53.42499 34.02261 53.42499 32.70206 53.42499 31.63156 52.35448 31.63156 51.03394 31.63156 49.71338 32.70206 48.64287 34.02261 48.64287 35.34317 48.64287 36.41367 49.71338 36.41367 51.03394ZM34.02261 51.03394"/>
<use data-text="P" xlink:href="#font_2_83" transform="matrix(9.962799,0,0,-9.9626,42.021486,107.219)"/>
<path transform="matrix(1.00002,0,0,-1,18.303009,147.929)" d="M155.4929 102.0679C155.4929 103.38844 154.42241 104.45895 153.10186 104.45895 151.7813 104.45895 150.7108 103.38844 150.7108 102.0679 150.7108 100.74734 151.7813 99.67683 153.10186 99.67683 154.42241 99.67683 155.4929 100.74734 155.4929 102.0679ZM153.10186 102.0679"/>
<use data-text="Q" xlink:href="#font_2_90" transform="matrix(9.962799,0,0,-9.9626,174.92815,56.405)"/>
<path transform="matrix(1.00002,0,0,-1,18.303009,147.929)" d="M87.44763 71.44772C87.44763 72.76828 86.37712 73.83879 85.05656 73.83879 83.73602 73.83879 82.66551 72.76828 82.66551 71.44772 82.66551 70.12718 83.73602 69.05667 85.05656 69.05667 86.37712 69.05667 87.44763 70.12718 87.44763 71.44772ZM85.05656 71.44772"/>
<use data-text="R" xlink:href="#font_2_95" transform="matrix(9.962799,0,0,-9.9626,106.88078,86.806)"/>
<path transform="matrix(1.00002,0,0,-1,18.303009,147.929)" d="M87.44763 51.03394C87.44763 52.35448 86.37712 53.42499 85.05656 53.42499 83.73602 53.42499 82.66551 52.35448 82.66551 51.03394 82.66551 49.71338 83.73602 48.64287 85.05656 48.64287 86.37712 48.64287 87.44763 49.71338 87.44763 51.03394ZM85.05656 51.03394"/>
<use data-text="S" xlink:href="#font_2_97" transform="matrix(9.962799,0,0,-9.9626,84.74434,107.887)"/>
<use data-text="(" xlink:href="#font_3_1" transform="matrix(9.962799,0,0,-9.9626,90.283458,107.887)"/>
<use data-text="x" xlink:href="#font_1_3" transform="matrix(9.962799,0,0,-9.9626,94.15853,107.887)"/>
<use data-text="0" xlink:href="#font_4_1" transform="matrix(6.97394,0,0,-6.9738,99.85165,109.381008)"/>
<use data-text="," xlink:href="#font_1_1" transform="matrix(9.962799,0,0,-9.9626,104.32174,107.887)"/>
<use data-text="y" xlink:href="#font_1_4" transform="matrix(9.962799,0,0,-9.9626,108.73526,107.887)"/>
<use data-text="1" xlink:href="#font_4_2" transform="matrix(6.97394,0,0,-6.9738,113.63393,109.381008)"/>
<use data-text=")" xlink:href="#font_3_2" transform="matrix(9.962799,0,0,-9.9626,118.104007,107.887)"/>
<path transform="matrix(1.00002,0,0,-1,18.303009,147.929)" d="M155.4929 71.44772C155.4929 72.76828 154.42241 73.83879 153.10186 73.83879 151.7813 73.83879 150.7108 72.76828 150.7108 71.44772 150.7108 70.12718 151.7813 69.05667 153.10186 69.05667 154.42241 69.05667 155.4929 70.12718 155.4929 71.44772ZM153.10186 71.44772"/>
<use data-text="T" xlink:href="#font_2_104" transform="matrix(9.962799,0,0,-9.9626,174.92815,78.972)"/>
<use data-text="(" xlink:href="#font_3_1" transform="matrix(9.962799,0,0,-9.9626,182.12129,78.972)"/>
<use data-text="x" xlink:href="#font_1_3" transform="matrix(9.962799,0,0,-9.9626,185.99536,78.972)"/>
<use data-text="2" xlink:href="#font_4_3" transform="matrix(6.97394,0,0,-6.9738,191.68949,80.466)"/>
<use data-text="," xlink:href="#font_1_1" transform="matrix(9.962799,0,0,-9.9626,196.15958,78.972)"/>
<use data-text="y" xlink:href="#font_1_4" transform="matrix(9.962799,0,0,-9.9626,200.5731,78.972)"/>
<use data-text="0" xlink:href="#font_4_1" transform="matrix(6.97394,0,0,-6.9738,205.47177,80.466)"/>
<use data-text=")" xlink:href="#font_3_2" transform="matrix(9.962799,0,0,-9.9626,209.94086,78.972)"/>
<path transform="matrix(1.00002,0,0,-1,18.303009,147.929)" stroke-width=".79701" stroke-linecap="butt" stroke-miterlimit="10" stroke-linejoin="miter" fill="none" stroke="#000000" d="M34.02261 51.03394 153.10186 102.0679"/>
<use data-text="r" xlink:href="#font_1_2" transform="matrix(9.962799,0,0,-9.9626,65.347949,83.387)"/>
<use data-text="1" xlink:href="#font_4_2" transform="matrix(6.97394,0,0,-6.9738,69.84305,84.881008)"/>
<use data-text="r" xlink:href="#font_1_2" transform="matrix(9.962799,0,0,-9.9626,127.27519,56.174005)"/>
<use data-text="2" xlink:href="#font_4_3" transform="matrix(6.97394,0,0,-6.9738,131.7703,57.668008)"/>
<path transform="matrix(1.00002,0,0,-1,18.303009,147.929)" stroke-width=".3985" stroke-linecap="butt" stroke-dasharray=".3985,1.99255" stroke-miterlimit="10" stroke-linejoin="miter" fill="none" stroke="#000000" d="M34.02261 51.03394H85.05656"/>
<path transform="matrix(1.00002,0,0,-1,18.303009,147.929)" stroke-width=".3985" stroke-linecap="butt" stroke-dasharray=".3985,1.99255" stroke-miterlimit="10" stroke-linejoin="miter" fill="none" stroke="#000000" d="M85.05656 71.44772V51.03394"/>
<path transform="matrix(1.00002,0,0,-1,18.303009,147.929)" stroke-width=".3985" stroke-linecap="butt" stroke-dasharray=".3985,1.99255" stroke-miterlimit="10" stroke-linejoin="miter" fill="none" stroke="#000000" d="M85.05656 71.44772H153.10186"/>
<path transform="matrix(1.00002,0,0,-1,18.303009,147.929)" stroke-width=".3985" stroke-linecap="butt" stroke-dasharray=".3985,1.99255" stroke-miterlimit="10" stroke-linejoin="miter" fill="none" stroke="#000000" d="M153.10186 102.0679V71.44772"/>
<path transform="matrix(1.00002,0,0,-1,18.303009,147.929)" stroke-width=".3985" stroke-linecap="butt" stroke-dasharray="2.98883,2.98883" stroke-miterlimit="10" stroke-linejoin="miter" fill="none" stroke="#7f807f" d="M34.02261 51.03394 34.01608 0"/>
<use data-text="x" xlink:href="#font_1_3" transform="matrix(9.962799,0,0,-9.9626,47.237588,155.738)" fill="#7f807f"/>
<use data-text="1" xlink:href="#font_4_2" transform="matrix(6.97394,0,0,-6.9738,52.9317,157.23201)" fill="#7f807f"/>
<path transform="matrix(1.00002,0,0,-1,18.303009,147.929)" stroke-width=".3985" stroke-linecap="butt" stroke-dasharray="2.98883,2.98883" stroke-miterlimit="10" stroke-linejoin="miter" fill="none" stroke="#7f807f" d="M85.05656 71.44772 85.04019 0"/>
<use data-text="x" xlink:href="#font_1_3" transform="matrix(9.962799,0,0,-9.9626,98.26361,155.738)" fill="#7f807f"/>
<use data-text="0" xlink:href="#font_4_1" transform="matrix(6.97394,0,0,-6.9738,103.957729,157.23201)" fill="#7f807f"/>
<path transform="matrix(1.00002,0,0,-1,18.303009,147.929)" stroke-width=".3985" stroke-linecap="butt" stroke-dasharray="2.98883,2.98883" stroke-miterlimit="10" stroke-linejoin="miter" fill="none" stroke="#7f807f" d="M153.10186 102.0679 153.07236 0"/>
<use data-text="x" xlink:href="#font_1_3" transform="matrix(9.962799,0,0,-9.9626,166.29697,155.738)" fill="#7f807f"/>
<use data-text="2" xlink:href="#font_4_3" transform="matrix(6.97394,0,0,-6.9738,171.99109,157.23201)" fill="#7f807f"/>
<path transform="matrix(1.00002,0,0,-1,18.303009,147.929)" stroke-width=".3985" stroke-linecap="butt" stroke-dasharray="2.98883,2.98883" stroke-miterlimit="10" stroke-linejoin="miter" fill="none" stroke="#7f807f" d="M34.02261 51.03394 0 51.02411"/>
<use data-text="y" xlink:href="#font_1_4" transform="matrix(9.962799,0,0,-9.9626,5.428749,98.081)" fill="#7f807f"/>
<use data-text="1" xlink:href="#font_4_2" transform="matrix(6.97394,0,0,-6.9738,10.312851,99.575008)" fill="#7f807f"/>
<path transform="matrix(1.00002,0,0,-1,18.303009,147.929)" stroke-width=".3985" stroke-linecap="butt" stroke-dasharray="2.98883,2.98883" stroke-miterlimit="10" stroke-linejoin="miter" fill="none" stroke="#7f807f" d="M85.05656 71.44772 0 71.43396"/>
<use data-text="y" xlink:href="#font_1_4" transform="matrix(9.962799,0,0,-9.9626,5.428749,77.671)" fill="#7f807f"/>
<use data-text="0" xlink:href="#font_4_1" transform="matrix(6.97394,0,0,-6.9738,10.312851,79.165)" fill="#7f807f"/>
<path transform="matrix(1.00002,0,0,-1,18.303009,147.929)" stroke-width=".3985" stroke-linecap="butt" stroke-dasharray="2.98883,2.98883" stroke-miterlimit="10" stroke-linejoin="miter" fill="none" stroke="#7f807f" d="M153.10186 102.0679 0 102.04825"/>
<use data-text="y" xlink:href="#font_1_4" transform="matrix(9.962799,0,0,-9.9626,5.428749,47.057)" fill="#7f807f"/>
<use data-text="2" xlink:href="#font_4_3" transform="matrix(6.97394,0,0,-6.9738,10.312851,48.551004)" fill="#7f807f"/>
<use data-text="(" xlink:href="#font_3_1" transform="matrix(9.962799,0,0,-9.9626,17.104989,90.894)"/>
<use data-text="x" xlink:href="#font_1_3" transform="matrix(9.962799,0,0,-9.9626,20.979065,90.894)"/>
<use data-text="1" xlink:href="#font_4_2" transform="matrix(6.97394,0,0,-6.9738,26.67318,92.388)"/>
<use data-text="," xlink:href="#font_1_1" transform="matrix(9.962799,0,0,-9.9626,31.143273,90.894)"/>
<use data-text="y" xlink:href="#font_1_4" transform="matrix(9.962799,0,0,-9.9626,35.5568,90.894)"/>
<use data-text="1" xlink:href="#font_4_2" transform="matrix(6.97394,0,0,-6.9738,40.45546,92.388)"/>
<use data-text=")" xlink:href="#font_3_2" transform="matrix(9.962799,0,0,-9.9626,44.924539,90.894)"/>
<use data-text="(" xlink:href="#font_3_1" transform="matrix(9.962799,0,0,-9.9626,174.89815,39.870004)"/>
<use data-text="x" xlink:href="#font_1_3" transform="matrix(9.962799,0,0,-9.9626,178.77222,39.870004)"/>
<use data-text="2" xlink:href="#font_4_3" transform="matrix(6.97394,0,0,-6.9738,184.46634,41.364007)"/>
<use data-text="," xlink:href="#font_1_1" transform="matrix(9.962799,0,0,-9.9626,188.93643,39.870004)"/>
<use data-text="y" xlink:href="#font_1_4" transform="matrix(9.962799,0,0,-9.9626,193.34996,39.870004)"/>
<use data-text="2" xlink:href="#font_4_3" transform="matrix(6.97394,0,0,-6.9738,198.24863,41.364007)"/>
<use data-text=")" xlink:href="#font_3_2" transform="matrix(9.962799,0,0,-9.9626,202.7177,39.870004)"/>
<use data-text="(" xlink:href="#font_3_1" transform="matrix(9.962799,0,0,-9.9626,68.130008,70.485)"/>
<use data-text="x" xlink:href="#font_1_3" transform="matrix(9.962799,0,0,-9.9626,72.00409,70.485)"/>
<use data-text="0" xlink:href="#font_4_1" transform="matrix(6.97394,0,0,-6.9738,77.6982,71.979007)"/>
<use data-text="," xlink:href="#font_1_1" transform="matrix(9.962799,0,0,-9.9626,82.16829,70.485)"/>
<use data-text="y" xlink:href="#font_1_4" transform="matrix(9.962799,0,0,-9.9626,86.58182,70.485)"/>
<use data-text="0" xlink:href="#font_4_1" transform="matrix(6.97394,0,0,-6.9738,91.480487,71.979007)"/>
<use data-text=")" xlink:href="#font_3_2" transform="matrix(9.962799,0,0,-9.9626,95.949558,70.485)"/>
</svg>
