<svg xmlns="http://www.w3.org/2000/svg" xmlns:xlink="http://www.w3.org/1999/xlink" xmlns:inkscape="http://www.inkscape.org/namespaces/inkscape" version="1.1" width="226" height="183" viewBox="0 0 226 183">
<defs>
<path id="font_1_4" d="M.33399964 .30233766C.33999635 .32835389 .36299134 .42037965 .43299867 .42037965 .43798829 .42037965 .46199037 .42037965 .48298646 .40734864 .45498658 .402359 .43499757 .37734986 .43499757 .35334779 .43499757 .33735658 .44599916 .31835938 .47299195 .31835938 .49499513 .31835938 .5269928 .3363495 .5269928 .37635804 .5269928 .42837525 .46798707 .4423828 .43399049 .4423828 .37599183 .4423828 .34098817 .38935853 .32899476 .36634828 .3039856 .43237306 .25 .4423828 .22099304 .4423828 .116989139 .4423828 .05999756 .3133545 .05999756 .28834535 .05999756 .27833558 .069992069 .27833558 .07199097 .27833558 .07998657 .27833558 .08299255 .28033448 .084991458 .28933717 .11898804 .39535523 .18499756 .42037965 .21899414 .42037965 .23799134 .42037965 .272995 .4113617 .272995 .35334779 .272995 .32235719 .2559967 .25532533 .21899414 .11528015 .20298767 .053268434 .16799927 .011245728 .12399292 .011245728 .117996219 .011245728 .09498596 .011245728 .07398987 .024276734 .09899902 .029266358 .12098694 .05027771 .12098694 .07827759 .12098694 .105270389 .09899902 .11328125 .083999637 .11328125 .053985597 .11328125 .0289917 .08728027 .0289917 .055267335 .0289917 .009246826 .07899475-.0107421879 .12298584-.0107421879 .18899536-.0107421879 .22499085 .059280397 .22799683 .0652771 .23999024 .028274537 .27598573-.0107421879 .33599855-.0107421879 .43899537-.0107421879 .49598695 .118270877 .49598695 .14328003 .49598695 .1532898 .4869995 .1532898 .48399354 .1532898 .47499085 .1532898 .47299195 .14929199 .47099305 .14228821 .43798829 .03527832 .36999513 .011245728 .33799745 .011245728 .29899598 .011245728 .2829895 .043273927 .2829895 .07727051 .2829895 .09927368 .2889862 .121276859 .2999878 .16529846L.33399964 .30233766Z"/>
<path id="font_1_5" d="M.48599244 .38136292C.48999024 .39537049 .48999024 .39736939 .48999024 .40437318 .48999024 .42237855 .47599793 .43138124 .46099855 .43138124 .45098878 .43138124 .43499757 .42536927 .42599488 .41036988 .42399598 .405365 .41600038 .37435914 .4119873 .35635377 .40499879 .33035279 .397995 .30334474 .3919983 .27633668L.34700013 .09628296C.34298707 .08126831 .2999878 .011245728 .23399353 .011245728 .18299866 .011245728 .17199707 .055267335 .17199707 .0922699 .17199707 .1382904 .18899536 .20030213 .22299195 .28833009 .23899842 .3293457 .24299622 .3403473 .24299622 .36035157 .24299622 .405365 .21099854 .4423828 .16099549 .4423828 .06599426 .4423828 .0289917 .29733277 .0289917 .28833009 .0289917 .27833558 .038986207 .27833558 .040985109 .27833558 .050994874 .27833558 .051986696 .28033448 .056991579 .29634095 .083999637 .3903656 .12399292 .42037965 .1579895 .42037965 .1659851 .42037965 .18299866 .42037965 .18299866 .3883667 .18299866 .36335755 .17298889 .3373413 .1659851 .31834413 .12599182 .21231079 .10798645 .1552887 .10798645 .10827637 .10798645 .019256592 .17098999-.0107421879 .22999573-.0107421879 .2689972-.0107421879 .30299378 .0062561037 .33099366 .03425598 .31799317-.017745972 .30599977-.06674194 .2659912-.11973572 .23999024-.15385437 .20199585-.18309021 .1559906-.18309021 .14199829-.18309021 .09700012-.18005371 .07998657-.14074707 .09599304-.14074707 .10899353-.14074707 .12298584-.1287384 .1329956-.11973572 .14299011-.10673523 .14299011-.08773804 .14299011-.056747438 .115997318-.052734376 .10598755-.052734376 .08299255-.052734376 .049987794-.068740848 .049987794-.11773682 .049987794-.16796875 .09399414-.20507813 .1559906-.20507813 .25898744-.20507813 .3619995-.11373901 .3899994-.00074768069L.48599244 .38136292Z"/>
<path id="font_1_3" d="M.2579956 .68333438C.2579956 .6843262 .2579956 .69433596 .24499512 .69433596 .22200012 .69433596 .14898682 .6863251 .12298584 .6843262 .114990238 .68333438 .10398865 .6823273 .10398865 .6633301 .10398865 .6523285 .11399841 .6523285 .1289978 .6523285 .1769867 .6523285 .17799378 .6433258 .17799378 .6353302L.1749878 .6153259 .04899597 .11526489C.04598999 .104263309 .04399109 .09725952 .04399109 .08125305 .04399109 .024246216 .08799744-.0107421879 .1349945-.0107421879 .16799927-.0107421879 .19299317 .009246826 .20999146 .04525757 .22799683 .08325195 .23999024 .14126587 .23999024 .14326477 .23999024 .15327454 .23098755 .15327454 .22799683 .15327454 .21798706 .15327454 .21699524 .14926148 .21398926 .13526917 .19699097 .070251468 .17799378 .011245728 .13798523 .011245728 .10798645 .011245728 .10798645 .043258668 .10798645 .057250978 .10798645 .08125305 .10899353 .086257938 .11399841 .10525513L.2579956 .68333438Z"/>
<path id="font_2_83" d="M.6239929 .4967041C.6239929 .59465029 .5249939 .6826172 .3880005 .6826172H.034988405V.6516113H.05899048C.13598633 .6516113 .13798523 .64060977 .13798523 .6046295V.07795715C.13798523 .041992189 .13598633 .0309906 .05899048 .0309906H.034988405V0C.069992069 .0029907227 .14399719 .0029907227 .18199158 .0029907227 .21998596 .0029907227 .29499818 .0029907227 .32998658 0V.0309906H.30599977C.22898865 .0309906 .22698975 .041992189 .22698975 .07795715V.3157959H.3959961C.5159912 .3157959 .6239929 .39675904 .6239929 .4967041M.5209961 .4967041C.5209961 .4497223 .5209961 .34179688 .3619995 .34179688H.22399903V.6116333C.22399903 .64460757 .22599793 .6516113 .272995 .6516113H.3619995C.5209961 .6516113 .5209961 .54566958 .5209961 .4967041Z"/>
<path id="font_3_1" d="M.33499146 .63612368C.33499146 .6630554 .33299256 .6640625 .30499269 .6640625 .24099732 .6014404 .1499939 .6004486 .10899353 .6004486V.5644531C.1329956 .5644531 .19898987 .5644531 .2539978 .592453V.08203125C.2539978 .04899597 .2539978 .035995485 .1539917 .035995485H.115997318V0C.13398743 .0009918213 .25698854 .0039978029 .2939911 .0039978029 .32499696 .0039978029 .45098878 .0009918213 .47299195 0V.035995485H.43499757C.33499146 .035995485 .33499146 .04899597 .33499146 .08203125V.63612368Z"/>
<path id="font_4_2" d="M.33099366-.2400055C.33099366-.23701477 .33099366-.23500061 .31399537-.21800232 .18899536-.0920105 .15699768 .09700012 .15699768 .25 .15699768 .42399598 .19499207 .59799197 .31799317 .72299197 .33099366 .73498538 .33099366 .7369995 .33099366 .73999026 .33099366 .746994 .32699586 .75 .32099916 .75 .31098939 .75 .22099304 .6819916 .1619873 .5549927 .11099243 .44499208 .09899902 .33399964 .09899902 .25 .09899902 .17199707 .10998535 .050994874 .16499329-.06201172 .22499085-.18501282 .31098939-.25 .32099916-.25 .32699586-.25 .33099366-.24700928 .33099366-.2400055Z"/>
<path id="font_1_2" d="M.20298767 .0009918213C.20298767 .066986087 .17799378 .10598755 .13899231 .10598755 .10598755 .10598755 .085998538 .08099365 .085998538 .052993776 .085998538 .025985718 .10598755 0 .13899231 0 .15098572 0 .1639862 .0039978029 .17399597 .0129852299 .1769867 .01499939 .17799378 .015991211 .1789856 .015991211 .17999268 .015991211 .18099976 .01499939 .18099976 .0009918213 .18099976-.07316589 .1459961-.13328552 .11299133-.16635132 .101989749-.17736817 .101989749-.17936707 .101989749-.18237305 .101989749-.18936157 .10699463-.19335938 .11199951-.19335938 .12298584-.19335938 .20298767-.116256717 .20298767 .0009918213Z"/>
<path id="font_4_3" d="M.2889862 .25C.2889862 .32798768 .27799989 .44898988 .22299195 .56199648 .16299439 .68499758 .07699585 .75 .066986087 .75 .06098938 .75 .056991579 .74598696 .056991579 .73999026 .056991579 .7369995 .056991579 .73498538 .07598877 .71699526 .17399597 .6179962 .23098755 .45899964 .23098755 .25 .23098755 .07899475 .19400025-.09700012 .069992069-.2230072 .056991579-.23500061 .056991579-.23701477 .056991579-.2400055 .056991579-.2460022 .06098938-.25 .066986087-.25 .07699585-.25 .16699219-.18200684 .22599793-.055007936 .2769928 .054992677 .2889862 .16600037 .2889862 .25Z"/>
<path id="font_3_2" d="M.5049896 .18203736H.47099305C.46798707 .16001892 .45799256 .100997928 .44499208 .09098816 .43699647 .084991458 .3600006 .084991458 .34599305 .084991458H.1619873C.2669983 .17803955 .3019867 .20603943 .3619995 .25306703 .43598939 .312088 .5049896 .374115 .5049896 .46914674 .5049896 .5900879 .39898683 .6640625 .2709961 .6640625 .14698792 .6640625 .06298828 .57710269 .06298828 .4851532 .06298828 .43414308 .10598755 .42915345 .115997318 .42915345 .13999939 .42915345 .16899109 .44615174 .16899109 .48214723 .16899109 .5001526 .1619873 .53515627 .10998535 .53515627 .14099121 .6060791 .20899964 .62805178 .2559967 .62805178 .35598756 .62805178 .4079895 .5501404 .4079895 .46914674 .4079895 .38212586 .34599305 .3130951 .31399537 .27708436L.07299805 .038986207C.06298828 .02999878 .06298828 .027999878 .06298828 0H.47499085L.5049896 .18203736Z"/>
<path id="font_4_1" d="M.44198609 .69781497C.43499757 .7108154 .43299867 .7158203 .41600038 .7158203 .39898683 .7158203 .39698792 .7108154 .3899994 .69781497L.051986696 .019989014C.04699707 .010986328 .04699707 .008987427 .04699707 .0079956059 .04699707 0 .052993776 0 .068984989 0H.7630005C.7789917 0 .7849884 0 .7849884 .0079956059 .7849884 .008987427 .7849884 .010986328 .7799988 .019989014L.44198609 .69781497M.38398744 .61582949 .6529999 .07598877H.11399841L.38398744 .61582949Z"/>
<path id="font_4_4" d="M.68699648 .32714845C.70199587 .32714845 .72099307 .32714845 .72099307 .34713746 .72099307 .36714173 .70199587 .36714173 .6879883 .36714173H.08898926C.07499695 .36714173 .055999757 .36714173 .055999757 .34713746 .055999757 .32714845 .07499695 .32714845 .08999634 .32714845H.68699648M.6879883 .13284302C.70199587 .13284302 .72099307 .13284302 .72099307 .15284729 .72099307 .17285156 .70199587 .17285156 .68699648 .17285156H.08999634C.07499695 .17285156 .055999757 .17285156 .055999757 .15284729 .055999757 .13284302 .07499695 .13284302 .08898926 .13284302H.6879883Z"/>
<path id="font_5_1" d="M.6589966 .23046875C.6759949 .23046875 .69400027 .23046875 .69400027 .25045777 .69400027 .27046205 .6759949 .27046205 .6589966 .27046205H.117996219C.100997928 .27046205 .08299255 .27046205 .08299255 .25045777 .08299255 .23046875 .100997928 .23046875 .117996219 .23046875H.6589966Z"/>
<path id="font_1_1" d="M.45498658 .5001831C.45498658 .56614688 .43699647 .7050781 .33499146 .7050781 .19599915 .7050781 .041992189 .42323304 .041992189 .19425965 .041992189 .100250247 .070999149-.0107421879 .1619873-.0107421879 .30299378-.0107421879 .45498658 .27627564 .45498658 .5001831M.147995 .36328126C.16499329 .42723084 .18499756 .5071869 .22499085 .57814028 .2519989 .6271057 .2889862 .68307498 .33399964 .68307498 .3829956 .68307498 .3889923 .6191101 .3889923 .56214907 .3889923 .5131836 .3809967 .46220399 .35699464 .36328126H.147995M.34799195 .3312683C.33699037 .28527833 .31599427 .2002716 .27799989 .12826538 .24299622 .060256959 .20498657 .011245728 .1619873 .011245728 .1289978 .011245728 .10798645 .040252687 .10798645 .133255 .10798645 .17526245 .11399841 .23326111 .13999939 .3312683H.34799195Z"/>
</defs>
<path transform="matrix(1.00002,0,0,-1.00005,35.311349,147.93575)" stroke-width=".79701" stroke-linecap="butt" stroke-miterlimit="10" stroke-linejoin="miter" fill="none" stroke="#000000" d="M-34.01608 0H169.37305"/>
<path transform="matrix(1.00002,0,0,-1.00005,204.68778,147.93575)" stroke-width=".6376" stroke-linecap="round" stroke-linejoin="round" fill="none" stroke="#000000" d="M-1.55415 2.0722C-1.42464 1.29512 0 .1295 .38852 0 0-.1295-1.42464-1.29512-1.55415-2.0722"/>
<use data-text="x" xlink:href="#font_1_4" transform="matrix(9.962799,0,0,-9.963098,209.11383,150.08086)"/>
<path transform="matrix(1.00002,0,0,-1.00005,35.311349,147.93575)" stroke-width=".79701" stroke-linecap="butt" stroke-miterlimit="10" stroke-linejoin="miter" fill="none" stroke="#000000" d="M0-34.01608V135.35697"/>
<path transform="matrix(0,-1.00005,-1.00002,-0,35.311349,12.5720219)" stroke-width=".6376" stroke-linecap="round" stroke-linejoin="round" fill="none" stroke="#000000" d="M-1.55415 2.0722C-1.42464 1.29512 0 .1295 .38852 0 0-.1295-1.42464-1.29512-1.55415-2.0722"/>
<use data-text="y" xlink:href="#font_1_5" transform="matrix(9.962799,0,0,-9.963098,32.690294,6.207672)"/>
<path transform="matrix(1.00002,0,0,-1.00005,35.311349,147.93575)" stroke-width=".79701" stroke-linecap="butt" stroke-miterlimit="10" stroke-linejoin="miter" fill="none" stroke="#000000" d="M0-17.01126 153.10186 82.50497"/>
<use data-text="l" xlink:href="#font_1_3" transform="matrix(9.962799,0,0,-9.963098,192.1355,61.707445)"/>
<path transform="matrix(1.00002,0,0,-1.00005,35.311349,147.93575)" d="M53.42499 16.1609C53.42499 17.48145 52.35448 18.55196 51.03394 18.55196 49.71338 18.55196 48.64287 17.48145 48.64287 16.1609 48.64287 14.84035 49.71338 13.76984 51.03394 13.76984 52.35448 13.76984 53.42499 14.84035 53.42499 16.1609ZM51.03394 16.1609"/>
<use data-text="P" xlink:href="#font_2_83" transform="matrix(9.962799,0,0,-9.963098,39.87744,125.76364)"/>
<use data-text="1" xlink:href="#font_3_1" transform="matrix(6.97394,0,0,-6.9741489,46.661577,127.25871)"/>
<use data-text="(" xlink:href="#font_4_2" transform="matrix(9.962799,0,0,-9.963098,51.13166,125.76364)"/>
<use data-text="x" xlink:href="#font_1_4" transform="matrix(9.962799,0,0,-9.963098,55.00573,125.76364)"/>
<use data-text="1" xlink:href="#font_3_1" transform="matrix(6.97394,0,0,-6.9741489,60.699838,127.25871)"/>
<use data-text="," xlink:href="#font_1_2" transform="matrix(9.962799,0,0,-9.963098,65.16892,125.76364)"/>
<use data-text="y" xlink:href="#font_1_5" transform="matrix(9.962799,0,0,-9.963098,69.58245,125.76364)"/>
<use data-text="1" xlink:href="#font_3_1" transform="matrix(6.97394,0,0,-6.9741489,74.48211,127.25871)"/>
<use data-text=")" xlink:href="#font_4_3" transform="matrix(9.962799,0,0,-9.963098,78.951198,125.76364)"/>
<path transform="matrix(1.00002,0,0,-1.00005,35.311349,147.93575)" d="M121.47026 60.38992C121.47026 61.71048 120.39975 62.78099 119.07921 62.78099 117.75865 62.78099 116.68814 61.71048 116.68814 60.38992 116.68814 59.06938 117.75865 57.99887 119.07921 57.99887 120.39975 57.99887 121.47026 59.06938 121.47026 60.38992ZM119.07921 60.38992"/>
<use data-text="P" xlink:href="#font_2_83" transform="matrix(9.962799,0,0,-9.963098,107.923809,81.532428)"/>
<use data-text="2" xlink:href="#font_3_2" transform="matrix(6.97394,0,0,-6.9741489,114.70794,83.0275)"/>
<use data-text="(" xlink:href="#font_4_2" transform="matrix(9.962799,0,0,-9.963098,119.178028,81.532428)"/>
<use data-text="x" xlink:href="#font_1_4" transform="matrix(9.962799,0,0,-9.963098,123.05209,81.532428)"/>
<use data-text="2" xlink:href="#font_3_2" transform="matrix(6.97394,0,0,-6.9741489,128.7462,83.0275)"/>
<use data-text="," xlink:href="#font_1_2" transform="matrix(9.962799,0,0,-9.963098,133.21529,81.532428)"/>
<use data-text="y" xlink:href="#font_1_5" transform="matrix(9.962799,0,0,-9.963098,137.62882,81.532428)"/>
<use data-text="2" xlink:href="#font_3_2" transform="matrix(6.97394,0,0,-6.9741489,142.52848,83.0275)"/>
<use data-text=")" xlink:href="#font_4_3" transform="matrix(9.962799,0,0,-9.963098,146.99756,81.532428)"/>
<path transform="matrix(1.00002,0,0,-1.00005,35.311349,147.93575)" stroke-width=".3985" stroke-linecap="butt" stroke-dasharray="2.98883,1.99255,.3985,1.99255" stroke-miterlimit="10" stroke-linejoin="miter" fill="none" stroke="#7f807f" d="M51.03394 16.1609V0"/>
<use data-text="x" xlink:href="#font_1_4" transform="matrix(9.962799,0,0,-9.963098,81.26427,155.74514)" fill="#7f807f"/>
<use data-text="1" xlink:href="#font_3_1" transform="matrix(6.97394,0,0,-6.9741489,86.95838,157.2402)" fill="#7f807f"/>
<path transform="matrix(1.00002,0,0,-1.00005,35.311349,147.93575)" stroke-width=".3985" stroke-linecap="butt" stroke-dasharray="2.98883,1.99255,.3985,1.99255" stroke-miterlimit="10" stroke-linejoin="miter" fill="none" stroke="#7f807f" d="M119.07921 60.38992V0"/>
<use data-text="x" xlink:href="#font_1_4" transform="matrix(9.962799,0,0,-9.963098,149.31163,155.74514)" fill="#7f807f"/>
<use data-text="2" xlink:href="#font_3_2" transform="matrix(6.97394,0,0,-6.9741489,155.00574,157.2402)" fill="#7f807f"/>
<path transform="matrix(1.00002,0,0,-1.00005,35.311349,147.93575)" stroke-width=".3985" stroke-linecap="butt" stroke-dasharray="2.98883,1.99255,.3985,1.99255" stroke-miterlimit="10" stroke-linejoin="miter" fill="none" stroke="#7f807f" d="M51.03394 16.1609 0 16.1578"/>
<use data-text="y" xlink:href="#font_1_5" transform="matrix(9.962799,0,0,-9.963098,22.437088,132.953)" fill="#7f807f"/>
<use data-text="1" xlink:href="#font_3_1" transform="matrix(6.97394,0,0,-6.9741489,27.32119,134.44808)" fill="#7f807f"/>
<path transform="matrix(1.00002,0,0,-1.00005,35.311349,147.93575)" stroke-width=".3985" stroke-linecap="butt" stroke-dasharray="2.98883,1.99255,.3985,1.99255" stroke-miterlimit="10" stroke-linejoin="miter" fill="none" stroke="#7f807f" d="M119.07921 60.38992 0 60.37831"/>
<use data-text="y" xlink:href="#font_1_5" transform="matrix(9.962799,0,0,-9.963098,22.437088,88.73079)" fill="#7f807f"/>
<use data-text="2" xlink:href="#font_3_2" transform="matrix(6.97394,0,0,-6.9741489,27.32119,90.22586)" fill="#7f807f"/>
<path transform="matrix(1.00002,0,0,-1.00005,35.311349,147.93575)" stroke-width=".3985" stroke-linecap="butt" stroke-dasharray=".3985,1.99255" stroke-miterlimit="10" stroke-linejoin="miter" fill="none" stroke="#000000" d="M51.03394 16.1609H119.07921"/>
<path transform="matrix(1.00002,0,0,-1.00005,35.311349,147.93575)" stroke-width=".3985" stroke-linecap="butt" stroke-dasharray=".3985,1.99255" stroke-miterlimit="10" stroke-linejoin="miter" fill="none" stroke="#000000" d="M119.07921 16.1609V60.38992"/>
<path transform="matrix(1.00002,0,0,-1.00005,35.311349,147.93575)" stroke-width=".3985" stroke-linecap="butt" stroke-miterlimit="10" stroke-linejoin="miter" fill="none" stroke="#000000" d="M108.85136 16.1578V26.36223H119.05627"/>
<path transform="matrix(1.00002,0,0,-1.00005,35.311349,147.93575)" stroke-width=".3985" stroke-linecap="butt" stroke-miterlimit="10" stroke-linejoin="miter" fill="none" stroke="#0000ff" d="M51.02411 13.6062H119.05627"/>
<use data-text="&#x2206;" xlink:href="#font_4_1" transform="matrix(9.962799,0,0,-9.963098,90.46146,144.65659)" fill="#0000ff"/>
<use data-text="x" xlink:href="#font_1_4" transform="matrix(9.962799,0,0,-9.963098,98.763629,144.65659)" fill="#0000ff"/>
<use data-text="=" xlink:href="#font_4_4" transform="matrix(9.962799,0,0,-9.963098,107.22479,144.65659)" fill="#0000ff"/>
<use data-text="x" xlink:href="#font_1_4" transform="matrix(9.962799,0,0,-9.963098,117.74101,144.65659)" fill="#0000ff"/>
<use data-text="2" xlink:href="#font_3_2" transform="matrix(6.97394,0,0,-6.9741489,123.43512,146.15166)" fill="#0000ff"/>
<use data-text="&#x2212;" xlink:href="#font_5_1" transform="matrix(9.962799,0,0,-9.963098,130.11927,144.65659)" fill="#0000ff"/>
<use data-text="x" xlink:href="#font_1_4" transform="matrix(9.962799,0,0,-9.963098,140.08147,144.65659)" fill="#0000ff"/>
<use data-text="1" xlink:href="#font_3_1" transform="matrix(6.97394,0,0,-6.9741489,145.77559,146.15166)" fill="#0000ff"/>
<path transform="matrix(1.00002,0,0,-1.00005,35.311349,147.93575)" stroke-width=".3985" stroke-linecap="butt" stroke-miterlimit="10" stroke-linejoin="miter" fill="none" stroke="#0000ff" d="M129.2612 16.1578V60.37831"/>
<use data-text="&#x2206;" xlink:href="#font_4_1" transform="matrix(9.962799,0,0,-9.963098,168.095,112.10095)" fill="#0000ff"/>
<use data-text="y" xlink:href="#font_1_5" transform="matrix(9.962799,0,0,-9.963098,176.39719,112.10095)" fill="#0000ff"/>
<use data-text="=" xlink:href="#font_4_4" transform="matrix(9.962799,0,0,-9.963098,184.40633,112.10095)" fill="#0000ff"/>
<use data-text="y" xlink:href="#font_1_5" transform="matrix(9.962799,0,0,-9.963098,194.92255,112.10095)" fill="#0000ff"/>
<use data-text="2" xlink:href="#font_3_2" transform="matrix(6.97394,0,0,-6.9741489,199.80765,113.59602)" fill="#0000ff"/>
<use data-text="&#x2212;" xlink:href="#font_5_1" transform="matrix(9.962799,0,0,-9.963098,206.49077,112.10095)" fill="#0000ff"/>
<use data-text="y" xlink:href="#font_1_5" transform="matrix(9.962799,0,0,-9.963098,216.45397,112.10095)" fill="#0000ff"/>
<use data-text="1" xlink:href="#font_3_1" transform="matrix(6.97394,0,0,-6.9741489,221.33808,113.59602)" fill="#0000ff"/>
<path transform="matrix(1.00002,0,0,-1.00005,35.311349,147.93575)" stroke-width=".79701" stroke-linecap="butt" stroke-miterlimit="10" stroke-linejoin="miter" fill="none" stroke="#000000" d="M34.01608 0C34.01608 1.82364 33.72148 3.63786 33.1459 5.3682"/>
<use data-text="&#x03b8;" xlink:href="#font_1_1" transform="matrix(9.962799,0,0,-9.963098,77.05618,146.29267)"/>
</svg>
