<svg xmlns="http://www.w3.org/2000/svg" xmlns:xlink="http://www.w3.org/1999/xlink" xmlns:inkscape="http://www.inkscape.org/namespaces/inkscape" version="1.1" width="267" height="363" viewBox="0 0 267 363">
<defs>
<path id="font_1_1" d="M.33399964 .30233766C.33999635 .32835389 .36299134 .42037965 .43299867 .42037965 .43798829 .42037965 .46199037 .42037965 .48298646 .40734864 .45498658 .402359 .43499757 .37734986 .43499757 .35334779 .43499757 .33735658 .44599916 .31835938 .47299195 .31835938 .49499513 .31835938 .5269928 .3363495 .5269928 .37635804 .5269928 .42837525 .46798707 .4423828 .43399049 .4423828 .37599183 .4423828 .34098817 .38935853 .32899476 .36634828 .3039856 .43237306 .25 .4423828 .22099304 .4423828 .116989139 .4423828 .05999756 .3133545 .05999756 .28834535 .05999756 .27833558 .069992069 .27833558 .07199097 .27833558 .07998657 .27833558 .08299255 .28033448 .084991458 .28933717 .11898804 .39535523 .18499756 .42037965 .21899414 .42037965 .23799134 .42037965 .272995 .4113617 .272995 .35334779 .272995 .32235719 .2559967 .25532533 .21899414 .11528015 .20298767 .053268434 .16799927 .011245728 .12399292 .011245728 .117996219 .011245728 .09498596 .011245728 .07398987 .024276734 .09899902 .029266358 .12098694 .05027771 .12098694 .07827759 .12098694 .105270389 .09899902 .11328125 .083999637 .11328125 .053985597 .11328125 .0289917 .08728027 .0289917 .055267335 .0289917 .009246826 .07899475-.0107421879 .12298584-.0107421879 .18899536-.0107421879 .22499085 .059280397 .22799683 .0652771 .23999024 .028274537 .27598573-.0107421879 .33599855-.0107421879 .43899537-.0107421879 .49598695 .118270877 .49598695 .14328003 .49598695 .1532898 .4869995 .1532898 .48399354 .1532898 .47499085 .1532898 .47299195 .14929199 .47099305 .14228821 .43798829 .03527832 .36999513 .011245728 .33799745 .011245728 .29899598 .011245728 .2829895 .043273927 .2829895 .07727051 .2829895 .09927368 .2889862 .121276859 .2999878 .16529846L.33399964 .30233766Z"/>
<path id="font_1_2" d="M.48599244 .38136292C.48999024 .39537049 .48999024 .39736939 .48999024 .40437318 .48999024 .42237855 .47599793 .43138124 .46099855 .43138124 .45098878 .43138124 .43499757 .42536927 .42599488 .41036988 .42399598 .405365 .41600038 .37435914 .4119873 .35635377 .40499879 .33035279 .397995 .30334474 .3919983 .27633668L.34700013 .09628296C.34298707 .08126831 .2999878 .011245728 .23399353 .011245728 .18299866 .011245728 .17199707 .055267335 .17199707 .0922699 .17199707 .1382904 .18899536 .20030213 .22299195 .28833009 .23899842 .3293457 .24299622 .3403473 .24299622 .36035157 .24299622 .405365 .21099854 .4423828 .16099549 .4423828 .06599426 .4423828 .0289917 .29733277 .0289917 .28833009 .0289917 .27833558 .038986207 .27833558 .040985109 .27833558 .050994874 .27833558 .051986696 .28033448 .056991579 .29634095 .083999637 .3903656 .12399292 .42037965 .1579895 .42037965 .1659851 .42037965 .18299866 .42037965 .18299866 .3883667 .18299866 .36335755 .17298889 .3373413 .1659851 .31834413 .12599182 .21231079 .10798645 .1552887 .10798645 .10827637 .10798645 .019256592 .17098999-.0107421879 .22999573-.0107421879 .2689972-.0107421879 .30299378 .0062561037 .33099366 .03425598 .31799317-.017745972 .30599977-.06674194 .2659912-.11973572 .23999024-.15385437 .20199585-.18309021 .1559906-.18309021 .14199829-.18309021 .09700012-.18005371 .07998657-.14074707 .09599304-.14074707 .10899353-.14074707 .12298584-.1287384 .1329956-.11973572 .14299011-.10673523 .14299011-.08773804 .14299011-.056747438 .115997318-.052734376 .10598755-.052734376 .08299255-.052734376 .049987794-.068740848 .049987794-.11773682 .049987794-.16796875 .09399414-.20507813 .1559906-.20507813 .25898744-.20507813 .3619995-.11373901 .3899994-.00074768069L.48599244 .38136292Z"/>
<path id="font_2_6" d="M.68699648 .32714845C.70199587 .32714845 .72099307 .32714845 .72099307 .34713746 .72099307 .36714173 .70199587 .36714173 .6879883 .36714173H.08898926C.07499695 .36714173 .055999757 .36714173 .055999757 .34713746 .055999757 .32714845 .07499695 .32714845 .08999634 .32714845H.68699648M.6879883 .13284302C.70199587 .13284302 .72099307 .13284302 .72099307 .15284729 .72099307 .17285156 .70199587 .17285156 .68699648 .17285156H.08999634C.07499695 .17285156 .055999757 .17285156 .055999757 .15284729 .055999757 .13284302 .07499695 .13284302 .08898926 .13284302H.6879883Z"/>
<path id="font_2_3" d="M.2939911 .64004519C.2939911 .66400149 .2939911 .6660156 .2709961 .6660156 .20899964 .60227969 .12098694 .60227969 .08898926 .60227969V.57128909C.10899353 .57128909 .16799927 .57128909 .21998596 .5972748V.07902527C.21998596 .042999269 .21699524 .0309906 .1269989 .0309906H.09498596V0C.12998963 .0029907227 .21699524 .0029907227 .25698854 .0029907227 .29699708 .0029907227 .38398744 .0029907227 .4189911 0V.0309906H.3869934C.29699708 .0309906 .2939911 .041992189 .2939911 .07902527V.64004519Z"/>
<path id="font_2_4" d="M.1269989 .07699585 .23298645 .18003845C.3889923 .31811524 .44898988 .3721466 .44898988 .47216798 .44898988 .5860901 .35899354 .6660156 .23699951 .6660156 .12399292 .6660156 .049987794 .57411196 .049987794 .48516847 .049987794 .4291687 .099990848 .4291687 .102996829 .4291687 .11999512 .4291687 .15499878 .44117738 .15499878 .48217774 .15499878 .5081787 .13699341 .5341797 .101989749 .5341797 .09399414 .5341797 .09199524 .5341797 .08898926 .5331726 .11199951 .59806826 .1659851 .63500979 .22399903 .63500979 .31498719 .63500979 .35798646 .5541382 .35798646 .47216798 .35798646 .39215089 .30799867 .31311036 .25299073 .25108338L.06098938 .036987306C.049987794 .025985718 .049987794 .023986817 .049987794 0H.42099L.44898988 .17404175H.42399598C.4189911 .14402771 .4119873 .1000061 .4019928 .084991458 .394989 .07699585 .32899476 .07699585 .30699159 .07699585H.1269989Z"/>
<path id="font_2_2" d="M.45999146 .31976319C.45999146 .39982606 .45498658 .47988893 .41999818 .5539398 .37399293 .65000918 .2919922 .6660156 .25 .6660156 .18998719 .6660156 .116989139 .64001467 .07598877 .54693606 .04399109 .47789 .038986207 .39982606 .038986207 .31976319 .038986207 .24472046 .042999269 .15464783 .083999637 .07859802 .1269989-.0024719239 .19999695-.022460938 .24899292-.022460938 .30299378-.022460938 .3789978-.0014648438 .4229889 .09359741 .45498658 .16265869 .45999146 .2407074 .45999146 .31976319M.24899292-.00047302247C.20999146-.00047302247 .15098572 .024551392 .1329956 .12062073 .12199402 .18066406 .12199402 .2727356 .12199402 .3317871 .12199402 .39582826 .12199402 .46188355 .12998963 .5159149 .14898682 .63500979 .22399903 .64401248 .24899292 .64401248 .28199769 .64401248 .34799195 .6259918 .36698915 .52693179 .3769989 .47088624 .3769989 .39482118 .3769989 .3317871 .3769989 .25672914 .3769989 .18867493 .3659973 .12461853 .35099793 .029556275 .2939911-.00047302247 .24899292-.00047302247Z"/>
<path id="font_3_80" d="M.72099307 .3387909C.72099307 .5429535 .56999209 .7050781 .3880005 .7050781 .20899964 .7050781 .055999757 .5449524 .055999757 .3387909 .055999757 .13363648 .20999146-.022460938 .3880005-.022460938 .56999209-.022460938 .72099307 .13664246 .72099307 .3387909M.6179962 .35281373C.6179962 .08760071 .48098756 .0035247803 .3889923 .0035247803 .29299928 .0035247803 .15899658 .09159851 .15899658 .35281373 .15899658 .6120148 .30499269 .68006899 .3880005 .68006899 .47499085 .68006899 .6179962 .6090088 .6179962 .35281373Z"/>
<path id="font_2_5" d="M.2899933 .35191346C.37199403 .37893678 .42999269 .4490509 .42999269 .52809146 .42999269 .6100464 .34199525 .6660156 .24598694 .6660156 .14498902 .6660156 .068984989 .60606387 .068984989 .53009036 .068984989 .49710084 .09098816 .47808839 .11999512 .47808839 .15098572 .47808839 .17098999 .50009158 .17098999 .5290985 .17098999 .57910159 .12399292 .57910159 .10899353 .57910159 .13999939 .62802127 .20599365 .64100649 .24198914 .64100649 .2829895 .64100649 .33799745 .6190338 .33799745 .5290985 .33799745 .51708987 .33599855 .45906068 .30999757 .4149933 .27999879 .36691285 .24598694 .36390687 .22099304 .36291505 .21299744 .36190797 .18899536 .35990907 .18199158 .35990907 .17399597 .35890199 .16699219 .35791017 .16699219 .3479004 .16699219 .33691407 .17399597 .33691407 .19099427 .33691407H.23498535C.31698609 .33691407 .35398866 .2686615 .35398866 .17037964 .35398866 .034469606 .2849884 .0055389406 .24099732 .0055389406 .19799805 .0055389406 .12298584 .022491456 .08799744 .08137512 .12298584 .07637024 .1539917 .09837341 .1539917 .1363678 .1539917 .17237854 .1269989 .19238281 .09799194 .19238281 .07398987 .19238281 .041992189 .17837525 .041992189 .1343689 .041992189 .043441774 .1349945-.022460938 .24398804-.022460938 .3659973-.022460938 .45700074 .06838989 .45700074 .17037964 .45700074 .252594 .3939972 .33088685 .2899933 .35191346Z"/>
<path id="font_4_1" d="M.24899292 .10601807C.23899842 .072021488 .20599365 .018234253 .15499878 .018234253 .1519928 .018234253 .12199402 .018234253 .100997928 .03215027 .14199829 .04508972 .14498902 .08100891 .14498902 .087020877 .14498902 .10900879 .12799073 .12402344 .10499573 .12402344 .07699585 .12402344 .04798889 .10002136 .04798889 .0630188 .04798889 .01322937 .10398865-.009765625 .15299988-.009765625 .19898987-.009765625 .23999024 .019226075 .2649994 .061019899 .2889862 .008224487 .34399415-.009765625 .38398744-.009765625 .49899293-.009765625 .55999758 .11502075 .55999758 .14305115 .55999758 .15608216 .5469971 .15608216 .5439911 .15608216 .5299988 .15608216 .5289917 .15107727 .5249939 .13905335 .5039978 .07002258 .44400025 .018234253 .3880005 .018234253 .34799195 .018234253 .32699586 .04508972 .32699586 .08302307 .32699586 .10900879 .35099793 .20018006 .3789978 .31140138 .39898683 .38841249 .44400025 .4133911 .47698976 .4133911 .47898866 .4133911 .5099945 .4133911 .5309906 .39941407 .49899293 .39041139 .4869995 .3624115 .4869995 .34440614 .4869995 .32240296 .5039978 .30740357 .5269928 .30740357 .5499878 .30740357 .58299258 .32640077 .58299258 .3684082 .58299258 .4243927 .5189972 .44140626 .47898866 .44140626 .42900086 .44140626 .3889923 .4084015 .36698915 .3704071 .34899903 .4113922 .30299378 .44140626 .24699402 .44140626 .1349945 .44140626 .070999149 .31840516 .070999149 .2883606 .070999149 .27534486 .084991458 .27534486 .08799744 .27534486 .100997928 .27534486 .101989749 .27934266 .10699463 .29237367 .13198853 .3704071 .19499207 .4133911 .24398804 .4133911 .2769928 .4133911 .3039856 .395401 .3039856 .3474121 .3039856 .32740785 .2919922 .27734376 .2829895 .24327088L.24899292 .10601807Z"/>
<path id="font_2_1" d="M.40899659 .23046875H.6879883C.70199587 .23046875 .72099307 .23046875 .72099307 .25045777 .72099307 .27046205 .70199587 .27046205 .6879883 .27046205H.40899659V.5500183C.40899659 .56399539 .40899659 .5830078 .3889923 .5830078 .36898805 .5830078 .36898805 .56399539 .36898805 .5500183V.27046205H.08898926C.07499695 .27046205 .055999757 .27046205 .055999757 .25045777 .055999757 .23046875 .07499695 .23046875 .08898926 .23046875H.36898805V-.05000305C.36898805-.06401062 .36898805-.08300781 .3889923-.08300781 .40899659-.08300781 .40899659-.06401062 .40899659-.05000305V.23046875Z"/>
</defs>
<path transform="matrix(1.00006,0,0,-1.00003,114.88682,346.96699)" stroke-width="1.19553" stroke-linecap="butt" stroke-miterlimit="10" stroke-linejoin="miter" fill="none" stroke="#000000" d="M-113.38724 0H140.77762"/>
<path transform="matrix(1.00006,0,0,-1.00003,255.67288,346.96699)" stroke-width=".9564" stroke-linecap="round" stroke-linejoin="round" fill="none" stroke="#000000" d="M-1.91284 2.55046C-1.75343 1.59402 0 .15938 .4782 0 0-.15938-1.75343-1.59402-1.91284-2.55046"/>
<use data-text="x" xlink:href="#font_1_1" transform="matrix(9.963197,0,0,-9.962899,260.54756,349.11207)"/>
<path transform="matrix(1.00006,0,0,-1.00003,114.88682,346.96699)" stroke-width="1.19553" stroke-linecap="butt" stroke-miterlimit="10" stroke-linejoin="miter" fill="none" stroke="#000000" d="M0-14.17339V310.8585"/>
<path transform="matrix(0,-1.00003,-1.00006,-0,114.88682,36.09915)" stroke-width=".9564" stroke-linecap="round" stroke-linejoin="round" fill="none" stroke="#000000" d="M-1.91284 2.55046C-1.75343 1.59402 0 .15938 .4782 0 0-.15938-1.75343-1.59402-1.91284-2.55046"/>
<use data-text="y" xlink:href="#font_1_2" transform="matrix(9.963197,0,0,-9.962899,112.26566,29.287415)"/>
<path transform="matrix(1.00006,0,0,-1.00003,114.88682,346.96699)" stroke-width=".79701" stroke-linecap="butt" stroke-miterlimit="10" stroke-linejoin="miter" fill="none" stroke="#000000" d="M-56.69362 31.49654C-56.69362 31.49654-56.07483 31.57175-55.83717 31.60164-55.59953 31.63153-55.21841 31.68085-54.98076 31.71194-54.7431 31.74303-54.36198 31.79384-54.12433 31.8257-53.88667 31.85756-53.50555 31.90862-53.26791 31.94162-53.03026 31.97462-52.64912 32.02898-52.41147 32.0636-52.17383 32.0982-51.79271 32.15578-51.55505 32.19118-51.3174 32.2266-50.93628 32.28218-50.69862 32.31879-50.46097 32.3554-50.07985 32.41689-49.84221 32.45505-49.60455 32.49321-49.22343 32.55495-48.98578 32.59389-48.74814 32.63281-48.367 32.6956-48.12935 32.73575-47.8917 32.7759-47.51059 32.84155-47.27293 32.88326-47.03528 32.92496-46.65414 32.9931-46.4165 33.03638-46.17885 33.07964-45.79773 33.1503-45.56007 33.19511-45.32242 33.23993-44.9413 33.3131-44.70364 33.35947-44.46599 33.40585-44.08488 33.48187-43.84723 33.52946-43.60957 33.57704-43.22845 33.65326-42.99081 33.70247-42.75316 33.75168-42.37202 33.83302-42.13437 33.88416-41.89671 33.93527-41.51561 34.01831-41.27795 34.071-41.0403 34.12369-40.65918 34.20918-40.42152 34.26392-40.18387 34.31863-39.80275 34.40883-39.56511 34.46547-39.32745 34.52213-38.94632 34.61401-38.70866 34.67223-38.47101 34.73044-38.0899 34.82484-37.85225 34.88504-37.6146 34.94522-37.23349 35.04398-36.99583 35.10608-36.75818 35.16817-36.37704 35.26857-36.1394 35.33272-35.90175 35.39687-35.52063 35.50197-35.28297 35.56845-35.04532 35.63495-34.6642 35.74313-34.42654 35.81197-34.18889 35.8808-33.80779 35.99333-33.57013 36.06458-33.33247 36.1358-32.95134 36.25183-32.7137 36.3254-32.47604 36.39896-32.09492 36.51897-31.85727 36.59486-31.61961 36.67076-31.23851 36.79388-31.00085 36.87256-30.7632 36.95123-30.38208 37.08047-30.14442 37.16191-29.90677 37.24335-29.52565 37.37573-29.28801 37.4595-29.05035 37.54329-28.66922 37.6792-28.43156 37.76573-28.19391 37.85226-27.8128 37.99356-27.57515 38.08322-27.3375 38.1729-26.95638 38.31912-26.71872 38.41196-26.48106 38.50479-26.09995 38.65634-25.8623 38.75237-25.62465 38.84837-25.24353 39.00488-25.00587 39.104-24.76822 39.20314-24.3871 39.36465-24.14944 39.46692-23.91179 39.56918-23.53069 39.73528-23.29303 39.84106-23.05537 39.94685-22.67424 40.11972-22.4366 40.22948-22.19894 40.33923-21.81783 40.51888-21.58017 40.63217-21.34251 40.74547-20.9614 40.92926-20.72374 41.04611-20.48608 41.16295-20.10498 41.35353-19.86732 41.47432-19.62967 41.59511-19.24854 41.79167-19.0109 41.91681-18.77324 42.04193-18.39212 42.24678-18.15446 42.37616-17.91681 42.50554-17.5357 42.71567-17.29805 42.84937-17.0604 42.98306-16.67928 43.20178-16.44162 43.33986-16.20396 43.47794-15.82285 43.70222-15.58519 43.84462-15.34755 43.98703-14.96642 44.21877-14.72876 44.36627-14.4911 44.51378-14.11 44.75513-13.87234 44.9078-13.63469 45.06049-13.25357 45.30888-13.01591 45.46664-12.77826 45.62442-12.39714 45.88173-12.15948 46.04495-11.92184 46.20818-11.54073 46.47476-11.30307 46.64316-11.06541 46.81155-10.6843 47.08438-10.44664 47.25865-10.20898 47.43294-9.82788 47.71909-9.59023 47.89923-9.35257 48.07939-8.97144 48.37103-8.73378 48.55713-8.49614 48.74324-8.11502 49.04778-7.87737 49.24054-7.63971 49.4333-7.25859 49.74739-7.02094 49.94644-6.78328 50.1455-6.40218 50.46991-6.16452 50.67528-5.92686 50.88063-5.54575 51.2142-5.30809 51.42659-5.07045 51.63898-4.68932 51.98613-4.45166 52.20602-4.214 52.4259-3.8329 52.78401-3.59525 53.0114-3.35759 53.2388-2.97647 53.61003-2.73882 53.84491-2.50116 54.0798-2.12004 54.46161-1.88239 54.70436-1.64474 54.9471-1.26361 55.34355-1.02596 55.59453-.7883 55.84549-.40718 56.25471-.16954 56.51324 .06808 56.77176 .44919 57.19054 .68684 57.45789 .9245 57.72525 1.30563 58.16307 1.54329 58.4402 1.78093 58.71733 2.16205 59.16885 2.3997 59.45535 2.63736 59.74185 3.01848 60.20885 3.25613 60.50513 3.49379 60.80142 3.8749 61.28455 4.11255 61.59079 4.3502 61.89703 4.73134 62.39592 4.969 62.71236 5.20663 63.02881 5.58775 63.54433 5.82541 63.87158 6.06306 64.19882 6.44417 64.73265 6.68182 65.071 6.91948 65.40935 7.3006 65.96046 7.53825 66.31021 7.77591 66.65997 8.15703 67.23038 8.39468 67.59183 8.63232 67.9533 9.01346 68.54176 9.25111 68.91539 9.48877 69.28903 9.86987 69.89853 10.10753 70.28482 10.34518 70.67111 10.7263 71.30026 10.96396 71.69965 11.20161 72.09904 11.58273 72.75047 11.82039 73.16336 12.05803 73.57625 12.43916 74.24875 12.67682 74.6755 12.91447 75.10225 13.29558 75.79803 13.53323 76.23914 13.77089 76.68024 14.15201 77.39868 14.38965 77.85466 14.6273 78.31064 15.00844 79.05397 15.2461 79.52556 15.48373 79.99713 15.86485 80.76607 16.10251 81.25356 16.34016 81.74103 16.72128 82.53526 16.95894 83.03906 17.1966 83.54288 17.57771 84.36404 17.81535 84.8847 18.05301 85.40538 18.43414 86.25333 18.6718 86.79176 18.90944 87.3302 19.29056 88.20876 19.52821 88.76544 19.76587 89.32211 20.14697 90.2288 20.38463 90.80399 20.62228 91.37915 21.00342 92.31621 21.24106 92.91089 21.47871 93.50555 21.85983 94.47511 22.09749 95.09001 22.33513 95.7049 22.71626 96.70706 22.95392 97.34265 23.19157 97.97824 23.57268 99.01405 23.81033 99.67102 24.04799 100.32799 24.42912 101.39838 24.66676 102.07765 24.90442 102.75694 25.28554 103.86458 25.5232 104.56691 25.76083 105.26924 26.14195 106.4139 26.37961 107.13965 26.61726 107.86539 26.99838 109.04732 27.23604 109.79759 27.4737 110.54787 27.85481 111.77132 28.09245 112.54723 28.33011 113.32314 28.71124 114.5881 28.9489 115.38988 29.18654 116.19167 29.56766 117.49734 29.80531 118.32594 30.04297 119.15454 30.42409 120.50511 30.66174 121.36194 30.8994 122.21875 31.28052 123.61551 31.51816 124.5013 31.75581 125.38708 32.13693 126.83038 32.37459 127.74619 32.61223 128.66199 32.99336 130.155 33.23102 131.10182 33.46867 132.04865 33.84978 133.59181 34.08743 134.57035 34.32509 135.54886 34.70622 137.14336 34.94386 138.15436 35.18152 139.16535 35.56264 140.8112 35.8003 141.85688 36.03793 142.90254 36.41907 144.60958 36.65672 145.69089 36.89438 146.7722 37.27548 148.5329 37.51314 149.65035 37.7508 150.7678 38.13191 152.5896 38.36955 153.74475 38.60721 154.89989 38.98834 156.78182 39.226 157.97583 39.46364 159.16986 39.84476 161.1158 40.08241 162.35053 40.32007 163.58525 40.70119 165.59862 40.93884 166.87488 41.1765 168.15113 41.55762 170.23026 41.79526 171.54888 42.03291 172.8675 42.41405 175.0152 42.6517 176.37859 42.88934 177.74198 43.27046 179.96546 43.50812 181.37529 43.74577 182.78511 44.12688 185.08242 44.36453 186.53978 44.60219 187.99715 44.98332 190.37215 45.22096 191.87903 45.45862 193.38591 45.83974 195.84314 46.0774 197.40038 46.31503 198.9576 46.69617 201.4929 46.93382 203.10253 47.17148 204.71216 47.55258 207.3373 47.79024 209.00148 48.0279 210.66565 48.40903 213.37602 48.64667 215.0968 48.88432 216.81757 49.26544 219.62467 49.5031 221.40364 49.74074 223.18262 50.12187 226.08061 50.35953 227.91854 50.59718 229.75644 50.97829 232.75002 51.21594 234.65012 51.4536 236.55022 51.83472 239.64844 52.07236 241.61312 52.31001 243.57778 52.69115 246.77866 52.9288 248.81012 53.16644 250.84157 53.54756 254.15489 53.78522 256.25453 54.02287 258.35417 54.40399 261.7729 54.64165 263.9429 54.8793 266.11286 55.26042 269.6509 55.49806 271.89424 55.73572 274.13755 56.11685 277.79225 56.3545 280.11116 56.59215 282.43009 56.97327 286.2097 57.21092 288.6075 57.44858 291.0053 57.82968 294.9138 58.06734 297.3928 58.305 299.87178 58.68613 303.912 58.92377 306.47434 59.16142 309.03669 59.54254 313.21165 59.7802 315.86045 60.01784 318.5092 60.39897 322.82756 60.63663 325.56486 60.87428 328.30213 61.25539 332.75886 61.49304 335.5889 61.7307 338.41899 62.34947 345.96205 62.34947 345.96205"/>
<path transform="matrix(1.00006,0,0,-1.00003,114.88682,346.96699)" stroke-width=".3985" stroke-linecap="butt" stroke-dasharray="2.98883,2.98883" stroke-miterlimit="10" stroke-linejoin="miter" fill="none" stroke="#000000" d="M-113.38724 28.3468H85.04042"/>
<use data-text="y" xlink:href="#font_1_2" transform="matrix(9.963197,0,0,-9.962899,188.17823,313.16197)"/>
<use data-text="=" xlink:href="#font_2_6" transform="matrix(9.963197,0,0,-9.962899,196.18769,313.16197)"/>
<use data-text="1" xlink:href="#font_2_3" transform="matrix(9.963197,0,0,-9.962899,206.6889,313.16197)"/>
<path transform="matrix(1.00006,0,0,-1.00003,114.88682,346.96699)" stroke-width="1.19553" stroke-linecap="butt" stroke-dasharray="2.98883,2.98883" stroke-miterlimit="10" stroke-linejoin="miter" fill="none" stroke="#7f807f" d="M56.69362 0V283.4681"/>
<path transform="matrix(1.00006,0,0,-1.00003,114.88682,346.96699)" stroke-width="1.19553" stroke-linecap="butt" stroke-dasharray="2.98883,2.98883" stroke-miterlimit="10" stroke-linejoin="miter" fill="none" stroke="#7f807f" d="M0 283.4681H56.69362"/>
<path transform="matrix(1.00006,0,0,-1.00003,114.88682,346.96699)" stroke-width=".3985" stroke-linecap="butt" stroke-miterlimit="10" stroke-linejoin="miter" fill="none" stroke="#000000" d="M28.3468 4.25183V-4.25183"/>
<use data-text="1" xlink:href="#font_2_3" transform="matrix(9.963197,0,0,-9.962899,140.74437,361.1594)"/>
<path transform="matrix(1.00006,0,0,-1.00003,114.88682,346.96699)" stroke-width=".3985" stroke-linecap="butt" stroke-miterlimit="10" stroke-linejoin="miter" fill="none" stroke="#000000" d="M56.69362 4.25183V-4.25183"/>
<use data-text="2" xlink:href="#font_2_4" transform="matrix(9.963197,0,0,-9.962899,169.09307,361.1594)"/>
<path transform="matrix(1.00006,0,0,-1.00003,114.88682,346.96699)" stroke-width=".3985" stroke-linecap="butt" stroke-miterlimit="10" stroke-linejoin="miter" fill="none" stroke="#000000" d="M4.25183 28.3468H-4.25183"/>
<use data-text="1" xlink:href="#font_2_3" transform="matrix(9.963197,0,0,-9.962899,102.13306,321.82923)"/>
<path transform="matrix(1.00006,0,0,-1.00003,114.88682,346.96699)" stroke-width=".3985" stroke-linecap="butt" stroke-miterlimit="10" stroke-linejoin="miter" fill="none" stroke="#000000" d="M4.25183 56.69362H-4.25183"/>
<use data-text="2" xlink:href="#font_2_4" transform="matrix(9.963197,0,0,-9.962899,102.13306,293.48237)"/>
<path transform="matrix(1.00006,0,0,-1.00003,114.88682,346.96699)" stroke-width=".3985" stroke-linecap="butt" stroke-miterlimit="10" stroke-linejoin="miter" fill="none" stroke="#000000" d="M4.25183 283.4681H-4.25183"/>
<use data-text="1" xlink:href="#font_2_3" transform="matrix(9.963197,0,0,-9.962899,97.15176,66.70056)"/>
<use data-text="0" xlink:href="#font_2_2" transform="matrix(9.963197,0,0,-9.962899,102.13334,66.70056)"/>
<use data-text="O" xlink:href="#font_3_80" transform="matrix(9.963197,0,0,-9.962899,103.61514,357.5113)"/>
<use data-text="y" xlink:href="#font_1_2" transform="matrix(9.963197,0,0,-9.962899,180.77378,36.226655)"/>
<use data-text="=" xlink:href="#font_2_6" transform="matrix(9.963197,0,0,-9.962899,188.78325,36.226655)"/>
<use data-text="3" xlink:href="#font_2_5" transform="matrix(9.963197,0,0,-9.962899,199.28446,36.226655)"/>
<use data-text="x" xlink:href="#font_4_1" transform="matrix(6.9742186,0,0,-6.9740097,204.28218,32.61154)"/>
<use data-text="+" xlink:href="#font_2_1" transform="matrix(9.963197,0,0,-9.962899,211.5126,36.226655)"/>
<use data-text="1" xlink:href="#font_2_3" transform="matrix(9.963197,0,0,-9.962899,221.46585,36.226655)"/>
</svg>
