<svg xmlns="http://www.w3.org/2000/svg" xmlns:xlink="http://www.w3.org/1999/xlink" xmlns:inkscape="http://www.inkscape.org/namespaces/inkscape" version="1.1" width="200" height="177" viewBox="0 0 200 177">
<defs>
<path id="font_1_2" d="M.33399964 .30233766C.33999635 .32835389 .36299134 .42037965 .43299867 .42037965 .43798829 .42037965 .46199037 .42037965 .48298646 .40734864 .45498658 .402359 .43499757 .37734986 .43499757 .35334779 .43499757 .33735658 .44599916 .31835938 .47299195 .31835938 .49499513 .31835938 .5269928 .3363495 .5269928 .37635804 .5269928 .42837525 .46798707 .4423828 .43399049 .4423828 .37599183 .4423828 .34098817 .38935853 .32899476 .36634828 .3039856 .43237306 .25 .4423828 .22099304 .4423828 .116989139 .4423828 .05999756 .3133545 .05999756 .28834535 .05999756 .27833558 .069992069 .27833558 .07199097 .27833558 .07998657 .27833558 .08299255 .28033448 .084991458 .28933717 .11898804 .39535523 .18499756 .42037965 .21899414 .42037965 .23799134 .42037965 .272995 .4113617 .272995 .35334779 .272995 .32235719 .2559967 .25532533 .21899414 .11528015 .20298767 .053268434 .16799927 .011245728 .12399292 .011245728 .117996219 .011245728 .09498596 .011245728 .07398987 .024276734 .09899902 .029266358 .12098694 .05027771 .12098694 .07827759 .12098694 .105270389 .09899902 .11328125 .083999637 .11328125 .053985597 .11328125 .0289917 .08728027 .0289917 .055267335 .0289917 .009246826 .07899475-.0107421879 .12298584-.0107421879 .18899536-.0107421879 .22499085 .059280397 .22799683 .0652771 .23999024 .028274537 .27598573-.0107421879 .33599855-.0107421879 .43899537-.0107421879 .49598695 .118270877 .49598695 .14328003 .49598695 .1532898 .4869995 .1532898 .48399354 .1532898 .47499085 .1532898 .47299195 .14929199 .47099305 .14228821 .43798829 .03527832 .36999513 .011245728 .33799745 .011245728 .29899598 .011245728 .2829895 .043273927 .2829895 .07727051 .2829895 .09927368 .2889862 .121276859 .2999878 .16529846L.33399964 .30233766Z"/>
<path id="font_1_3" d="M.48599244 .38136292C.48999024 .39537049 .48999024 .39736939 .48999024 .40437318 .48999024 .42237855 .47599793 .43138124 .46099855 .43138124 .45098878 .43138124 .43499757 .42536927 .42599488 .41036988 .42399598 .405365 .41600038 .37435914 .4119873 .35635377 .40499879 .33035279 .397995 .30334474 .3919983 .27633668L.34700013 .09628296C.34298707 .08126831 .2999878 .011245728 .23399353 .011245728 .18299866 .011245728 .17199707 .055267335 .17199707 .0922699 .17199707 .1382904 .18899536 .20030213 .22299195 .28833009 .23899842 .3293457 .24299622 .3403473 .24299622 .36035157 .24299622 .405365 .21099854 .4423828 .16099549 .4423828 .06599426 .4423828 .0289917 .29733277 .0289917 .28833009 .0289917 .27833558 .038986207 .27833558 .040985109 .27833558 .050994874 .27833558 .051986696 .28033448 .056991579 .29634095 .083999637 .3903656 .12399292 .42037965 .1579895 .42037965 .1659851 .42037965 .18299866 .42037965 .18299866 .3883667 .18299866 .36335755 .17298889 .3373413 .1659851 .31834413 .12599182 .21231079 .10798645 .1552887 .10798645 .10827637 .10798645 .019256592 .17098999-.0107421879 .22999573-.0107421879 .2689972-.0107421879 .30299378 .0062561037 .33099366 .03425598 .31799317-.017745972 .30599977-.06674194 .2659912-.11973572 .23999024-.15385437 .20199585-.18309021 .1559906-.18309021 .14199829-.18309021 .09700012-.18005371 .07998657-.14074707 .09599304-.14074707 .10899353-.14074707 .12298584-.1287384 .1329956-.11973572 .14299011-.10673523 .14299011-.08773804 .14299011-.056747438 .115997318-.052734376 .10598755-.052734376 .08299255-.052734376 .049987794-.068740848 .049987794-.11773682 .049987794-.16796875 .09399414-.20507813 .1559906-.20507813 .25898744-.20507813 .3619995-.11373901 .3899994-.00074768069L.48599244 .38136292Z"/>
<path id="font_2_3" d="M.2939911 .64004519C.2939911 .66400149 .2939911 .6660156 .2709961 .6660156 .20899964 .60227969 .12098694 .60227969 .08898926 .60227969V.57128909C.10899353 .57128909 .16799927 .57128909 .21998596 .5972748V.07902527C.21998596 .042999269 .21699524 .0309906 .1269989 .0309906H.09498596V0C.12998963 .0029907227 .21699524 .0029907227 .25698854 .0029907227 .29699708 .0029907227 .38398744 .0029907227 .4189911 0V.0309906H.3869934C.29699708 .0309906 .2939911 .041992189 .2939911 .07902527V.64004519Z"/>
<path id="font_2_4" d="M.1269989 .07699585 .23298645 .18003845C.3889923 .31811524 .44898988 .3721466 .44898988 .47216798 .44898988 .5860901 .35899354 .6660156 .23699951 .6660156 .12399292 .6660156 .049987794 .57411196 .049987794 .48516847 .049987794 .4291687 .099990848 .4291687 .102996829 .4291687 .11999512 .4291687 .15499878 .44117738 .15499878 .48217774 .15499878 .5081787 .13699341 .5341797 .101989749 .5341797 .09399414 .5341797 .09199524 .5341797 .08898926 .5331726 .11199951 .59806826 .1659851 .63500979 .22399903 .63500979 .31498719 .63500979 .35798646 .5541382 .35798646 .47216798 .35798646 .39215089 .30799867 .31311036 .25299073 .25108338L.06098938 .036987306C.049987794 .025985718 .049987794 .023986817 .049987794 0H.42099L.44898988 .17404175H.42399598C.4189911 .14402771 .4119873 .1000061 .4019928 .084991458 .394989 .07699585 .32899476 .07699585 .30699159 .07699585H.1269989Z"/>
<path id="font_3_80" d="M.72099307 .3387909C.72099307 .5429535 .56999209 .7050781 .3880005 .7050781 .20899964 .7050781 .055999757 .5449524 .055999757 .3387909 .055999757 .13363648 .20999146-.022460938 .3880005-.022460938 .56999209-.022460938 .72099307 .13664246 .72099307 .3387909M.6179962 .35281373C.6179962 .08760071 .48098756 .0035247803 .3889923 .0035247803 .29299928 .0035247803 .15899658 .09159851 .15899658 .35281373 .15899658 .6120148 .30499269 .68006899 .3880005 .68006899 .47499085 .68006899 .6179962 .6090088 .6179962 .35281373Z"/>
<path id="font_2_1" d="M.33099366-.2400055C.33099366-.23701477 .33099366-.23500061 .31399537-.21800232 .18899536-.0920105 .15699768 .09700012 .15699768 .25 .15699768 .42399598 .19499207 .59799197 .31799317 .72299197 .33099366 .73498538 .33099366 .7369995 .33099366 .73999026 .33099366 .746994 .32699586 .75 .32099916 .75 .31098939 .75 .22099304 .6819916 .1619873 .5549927 .11099243 .44499208 .09899902 .33399964 .09899902 .25 .09899902 .17199707 .10998535 .050994874 .16499329-.06201172 .22499085-.18501282 .31098939-.25 .32099916-.25 .32699586-.25 .33099366-.24700928 .33099366-.2400055Z"/>
<path id="font_4_1" d="M.6589966 .23046875C.6759949 .23046875 .69400027 .23046875 .69400027 .25045777 .69400027 .27046205 .6759949 .27046205 .6589966 .27046205H.117996219C.100997928 .27046205 .08299255 .27046205 .08299255 .25045777 .08299255 .23046875 .100997928 .23046875 .117996219 .23046875H.6589966Z"/>
<path id="font_1_1" d="M.20298767 .0009918213C.20298767 .066986087 .17799378 .10598755 .13899231 .10598755 .10598755 .10598755 .085998538 .08099365 .085998538 .052993776 .085998538 .025985718 .10598755 0 .13899231 0 .15098572 0 .1639862 .0039978029 .17399597 .0129852299 .1769867 .01499939 .17799378 .015991211 .1789856 .015991211 .17999268 .015991211 .18099976 .01499939 .18099976 .0009918213 .18099976-.07316589 .1459961-.13328552 .11299133-.16635132 .101989749-.17736817 .101989749-.17936707 .101989749-.18237305 .101989749-.18936157 .10699463-.19335938 .11199951-.19335938 .12298584-.19335938 .20298767-.116256717 .20298767 .0009918213Z"/>
<path id="font_2_2" d="M.2889862 .25C.2889862 .32798768 .27799989 .44898988 .22299195 .56199648 .16299439 .68499758 .07699585 .75 .066986087 .75 .06098938 .75 .056991579 .74598696 .056991579 .73999026 .056991579 .7369995 .056991579 .73498538 .07598877 .71699526 .17399597 .6179962 .23098755 .45899964 .23098755 .25 .23098755 .07899475 .19400025-.09700012 .069992069-.2230072 .056991579-.23500061 .056991579-.23701477 .056991579-.2400055 .056991579-.2460022 .06098938-.25 .066986087-.25 .07699585-.25 .16699219-.18200684 .22599793-.055007936 .2769928 .054992677 .2889862 .16600037 .2889862 .25Z"/>
<path id="font_2_5" d="M.68699648 .32714845C.70199587 .32714845 .72099307 .32714845 .72099307 .34713746 .72099307 .36714173 .70199587 .36714173 .6879883 .36714173H.08898926C.07499695 .36714173 .055999757 .36714173 .055999757 .34713746 .055999757 .32714845 .07499695 .32714845 .08999634 .32714845H.68699648M.6879883 .13284302C.70199587 .13284302 .72099307 .13284302 .72099307 .15284729 .72099307 .17285156 .70199587 .17285156 .68699648 .17285156H.08999634C.07499695 .17285156 .055999757 .17285156 .055999757 .15284729 .055999757 .13284302 .07499695 .13284302 .08898926 .13284302H.6879883Z"/>
<path id="font_5_1" d="M.33499146 .63612368C.33499146 .6630554 .33299256 .6640625 .30499269 .6640625 .24099732 .6014404 .1499939 .6004486 .10899353 .6004486V.5644531C.1329956 .5644531 .19898987 .5644531 .2539978 .592453V.08203125C.2539978 .04899597 .2539978 .035995485 .1539917 .035995485H.115997318V0C.13398743 .0009918213 .25698854 .0039978029 .2939911 .0039978029 .32499696 .0039978029 .45098878 .0009918213 .47299195 0V.035995485H.43499757C.33499146 .035995485 .33499146 .04899597 .33499146 .08203125V.63612368Z"/>
<path id="font_5_2" d="M.5049896 .18203736H.47099305C.46798707 .16001892 .45799256 .100997928 .44499208 .09098816 .43699647 .084991458 .3600006 .084991458 .34599305 .084991458H.1619873C.2669983 .17803955 .3019867 .20603943 .3619995 .25306703 .43598939 .312088 .5049896 .374115 .5049896 .46914674 .5049896 .5900879 .39898683 .6640625 .2709961 .6640625 .14698792 .6640625 .06298828 .57710269 .06298828 .4851532 .06298828 .43414308 .10598755 .42915345 .115997318 .42915345 .13999939 .42915345 .16899109 .44615174 .16899109 .48214723 .16899109 .5001526 .1619873 .53515627 .10998535 .53515627 .14099121 .6060791 .20899964 .62805178 .2559967 .62805178 .35598756 .62805178 .4079895 .5501404 .4079895 .46914674 .4079895 .38212586 .34599305 .3130951 .31399537 .27708436L.07299805 .038986207C.06298828 .02999878 .06298828 .027999878 .06298828 0H.47499085L.5049896 .18203736Z"/>
<path id="font_6_1" d="M.24899292 .10601807C.23899842 .072021488 .20599365 .018234253 .15499878 .018234253 .1519928 .018234253 .12199402 .018234253 .100997928 .03215027 .14199829 .04508972 .14498902 .08100891 .14498902 .087020877 .14498902 .10900879 .12799073 .12402344 .10499573 .12402344 .07699585 .12402344 .04798889 .10002136 .04798889 .0630188 .04798889 .01322937 .10398865-.009765625 .15299988-.009765625 .19898987-.009765625 .23999024 .019226075 .2649994 .061019899 .2889862 .008224487 .34399415-.009765625 .38398744-.009765625 .49899293-.009765625 .55999758 .11502075 .55999758 .14305115 .55999758 .15608216 .5469971 .15608216 .5439911 .15608216 .5299988 .15608216 .5289917 .15107727 .5249939 .13905335 .5039978 .07002258 .44400025 .018234253 .3880005 .018234253 .34799195 .018234253 .32699586 .04508972 .32699586 .08302307 .32699586 .10900879 .35099793 .20018006 .3789978 .31140138 .39898683 .38841249 .44400025 .4133911 .47698976 .4133911 .47898866 .4133911 .5099945 .4133911 .5309906 .39941407 .49899293 .39041139 .4869995 .3624115 .4869995 .34440614 .4869995 .32240296 .5039978 .30740357 .5269928 .30740357 .5499878 .30740357 .58299258 .32640077 .58299258 .3684082 .58299258 .4243927 .5189972 .44140626 .47898866 .44140626 .42900086 .44140626 .3889923 .4084015 .36698915 .3704071 .34899903 .4113922 .30299378 .44140626 .24699402 .44140626 .1349945 .44140626 .070999149 .31840516 .070999149 .2883606 .070999149 .27534486 .084991458 .27534486 .08799744 .27534486 .100997928 .27534486 .101989749 .27934266 .10699463 .29237367 .13198853 .3704071 .19499207 .4133911 .24398804 .4133911 .2769928 .4133911 .3039856 .395401 .3039856 .3474121 .3039856 .32740785 .2919922 .27734376 .2829895 .24327088L.24899292 .10601807Z"/>
</defs>
<path transform="matrix(1,0,0,-1.00006,104.75101,161.41779)" stroke-width="1.19553" stroke-linecap="butt" stroke-miterlimit="10" stroke-linejoin="miter" fill="none" stroke="#000000" d="M-85.04042 0H81.85234"/>
<path transform="matrix(1,0,0,-1.00006,186.60335,161.41779)" d="M3.18808 0-1.91284 2.55046 0 0-1.91284-2.55046"/>
<use data-text="x" xlink:href="#font_1_2" transform="matrix(9.9626,0,0,-9.963197,193.71,163.56291)"/>
<path transform="matrix(1,0,0,-1.00006,104.75101,161.41779)" stroke-width="1.19553" stroke-linecap="butt" stroke-miterlimit="10" stroke-linejoin="miter" fill="none" stroke="#000000" d="M0-14.17339V124.37254"/>
<path transform="matrix(0,-1.00006,-1,-0,104.75101,37.03779)" d="M3.18808 0-1.91284 2.55046 0 0-1.91284-2.55046"/>
<use data-text="y" xlink:href="#font_1_3" transform="matrix(9.9626,0,0,-9.963197,102.130008,27.99379)"/>
<path transform="matrix(1,0,0,-1.00006,104.75101,161.41779)" stroke-width="1.19553" stroke-linecap="butt" stroke-miterlimit="10" stroke-linejoin="miter" fill="none" stroke="#000000" d="M70.867 5.01266C70.867 5.01266 70.13042 5.10184 69.84752 5.13724 69.56462 5.17265 69.11092 5.23125 68.82803 5.26785 68.54514 5.30446 68.09143 5.36371 67.80853 5.4011 67.52565 5.43848 67.07195 5.49919 66.78905 5.53734 66.50615 5.5755 66.05243 5.63689 65.76955 5.67618 65.48665 5.71548 65.03294 5.78015 64.75005 5.82065 64.46716 5.86115 64.01346 5.92679 63.73056 5.96814 63.44766 6.00949 62.99397 6.07654 62.71107 6.11867 62.42818 6.1608 61.97447 6.22852 61.69157 6.27177 61.40869 6.31505 60.95499 6.38571 60.67209 6.43053 60.38919 6.47534 59.9355 6.54929 59.6526 6.59488 59.3697 6.64049 58.916 6.71288 58.63312 6.75926 58.35022 6.80565 57.8965 6.88123 57.6136 6.92923 57.33072 6.97725 56.87701 7.05608 56.59412 7.10529 56.31122 7.1545 55.85751 7.23358 55.57463 7.28394 55.29173 7.33427 54.83803 7.41629 54.55513 7.46819 54.27225 7.5201 53.81854 7.60497 53.53564 7.65807 53.25275 7.71117 52.79904 7.79668 52.51616 7.85098 52.23326 7.90527 51.77956 7.99365 51.49666 8.04951 51.21378 8.10538 50.76007 8.19667 50.47717 8.25368 50.19427 8.31068 49.74057 8.40222 49.45769 8.46042 49.17479 8.51863 48.72107 8.61305 48.43817 8.67323 48.15529 8.73343 47.70158 8.8325 47.41869 8.89426 47.13579 8.95601 46.6821 9.05537 46.3992 9.11832 46.1163 9.18127 45.6626 9.2835 45.3797 9.34799 45.09682 9.41249 44.64311 9.51723 44.36021 9.58328 44.07732 9.64935 43.62363 9.75618 43.34073 9.82422 43.05783 9.89227 42.60413 10.00377 42.32124 10.07379 42.03835 10.14381 41.58464 10.2574 41.30174 10.329 41.01884 10.40057 40.56516 10.51666 40.28226 10.58981 39.99936 10.66296 39.54564 10.78113 39.26276 10.85626 38.97986 10.93138 38.52615 11.05424 38.24326 11.13135 37.96037 11.20845 37.50667 11.3334 37.22377 11.41208 36.94087 11.49074 36.48717 11.61775 36.20428 11.6984 35.92139 11.77905 35.46768 11.9104 35.18478 11.9934 34.9019 12.07639 34.4482 12.21129 34.1653 12.29662 33.8824 12.38194 33.4287 12.5211 33.14581 12.60847 32.86292 12.69583 32.40921 12.8371 32.12631 12.92639 31.84343 13.01569 31.38971 13.16045 31.10681 13.25209 30.82391 13.34372 30.37021 13.49283 30.08733 13.58687 29.80443 13.68091 29.35072 13.8335 29.06783 13.92987 28.78494 14.02625 28.33124 14.1828 28.04834 14.28152 27.76544 14.38025 27.31175 14.54027 27.02885 14.6414 26.74596 14.74252 26.29225 14.90648 26.00935 15.01035 25.72647 15.11423 25.27277 15.28354 24.98987 15.39012 24.70697 15.4967 24.25328 15.66956 23.97038 15.77853 23.68748 15.88751 23.23378 16.06387 22.9509 16.17561 22.668 16.28735 22.21428 16.46907 21.93138 16.58392 21.6485 16.69878 21.1948 16.88586 20.9119 17.00348 20.629 17.1211 20.1753 17.31097 19.89241 17.4317 19.60951 17.55244 19.1558 17.74982 18.87291 17.87375 18.59003 17.99768 18.13632 18.19821 17.85342 18.32489 17.57053 18.45155 17.11682 18.65703 16.83394 18.78683 16.55104 18.91666 16.09734 19.12714 15.81444 19.26047 15.53156 19.39381 15.07785 19.6114 14.79495 19.74794 14.51205 19.88448 14.05833 20.10443 13.77545 20.24449 13.49255 20.38457 13.03885 20.61394 12.75595 20.75749 12.47307 20.90105 12.01936 21.13199 11.73647 21.27913 11.45357 21.42627 10.99986 21.66702 10.71698 21.81807 10.43408 21.96912 9.98038 22.21323 9.69748 22.36781 9.4146 22.5224 8.96089 22.77374 8.678 22.93228 8.3951 23.09082 7.9414 23.34813 7.65851 23.51057 7.37561 23.67303 6.9219 23.93634 6.63902 24.10316 6.35612 24.26999 5.90242 24.5419 5.61952 24.71304 5.33662 24.88419 4.88292 25.16171 4.60002 25.33676 4.31712 25.51181 3.86342 25.79503 3.58054 25.97476 3.29764 26.1545 2.84393 26.44774 2.56104 26.63222 2.27815 26.8167 1.82445 27.11552 1.54155 27.30437 1.25865 27.49323 .80495 27.80072 .52206 27.99342 .23917 28.18611-.21451 28.49571-.4974 28.69325-.78029 28.89081-1.234 29.21384-1.51689 29.41733-1.79979 29.62082-2.2535 29.95139-2.53638 30.15999-2.81927 30.36859-3.273 30.707-3.5559 30.92084-3.83878 31.13466-4.29248 31.4819-4.57538 31.70114-4.85828 31.92036-5.31198 32.2761-5.59486 32.5009-5.87776 32.72571-6.33147 33.09091-6.61436 33.32143-6.89725 33.55193-7.35095 33.92595-7.63385 34.16228-7.91675 34.3986-8.37044 34.78247-8.65334 35.02475-8.93623 35.26701-9.38994 35.66003-9.67284 35.90842-9.95572 36.1568-10.40942 36.56038-10.69232 36.81502-10.97522 37.06966-11.42891 37.48264-11.7118 37.74368-11.9947 38.00473-12.44843 38.42891-12.73131 38.69656-13.0142 38.96423-13.46791 39.3983-13.75081 39.6728-14.03369 39.94731-14.4874 40.39366-14.7703 40.675-15.05319 40.95634-15.5069 41.41219-15.78978 41.70055-16.07268 41.98889-16.52638 42.45753-16.80928 42.75334-17.09216 43.04913-17.54587 43.52928-17.82877 43.83252-18.11166 44.13577-18.56537 44.62816-18.84825 44.93895-19.13115 45.24976-19.58485 45.75403-19.86775 46.07263-20.15063 46.39124-20.60434 46.90852-20.88724 47.23529-21.17014 47.56206-21.62386 48.09276-21.90674 48.42781-22.18964 48.76286-22.64334 49.30666-22.92624 49.65016-23.20912 49.99365-23.66283 50.55162-23.94572 50.90366-24.22862 51.25568-24.68233 51.82652-24.96521 52.18742-25.24811 52.54834-25.70181 53.13472-25.98471 53.50494-26.2676 53.87515-26.7213 54.4763-27.0042 54.85576-27.2871 55.23521-27.74078 55.851-28.02368 56.23988-28.30658 56.62875-28.76028 57.25989-29.04317 57.6586-29.32607 58.05733-29.77979 58.70468-30.06268 59.11366-30.34558 59.52264-30.79927 60.18686-31.08217 60.60634-31.36507 61.02583-31.81877 61.70735-32.10165 62.13708-32.38455 62.56683-32.83826 63.26332-33.12115 63.70375-33.40404 64.14418-33.85774 64.85966-34.14064 65.3115-34.42354 65.76332-34.87724 66.49704-35.16013 66.96033-35.44302 67.42363-35.89673 68.17567-36.17963 68.65068-36.46251 69.12569-36.91621 69.89716-37.19911 70.38387-37.48201 70.87056-37.93571 71.6595-38.2186 72.15857-38.5015 72.65764-38.95522 73.46906-39.23811 73.98085-39.521 74.49263-39.9747 75.3225-40.2576 75.84726-40.5405 76.37201-40.9942 77.22507-41.27708 77.76295-41.55998 78.30086-42.01369 79.17256-42.29659 79.72409-42.57947 80.27562-43.03317 81.17255-43.31607 81.73799-43.59897 82.30342-44.05266 83.21986-44.33556 83.79947-44.61845 84.37907-45.07216 85.32118-45.35506 85.91544-45.63794 86.50967-46.09164 87.47314-46.37454 88.08246-46.65744 88.69177-47.11115 89.68225-47.39404 90.30699-47.67694 90.93173-48.13065 91.94472-48.41353 92.58517-48.69643 93.22563-49.15013 94.26651-49.43303 94.92305-49.71591 95.57959-50.16962 96.64397-50.45251 97.31714-50.73541 97.99033-51.18912 99.08461-51.472 99.77481-51.7549 100.46503-52.2086 101.5842-52.4915 102.29176-52.77438 102.99933-53.22809 104.14894-53.51099 104.87445-53.79388 105.59995-54.24759 106.77704-54.53047 107.5207-54.81337 108.26439-55.26707 109.4718-55.54997 110.23445-55.83286 110.9971-56.28658 112.23555-56.56947 113.0174-56.85237 113.79926-57.30608 115.06778-57.58896 115.86957-57.87186 116.67134-58.32556 117.97441-58.60846 118.79611-58.89134 119.61781-59.34505 120.9496-59.62794 121.79187-59.91084 122.63416-60.36455 124.00313-60.64743 124.86678-60.93033 125.73044-61.38403 127.13097-61.66693 128.01653-61.94981 128.90209-62.40352 130.34125-62.68642 131.24932-62.96931 132.15738-63.423 133.63047-63.7059 134.56127-63.9888 135.49207-64.4425 137.00371-64.72539 137.95798-65.00829 138.91225-65.462 140.46077-65.7449 141.43904-66.0278 142.41733-66.48149 144.00579-66.76439 145.00878-67.04729 146.01177-67.50099 147.63983-67.78387 148.66805-68.06677 149.69626-68.52048 151.36507-68.80338 152.41945-69.08626 153.47383-69.53996 155.186-69.82286 156.26732-70.10576 157.34864-70.84235 160.21292-70.84235 160.21292"/>
<path transform="matrix(1,0,0,-1.00006,104.75101,161.41779)" d="M-26.35425 56.69362C-26.35425 57.79408-27.24634 58.68617-28.3468 58.68617-29.44728 58.68617-30.33936 57.79408-30.33936 56.69362-30.33936 55.59314-29.44728 54.70107-28.3468 54.70107-27.24634 54.70107-26.35425 55.59314-26.35425 56.69362ZM-28.3468 56.69362"/>
<path transform="matrix(1,0,0,-1.00006,104.75101,161.41779)" stroke-width=".3985" stroke-linecap="butt" stroke-dasharray=".3985,1.99255" stroke-miterlimit="10" stroke-linejoin="miter" fill="none" stroke="#000000" d="M-28.3468 0V56.69362H0"/>
<path transform="matrix(1,0,0,-1.00006,104.75101,161.41779)" stroke-width=".3985" stroke-linecap="butt" stroke-miterlimit="10" stroke-linejoin="miter" fill="none" stroke="#000000" d="M28.3468 3.40146V-3.40146"/>
<use data-text="1" xlink:href="#font_2_3" transform="matrix(9.9626,0,0,-9.963197,130.60701,174.76059)"/>
<path transform="matrix(1,0,0,-1.00006,104.75101,161.41779)" stroke-width=".3985" stroke-linecap="butt" stroke-miterlimit="10" stroke-linejoin="miter" fill="none" stroke="#000000" d="M-28.3468 3.40146V-3.40146"/>
<use data-text="1" xlink:href="#font_2_3" transform="matrix(9.9626,0,0,-9.963197,73.91401,174.76059)"/>
<path transform="matrix(1,0,0,-1.00006,104.75101,161.41779)" stroke-width=".3985" stroke-linecap="butt" stroke-miterlimit="10" stroke-linejoin="miter" fill="none" stroke="#000000" d="M3.40146 28.3468H-3.40146"/>
<use data-text="1" xlink:href="#font_2_3" transform="matrix(9.9626,0,0,-9.963197,92.84801,136.27928)"/>
<path transform="matrix(1,0,0,-1.00006,104.75101,161.41779)" stroke-width=".3985" stroke-linecap="butt" stroke-miterlimit="10" stroke-linejoin="miter" fill="none" stroke="#000000" d="M3.40146 56.69362H-3.40146"/>
<use data-text="2" xlink:href="#font_2_4" transform="matrix(9.9626,0,0,-9.963197,92.84801,107.93158)"/>
<use data-text="O" xlink:href="#font_3_80" transform="matrix(9.9626,0,0,-9.963197,93.48001,171.96242)"/>
<use data-text="(" xlink:href="#font_2_1" transform="matrix(9.9626,0,0,-9.963197,42.996004,107.21153)"/>
<use data-text="&#x2212;" xlink:href="#font_4_1" transform="matrix(9.9626,0,0,-9.963197,46.871004,107.21153)"/>
<use data-text="1" xlink:href="#font_2_3" transform="matrix(9.9626,0,0,-9.963197,54.619005,107.21153)"/>
<use data-text="," xlink:href="#font_1_1" transform="matrix(9.9626,0,0,-9.963197,59.600999,107.21153)"/>
<use data-text="2" xlink:href="#font_2_4" transform="matrix(9.9626,0,0,-9.963197,64.02899,107.21153)"/>
<use data-text=")" xlink:href="#font_2_2" transform="matrix(9.9626,0,0,-9.963197,69.010288,107.21153)"/>
<use data-text="y" xlink:href="#font_1_3" transform="matrix(9.9626,0,0,-9.963197,1.2160034,33.687128)"/>
<use data-text="=" xlink:href="#font_2_5" transform="matrix(9.9626,0,0,-9.963197,9.225998,33.687128)"/>
<use data-text="(" xlink:href="#font_2_1" transform="matrix(9.9626,0,0,-9.963197,19.726578,33.687128)"/>
<use data-text="1" xlink:href="#font_5_1" transform="matrix(6.9738,0,0,-6.9742186,24.811997,29.7649)"/>
<path transform="matrix(1,0,0,-1.00006,-188.535,-112.740657)" stroke-width=".3985" stroke-linecap="butt" stroke-miterlimit="10" stroke-linejoin="miter" fill="none" stroke="#000000" d="M213.347-143.929H217.318"/>
<use data-text="2" xlink:href="#font_5_2" transform="matrix(6.9738,0,0,-6.9742186,24.811997,37.12333)"/>
<use data-text=")" xlink:href="#font_2_2" transform="matrix(9.9626,0,0,-9.963197,29.977997,33.68711)"/>
<use data-text="x" xlink:href="#font_6_1" transform="matrix(6.9738,0,0,-6.9742186,33.852998,30.071892)"/>
</svg>
