<svg xmlns="http://www.w3.org/2000/svg" xmlns:xlink="http://www.w3.org/1999/xlink" xmlns:inkscape="http://www.inkscape.org/namespaces/inkscape" version="1.1" width="197" height="193" viewBox="0 0 197 193">
<defs>
<path id="font_1_3" d="M.2939911 .64004519C.2939911 .66400149 .2939911 .6660156 .2709961 .6660156 .20899964 .60227969 .12098694 .60227969 .08898926 .60227969V.57128909C.10899353 .57128909 .16799927 .57128909 .21998596 .5972748V.07902527C.21998596 .042999269 .21699524 .0309906 .1269989 .0309906H.09498596V0C.12998963 .0029907227 .21699524 .0029907227 .25698854 .0029907227 .29699708 .0029907227 .38398744 .0029907227 .4189911 0V.0309906H.3869934C.29699708 .0309906 .2939911 .041992189 .2939911 .07902527V.64004519Z"/>
<path id="font_1_4" d="M.1269989 .07699585 .23298645 .18003845C.3889923 .31811524 .44898988 .3721466 .44898988 .47216798 .44898988 .5860901 .35899354 .6660156 .23699951 .6660156 .12399292 .6660156 .049987794 .57411196 .049987794 .48516847 .049987794 .4291687 .099990848 .4291687 .102996829 .4291687 .11999512 .4291687 .15499878 .44117738 .15499878 .48217774 .15499878 .5081787 .13699341 .5341797 .101989749 .5341797 .09399414 .5341797 .09199524 .5341797 .08898926 .5331726 .11199951 .59806826 .1659851 .63500979 .22399903 .63500979 .31498719 .63500979 .35798646 .5541382 .35798646 .47216798 .35798646 .39215089 .30799867 .31311036 .25299073 .25108338L.06098938 .036987306C.049987794 .025985718 .049987794 .023986817 .049987794 0H.42099L.44898988 .17404175H.42399598C.4189911 .14402771 .4119873 .1000061 .4019928 .084991458 .394989 .07699585 .32899476 .07699585 .30699159 .07699585H.1269989Z"/>
<path id="font_2_80" d="M.798996 .33924867C.798996 .5552521 .6539917 .6972656 .43199159 .6972656 .20298767 .6972656 .06399536 .5492554 .06399536 .33924867 .06399536 .13224793 .20399475-.0107421879 .43099977-.0107421879 .6609955-.0107421879 .798996 .13424683 .798996 .33924867M.6459961 .3542633C.6459961 .28425599 .6419983 .19525147 .59999087 .12625122 .5549927 .053253175 .4850006 .03125 .43099977 .03125 .37199403 .03125 .29899598 .059249879 .2579956 .1352539 .22499085 .19725037 .21699524 .2682495 .21699524 .3542633 .21699524 .41825868 .21998596 .5032654 .2639923 .57125857 .30499269 .6322632 .37199403 .6572571 .43099977 .6572571 .49499513 .6572571 .56399539 .6292572 .60398867 .56326296 .6419983 .49925233 .6459961 .42225648 .6459961 .3542633Z"/>
<path id="font_1_1" d="M.33099366-.2400055C.33099366-.23701477 .33099366-.23500061 .31399537-.21800232 .18899536-.0920105 .15699768 .09700012 .15699768 .25 .15699768 .42399598 .19499207 .59799197 .31799317 .72299197 .33099366 .73498538 .33099366 .7369995 .33099366 .73999026 .33099366 .746994 .32699586 .75 .32099916 .75 .31098939 .75 .22099304 .6819916 .1619873 .5549927 .11099243 .44499208 .09899902 .33399964 .09899902 .25 .09899902 .17199707 .10998535 .050994874 .16499329-.06201172 .22499085-.18501282 .31098939-.25 .32099916-.25 .32699586-.25 .33099366-.24700928 .33099366-.2400055Z"/>
<path id="font_3_1" d="M.20298767 .0009918213C.20298767 .066986087 .17799378 .10598755 .13899231 .10598755 .10598755 .10598755 .085998538 .08099365 .085998538 .052993776 .085998538 .025985718 .10598755 0 .13899231 0 .15098572 0 .1639862 .0039978029 .17399597 .0129852299 .1769867 .01499939 .17799378 .015991211 .1789856 .015991211 .17999268 .015991211 .18099976 .01499939 .18099976 .0009918213 .18099976-.07316589 .1459961-.13328552 .11299133-.16635132 .101989749-.17736817 .101989749-.17936707 .101989749-.18237305 .101989749-.18936157 .10699463-.19335938 .11199951-.19335938 .12298584-.19335938 .20298767-.116256717 .20298767 .0009918213Z"/>
<path id="font_1_2" d="M.2889862 .25C.2889862 .32798768 .27799989 .44898988 .22299195 .56199648 .16299439 .68499758 .07699585 .75 .066986087 .75 .06098938 .75 .056991579 .74598696 .056991579 .73999026 .056991579 .7369995 .056991579 .73498538 .07598877 .71699526 .17399597 .6179962 .23098755 .45899964 .23098755 .25 .23098755 .07899475 .19400025-.09700012 .069992069-.2230072 .056991579-.23500061 .056991579-.23701477 .056991579-.2400055 .056991579-.2460022 .06098938-.25 .066986087-.25 .07699585-.25 .16699219-.18200684 .22599793-.055007936 .2769928 .054992677 .2889862 .16600037 .2889862 .25Z"/>
<path id="font_3_3" d="M.48599244 .38136292C.48999024 .39537049 .48999024 .39736939 .48999024 .40437318 .48999024 .42237855 .47599793 .43138124 .46099855 .43138124 .45098878 .43138124 .43499757 .42536927 .42599488 .41036988 .42399598 .405365 .41600038 .37435914 .4119873 .35635377 .40499879 .33035279 .397995 .30334474 .3919983 .27633668L.34700013 .09628296C.34298707 .08126831 .2999878 .011245728 .23399353 .011245728 .18299866 .011245728 .17199707 .055267335 .17199707 .0922699 .17199707 .1382904 .18899536 .20030213 .22299195 .28833009 .23899842 .3293457 .24299622 .3403473 .24299622 .36035157 .24299622 .405365 .21099854 .4423828 .16099549 .4423828 .06599426 .4423828 .0289917 .29733277 .0289917 .28833009 .0289917 .27833558 .038986207 .27833558 .040985109 .27833558 .050994874 .27833558 .051986696 .28033448 .056991579 .29634095 .083999637 .3903656 .12399292 .42037965 .1579895 .42037965 .1659851 .42037965 .18299866 .42037965 .18299866 .3883667 .18299866 .36335755 .17298889 .3373413 .1659851 .31834413 .12599182 .21231079 .10798645 .1552887 .10798645 .10827637 .10798645 .019256592 .17098999-.0107421879 .22999573-.0107421879 .2689972-.0107421879 .30299378 .0062561037 .33099366 .03425598 .31799317-.017745972 .30599977-.06674194 .2659912-.11973572 .23999024-.15385437 .20199585-.18309021 .1559906-.18309021 .14199829-.18309021 .09700012-.18005371 .07998657-.14074707 .09599304-.14074707 .10899353-.14074707 .12298584-.1287384 .1329956-.11973572 .14299011-.10673523 .14299011-.08773804 .14299011-.056747438 .115997318-.052734376 .10598755-.052734376 .08299255-.052734376 .049987794-.068740848 .049987794-.11773682 .049987794-.16796875 .09399414-.20507813 .1559906-.20507813 .25898744-.20507813 .3619995-.11373901 .3899994-.00074768069L.48599244 .38136292Z"/>
<path id="font_1_5" d="M.68699648 .32714845C.70199587 .32714845 .72099307 .32714845 .72099307 .34713746 .72099307 .36714173 .70199587 .36714173 .6879883 .36714173H.08898926C.07499695 .36714173 .055999757 .36714173 .055999757 .34713746 .055999757 .32714845 .07499695 .32714845 .08999634 .32714845H.68699648M.6879883 .13284302C.70199587 .13284302 .72099307 .13284302 .72099307 .15284729 .72099307 .17285156 .70199587 .17285156 .68699648 .17285156H.08999634C.07499695 .17285156 .055999757 .17285156 .055999757 .15284729 .055999757 .13284302 .07499695 .13284302 .08898926 .13284302H.6879883Z"/>
<path id="font_4_1" d="M.24899292 .10601807C.23899842 .072021488 .20599365 .018234253 .15499878 .018234253 .1519928 .018234253 .12199402 .018234253 .100997928 .03215027 .14199829 .04508972 .14498902 .08100891 .14498902 .087020877 .14498902 .10900879 .12799073 .12402344 .10499573 .12402344 .07699585 .12402344 .04798889 .10002136 .04798889 .0630188 .04798889 .01322937 .10398865-.009765625 .15299988-.009765625 .19898987-.009765625 .23999024 .019226075 .2649994 .061019899 .2889862 .008224487 .34399415-.009765625 .38398744-.009765625 .49899293-.009765625 .55999758 .11502075 .55999758 .14305115 .55999758 .15608216 .5469971 .15608216 .5439911 .15608216 .5299988 .15608216 .5289917 .15107727 .5249939 .13905335 .5039978 .07002258 .44400025 .018234253 .3880005 .018234253 .34799195 .018234253 .32699586 .04508972 .32699586 .08302307 .32699586 .10900879 .35099793 .20018006 .3789978 .31140138 .39898683 .38841249 .44400025 .4133911 .47698976 .4133911 .47898866 .4133911 .5099945 .4133911 .5309906 .39941407 .49899293 .39041139 .4869995 .3624115 .4869995 .34440614 .4869995 .32240296 .5039978 .30740357 .5269928 .30740357 .5499878 .30740357 .58299258 .32640077 .58299258 .3684082 .58299258 .4243927 .5189972 .44140626 .47898866 .44140626 .42900086 .44140626 .3889923 .4084015 .36698915 .3704071 .34899903 .4113922 .30299378 .44140626 .24699402 .44140626 .1349945 .44140626 .070999149 .31840516 .070999149 .2883606 .070999149 .27534486 .084991458 .27534486 .08799744 .27534486 .100997928 .27534486 .101989749 .27934266 .10699463 .29237367 .13198853 .3704071 .19499207 .4133911 .24398804 .4133911 .2769928 .4133911 .3039856 .395401 .3039856 .3474121 .3039856 .32740785 .2919922 .27734376 .2829895 .24327088L.24899292 .10601807Z"/>
<path id="font_3_2" d="M.33399964 .30233766C.33999635 .32835389 .36299134 .42037965 .43299867 .42037965 .43798829 .42037965 .46199037 .42037965 .48298646 .40734864 .45498658 .402359 .43499757 .37734986 .43499757 .35334779 .43499757 .33735658 .44599916 .31835938 .47299195 .31835938 .49499513 .31835938 .5269928 .3363495 .5269928 .37635804 .5269928 .42837525 .46798707 .4423828 .43399049 .4423828 .37599183 .4423828 .34098817 .38935853 .32899476 .36634828 .3039856 .43237306 .25 .4423828 .22099304 .4423828 .116989139 .4423828 .05999756 .3133545 .05999756 .28834535 .05999756 .27833558 .069992069 .27833558 .07199097 .27833558 .07998657 .27833558 .08299255 .28033448 .084991458 .28933717 .11898804 .39535523 .18499756 .42037965 .21899414 .42037965 .23799134 .42037965 .272995 .4113617 .272995 .35334779 .272995 .32235719 .2559967 .25532533 .21899414 .11528015 .20298767 .053268434 .16799927 .011245728 .12399292 .011245728 .117996219 .011245728 .09498596 .011245728 .07398987 .024276734 .09899902 .029266358 .12098694 .05027771 .12098694 .07827759 .12098694 .105270389 .09899902 .11328125 .083999637 .11328125 .053985597 .11328125 .0289917 .08728027 .0289917 .055267335 .0289917 .009246826 .07899475-.0107421879 .12298584-.0107421879 .18899536-.0107421879 .22499085 .059280397 .22799683 .0652771 .23999024 .028274537 .27598573-.0107421879 .33599855-.0107421879 .43899537-.0107421879 .49598695 .118270877 .49598695 .14328003 .49598695 .1532898 .4869995 .1532898 .48399354 .1532898 .47499085 .1532898 .47299195 .14929199 .47099305 .14228821 .43798829 .03527832 .36999513 .011245728 .33799745 .011245728 .29899598 .011245728 .2829895 .043273927 .2829895 .07727051 .2829895 .09927368 .2889862 .121276859 .2999878 .16529846L.33399964 .30233766Z"/>
</defs>
<path transform="matrix(1.00005,0,0,-1,1.4941788,191.26999)" stroke-width=".19925" stroke-linecap="butt" stroke-miterlimit="10" stroke-linejoin="miter" fill="none" stroke="#7f807f" d="M123.62628 47.53284V51.7847"/>
<path transform="matrix(1.00005,0,0,-1,1.4941788,191.26999)" stroke-width=".19925" stroke-linecap="butt" stroke-miterlimit="10" stroke-linejoin="miter" fill="none" stroke="#7f807f" d="M86.17847 74.48816H90.43048M86.17847 99.31755H90.43048"/>
<path transform="matrix(1.00005,0,0,-1,1.4941788,191.26999)" stroke-width="1.19553" stroke-linecap="butt" stroke-miterlimit="10" stroke-linejoin="miter" fill="none" stroke="#000000" d="M0 49.65877H191.08179"/>
<path transform="matrix(1.00005,0,0,-1,192.58551,141.61122)" d="M3.18808 0-1.91284 2.55046 0 0-1.91284-2.55046"/>
<path transform="matrix(1.00005,0,0,-1,1.4941788,191.26999)" stroke-width="1.19553" stroke-linecap="butt" stroke-miterlimit="10" stroke-linejoin="miter" fill="none" stroke="#000000" d="M88.30449 0V158.20296"/>
<path transform="matrix(0,-1,-1.00005,-0,89.80308,33.06703)" d="M3.18808 0-1.91284 2.55046 0 0-1.91284-2.55046"/>
<use data-text="1" xlink:href="#font_1_3" transform="matrix(9.963098,0,0,-9.9626,122.63623,154.07599)"/>
<use data-text="1" xlink:href="#font_1_3" transform="matrix(9.963098,0,0,-9.9626,78.77704,119.99199)"/>
<use data-text="2" xlink:href="#font_1_4" transform="matrix(9.963098,0,0,-9.9626,78.77704,95.16299)"/>
<path transform="matrix(1.00005,0,0,-1,1.4941788,191.26999)" stroke-width="1.19553" stroke-linecap="butt" stroke-miterlimit="10" stroke-linejoin="miter" fill="none" stroke="#000000" d="M17.66089 55.86612 18.80438 56.00888 19.94789 56.1529 21.0914 56.29964 22.23491 56.4511 23.37842 56.60478 24.52193 56.76146 25.66544 56.92285 26.80894 57.08946 27.95245 57.25804 29.09596 57.42961 30.23944 57.60591 31.38295 57.78741 32.52646 57.97116 33.66997 58.15985 34.81348 58.35327 35.95699 58.54968 37.1005 58.7508 38.244 58.95688 39.38751 59.16794 40.53102 59.38445 41.67451 59.60516 42.81802 59.83138 43.96153 60.06204 45.10504 60.29817 46.24855 60.53902 47.39206 60.78731 48.53557 61.03809 49.67908 61.2963 50.82257 61.56247 51.96608 61.83014 53.10957 62.10872 54.25308 62.38905 55.39659 62.67955 56.5401 62.97527 57.68361 63.27594 58.82712 63.58632 59.97063 63.9014 61.11414 64.22469 62.25764 64.55466 63.40115 64.8926 64.54466 65.24045 65.68817 65.59303 66.83168 65.95306 67.97519 66.32326 69.1187 66.70316 70.26219 67.08826 71.4057 67.48552 72.54921 67.89024 73.69272 68.30241 74.83623 68.72476 75.97974 69.15953 77.12325 69.60149 78.26675 70.05363 79.41026 70.51546 80.55377 70.9897 81.69728 71.47388 82.84079 71.96823 83.9843 72.47475 85.12779 72.9917 86.27132 73.5228 87.41483 74.06432 88.55833 74.61156 89.70181 75.17816 90.84534 75.75694 91.98885 76.34962 93.13234 76.95496 94.27585 77.57396 95.41936 78.2071 96.56288 78.8549 97.70638 79.5181 98.84988 80.1947 99.9934 80.88792 101.1369 81.59657 102.28041 82.32083 103.42392 83.06273 104.56743 83.82004 105.71094 84.59546 106.85445 85.38776 107.99796 86.19844 109.14145 87.02824 110.28496 87.87492 111.42847 88.7427 112.57198 89.62837 113.71548 90.53664 114.859 91.46402 116.0025 92.4125 117.14601 93.38232 118.28952 94.37401 119.43303 95.38953 120.57654 96.42691 121.72005 97.48836 122.86356 98.57343 124.00706 99.68279 125.15057 100.81775 126.29407 101.97926 127.43758 103.16685 128.58107 104.38002 129.72458 105.62172 130.86809 106.89224 132.0116 108.19057 133.1551 109.5182 134.29862 110.87639 135.44213 112.26633 136.58563 113.68607 137.72913 115.13785 138.87264 116.62488 140.01615 118.1442 141.15966 119.69951 142.30316 121.28835 143.44667 122.91267 144.59018 124.57475 145.73369 126.27432 146.8772 128.01412 148.02069 129.79091 149.16419 131.60942 150.3077 133.46938 151.4512 135.36983 152.59471 137.31545 153.73822 139.30429 154.88173 141.33982 156.02524 143.41753 157.16875 145.5449 158.31226 147.72344 159.45577 149.94742 160.59926 152.22129 161.74277 154.54978 162.88628 156.92795 164.02979 159.36322 165.1733 161.85211 166.3168 164.3981 167.4603 167.00199 168.6038 169.66469 169.74732 172.38773 170.89083 175.17234 172.03432 178.02101 173.17783 180.93177 174.32134 183.91353 175.46485 186.95909 176.60836 190.07494"/>
<path transform="matrix(1.00005,0,0,-1,1.4941788,191.26999)" stroke-width="1.19553" stroke-linecap="butt" stroke-dasharray="1.19553,1.99255" stroke-miterlimit="10" stroke-linejoin="miter" fill="none" stroke="#000000" d="M123.62628 49.65877V99.31755H88.30449"/>
<use data-text="O" xlink:href="#font_2_80" transform="matrix(9.963098,0,0,-9.9626,81.9662,152.47399)"/>
<use data-text="(" xlink:href="#font_1_1" transform="matrix(9.963098,0,0,-9.9626,124.65333,94.442989)"/>
<use data-text="1" xlink:href="#font_1_3" transform="matrix(9.963098,0,0,-9.9626,128.51902,94.442989)"/>
<use data-text="," xlink:href="#font_3_1" transform="matrix(9.963098,0,0,-9.9626,133.50977,94.442989)"/>
<use data-text="2" xlink:href="#font_1_4" transform="matrix(9.963098,0,0,-9.9626,137.93799,94.442989)"/>
<use data-text=")" xlink:href="#font_1_2" transform="matrix(9.963098,0,0,-9.9626,142.91954,94.442989)"/>
<use data-text="y" xlink:href="#font_3_3" transform="matrix(9.963098,0,0,-9.9626,153.25278,54.565996)"/>
<use data-text="=" xlink:href="#font_1_5" transform="matrix(9.963098,0,0,-9.9626,161.26218,54.565996)"/>
<use data-text="2" xlink:href="#font_1_4" transform="matrix(9.963098,0,0,-9.9626,171.76328,54.565996)"/>
<use data-text="x" xlink:href="#font_4_1" transform="matrix(6.9741489,0,0,-6.9738,176.76094,50.95099)"/>
<path transform="matrix(1.00005,0,0,-1,1.4941788,191.26999)" d="M125.61884 99.31755C125.61884 100.41803 124.72675 101.3101 123.62628 101.3101 122.5258 101.3101 121.63373 100.41803 121.63373 99.31755 121.63373 98.21709 122.5258 97.325 123.62628 97.325 124.72675 97.325 125.61884 98.21709 125.61884 99.31755ZM123.62628 99.31755"/>
<path transform="matrix(1.00005,0,0,-1,1.4941788,191.26999)" stroke-width="1.19553" stroke-linecap="butt" stroke-miterlimit="10" stroke-linejoin="miter" fill="none" stroke="#000000" d="M125.61884 99.31755C125.61884 100.41803 124.72675 101.3101 123.62628 101.3101 122.5258 101.3101 121.63373 100.41803 121.63373 99.31755 121.63373 98.21709 122.5258 97.325 123.62628 97.325 124.72675 97.325 125.61884 98.21709 125.61884 99.31755ZM123.62628 99.31755"/>
<path transform="matrix(1.00005,0,0,-1,1.4941788,191.26999)" stroke-width="1.19553" stroke-linecap="butt" stroke-miterlimit="10" stroke-linejoin="miter" fill="none" stroke="#000000" d=""/>
<use data-text="x" xlink:href="#font_3_2" transform="matrix(9.963098,0,0,-9.9626,186.2044,137.68199)"/>
<use data-text="y" xlink:href="#font_3_3" transform="matrix(9.963098,0,0,-9.9626,93.73579,38.063997)"/>
</svg>
