<svg xmlns="http://www.w3.org/2000/svg" xmlns:xlink="http://www.w3.org/1999/xlink" xmlns:inkscape="http://www.inkscape.org/namespaces/inkscape" version="1.1" width="392" height="198" viewBox="0 0 392 198">
<defs>
<path id="font_1_1" d="M.6589966 .23046875C.6759949 .23046875 .69400027 .23046875 .69400027 .25045777 .69400027 .27046205 .6759949 .27046205 .6589966 .27046205H.117996219C.100997928 .27046205 .08299255 .27046205 .08299255 .25045777 .08299255 .23046875 .100997928 .23046875 .117996219 .23046875H.6589966Z"/>
<path id="font_2_3" d="M.1269989 .07699585 .23298645 .18003845C.3889923 .31811524 .44898988 .3721466 .44898988 .47216798 .44898988 .5860901 .35899354 .6660156 .23699951 .6660156 .12399292 .6660156 .049987794 .57411196 .049987794 .48516847 .049987794 .4291687 .099990848 .4291687 .102996829 .4291687 .11999512 .4291687 .15499878 .44117738 .15499878 .48217774 .15499878 .5081787 .13699341 .5341797 .101989749 .5341797 .09399414 .5341797 .09199524 .5341797 .08898926 .5331726 .11199951 .59806826 .1659851 .63500979 .22399903 .63500979 .31498719 .63500979 .35798646 .5541382 .35798646 .47216798 .35798646 .39215089 .30799867 .31311036 .25299073 .25108338L.06098938 .036987306C.049987794 .025985718 .049987794 .023986817 .049987794 0H.42099L.44898988 .17404175H.42399598C.4189911 .14402771 .4119873 .1000061 .4019928 .084991458 .394989 .07699585 .32899476 .07699585 .30699159 .07699585H.1269989Z"/>
<path id="font_2_2" d="M.2939911 .64004519C.2939911 .66400149 .2939911 .6660156 .2709961 .6660156 .20899964 .60227969 .12098694 .60227969 .08898926 .60227969V.57128909C.10899353 .57128909 .16799927 .57128909 .21998596 .5972748V.07902527C.21998596 .042999269 .21699524 .0309906 .1269989 .0309906H.09498596V0C.12998963 .0029907227 .21699524 .0029907227 .25698854 .0029907227 .29699708 .0029907227 .38398744 .0029907227 .4189911 0V.0309906H.3869934C.29699708 .0309906 .2939911 .041992189 .2939911 .07902527V.64004519Z"/>
<path id="font_3_1" d="M.19198609 .052993776C.19198609 .08198547 .16799927 .10598755 .13899231 .10598755 .10998535 .10598755 .085998538 .08198547 .085998538 .052993776 .085998538 .023986817 .10998535 0 .13899231 0 .16799927 0 .19198609 .023986817 .19198609 .052993776Z"/>
<path id="font_2_5" d="M.44898988 .20022583C.44898988 .3193512 .36698915 .41944886 .25898744 .41944886 .21099854 .41944886 .16799927 .40345765 .13198853 .36842347V.5637665C.1519928 .5577698 .18499756 .55078127 .21699524 .55078127 .33999635 .55078127 .4099884 .6417694 .4099884 .6547699 .4099884 .6607666 .40699769 .6657715 .3999939 .6657715 .39898683 .6657715 .39698792 .6657715 .3919983 .66278079 .37199403 .6537781 .32299806 .6337738 .2559967 .6337738 .21598816 .6337738 .16999817 .6407776 .12298584 .6617737 .114990238 .66477969 .11299133 .66477969 .11099243 .66477969 .100997928 .66477969 .100997928 .6567688 .100997928 .6407776V.34439088C.100997928 .32637025 .100997928 .31835938 .114990238 .31835938 .12199402 .31835938 .12399292 .32136537 .12799073 .32736207 .13899231 .3433838 .17599488 .39746095 .25698854 .39746095 .30899049 .39746095 .33399964 .35139466 .34199525 .33337403 .35798646 .29632569 .3600006 .25727845 .3600006 .20722962 .3600006 .17222595 .3600006 .11222839 .33599855 .07035828 .31199647 .031463624 .2749939 .0055389406 .22898865 .0055389406 .1559906 .0055389406 .09899902 .058380128 .08198547 .11723328 .084991458 .1162262 .08799744 .115234378 .09899902 .115234378 .13198853 .115234378 .14898682 .14022827 .14898682 .16423035 .14898682 .18823242 .13198853 .21322632 .09899902 .21322632 .084991458 .21322632 .049987794 .20622254 .049987794 .16023255 .049987794 .07434082 .11898804-.022460938 .23098755-.022460938 .34700013-.022460938 .44898988 .073349 .44898988 .20022583Z"/>
<path id="font_2_1" d="M.45999146 .31976319C.45999146 .39982606 .45498658 .47988893 .41999818 .5539398 .37399293 .65000918 .2919922 .6660156 .25 .6660156 .18998719 .6660156 .116989139 .64001467 .07598877 .54693606 .04399109 .47789 .038986207 .39982606 .038986207 .31976319 .038986207 .24472046 .042999269 .15464783 .083999637 .07859802 .1269989-.0024719239 .19999695-.022460938 .24899292-.022460938 .30299378-.022460938 .3789978-.0014648438 .4229889 .09359741 .45498658 .16265869 .45999146 .2407074 .45999146 .31976319M.24899292-.00047302247C.20999146-.00047302247 .15098572 .024551392 .1329956 .12062073 .12199402 .18066406 .12199402 .2727356 .12199402 .3317871 .12199402 .39582826 .12199402 .46188355 .12998963 .5159149 .14898682 .63500979 .22399903 .64401248 .24899292 .64401248 .28199769 .64401248 .34799195 .6259918 .36698915 .52693179 .3769989 .47088624 .3769989 .39482118 .3769989 .3317871 .3769989 .25672914 .3769989 .18867493 .3659973 .12461853 .35099793 .029556275 .2939911-.00047302247 .24899292-.00047302247Z"/>
<path id="font_2_4" d="M.2899933 .35191346C.37199403 .37893678 .42999269 .4490509 .42999269 .52809146 .42999269 .6100464 .34199525 .6660156 .24598694 .6660156 .14498902 .6660156 .068984989 .60606387 .068984989 .53009036 .068984989 .49710084 .09098816 .47808839 .11999512 .47808839 .15098572 .47808839 .17098999 .50009158 .17098999 .5290985 .17098999 .57910159 .12399292 .57910159 .10899353 .57910159 .13999939 .62802127 .20599365 .64100649 .24198914 .64100649 .2829895 .64100649 .33799745 .6190338 .33799745 .5290985 .33799745 .51708987 .33599855 .45906068 .30999757 .4149933 .27999879 .36691285 .24598694 .36390687 .22099304 .36291505 .21299744 .36190797 .18899536 .35990907 .18199158 .35990907 .17399597 .35890199 .16699219 .35791017 .16699219 .3479004 .16699219 .33691407 .17399597 .33691407 .19099427 .33691407H.23498535C.31698609 .33691407 .35398866 .2686615 .35398866 .17037964 .35398866 .034469606 .2849884 .0055389406 .24099732 .0055389406 .19799805 .0055389406 .12298584 .022491456 .08799744 .08137512 .12298584 .07637024 .1539917 .09837341 .1539917 .1363678 .1539917 .17237854 .1269989 .19238281 .09799194 .19238281 .07398987 .19238281 .041992189 .17837525 .041992189 .1343689 .041992189 .043441774 .1349945-.022460938 .24398804-.022460938 .3659973-.022460938 .45700074 .06838989 .45700074 .17037964 .45700074 .252594 .3939972 .33088685 .2899933 .35191346Z"/>
<clipPath id="clip_4">
<path transform="matrix(1.00002,0,0,-1.00005,6.581848,183.1464)" d="M0 0H295.32679V181.94232H0Z"/>
</clipPath>
<path id="font_3_3" d="M.33399964 .30233766C.33999635 .32835389 .36299134 .42037965 .43299867 .42037965 .43798829 .42037965 .46199037 .42037965 .48298646 .40734864 .45498658 .402359 .43499757 .37734986 .43499757 .35334779 .43499757 .33735658 .44599916 .31835938 .47299195 .31835938 .49499513 .31835938 .5269928 .3363495 .5269928 .37635804 .5269928 .42837525 .46798707 .4423828 .43399049 .4423828 .37599183 .4423828 .34098817 .38935853 .32899476 .36634828 .3039856 .43237306 .25 .4423828 .22099304 .4423828 .116989139 .4423828 .05999756 .3133545 .05999756 .28834535 .05999756 .27833558 .069992069 .27833558 .07199097 .27833558 .07998657 .27833558 .08299255 .28033448 .084991458 .28933717 .11898804 .39535523 .18499756 .42037965 .21899414 .42037965 .23799134 .42037965 .272995 .4113617 .272995 .35334779 .272995 .32235719 .2559967 .25532533 .21899414 .11528015 .20298767 .053268434 .16799927 .011245728 .12399292 .011245728 .117996219 .011245728 .09498596 .011245728 .07398987 .024276734 .09899902 .029266358 .12098694 .05027771 .12098694 .07827759 .12098694 .105270389 .09899902 .11328125 .083999637 .11328125 .053985597 .11328125 .0289917 .08728027 .0289917 .055267335 .0289917 .009246826 .07899475-.0107421879 .12298584-.0107421879 .18899536-.0107421879 .22499085 .059280397 .22799683 .0652771 .23999024 .028274537 .27598573-.0107421879 .33599855-.0107421879 .43899537-.0107421879 .49598695 .118270877 .49598695 .14328003 .49598695 .1532898 .4869995 .1532898 .48399354 .1532898 .47499085 .1532898 .47299195 .14929199 .47099305 .14228821 .43798829 .03527832 .36999513 .011245728 .33799745 .011245728 .29899598 .011245728 .2829895 .043273927 .2829895 .07727051 .2829895 .09927368 .2889862 .121276859 .2999878 .16529846L.33399964 .30233766Z"/>
<path id="font_3_4" d="M.48599244 .38136292C.48999024 .39537049 .48999024 .39736939 .48999024 .40437318 .48999024 .42237855 .47599793 .43138124 .46099855 .43138124 .45098878 .43138124 .43499757 .42536927 .42599488 .41036988 .42399598 .405365 .41600038 .37435914 .4119873 .35635377 .40499879 .33035279 .397995 .30334474 .3919983 .27633668L.34700013 .09628296C.34298707 .08126831 .2999878 .011245728 .23399353 .011245728 .18299866 .011245728 .17199707 .055267335 .17199707 .0922699 .17199707 .1382904 .18899536 .20030213 .22299195 .28833009 .23899842 .3293457 .24299622 .3403473 .24299622 .36035157 .24299622 .405365 .21099854 .4423828 .16099549 .4423828 .06599426 .4423828 .0289917 .29733277 .0289917 .28833009 .0289917 .27833558 .038986207 .27833558 .040985109 .27833558 .050994874 .27833558 .051986696 .28033448 .056991579 .29634095 .083999637 .3903656 .12399292 .42037965 .1579895 .42037965 .1659851 .42037965 .18299866 .42037965 .18299866 .3883667 .18299866 .36335755 .17298889 .3373413 .1659851 .31834413 .12599182 .21231079 .10798645 .1552887 .10798645 .10827637 .10798645 .019256592 .17098999-.0107421879 .22999573-.0107421879 .2689972-.0107421879 .30299378 .0062561037 .33099366 .03425598 .31799317-.017745972 .30599977-.06674194 .2659912-.11973572 .23999024-.15385437 .20199585-.18309021 .1559906-.18309021 .14199829-.18309021 .09700012-.18005371 .07998657-.14074707 .09599304-.14074707 .10899353-.14074707 .12298584-.1287384 .1329956-.11973572 .14299011-.10673523 .14299011-.08773804 .14299011-.056747438 .115997318-.052734376 .10598755-.052734376 .08299255-.052734376 .049987794-.068740848 .049987794-.11773682 .049987794-.16796875 .09399414-.20507813 .1559906-.20507813 .25898744-.20507813 .3619995-.11373901 .3899994-.00074768069L.48599244 .38136292Z"/>
<path id="font_2_6" d="M.68699648 .32714845C.70199587 .32714845 .72099307 .32714845 .72099307 .34713746 .72099307 .36714173 .70199587 .36714173 .6879883 .36714173H.08898926C.07499695 .36714173 .055999757 .36714173 .055999757 .34713746 .055999757 .32714845 .07499695 .32714845 .08999634 .32714845H.68699648M.6879883 .13284302C.70199587 .13284302 .72099307 .13284302 .72099307 .15284729 .72099307 .17285156 .70199587 .17285156 .68699648 .17285156H.08999634C.07499695 .17285156 .055999757 .17285156 .055999757 .15284729 .055999757 .13284302 .07499695 .13284302 .08898926 .13284302H.6879883Z"/>
<path id="font_2_7" d="M.116989139 .21801758C.116989139 .38093568 .19898987 .42323304 .2519989 .42323304 .26098634 .42323304 .32398988 .42222596 .35899354 .38594056 .31799317 .38293458 .31199647 .3529358 .31199647 .3399353 .31199647 .31393434 .32998658 .2939453 .35798646 .2939453 .38398744 .2939453 .4039917 .3109436 .4039917 .34094239 .4039917 .40911866 .32798768 .4482422 .25099183 .4482422 .12599182 .4482422 .033996583 .3399353 .033996583 .21601868 .033996583 .08816528 .1329956-.0107421879 .24899292-.0107421879 .3829956-.0107421879 .4149933 .10914612 .4149933 .119140628 .4149933 .12911988 .40499879 .12911988 .4019928 .12911988 .3929901 .12911988 .3909912 .12512207 .3889923 .119140628 .3600006 .026229859 .29499818 .014251709 .2579956 .014251709 .20498657 .014251709 .116989139 .0572052 .116989139 .21801758Z"/>
<path id="font_2_9" d="M.47099305 .21424866C.47099305 .34223939 .37098695 .4482422 .25 .4482422 .125 .4482422 .027999878 .3392334 .027999878 .21424866 .027999878 .085250858 .13198853-.0107421879 .24899292-.0107421879 .36999513-.0107421879 .47099305 .087249759 .47099305 .21424866M.25 .014251709C.20698548 .014251709 .16299439 .035247804 .13598633 .08125305 .11099243 .12524414 .11099243 .18624878 .11099243 .22224427 .11099243 .26124574 .11099243 .31523133 .1349945 .35923768 .1619873 .40522767 .20899964 .426239 .24899292 .426239 .29299928 .426239 .33599855 .40423585 .3619995 .36123658 .3880005 .3182373 .3880005 .26023866 .3880005 .22224427 .3880005 .18624878 .3880005 .13224793 .3659973 .08824158 .34399415 .04324341 .2999878 .014251709 .25 .014251709Z"/>
<path id="font_2_10" d="M.20799256 .19424439C.22999573 .19024658 .31199647 .17424011 .31199647 .102249149 .31199647 .051254274 .2769928 .011245728 .19898987 .011245728 .114990238 .011245728 .07899475 .06825256 .05999756 .15324402 .056991579 .1662445 .055999757 .17024231 .04598999 .17024231 .032989503 .17024231 .032989503 .16323853 .032989503 .14524842V.013244629C.032989503-.003753662 .032989503-.0107421879 .04399109-.0107421879 .04899597-.0107421879 .049987794-.009750366 .068984989 .009246826 .070999149 .011245728 .070999149 .013244629 .08898926 .03224182 .1329956-.009750366 .17799378-.0107421879 .19898987-.0107421879 .31399537-.0107421879 .3600006 .056243898 .3600006 .12825012 .3600006 .1812439 .32998658 .21124268 .31799317 .22323609 .2849884 .25523377 .24598694 .26324464 .20399475 .27124024 .147995 .28224183 .08099365 .2952423 .08099365 .35324098 .08099365 .38822938 .10699463 .42922975 .19299317 .42922975 .30299378 .42922975 .30799867 .3392334 .30999757 .3082428 .31098939 .2992401 .31999208 .2992401 .32199098 .2992401 .33499146 .2992401 .33499146 .304245 .33499146 .3232422V.4242401C.33499146 .4412384 .33499146 .4482422 .32398988 .4482422 .31900025 .4482422 .31698609 .4482422 .3039856 .43623353 .30099488 .43223573 .29100038 .42323304 .2869873 .42022706 .24899292 .4482422 .20799256 .4482422 .19299317 .4482422 .070999149 .4482422 .032989503 .38124085 .032989503 .3252411 .032989503 .29023744 .04899597 .26223756 .07598877 .24023438 .10798645 .21424866 .13598633 .2082367 .20799256 .19424439Z"/>
<path id="font_2_8" d="M.10998535 .076034549C.10998535 .0309906 .09899902 .0309906 .03199768 .0309906V0C.066986087 .0009918213 .117996219 .0029907227 .14498902 .0029907227 .17098999 .0029907227 .22299195 .0009918213 .25698854 0V.0309906C.18998719 .0309906 .1789856 .0309906 .1789856 .076034549V.2602234C.1789856 .36431886 .25 .42037965 .31399537 .42037965 .3769989 .42037965 .3880005 .36631776 .3880005 .30926515V.076034549C.3880005 .0309906 .3769989 .0309906 .30999757 .0309906V0C.34498597 .0009918213 .3959961 .0029907227 .4229889 .0029907227 .44898988 .0029907227 .5009918 .0009918213 .5349884 0V.0309906C.48298646 .0309906 .45799256 .0309906 .45700074 .061019899V.25221253C.45700074 .3383026 .45700074 .36932374 .42599488 .405365 .4119873 .42237855 .3789978 .4423828 .32099916 .4423828 .23699951 .4423828 .19299317 .38233949 .17599488 .34429933V.69433596L.03199768 .68333438V.6523285C.101989749 .6523285 .10998535 .6453247 .10998535 .596344V.076034549Z"/>
<path id="font_5_1" d="M.33499146 .63612368C.33499146 .6630554 .33299256 .6640625 .30499269 .6640625 .24099732 .6014404 .1499939 .6004486 .10899353 .6004486V.5644531C.1329956 .5644531 .19898987 .5644531 .2539978 .592453V.08203125C.2539978 .04899597 .2539978 .035995485 .1539917 .035995485H.115997318V0C.13398743 .0009918213 .25698854 .0039978029 .2939911 .0039978029 .32499696 .0039978029 .45098878 .0009918213 .47299195 0V.035995485H.43499757C.33499146 .035995485 .33499146 .04899597 .33499146 .08203125V.63612368Z"/>
<path id="font_5_2" d="M.5049896 .18203736H.47099305C.46798707 .16001892 .45799256 .100997928 .44499208 .09098816 .43699647 .084991458 .3600006 .084991458 .34599305 .084991458H.1619873C.2669983 .17803955 .3019867 .20603943 .3619995 .25306703 .43598939 .312088 .5049896 .374115 .5049896 .46914674 .5049896 .5900879 .39898683 .6640625 .2709961 .6640625 .14698792 .6640625 .06298828 .57710269 .06298828 .4851532 .06298828 .43414308 .10598755 .42915345 .115997318 .42915345 .13999939 .42915345 .16899109 .44615174 .16899109 .48214723 .16899109 .5001526 .1619873 .53515627 .10998535 .53515627 .14099121 .6060791 .20899964 .62805178 .2559967 .62805178 .35598756 .62805178 .4079895 .5501404 .4079895 .46914674 .4079895 .38212586 .34599305 .3130951 .31399537 .27708436L.07299805 .038986207C.06298828 .02999878 .06298828 .027999878 .06298828 0H.47499085L.5049896 .18203736Z"/>
<path id="font_3_2" d="M.18699646 .23144531C.21598816 .23144531 .2899933 .23344422 .33999635 .2544403 .4099884 .28442384 .4149933 .34339906 .4149933 .35740663 .4149933 .40138246 .3769989 .4423828 .30799867 .4423828 .19699097 .4423828 .04598999 .34539796 .04598999 .17037964 .04598999 .06829834 .10499573-.0107421879 .20298767-.0107421879 .34599305-.0107421879 .42999269 .095321658 .42999269 .10733032 .42999269 .113342288 .42399598 .12034607 .41799928 .12034607 .41299439 .12034607 .41099549 .11834717 .40499879 .1103363 .32598878 .011245728 .21699524 .011245728 .20498657 .011245728 .1269989 .011245728 .117996219 .095321658 .117996219 .12734986 .117996219 .13935852 .11898804 .17037964 .13398743 .23144531H.18699646M.13999939 .25343324C.1789856 .40538026 .28199769 .42037965 .30799867 .42037965 .35499574 .42037965 .38198854 .39138795 .38198854 .35740663 .38198854 .25343324 .22200012 .25343324 .18099976 .25343324H.13999939Z"/>
<path id="font_6_1" d="M.74398806 .2263794C.7599945 .2263794 .7839966 .2263794 .7839966 .25038148 .7839966 .27539063 .7609863 .27539063 .74398806 .27539063H.147995C.13198853 .27539063 .10798645 .27539063 .10798645 .25138856 .10798645 .2263794 .1309967 .2263794 .147995 .2263794H.74398806Z"/>
<path id="font_7_1" d="M.24899292 .10601807C.23899842 .072021488 .20599365 .018234253 .15499878 .018234253 .1519928 .018234253 .12199402 .018234253 .100997928 .03215027 .14199829 .04508972 .14498902 .08100891 .14498902 .087020877 .14498902 .10900879 .12799073 .12402344 .10499573 .12402344 .07699585 .12402344 .04798889 .10002136 .04798889 .0630188 .04798889 .01322937 .10398865-.009765625 .15299988-.009765625 .19898987-.009765625 .23999024 .019226075 .2649994 .061019899 .2889862 .008224487 .34399415-.009765625 .38398744-.009765625 .49899293-.009765625 .55999758 .11502075 .55999758 .14305115 .55999758 .15608216 .5469971 .15608216 .5439911 .15608216 .5299988 .15608216 .5289917 .15107727 .5249939 .13905335 .5039978 .07002258 .44400025 .018234253 .3880005 .018234253 .34799195 .018234253 .32699586 .04508972 .32699586 .08302307 .32699586 .10900879 .35099793 .20018006 .3789978 .31140138 .39898683 .38841249 .44400025 .4133911 .47698976 .4133911 .47898866 .4133911 .5099945 .4133911 .5309906 .39941407 .49899293 .39041139 .4869995 .3624115 .4869995 .34440614 .4869995 .32240296 .5039978 .30740357 .5269928 .30740357 .5499878 .30740357 .58299258 .32640077 .58299258 .3684082 .58299258 .4243927 .5189972 .44140626 .47898866 .44140626 .42900086 .44140626 .3889923 .4084015 .36698915 .3704071 .34899903 .4113922 .30299378 .44140626 .24699402 .44140626 .1349945 .44140626 .070999149 .31840516 .070999149 .2883606 .070999149 .27534486 .084991458 .27534486 .08799744 .27534486 .100997928 .27534486 .101989749 .27934266 .10699463 .29237367 .13198853 .3704071 .19499207 .4133911 .24398804 .4133911 .2769928 .4133911 .3039856 .395401 .3039856 .3474121 .3039856 .32740785 .2919922 .27734376 .2829895 .24327088L.24899292 .10601807Z"/>
</defs>
<path transform="matrix(1.00002,0,0,-1.00005,6.581848,183.1464)" stroke-width=".3985" stroke-linecap="butt" stroke-miterlimit="10" stroke-linejoin="miter" fill="none" stroke="#bfbfbf" d="M0 0V181.94232M36.91571 0V181.94232M73.83144 0V181.94232M110.74716 0V181.94232M184.57862 0V181.94232M221.49434 0V181.94232M258.41007 0V181.94232M295.32579 0V181.94232"/>
<path transform="matrix(1.00002,0,0,-1.00005,6.581848,183.1464)" stroke-width=".3985" stroke-linecap="butt" stroke-miterlimit="10" stroke-linejoin="miter" fill="none" stroke="#bfbfbf" d="M0 21.29109H295.32679M0 45.91449H295.32679M0 70.5379H295.32679M0 95.1613H295.32679M0 119.78471H295.32679M0 144.40811H295.32679M0 169.03153H295.32679"/>
<path transform="matrix(1.00002,0,0,-1.00005,6.581848,183.1464)" stroke-width=".19925" stroke-linecap="butt" stroke-miterlimit="10" stroke-linejoin="miter" fill="none" stroke="#7f807f" d="M0-2.12587V2.12587M36.91571-2.12587V2.12587M73.83144-2.12587V2.12587M110.74716-2.12587V2.12587M184.57862-2.12587V2.12587M221.49434-2.12587V2.12587M258.41007-2.12587V2.12587M295.32579-2.12587V2.12587"/>
<path transform="matrix(1.00002,0,0,-1.00005,6.581848,183.1464)" stroke-width=".19925" stroke-linecap="butt" stroke-miterlimit="10" stroke-linejoin="miter" fill="none" stroke="#7f807f" d="M145.53685 21.29109H149.78891M145.53685 45.91449H149.78891M145.53685 70.5379H149.78891M145.53685 95.1613H149.78891M145.53685 119.78471H149.78891M145.53685 144.40811H149.78891M145.53685 169.03153H149.78891"/>
<path transform="matrix(1.00002,0,0,-1.00005,6.581848,183.1464)" stroke-width="1.19553" stroke-linecap="butt" stroke-miterlimit="10" stroke-linejoin="miter" fill="none" stroke="#000000" d="M0 0H292.1387"/>
<path transform="matrix(1.00002,0,0,-1.00005,298.7264,183.1464)" d="M3.18808 0-1.91284 2.55046 0 0-1.91284-2.55046"/>
<path transform="matrix(1.00002,0,0,-1.00005,6.581848,183.1464)" stroke-width="1.19553" stroke-linecap="butt" stroke-miterlimit="10" stroke-linejoin="miter" fill="none" stroke="#000000" d="M147.66289 0V178.75423"/>
<path transform="matrix(0,-1.00005,-1.00002,-0,154.2477,4.3832399)" d="M3.18808 0-1.91284 2.55046 0 0-1.91284-2.55046"/>
<use data-text="&#x2212;" xlink:href="#font_1_1" transform="matrix(9.962799,0,0,-9.963098,.21672058,195.61202)"/>
<use data-text="2" xlink:href="#font_2_3" transform="matrix(9.962799,0,0,-9.963098,7.9658815,195.61202)"/>
<use data-text="&#x2212;" xlink:href="#font_1_1" transform="matrix(9.962799,0,0,-9.963098,33.258386,195.61202)"/>
<use data-text="1" xlink:href="#font_2_2" transform="matrix(9.962799,0,0,-9.963098,41.007547,195.61202)"/>
<use data-text="." xlink:href="#font_3_1" transform="matrix(9.962799,0,0,-9.963098,45.988649,195.61202)"/>
<use data-text="5" xlink:href="#font_2_5" transform="matrix(9.962799,0,0,-9.963098,48.7557,195.61202)"/>
<use data-text="&#x2212;" xlink:href="#font_1_1" transform="matrix(9.962799,0,0,-9.963098,74.0492,195.61202)"/>
<use data-text="1" xlink:href="#font_2_2" transform="matrix(9.962799,0,0,-9.963098,81.79836,195.61202)"/>
<use data-text="&#x2212;" xlink:href="#font_1_1" transform="matrix(9.962799,0,0,-9.963098,107.091869,195.61202)"/>
<use data-text="0" xlink:href="#font_2_1" transform="matrix(9.962799,0,0,-9.963098,114.84103,195.61202)"/>
<use data-text="." xlink:href="#font_3_1" transform="matrix(9.962799,0,0,-9.963098,119.82213,195.61202)"/>
<use data-text="5" xlink:href="#font_2_5" transform="matrix(9.962799,0,0,-9.963098,122.58918,195.61202)"/>
<use data-text="0" xlink:href="#font_2_1" transform="matrix(9.962799,0,0,-9.963098,184.79943,195.61202)"/>
<use data-text="." xlink:href="#font_3_1" transform="matrix(9.962799,0,0,-9.963098,189.78054,195.61202)"/>
<use data-text="5" xlink:href="#font_2_5" transform="matrix(9.962799,0,0,-9.963098,192.54758,195.61202)"/>
<use data-text="1" xlink:href="#font_2_2" transform="matrix(9.962799,0,0,-9.963098,225.59023,195.61202)"/>
<use data-text="1" xlink:href="#font_2_2" transform="matrix(9.962799,0,0,-9.963098,258.6319,195.61202)"/>
<use data-text="." xlink:href="#font_3_1" transform="matrix(9.962799,0,0,-9.963098,263.613,195.61202)"/>
<use data-text="5" xlink:href="#font_2_5" transform="matrix(9.962799,0,0,-9.963098,266.38008,195.61202)"/>
<use data-text="2" xlink:href="#font_2_3" transform="matrix(9.962799,0,0,-9.963098,299.4227,195.61202)"/>
<use data-text="0" xlink:href="#font_2_1" transform="matrix(9.962799,0,0,-9.963098,135.47243,165.06449)"/>
<use data-text="." xlink:href="#font_3_1" transform="matrix(9.962799,0,0,-9.963098,140.45354,165.06449)"/>
<use data-text="5" xlink:href="#font_2_5" transform="matrix(9.962799,0,0,-9.963098,143.22058,165.06449)"/>
<use data-text="1" xlink:href="#font_2_2" transform="matrix(9.962799,0,0,-9.963098,143.22158,140.44026)"/>
<use data-text="1" xlink:href="#font_2_2" transform="matrix(9.962799,0,0,-9.963098,135.47243,115.815029)"/>
<use data-text="." xlink:href="#font_3_1" transform="matrix(9.962799,0,0,-9.963098,140.45354,115.815029)"/>
<use data-text="5" xlink:href="#font_2_5" transform="matrix(9.962799,0,0,-9.963098,143.22058,115.815029)"/>
<use data-text="2" xlink:href="#font_2_3" transform="matrix(9.962799,0,0,-9.963098,143.22158,91.1908)"/>
<use data-text="2" xlink:href="#font_2_3" transform="matrix(9.962799,0,0,-9.963098,135.47243,66.565578)"/>
<use data-text="." xlink:href="#font_3_1" transform="matrix(9.962799,0,0,-9.963098,140.45354,66.565578)"/>
<use data-text="5" xlink:href="#font_2_5" transform="matrix(9.962799,0,0,-9.963098,143.22058,66.565578)"/>
<use data-text="3" xlink:href="#font_2_4" transform="matrix(9.962799,0,0,-9.963098,143.22158,41.941347)"/>
<use data-text="3" xlink:href="#font_2_4" transform="matrix(9.962799,0,0,-9.963098,135.47243,17.317109)"/>
<use data-text="." xlink:href="#font_3_1" transform="matrix(9.962799,0,0,-9.963098,140.45354,17.317109)"/>
<use data-text="5" xlink:href="#font_2_5" transform="matrix(9.962799,0,0,-9.963098,143.22058,17.317109)"/>
<g clip-path="url(#clip_4)">
<path transform="matrix(1.00002,0,0,-1.00005,6.581848,183.1464)" stroke-width="1.19553" stroke-linecap="butt" stroke-miterlimit="10" stroke-linejoin="miter" fill="none" stroke="#0000ff" d="M0 181.94109 1.48404 178.38178 2.9681 174.90125 4.45215 171.49436 5.9362 168.1606 7.42024 164.89061 8.90431 161.69202 10.38835 158.55944 11.8724 155.49506 13.35646 152.49002 14.84052 149.54924 16.32457 146.672 17.80862 143.85187 19.29266 141.09505 20.77673 138.39484 22.26079 135.751 23.74483 133.1631 25.2289 130.63404 26.71294 128.1552 28.19699 125.73126 29.68105 123.36102 31.1651 121.03903 32.64915 118.76926 34.13321 116.54625 35.61725 114.37323 37.10132 112.2492 38.58536 110.17001 40.06941 108.13686 41.55348 106.15024 43.03752 104.20721 44.52159 102.30676 46.00563 100.44771 47.48969 98.63321 48.97374 96.86032 50.4578 95.12436 51.94183 93.43349 53.4259 91.77707 54.90994 90.16078 56.394 88.5834 57.87805 87.041 59.3621 85.53651 60.84618 84.06526 62.33022 82.63293 63.81427 81.23505 65.29832 79.86945 66.78238 78.53732 68.26642 77.23917 69.75049 75.97548 71.23453 74.73964 72.7186 73.53802 74.20264 72.36693 75.68669 71.22736 77.17075 70.11833 78.65482 69.03711 80.13887 67.98593 81.62291 66.96284 83.10698 65.96953 84.59103 65.00354 86.07509 64.06514 87.55914 63.15334 89.0432 62.26813 90.52724 61.41074 92.01132 60.5807 93.49536 59.7728 94.97942 58.99371 96.46347 58.23778 97.94753 57.50893 99.4316 56.80148 100.91563 56.1209 102.3997 55.46445 103.88374 54.83064 105.36781 54.21997 106.85187 53.6322 108.33592 53.06761 109.81996 52.52663 111.30403 52.0093 112.78807 51.51262 114.27214 51.03886 115.7562 50.58777 117.24025 50.1576 118.7243 49.74763 120.20836 49.36078 121.69243 48.99463 123.17647 48.64967 124.66054 48.3271 126.14458 48.02225 127.62863 47.74081 129.11269 47.48006 130.59676 47.239 132.0808 47.01837 133.56487 46.81966 135.0489 46.63843 136.53298 46.47765 138.01702 46.339 139.50109 46.21935 140.98514 46.1201 142.4692 46.0396 143.95326 45.98172 145.4373 45.94258 146.92136 45.92238 148.40541 45.92264 149.88948 45.94258 151.37352 45.98 152.85759 46.04008 154.34165 46.12085 155.8257 46.21959 157.30974 46.3395 158.79381 46.47812 160.27788 46.63867 161.76192 46.81793 163.24599 47.01862 164.73003 47.23973 166.2141 47.4803 167.69814 47.74106 169.1822 48.02225 170.66625 48.32735 172.15032 48.64992 173.63437 48.99463 175.11843 49.36102 176.60247 49.74837 178.08654 50.15784 179.57059 50.58852 181.05464 51.0401 182.53871 51.51312 184.02275 52.00978 185.5068 52.52736 186.99086 53.06833 188.47493 53.63246 189.95897 54.22072 191.44304 54.8289 192.92708 55.46445 194.41114 56.12215 195.89519 56.80199 197.37926 57.50893 198.86331 58.23875 200.34735 58.99396 201.83142 59.77353 203.31548 60.57921 204.79953 61.41148 206.28359 62.26886 207.76764 63.15408 209.25168 64.0654 210.73577 65.00478 212.2198 65.971 213.70386 66.96431 215.18791 67.98544 216.67197 69.03711 218.15602 70.11858 219.64008 71.2281 221.12415 72.36792 222.60819 73.53851 224.09226 74.74039 225.5763 75.97598 227.06035 77.23965 228.5444 78.5383 230.02846 79.87067 231.5125 81.2353 232.99657 82.63513 234.4806 84.06601 235.96466 85.53651 237.44872 87.04199 238.93277 88.5844 240.41684 90.16078 241.90088 91.77928 243.38494 93.43372 244.86899 95.12585 246.35305 96.8623 247.83708 98.6342 249.32115 100.44968 250.80519 102.308 252.28926 104.2077 253.7733 106.15247 255.25736 108.13809 256.74143 110.17099 258.22547 112.2492 259.70954 114.37323 261.19358 116.54698 262.67765 118.77097 264.16169 121.0405 265.64576 123.3625 267.1298 125.73349 268.61387 128.15593 270.0979 130.63428 271.58195 133.16507 273.066 135.752 274.55006 138.39804 276.0341 141.09899 277.51817 143.85236 279.0022 146.672 280.48628 149.55146 281.9703 152.491 283.45436 155.49506 284.93843 158.56165 286.42247 161.69326 287.90653 164.89257 289.3906 168.1628 290.87464 171.49683 292.35868 174.9052 293.84275 178.38742 295.32679 181.94232"/>
<path transform="matrix(1.00002,0,0,-1.00005,6.581848,183.1464)" stroke-width="1.19553" stroke-linecap="butt" stroke-miterlimit="10" stroke-linejoin="miter" fill="none" stroke="#ff0000" d="M0 178.60878 1.48404 174.98302 2.9681 171.43378 4.45215 167.95549 5.9362 164.55031 7.42024 161.20623 8.90431 157.93375 10.38835 154.72486 11.8724 151.58139 13.35646 148.49806 14.84052 145.47556 16.32457 142.51459 17.80862 139.611 19.29266 136.7677 20.77673 133.97887 22.26079 131.24643 23.74483 128.56763 25.2289 125.94473 26.71294 123.36987 28.19699 120.84993 29.68105 118.37846 31.1651 115.9558 32.64915 113.58232 34.13321 111.25618 35.61725 108.97478 37.10132 106.73999 38.58536 104.54996 40.06941 102.4033 41.55348 100.29823 43.03752 98.23729 44.52159 96.21642 46.00563 94.23398 47.48969 92.29369 48.97374 90.39027 50.4578 88.5241 51.94183 86.6975 53.4259 84.9059 54.90994 83.14902 56.394 81.42886 57.87805 79.74113 59.3621 78.08894 60.84618 76.46747 62.33022 74.87978 63.81427 73.32431 65.29832 71.79861 66.78238 70.30399 68.26642 68.8384 69.75049 67.40211 71.23453 65.99391 72.7186 64.615 74.20264 63.26169 75.68669 61.93718 77.17075 60.6388 78.65482 59.36528 80.13887 58.11714 81.62291 56.89456 83.10698 55.69688 84.59103 54.52162 86.07509 53.37122 87.55914 52.24274 89.0432 51.1359 90.52724 50.05197 92.01132 48.99048 93.49536 47.9484 94.97942 46.92824 96.46347 45.92828 97.94753 44.94803 99.4316 43.98697 100.91563 43.04536 102.3997 42.123 103.88374 41.21808 105.36781 40.33163 106.85187 39.46292 108.33592 38.61047 109.81996 37.77649 111.30403 36.95847 112.78807 36.15648 114.27214 35.3698 115.7562 34.60101 117.24025 33.8456 118.7243 33.10565 120.20836 32.38147 121.69243 31.67035 123.17647 30.97353 124.66054 30.29121 126.14458 29.62195 127.62863 28.96596 129.11269 28.32355 130.59676 27.69342 132.0808 27.07611 133.56487 26.47089 135.0489 25.87846 136.53298 25.29657 138.01702 24.72705 139.50109 24.16884 140.98514 23.62144 142.4692 23.08519 143.95326 22.55946 145.4373 22.04459 146.92136 21.53957 148.40541 21.05054 149.88948 20.56569 151.37352 20.08775 152.85759 19.62213 154.34165 19.16634 155.8257 18.7182 157.30974 18.27966 158.79381 17.84874 160.27788 17.42769 161.76192 17.01402 163.24599 16.60994 164.73003 16.21327 166.2141 15.82422 167.69814 15.44254 169.1822 15.06802 170.66625 14.70358 172.15032 14.34386 173.63437 13.99199 175.11843 13.647 176.60247 13.30968 178.08654 12.97972 179.57059 12.65443 181.05464 12.33679 182.53871 12.02383 184.02275 11.71849 185.5068 11.41785 186.99086 11.12483 188.47493 10.83698 189.95897 10.55603 191.44304 10.27779 192.92708 10.00914 194.41114 9.74321 195.89519 9.48221 197.37926 9.22858 198.86331 8.97719 200.34735 8.73317 201.83142 8.4921 203.31548 8.25572 204.79953 8.02647 206.28359 7.79994 207.76764 7.57832 209.25168 7.36165 210.73577 7.14963 212.2198 6.94034 213.70386 6.73596 215.18791 6.53429 216.67197 6.33952 218.15602 6.14722 219.64008 5.95786 221.12415 5.77295 222.60819 5.59073 224.09226 5.41344 225.5763 5.24107 227.06035 5.06847 228.5444 4.90102 230.02846 4.73851 231.5125 4.57846 232.99657 4.42087 234.4806 4.26549 235.96466 4.1153 237.44872 3.96509 238.93277 3.82227 240.41684 3.67946 241.90088 3.53886 243.38494 3.40367 244.86899 3.26799 246.35305 3.13774 247.83708 3.00723 249.32115 2.88141 250.80519 2.75806 252.28926 2.63765 253.7733 2.51968 255.25736 2.40125 256.74143 2.28773 258.22547 2.17471 259.70954 2.06613 261.19358 1.9578 262.67765 1.85461 264.16169 1.75096 265.64576 1.65024 267.1298 1.54904 268.61387 1.45302 270.0979 1.35698 271.58195 1.26315 273.066 1.1723 274.55006 1.08366 276.0341 .99501 277.51817 .90858 279.0022 .8251 280.48628 .7414 281.9703 .65964 283.45436 .58134 284.93843 .50229 286.42247 .42596 287.90653 .35208 289.3906 .27797 290.87464 .20657 292.35868 .13516 293.84275 .06647 295.32679 0"/>
<path transform="matrix(1.00002,0,0,-1.00005,6.581848,183.1464)" stroke-width="1.19553" stroke-linecap="butt" stroke-miterlimit="10" stroke-linejoin="miter" fill="none" stroke="#00ff00" d="M0 0 1.48404 .06647 2.9681 .13516 4.45215 .20657 5.9362 .27797 7.42024 .35208 8.90431 .42596 10.38835 .50229 11.8724 .58134 13.35646 .65964 14.84052 .7414 16.32457 .8251 17.80862 .90858 19.29266 .99501 20.77673 1.08366 22.26079 1.1723 23.74483 1.26315 25.2289 1.35698 26.71294 1.45302 28.19699 1.54904 29.68105 1.65024 31.1651 1.75096 32.64915 1.85461 34.13321 1.9578 35.61725 2.06613 37.10132 2.17693 38.58536 2.28773 40.06941 2.40125 41.55348 2.51968 43.03752 2.63765 44.52159 2.75806 46.00563 2.88141 47.48969 3.00723 48.97374 3.13774 50.4578 3.26799 51.94183 3.40367 53.4259 3.53886 54.90994 3.67946 56.394 3.82227 57.87805 3.96754 59.3621 4.1153 60.84618 4.26549 62.33022 4.42087 63.81427 4.57846 65.29832 4.73851 66.78238 4.90102 68.26642 5.06847 69.75049 5.24107 71.23453 5.41344 72.7186 5.59073 74.20264 5.77295 75.68669 5.95786 77.17075 6.14722 78.65482 6.33952 80.13887 6.53651 81.62291 6.73596 83.10698 6.94034 84.59103 7.14963 86.07509 7.36165 87.55914 7.57832 89.0432 7.79994 90.52724 8.02647 92.01132 8.25793 93.49536 8.4921 94.97942 8.73317 96.46347 8.97719 97.94753 9.22858 99.4316 9.48221 100.91563 9.74321 102.3997 10.00914 103.88374 10.28026 105.36781 10.55603 106.85187 10.83698 108.33592 11.12483 109.81996 11.41785 111.30403 11.71849 112.78807 12.02383 114.27214 12.33679 115.7562 12.65443 117.24025 12.97972 118.7243 13.30968 120.20836 13.647 121.69243 13.99199 123.17647 14.34386 124.66054 14.70358 126.14458 15.06802 127.62863 15.44254 129.11269 15.82422 130.59676 16.21327 132.0808 16.60994 133.56487 17.01648 135.0489 17.42769 136.53298 17.84874 138.01702 18.27966 139.50109 18.7182 140.98514 19.16634 142.4692 19.62213 143.95326 20.08997 145.4373 20.56569 146.92136 21.05054 148.40541 21.5398 149.88948 22.04459 151.37352 22.55995 152.85759 23.08568 154.34165 23.6222 155.8257 24.16907 157.30974 24.72754 158.79381 25.2971 160.27788 25.8787 161.76192 26.4716 163.24599 27.07637 164.73003 27.69418 166.2141 28.32378 167.69814 28.96622 169.1822 29.62195 170.66625 30.29144 172.15032 30.97375 173.63437 31.67035 175.11843 32.38174 176.60247 33.10638 178.08654 33.84581 179.57059 34.60178 181.05464 35.371 182.53871 36.15697 184.02275 36.95898 185.5068 37.77719 186.99086 38.61119 188.47493 39.46318 189.95897 40.33238 191.44304 41.21883 192.92708 42.123 194.41114 43.04662 195.89519 43.98749 197.37926 44.94803 198.86331 45.92928 200.34735 46.9285 201.83142 47.94911 203.31548 48.9912 204.79953 50.05272 206.28359 51.13666 207.76764 52.24344 209.25168 53.37144 210.73577 54.52284 212.2198 55.69838 213.70386 56.89603 215.18791 58.11887 216.67197 59.36528 218.15602 60.63905 219.64008 61.93794 221.12415 63.26266 222.60819 64.6155 224.09226 65.99467 225.5763 67.40262 227.06035 68.83888 228.5444 70.30496 230.02846 71.79985 231.5125 73.32452 232.99657 74.88199 234.4806 76.46822 235.96466 78.08894 237.44872 79.7446 238.93277 81.42982 240.41684 83.14902 241.90088 84.90811 243.38494 86.69777 244.86899 88.52556 246.35305 90.39226 247.83708 92.29465 249.32115 94.23598 250.80519 96.21767 252.28926 98.23778 253.7733 100.30046 255.25736 102.40454 256.74143 104.55095 258.22547 106.74219 259.70954 108.97478 261.19358 111.25688 262.67765 113.58403 264.16169 115.95726 265.64576 118.37996 267.1298 120.85214 268.61387 123.37062 270.0979 125.945 271.58195 128.56961 273.066 131.24739 274.55006 133.98207 276.0341 136.77165 277.51817 139.61148 279.0022 142.51459 280.48628 145.47777 281.9703 148.49907 283.45436 151.58139 284.93843 154.72707 286.42247 157.93498 287.90653 161.20818 289.3906 164.55254 290.87464 167.95795 292.35868 171.43773 293.84275 174.98867 295.32679 178.61003"/>
</g>
<use data-text="x" xlink:href="#font_3_3" transform="matrix(9.962799,0,0,-9.963098,292.3526,179.2282)"/>
<use data-text="y" xlink:href="#font_3_4" transform="matrix(9.962799,0,0,-9.963098,158.18689,9.370712)"/>
<path transform="matrix(1.00002,0,0,-1.00005,6.581848,183.1464)" d="M310.69178 137.16855H383.6122V181.34455H310.69178Z" fill="#ffffff"/>
<path transform="matrix(1.00002,0,0,-1.00005,6.581848,183.1464)" stroke-width="1.19553" stroke-linecap="butt" stroke-miterlimit="10" stroke-linejoin="miter" fill="none" stroke="#000000" d="M310.69178 137.16855H383.6122V181.34455H310.69178Z"/>
<path transform="matrix(1.00002,0,0,-1.00005,320.86714,9.984756)" stroke-width="1.19553" stroke-linecap="butt" stroke-miterlimit="10" stroke-linejoin="miter" fill="none" stroke="#0000ff" d="M0 0H8.50412 17.00826"/>
<use data-text="y" xlink:href="#font_3_4" transform="matrix(9.962799,0,0,-9.963098,340.46455,12.696892)"/>
<use data-text="=" xlink:href="#font_2_6" transform="matrix(9.962799,0,0,-9.963098,348.4747,12.696892)"/>
<use data-text="c" xlink:href="#font_2_7" transform="matrix(9.962799,0,0,-9.963098,358.97547,12.696892)"/>
<use data-text="o" xlink:href="#font_2_9" transform="matrix(9.962799,0,0,-9.963098,363.399,12.696892)"/>
<use data-text="s" xlink:href="#font_2_10" transform="matrix(9.962799,0,0,-9.963098,368.38038,12.696892)"/>
<use data-text="h" xlink:href="#font_2_8" transform="matrix(9.962799,0,0,-9.963098,372.30574,12.696892)"/>
<use data-text="x" xlink:href="#font_3_3" transform="matrix(9.962799,0,0,-9.963098,379.52534,12.696892)"/>
<path transform="matrix(1.00002,0,0,-1.00005,320.86714,23.132416)" stroke-width="1.19553" stroke-linecap="butt" stroke-miterlimit="10" stroke-linejoin="miter" fill="none" stroke="#ff0000" d="M0 0H8.50412 17.00826"/>
<use data-text="y" xlink:href="#font_3_4" transform="matrix(9.962799,0,0,-9.963098,342.45658,26.59359)"/>
<use data-text="=" xlink:href="#font_2_6" transform="matrix(9.962799,0,0,-9.963098,350.46675,26.59359)"/>
<use data-text="1" xlink:href="#font_5_1" transform="matrix(6.97394,0,0,-6.9741489,362.17799,22.671395)"/>
<path transform="matrix(1.00002,0,0,-1.00005,197.61368,-111.04829)" stroke-width=".3985" stroke-linecap="butt" stroke-miterlimit="10" stroke-linejoin="miter" fill="none" stroke="#000000" d="M164.561-135.145H168.533"/>
<use data-text="2" xlink:href="#font_5_2" transform="matrix(6.97394,0,0,-6.9741489,362.17799,30.029763)"/>
<use data-text="e" xlink:href="#font_3_2" transform="matrix(9.962799,0,0,-9.963098,367.3451,26.59359)"/>
<use data-text="&#x2212;" xlink:href="#font_6_1" transform="matrix(6.97394,0,0,-6.9741489,371.9842,22.978402)"/>
<use data-text="x" xlink:href="#font_7_1" transform="matrix(6.97394,0,0,-6.9741489,378.2113,22.978402)"/>
<path transform="matrix(1.00002,0,0,-1.00005,320.86714,37.030107)" stroke-width="1.19553" stroke-linecap="butt" stroke-miterlimit="10" stroke-linejoin="miter" fill="none" stroke="#00ff00" d="M0 0H8.50412 17.00826"/>
<use data-text="y" xlink:href="#font_3_4" transform="matrix(9.962799,0,0,-9.963098,345.57063,40.49128)"/>
<use data-text="=" xlink:href="#font_2_6" transform="matrix(9.962799,0,0,-9.963098,353.5808,40.49128)"/>
<use data-text="1" xlink:href="#font_5_1" transform="matrix(6.97394,0,0,-6.9741489,365.29203,36.568078)"/>
<path transform="matrix(1.00002,0,0,-1.00005,200.72774,-111.04829)" stroke-width=".3985" stroke-linecap="butt" stroke-miterlimit="10" stroke-linejoin="miter" fill="none" stroke="#000000" d="M164.561-149.041H168.533"/>
<use data-text="2" xlink:href="#font_5_2" transform="matrix(6.97394,0,0,-6.9741489,365.29206,43.926446)"/>
<use data-text="e" xlink:href="#font_3_2" transform="matrix(9.962799,0,0,-9.963098,370.45915,40.49128)"/>
<use data-text="x" xlink:href="#font_7_1" transform="matrix(6.97394,0,0,-6.9741489,375.09825,36.8751)"/>
</svg>
