<svg xmlns="http://www.w3.org/2000/svg" xmlns:xlink="http://www.w3.org/1999/xlink" xmlns:inkscape="http://www.inkscape.org/namespaces/inkscape" version="1.1" width="396" height="185" viewBox="0 0 396 185">
<defs>
<path id="font_1_1" d="M.6589966 .23046875C.6759949 .23046875 .69400027 .23046875 .69400027 .25045777 .69400027 .27046205 .6759949 .27046205 .6589966 .27046205H.117996219C.100997928 .27046205 .08299255 .27046205 .08299255 .25045777 .08299255 .23046875 .100997928 .23046875 .117996219 .23046875H.6589966Z"/>
<path id="font_2_3" d="M.1269989 .07699585 .23298645 .18003845C.3889923 .31811524 .44898988 .3721466 .44898988 .47216798 .44898988 .5860901 .35899354 .6660156 .23699951 .6660156 .12399292 .6660156 .049987794 .57411196 .049987794 .48516847 .049987794 .4291687 .099990848 .4291687 .102996829 .4291687 .11999512 .4291687 .15499878 .44117738 .15499878 .48217774 .15499878 .5081787 .13699341 .5341797 .101989749 .5341797 .09399414 .5341797 .09199524 .5341797 .08898926 .5331726 .11199951 .59806826 .1659851 .63500979 .22399903 .63500979 .31498719 .63500979 .35798646 .5541382 .35798646 .47216798 .35798646 .39215089 .30799867 .31311036 .25299073 .25108338L.06098938 .036987306C.049987794 .025985718 .049987794 .023986817 .049987794 0H.42099L.44898988 .17404175H.42399598C.4189911 .14402771 .4119873 .1000061 .4019928 .084991458 .394989 .07699585 .32899476 .07699585 .30699159 .07699585H.1269989Z"/>
<path id="font_2_2" d="M.2939911 .64004519C.2939911 .66400149 .2939911 .6660156 .2709961 .6660156 .20899964 .60227969 .12098694 .60227969 .08898926 .60227969V.57128909C.10899353 .57128909 .16799927 .57128909 .21998596 .5972748V.07902527C.21998596 .042999269 .21699524 .0309906 .1269989 .0309906H.09498596V0C.12998963 .0029907227 .21699524 .0029907227 .25698854 .0029907227 .29699708 .0029907227 .38398744 .0029907227 .4189911 0V.0309906H.3869934C.29699708 .0309906 .2939911 .041992189 .2939911 .07902527V.64004519Z"/>
<path id="font_3_1" d="M.19198609 .052993776C.19198609 .08198547 .16799927 .10598755 .13899231 .10598755 .10998535 .10598755 .085998538 .08198547 .085998538 .052993776 .085998538 .023986817 .10998535 0 .13899231 0 .16799927 0 .19198609 .023986817 .19198609 .052993776Z"/>
<path id="font_2_5" d="M.44898988 .20022583C.44898988 .3193512 .36698915 .41944886 .25898744 .41944886 .21099854 .41944886 .16799927 .40345765 .13198853 .36842347V.5637665C.1519928 .5577698 .18499756 .55078127 .21699524 .55078127 .33999635 .55078127 .4099884 .6417694 .4099884 .6547699 .4099884 .6607666 .40699769 .6657715 .3999939 .6657715 .39898683 .6657715 .39698792 .6657715 .3919983 .66278079 .37199403 .6537781 .32299806 .6337738 .2559967 .6337738 .21598816 .6337738 .16999817 .6407776 .12298584 .6617737 .114990238 .66477969 .11299133 .66477969 .11099243 .66477969 .100997928 .66477969 .100997928 .6567688 .100997928 .6407776V.34439088C.100997928 .32637025 .100997928 .31835938 .114990238 .31835938 .12199402 .31835938 .12399292 .32136537 .12799073 .32736207 .13899231 .3433838 .17599488 .39746095 .25698854 .39746095 .30899049 .39746095 .33399964 .35139466 .34199525 .33337403 .35798646 .29632569 .3600006 .25727845 .3600006 .20722962 .3600006 .17222595 .3600006 .11222839 .33599855 .07035828 .31199647 .031463624 .2749939 .0055389406 .22898865 .0055389406 .1559906 .0055389406 .09899902 .058380128 .08198547 .11723328 .084991458 .1162262 .08799744 .115234378 .09899902 .115234378 .13198853 .115234378 .14898682 .14022827 .14898682 .16423035 .14898682 .18823242 .13198853 .21322632 .09899902 .21322632 .084991458 .21322632 .049987794 .20622254 .049987794 .16023255 .049987794 .07434082 .11898804-.022460938 .23098755-.022460938 .34700013-.022460938 .44898988 .073349 .44898988 .20022583Z"/>
<path id="font_2_1" d="M.45999146 .31976319C.45999146 .39982606 .45498658 .47988893 .41999818 .5539398 .37399293 .65000918 .2919922 .6660156 .25 .6660156 .18998719 .6660156 .116989139 .64001467 .07598877 .54693606 .04399109 .47789 .038986207 .39982606 .038986207 .31976319 .038986207 .24472046 .042999269 .15464783 .083999637 .07859802 .1269989-.0024719239 .19999695-.022460938 .24899292-.022460938 .30299378-.022460938 .3789978-.0014648438 .4229889 .09359741 .45498658 .16265869 .45999146 .2407074 .45999146 .31976319M.24899292-.00047302247C.20999146-.00047302247 .15098572 .024551392 .1329956 .12062073 .12199402 .18066406 .12199402 .2727356 .12199402 .3317871 .12199402 .39582826 .12199402 .46188355 .12998963 .5159149 .14898682 .63500979 .22399903 .64401248 .24899292 .64401248 .28199769 .64401248 .34799195 .6259918 .36698915 .52693179 .3769989 .47088624 .3769989 .39482118 .3769989 .3317871 .3769989 .25672914 .3769989 .18867493 .3659973 .12461853 .35099793 .029556275 .2939911-.00047302247 .24899292-.00047302247Z"/>
<path id="font_2_4" d="M.2899933 .35191346C.37199403 .37893678 .42999269 .4490509 .42999269 .52809146 .42999269 .6100464 .34199525 .6660156 .24598694 .6660156 .14498902 .6660156 .068984989 .60606387 .068984989 .53009036 .068984989 .49710084 .09098816 .47808839 .11999512 .47808839 .15098572 .47808839 .17098999 .50009158 .17098999 .5290985 .17098999 .57910159 .12399292 .57910159 .10899353 .57910159 .13999939 .62802127 .20599365 .64100649 .24198914 .64100649 .2829895 .64100649 .33799745 .6190338 .33799745 .5290985 .33799745 .51708987 .33599855 .45906068 .30999757 .4149933 .27999879 .36691285 .24598694 .36390687 .22099304 .36291505 .21299744 .36190797 .18899536 .35990907 .18199158 .35990907 .17399597 .35890199 .16699219 .35791017 .16699219 .3479004 .16699219 .33691407 .17399597 .33691407 .19099427 .33691407H.23498535C.31698609 .33691407 .35398866 .2686615 .35398866 .17037964 .35398866 .034469606 .2849884 .0055389406 .24099732 .0055389406 .19799805 .0055389406 .12298584 .022491456 .08799744 .08137512 .12298584 .07637024 .1539917 .09837341 .1539917 .1363678 .1539917 .17237854 .1269989 .19238281 .09799194 .19238281 .07398987 .19238281 .041992189 .17837525 .041992189 .1343689 .041992189 .043441774 .1349945-.022460938 .24398804-.022460938 .3659973-.022460938 .45700074 .06838989 .45700074 .17037964 .45700074 .252594 .3939972 .33088685 .2899933 .35191346Z"/>
<clipPath id="clip_4">
<path transform="matrix(1.00002,0,0,-1.00008,6.581848,183.15647)" d="M0 0H295.32679V181.94731H0Z"/>
</clipPath>
<path id="font_3_3" d="M.33399964 .30233766C.33999635 .32835389 .36299134 .42037965 .43299867 .42037965 .43798829 .42037965 .46199037 .42037965 .48298646 .40734864 .45498658 .402359 .43499757 .37734986 .43499757 .35334779 .43499757 .33735658 .44599916 .31835938 .47299195 .31835938 .49499513 .31835938 .5269928 .3363495 .5269928 .37635804 .5269928 .42837525 .46798707 .4423828 .43399049 .4423828 .37599183 .4423828 .34098817 .38935853 .32899476 .36634828 .3039856 .43237306 .25 .4423828 .22099304 .4423828 .116989139 .4423828 .05999756 .3133545 .05999756 .28834535 .05999756 .27833558 .069992069 .27833558 .07199097 .27833558 .07998657 .27833558 .08299255 .28033448 .084991458 .28933717 .11898804 .39535523 .18499756 .42037965 .21899414 .42037965 .23799134 .42037965 .272995 .4113617 .272995 .35334779 .272995 .32235719 .2559967 .25532533 .21899414 .11528015 .20298767 .053268434 .16799927 .011245728 .12399292 .011245728 .117996219 .011245728 .09498596 .011245728 .07398987 .024276734 .09899902 .029266358 .12098694 .05027771 .12098694 .07827759 .12098694 .105270389 .09899902 .11328125 .083999637 .11328125 .053985597 .11328125 .0289917 .08728027 .0289917 .055267335 .0289917 .009246826 .07899475-.0107421879 .12298584-.0107421879 .18899536-.0107421879 .22499085 .059280397 .22799683 .0652771 .23999024 .028274537 .27598573-.0107421879 .33599855-.0107421879 .43899537-.0107421879 .49598695 .118270877 .49598695 .14328003 .49598695 .1532898 .4869995 .1532898 .48399354 .1532898 .47499085 .1532898 .47299195 .14929199 .47099305 .14228821 .43798829 .03527832 .36999513 .011245728 .33799745 .011245728 .29899598 .011245728 .2829895 .043273927 .2829895 .07727051 .2829895 .09927368 .2889862 .121276859 .2999878 .16529846L.33399964 .30233766Z"/>
<path id="font_3_4" d="M.48599244 .38136292C.48999024 .39537049 .48999024 .39736939 .48999024 .40437318 .48999024 .42237855 .47599793 .43138124 .46099855 .43138124 .45098878 .43138124 .43499757 .42536927 .42599488 .41036988 .42399598 .405365 .41600038 .37435914 .4119873 .35635377 .40499879 .33035279 .397995 .30334474 .3919983 .27633668L.34700013 .09628296C.34298707 .08126831 .2999878 .011245728 .23399353 .011245728 .18299866 .011245728 .17199707 .055267335 .17199707 .0922699 .17199707 .1382904 .18899536 .20030213 .22299195 .28833009 .23899842 .3293457 .24299622 .3403473 .24299622 .36035157 .24299622 .405365 .21099854 .4423828 .16099549 .4423828 .06599426 .4423828 .0289917 .29733277 .0289917 .28833009 .0289917 .27833558 .038986207 .27833558 .040985109 .27833558 .050994874 .27833558 .051986696 .28033448 .056991579 .29634095 .083999637 .3903656 .12399292 .42037965 .1579895 .42037965 .1659851 .42037965 .18299866 .42037965 .18299866 .3883667 .18299866 .36335755 .17298889 .3373413 .1659851 .31834413 .12599182 .21231079 .10798645 .1552887 .10798645 .10827637 .10798645 .019256592 .17098999-.0107421879 .22999573-.0107421879 .2689972-.0107421879 .30299378 .0062561037 .33099366 .03425598 .31799317-.017745972 .30599977-.06674194 .2659912-.11973572 .23999024-.15385437 .20199585-.18309021 .1559906-.18309021 .14199829-.18309021 .09700012-.18005371 .07998657-.14074707 .09599304-.14074707 .10899353-.14074707 .12298584-.1287384 .1329956-.11973572 .14299011-.10673523 .14299011-.08773804 .14299011-.056747438 .115997318-.052734376 .10598755-.052734376 .08299255-.052734376 .049987794-.068740848 .049987794-.11773682 .049987794-.16796875 .09399414-.20507813 .1559906-.20507813 .25898744-.20507813 .3619995-.11373901 .3899994-.00074768069L.48599244 .38136292Z"/>
<path id="font_2_6" d="M.68699648 .32714845C.70199587 .32714845 .72099307 .32714845 .72099307 .34713746 .72099307 .36714173 .70199587 .36714173 .6879883 .36714173H.08898926C.07499695 .36714173 .055999757 .36714173 .055999757 .34713746 .055999757 .32714845 .07499695 .32714845 .08999634 .32714845H.68699648M.6879883 .13284302C.70199587 .13284302 .72099307 .13284302 .72099307 .15284729 .72099307 .17285156 .70199587 .17285156 .68699648 .17285156H.08999634C.07499695 .17285156 .055999757 .17285156 .055999757 .15284729 .055999757 .13284302 .07499695 .13284302 .08898926 .13284302H.6879883Z"/>
<path id="font_2_10" d="M.20799256 .19424439C.22999573 .19024658 .31199647 .17424011 .31199647 .102249149 .31199647 .051254274 .2769928 .011245728 .19898987 .011245728 .114990238 .011245728 .07899475 .06825256 .05999756 .15324402 .056991579 .1662445 .055999757 .17024231 .04598999 .17024231 .032989503 .17024231 .032989503 .16323853 .032989503 .14524842V.013244629C.032989503-.003753662 .032989503-.0107421879 .04399109-.0107421879 .04899597-.0107421879 .049987794-.009750366 .068984989 .009246826 .070999149 .011245728 .070999149 .013244629 .08898926 .03224182 .1329956-.009750366 .17799378-.0107421879 .19898987-.0107421879 .31399537-.0107421879 .3600006 .056243898 .3600006 .12825012 .3600006 .1812439 .32998658 .21124268 .31799317 .22323609 .2849884 .25523377 .24598694 .26324464 .20399475 .27124024 .147995 .28224183 .08099365 .2952423 .08099365 .35324098 .08099365 .38822938 .10699463 .42922975 .19299317 .42922975 .30299378 .42922975 .30799867 .3392334 .30999757 .3082428 .31098939 .2992401 .31999208 .2992401 .32199098 .2992401 .33499146 .2992401 .33499146 .304245 .33499146 .3232422V.4242401C.33499146 .4412384 .33499146 .4482422 .32398988 .4482422 .31900025 .4482422 .31698609 .4482422 .3039856 .43623353 .30099488 .43223573 .29100038 .42323304 .2869873 .42022706 .24899292 .4482422 .20799256 .4482422 .19299317 .4482422 .070999149 .4482422 .032989503 .38124085 .032989503 .3252411 .032989503 .29023744 .04899597 .26223756 .07598877 .24023438 .10798645 .21424866 .13598633 .2082367 .20799256 .19424439Z"/>
<path id="font_2_8" d="M.1769867 .4423828 .036987306 .43138124V.40037538C.101989749 .40037538 .11099243 .3943634 .11099243 .34532167V.076034549C.11099243 .0309906 .099990848 .0309906 .032989503 .0309906V0C.06498718 .0009918213 .11898804 .0029907227 .14299011 .0029907227 .17799378 .0029907227 .21299744 .0009918213 .24699402 0V.0309906C.18099976 .0309906 .1769867 .035995485 .1769867 .075042728V.4423828M.18099976 .6159363C.18099976 .64793398 .1559906 .6689453 .12799073 .6689453 .09700012 .6689453 .07499695 .64193728 .07499695 .6159363 .07499695 .5889435 .09700012 .5629425 .12799073 .5629425 .1559906 .5629425 .18099976 .5839386 .18099976 .6159363Z"/>
<path id="font_2_9" d="M.10998535 .34429933V.076034549C.10998535 .0309906 .09899902 .0309906 .03199768 .0309906V0C.066986087 .0009918213 .117996219 .0029907227 .14498902 .0029907227 .17098999 .0029907227 .22299195 .0009918213 .25698854 0V.0309906C.18998719 .0309906 .1789856 .0309906 .1789856 .076034549V.2602234C.1789856 .36431886 .25 .42037965 .31399537 .42037965 .3769989 .42037965 .3880005 .36631776 .3880005 .30926515V.076034549C.3880005 .0309906 .3769989 .0309906 .30999757 .0309906V0C.34498597 .0009918213 .3959961 .0029907227 .4229889 .0029907227 .44898988 .0029907227 .5009918 .0009918213 .5349884 0V.0309906C.48298646 .0309906 .45799256 .0309906 .45700074 .061019899V.25221253C.45700074 .3383026 .45700074 .36932374 .42599488 .405365 .4119873 .42237855 .3789978 .4423828 .32099916 .4423828 .24798584 .4423828 .20098877 .39935304 .17298889 .33729554V.4423828L.03199768 .43138124V.40037538C.101989749 .4003601 .10998535 .39335633 .10998535 .34429933Z"/>
<path id="font_2_7" d="M.10998535 .076034549C.10998535 .0309906 .09899902 .0309906 .03199768 .0309906V0C.066986087 .0009918213 .117996219 .0029907227 .14498902 .0029907227 .17098999 .0029907227 .22299195 .0009918213 .25698854 0V.0309906C.18998719 .0309906 .1789856 .0309906 .1789856 .076034549V.2602234C.1789856 .36431886 .25 .42037965 .31399537 .42037965 .3769989 .42037965 .3880005 .36631776 .3880005 .30926515V.076034549C.3880005 .0309906 .3769989 .0309906 .30999757 .0309906V0C.34498597 .0009918213 .3959961 .0029907227 .4229889 .0029907227 .44898988 .0029907227 .5009918 .0009918213 .5349884 0V.0309906C.48298646 .0309906 .45799256 .0309906 .45700074 .061019899V.25221253C.45700074 .3383026 .45700074 .36932374 .42599488 .405365 .4119873 .42237855 .3789978 .4423828 .32099916 .4423828 .23699951 .4423828 .19299317 .38233949 .17599488 .34429933V.69433596L.03199768 .68333438V.6523285C.101989749 .6523285 .10998535 .6453247 .10998535 .596344V.076034549Z"/>
<path id="font_5_1" d="M.33499146 .63612368C.33499146 .6630554 .33299256 .6640625 .30499269 .6640625 .24099732 .6014404 .1499939 .6004486 .10899353 .6004486V.5644531C.1329956 .5644531 .19898987 .5644531 .2539978 .592453V.08203125C.2539978 .04899597 .2539978 .035995485 .1539917 .035995485H.115997318V0C.13398743 .0009918213 .25698854 .0039978029 .2939911 .0039978029 .32499696 .0039978029 .45098878 .0009918213 .47299195 0V.035995485H.43499757C.33499146 .035995485 .33499146 .04899597 .33499146 .08203125V.63612368Z"/>
<path id="font_5_2" d="M.5049896 .18203736H.47099305C.46798707 .16001892 .45799256 .100997928 .44499208 .09098816 .43699647 .084991458 .3600006 .084991458 .34599305 .084991458H.1619873C.2669983 .17803955 .3019867 .20603943 .3619995 .25306703 .43598939 .312088 .5049896 .374115 .5049896 .46914674 .5049896 .5900879 .39898683 .6640625 .2709961 .6640625 .14698792 .6640625 .06298828 .57710269 .06298828 .4851532 .06298828 .43414308 .10598755 .42915345 .115997318 .42915345 .13999939 .42915345 .16899109 .44615174 .16899109 .48214723 .16899109 .5001526 .1619873 .53515627 .10998535 .53515627 .14099121 .6060791 .20899964 .62805178 .2559967 .62805178 .35598756 .62805178 .4079895 .5501404 .4079895 .46914674 .4079895 .38212586 .34599305 .3130951 .31399537 .27708436L.07299805 .038986207C.06298828 .02999878 .06298828 .027999878 .06298828 0H.47499085L.5049896 .18203736Z"/>
<path id="font_3_2" d="M.18699646 .23144531C.21598816 .23144531 .2899933 .23344422 .33999635 .2544403 .4099884 .28442384 .4149933 .34339906 .4149933 .35740663 .4149933 .40138246 .3769989 .4423828 .30799867 .4423828 .19699097 .4423828 .04598999 .34539796 .04598999 .17037964 .04598999 .06829834 .10499573-.0107421879 .20298767-.0107421879 .34599305-.0107421879 .42999269 .095321658 .42999269 .10733032 .42999269 .113342288 .42399598 .12034607 .41799928 .12034607 .41299439 .12034607 .41099549 .11834717 .40499879 .1103363 .32598878 .011245728 .21699524 .011245728 .20498657 .011245728 .1269989 .011245728 .117996219 .095321658 .117996219 .12734986 .117996219 .13935852 .11898804 .17037964 .13398743 .23144531H.18699646M.13999939 .25343324C.1789856 .40538026 .28199769 .42037965 .30799867 .42037965 .35499574 .42037965 .38198854 .39138795 .38198854 .35740663 .38198854 .25343324 .22200012 .25343324 .18099976 .25343324H.13999939Z"/>
<path id="font_6_1" d="M.24899292 .10601807C.23899842 .072021488 .20599365 .018234253 .15499878 .018234253 .1519928 .018234253 .12199402 .018234253 .100997928 .03215027 .14199829 .04508972 .14498902 .08100891 .14498902 .087020877 .14498902 .10900879 .12799073 .12402344 .10499573 .12402344 .07699585 .12402344 .04798889 .10002136 .04798889 .0630188 .04798889 .01322937 .10398865-.009765625 .15299988-.009765625 .19898987-.009765625 .23999024 .019226075 .2649994 .061019899 .2889862 .008224487 .34399415-.009765625 .38398744-.009765625 .49899293-.009765625 .55999758 .11502075 .55999758 .14305115 .55999758 .15608216 .5469971 .15608216 .5439911 .15608216 .5299988 .15608216 .5289917 .15107727 .5249939 .13905335 .5039978 .07002258 .44400025 .018234253 .3880005 .018234253 .34799195 .018234253 .32699586 .04508972 .32699586 .08302307 .32699586 .10900879 .35099793 .20018006 .3789978 .31140138 .39898683 .38841249 .44400025 .4133911 .47698976 .4133911 .47898866 .4133911 .5099945 .4133911 .5309906 .39941407 .49899293 .39041139 .4869995 .3624115 .4869995 .34440614 .4869995 .32240296 .5039978 .30740357 .5269928 .30740357 .5499878 .30740357 .58299258 .32640077 .58299258 .3684082 .58299258 .4243927 .5189972 .44140626 .47898866 .44140626 .42900086 .44140626 .3889923 .4084015 .36698915 .3704071 .34899903 .4113922 .30299378 .44140626 .24699402 .44140626 .1349945 .44140626 .070999149 .31840516 .070999149 .2883606 .070999149 .27534486 .084991458 .27534486 .08799744 .27534486 .100997928 .27534486 .101989749 .27934266 .10699463 .29237367 .13198853 .3704071 .19499207 .4133911 .24398804 .4133911 .2769928 .4133911 .3039856 .395401 .3039856 .3474121 .3039856 .32740785 .2919922 .27734376 .2829895 .24327088L.24899292 .10601807Z"/>
<path id="font_7_1" d="M.74398806 .2263794C.7599945 .2263794 .7839966 .2263794 .7839966 .25038148 .7839966 .27539063 .7609863 .27539063 .74398806 .27539063H.147995C.13198853 .27539063 .10798645 .27539063 .10798645 .25138856 .10798645 .2263794 .1309967 .2263794 .147995 .2263794H.74398806Z"/>
</defs>
<path transform="matrix(1.00002,0,0,-1.00008,6.581848,183.15647)" stroke-width=".3985" stroke-linecap="butt" stroke-miterlimit="10" stroke-linejoin="miter" fill="none" stroke="#bfbfbf" d="M0 0V181.94731M36.91571 0V181.94731M73.83144 0V181.94731M110.74716 0V181.94731M184.57862 0V181.94731M221.49434 0V181.94731M258.41007 0V181.94731M295.32579 0V181.94731"/>
<path transform="matrix(1.00002,0,0,-1.00008,6.581848,183.15647)" stroke-width=".3985" stroke-linecap="butt" stroke-miterlimit="10" stroke-linejoin="miter" fill="none" stroke="#bfbfbf" d="M0 17.10085H295.32679M0 41.72502H295.32679M0 66.34918H295.32679M0 115.5975H295.32679M0 140.22168H295.32679M0 164.84584H295.32679"/>
<path transform="matrix(1.00002,0,0,-1.00008,6.581848,183.15647)" stroke-width=".19925" stroke-linecap="butt" stroke-miterlimit="10" stroke-linejoin="miter" fill="none" stroke="#7f807f" d="M0 88.84744V93.09923M36.91571 88.84744V93.09923M73.83144 88.84744V93.09923M110.74716 88.84744V93.09923M184.57862 88.84744V93.09923M221.49434 88.84744V93.09923M258.41007 88.84744V93.09923M295.32579 88.84744V93.09923"/>
<path transform="matrix(1.00002,0,0,-1.00008,6.581848,183.15647)" stroke-width=".19925" stroke-linecap="butt" stroke-miterlimit="10" stroke-linejoin="miter" fill="none" stroke="#7f807f" d="M145.53685 17.10085H149.78891M145.53685 41.72502H149.78891M145.53685 66.34918H149.78891M145.53685 115.5975H149.78891M145.53685 140.22168H149.78891M145.53685 164.84584H149.78891"/>
<path transform="matrix(1.00002,0,0,-1.00008,6.581848,183.15647)" stroke-width="1.19553" stroke-linecap="butt" stroke-miterlimit="10" stroke-linejoin="miter" fill="none" stroke="#000000" d="M0 90.97334H292.1387"/>
<path transform="matrix(1.00002,0,0,-1.00008,298.7264,92.17584)" d="M3.18808 0-1.91284 2.55046 0 0-1.91284-2.55046"/>
<path transform="matrix(1.00002,0,0,-1.00008,6.581848,183.15647)" stroke-width="1.19553" stroke-linecap="butt" stroke-miterlimit="10" stroke-linejoin="miter" fill="none" stroke="#000000" d="M147.66289 0V178.75923"/>
<path transform="matrix(0,-1.00008,-1.00002,-0,154.2477,4.3829348)" d="M3.18808 0-1.91284 2.55046 0 0-1.91284-2.55046"/>
<use data-text="&#x2212;" xlink:href="#font_1_1" transform="matrix(9.962799,0,0,-9.963397,.21672058,104.64118)"/>
<use data-text="2" xlink:href="#font_2_3" transform="matrix(9.962799,0,0,-9.963397,7.9658815,104.64118)"/>
<use data-text="&#x2212;" xlink:href="#font_1_1" transform="matrix(9.962799,0,0,-9.963397,33.258386,104.64118)"/>
<use data-text="1" xlink:href="#font_2_2" transform="matrix(9.962799,0,0,-9.963397,41.007547,104.64118)"/>
<use data-text="." xlink:href="#font_3_1" transform="matrix(9.962799,0,0,-9.963397,45.988649,104.64118)"/>
<use data-text="5" xlink:href="#font_2_5" transform="matrix(9.962799,0,0,-9.963397,48.7557,104.64118)"/>
<use data-text="&#x2212;" xlink:href="#font_1_1" transform="matrix(9.962799,0,0,-9.963397,74.0492,104.64118)"/>
<use data-text="1" xlink:href="#font_2_2" transform="matrix(9.962799,0,0,-9.963397,81.79836,104.64118)"/>
<use data-text="&#x2212;" xlink:href="#font_1_1" transform="matrix(9.962799,0,0,-9.963397,107.091869,104.64118)"/>
<use data-text="0" xlink:href="#font_2_1" transform="matrix(9.962799,0,0,-9.963397,114.84103,104.64118)"/>
<use data-text="." xlink:href="#font_3_1" transform="matrix(9.962799,0,0,-9.963397,119.82213,104.64118)"/>
<use data-text="5" xlink:href="#font_2_5" transform="matrix(9.962799,0,0,-9.963397,122.58918,104.64118)"/>
<use data-text="0" xlink:href="#font_2_1" transform="matrix(9.962799,0,0,-9.963397,184.79943,104.64118)"/>
<use data-text="." xlink:href="#font_3_1" transform="matrix(9.962799,0,0,-9.963397,189.78054,104.64118)"/>
<use data-text="5" xlink:href="#font_2_5" transform="matrix(9.962799,0,0,-9.963397,192.54758,104.64118)"/>
<use data-text="1" xlink:href="#font_2_2" transform="matrix(9.962799,0,0,-9.963397,225.59023,104.64118)"/>
<use data-text="1" xlink:href="#font_2_2" transform="matrix(9.962799,0,0,-9.963397,258.6319,104.64118)"/>
<use data-text="." xlink:href="#font_3_1" transform="matrix(9.962799,0,0,-9.963397,263.613,104.64118)"/>
<use data-text="5" xlink:href="#font_2_5" transform="matrix(9.962799,0,0,-9.963397,266.38008,104.64118)"/>
<use data-text="2" xlink:href="#font_2_3" transform="matrix(9.962799,0,0,-9.963397,299.4227,104.64118)"/>
<use data-text="&#x2212;" xlink:href="#font_1_1" transform="matrix(9.962799,0,0,-9.963397,135.47243,168.84932)"/>
<use data-text="3" xlink:href="#font_2_4" transform="matrix(9.962799,0,0,-9.963397,143.22159,168.84932)"/>
<use data-text="&#x2212;" xlink:href="#font_1_1" transform="matrix(9.962799,0,0,-9.963397,135.47243,144.22336)"/>
<use data-text="2" xlink:href="#font_2_3" transform="matrix(9.962799,0,0,-9.963397,143.22159,144.22336)"/>
<use data-text="&#x2212;" xlink:href="#font_1_1" transform="matrix(9.962799,0,0,-9.963397,135.47243,119.59738)"/>
<use data-text="1" xlink:href="#font_2_2" transform="matrix(9.962799,0,0,-9.963397,143.22159,119.59738)"/>
<use data-text="1" xlink:href="#font_2_2" transform="matrix(9.962799,0,0,-9.963397,143.22158,70.760478)"/>
<use data-text="2" xlink:href="#font_2_3" transform="matrix(9.962799,0,0,-9.963397,143.22158,46.134508)"/>
<use data-text="3" xlink:href="#font_2_4" transform="matrix(9.962799,0,0,-9.963397,143.22158,21.507538)"/>
<g clip-path="url(#clip_4)">
<path transform="matrix(1.00002,0,0,-1.00008,6.581848,183.15647)" stroke-width="1.19553" stroke-linecap="butt" stroke-miterlimit="10" stroke-linejoin="miter" fill="none" stroke="#0000ff" d="M0 1.66617 1.48404 3.51236 2.9681 5.32138 4.45215 7.0963 5.9362 8.83464 7.42024 10.5438 8.90431 12.21701 10.38835 13.8597 11.8724 15.47096 13.35646 17.05183 14.84052 18.60402 16.32457 20.12642 17.80862 21.62 19.29266 23.08488 20.77673 24.52367 22.26079 25.93428 23.74483 27.31914 25.2289 28.67754 26.71294 30.01302 28.19699 31.32106 29.68105 32.60744 31.1651 33.86917 32.64915 35.10776 34.13321 36.32248 35.61725 37.51736 37.10132 38.69022 38.58536 39.84065 40.06941 40.97076 41.55348 42.08255 43.03752 43.17204 44.52159 44.2427 46.00563 45.29564 47.48969 46.32875 48.97374 47.34572 50.4578 48.34398 51.94183 49.32513 53.4259 50.28856 54.90994 51.23734 56.394 52.16887 57.87805 53.08536 59.3621 53.98538 60.84618 54.87123 62.33022 55.7428 63.81427 56.59937 65.29832 57.44225 66.78238 58.27084 68.26642 59.08739 69.75049 59.89186 71.23453 60.68217 72.7186 61.4603 74.20264 62.22807 75.68669 62.9828 77.17075 63.7267 78.65482 64.45964 80.13887 65.18224 81.62291 65.89325 83.10698 66.59431 84.59103 67.28662 86.07509 67.96783 87.55914 68.64046 89.0432 69.30469 90.52724 69.95993 92.01132 70.60645 93.49536 71.24458 94.97942 71.8752 96.46347 72.49721 97.94753 73.11307 99.4316 73.72041 100.91563 74.32173 102.3997 74.91592 103.88374 75.50395 105.36781 76.08507 106.85187 76.65993 108.33592 77.2301 109.81996 77.79362 111.30403 78.35297 112.78807 78.90663 114.27214 79.4565 115.7562 79.99971 117.24025 80.54008 118.7243 81.07504 120.20836 81.6058 121.69243 82.13388 123.17647 82.65826 124.66054 83.1793 126.14458 83.69615 127.62863 84.21141 129.11269 84.72348 130.59676 85.23308 132.0808 85.7401 133.56487 86.246 135.0489 86.74783 136.53298 87.2493 138.01702 87.74956 139.50109 88.24794 140.98514 88.74571 142.4692 89.24176 143.95326 89.73856 145.4373 90.23387 146.92136 90.72882 148.40541 91.21797 149.88948 91.7128 151.37352 92.20947 152.85759 92.70515 154.34165 93.20132 155.8257 93.69887 157.30974 94.19737 158.79381 94.69762 160.27788 95.19897 161.76192 95.70229 163.24599 96.20671 164.73003 96.71397 166.2141 97.22333 167.69814 97.73538 169.1822 98.25052 170.66625 98.7675 172.15032 99.28856 173.63437 99.81279 175.11843 100.34099 176.60247 100.87201 178.08654 101.40672 179.57059 101.94734 181.05464 102.4908 182.53871 103.0403 184.02275 103.59396 185.5068 104.15343 186.99086 104.71695 188.47493 105.28687 189.95897 105.86198 191.44304 106.44434 192.92708 107.03075 194.41114 107.62556 195.89519 108.22652 197.37926 108.83362 198.86331 109.44997 200.34735 110.0716 201.83142 110.70247 203.31548 111.34172 204.79953 111.98712 206.28359 112.64235 207.76764 113.3066 209.25168 113.97896 210.73577 114.66068 212.2198 115.3531 213.70386 116.05415 215.18791 116.76642 216.67197 117.48705 218.15602 118.22011 219.64008 118.96425 221.12415 119.7191 222.60819 120.48663 224.09226 121.26488 225.5763 122.05507 227.06035 122.85954 228.5444 123.67633 230.02846 124.50505 231.5125 125.34744 232.99657 126.20497 234.4806 127.0758 235.96466 127.96129 237.44872 128.86426 238.93277 129.7783 240.41684 130.70935 241.90088 131.65924 243.38494 132.62168 244.86899 133.60343 246.35305 134.60195 247.83708 135.61843 249.32115 136.65203 250.80519 137.70459 252.28926 138.77487 253.7733 139.86524 255.25736 140.97653 256.74143 142.10652 258.22547 143.2587 259.70954 144.42932 261.19358 145.62458 262.67765 146.83979 264.16169 148.07825 265.64576 149.34 267.1298 150.62673 268.61387 151.93404 270.0979 153.26927 271.58195 154.62853 273.066 156.0129 274.55006 157.42459 276.0341 158.86377 277.51817 160.32694 279.0022 161.82027 280.48628 163.34377 281.9703 164.89534 283.45436 166.47571 284.93843 168.0881 286.42247 169.73029 287.90653 171.40387 289.3906 173.11316 290.87464 174.85161 292.35868 176.62726 293.84275 178.43714 295.32679 180.28113"/>
<path transform="matrix(1.00002,0,0,-1.00008,6.581848,183.15647)" stroke-width="1.19553" stroke-linecap="butt" stroke-miterlimit="10" stroke-linejoin="miter" fill="none" stroke="#ff0000" d="M0 92.63954 1.48404 92.67278 2.9681 92.70712 4.45215 92.74283 5.9362 92.77853 7.42024 92.8156 8.90431 92.85254 10.38835 92.89069 11.8724 92.93022 13.35646 92.96938 14.84052 93.01025 16.32457 93.05211 17.80862 93.09386 19.29266 93.13707 20.77673 93.18138 22.26079 93.22571 23.74483 93.27113 25.2289 93.31805 26.71294 93.36607 28.19699 93.41408 29.68105 93.46469 31.1651 93.51506 32.64915 93.56688 34.13321 93.61847 35.61725 93.67264 37.10132 93.72804 38.58536 93.78345 40.06941 93.84021 41.55348 93.89943 43.03752 93.9584 44.52159 94.01862 46.00563 94.08029 47.48969 94.14322 48.97374 94.20847 50.4578 94.27359 51.94183 94.34143 53.4259 94.40903 54.90994 94.47932 56.394 94.55074 57.87805 94.62338 59.3621 94.69725 60.84618 94.77235 62.33022 94.85005 63.81427 94.92883 65.29832 95.00888 66.78238 95.09013 68.26642 95.17384 69.75049 95.26016 71.23453 95.34634 72.7186 95.43498 74.20264 95.52611 75.68669 95.61856 77.17075 95.71324 78.65482 95.80942 80.13887 95.90791 81.62291 96.00763 83.10698 96.10982 84.59103 96.21446 86.07509 96.32047 87.55914 96.42882 89.0432 96.53964 90.52724 96.65291 92.01132 96.76865 93.49536 96.88573 94.97942 97.00627 96.46347 97.12828 97.94753 97.25398 99.4316 97.3808 100.91563 97.5113 102.3997 97.64427 103.88374 97.77983 105.36781 97.91772 106.85187 98.05821 108.33592 98.20213 109.81996 98.34865 111.30403 98.49898 112.78807 98.65166 114.27214 98.80814 115.7562 98.96695 117.24025 99.1296 118.7243 99.29459 120.20836 99.46326 121.69243 99.63576 123.17647 99.81168 124.66054 99.99156 126.14458 100.1738 127.62863 100.36105 129.11269 100.5519 130.59676 100.74643 132.0808 100.94478 133.56487 101.14804 135.0489 101.35365 136.53298 101.5642 138.01702 101.77965 139.50109 101.99893 140.98514 102.22302 142.4692 102.45091 143.95326 102.68484 145.4373 102.92271 146.92136 103.16513 148.40541 103.40977 149.88948 103.66217 151.37352 103.91986 152.85759 104.18274 154.34165 104.451 155.8257 104.72444 157.30974 105.0037 158.79381 105.28848 160.27788 105.57928 161.76192 105.87575 163.24599 106.17815 164.73003 106.48706 166.2141 106.80186 167.69814 107.12311 169.1822 107.45096 170.66625 107.78572 172.15032 108.12689 173.63437 108.4752 175.11843 108.83092 176.60247 109.19325 178.08654 109.56297 179.57059 109.94096 181.05464 110.32558 182.53871 110.71858 184.02275 111.11961 185.5068 111.52873 186.99086 111.94574 188.47493 112.37173 189.95897 112.80637 191.44304 113.24959 192.92708 113.7017 194.41114 114.16351 195.89519 114.63397 197.37926 115.11426 198.86331 115.60487 200.34735 116.10452 201.83142 116.61484 203.31548 117.1359 204.79953 117.66669 206.28359 118.20866 207.76764 118.76207 209.25168 119.3261 210.73577 119.90181 212.2198 120.4896 213.70386 121.08844 215.18791 121.69987 216.67197 122.3231 218.15602 122.96 219.64008 123.60947 221.12415 124.27185 222.60819 124.94829 224.09226 125.6379 225.5763 126.34189 227.06035 127.06004 228.5444 127.7931 230.02846 128.54058 231.5125 129.30295 232.99657 130.0817 234.4806 130.87483 235.96466 131.68521 237.44872 132.51306 238.93277 133.35572 240.41684 134.21535 241.90088 135.09491 243.38494 135.98976 244.86899 136.90369 246.35305 137.83707 247.83708 138.7883 249.32115 139.75899 250.80519 140.74987 252.28926 141.75995 253.7733 142.79132 255.25736 143.8434 256.74143 144.91663 258.22547 146.01229 259.70954 147.12862 261.19358 148.2697 262.67765 149.43332 264.16169 150.61997 265.64576 151.83135 267.1298 153.06748 268.61387 154.32675 270.0979 155.614 271.58195 156.92633 273.066 158.26526 274.55006 159.63265 276.0341 161.02748 277.51817 162.44744 279.0022 163.89905 280.48628 165.38068 281.9703 166.89138 283.45436 168.43257 284.93843 170.00547 286.42247 171.60947 287.90653 173.24611 289.3906 174.91835 290.87464 176.62111 292.35868 178.36106 293.84275 180.13658 295.32679 181.94731"/>
<path transform="matrix(1.00002,0,0,-1.00008,6.581848,183.15647)" stroke-width="1.19553" stroke-linecap="butt" stroke-miterlimit="10" stroke-linejoin="miter" fill="none" stroke="#00ff00" d="M0 0 1.48404 1.81291 2.9681 3.5876 4.45215 5.3268 5.9362 7.02945 7.42024 8.70152 8.90431 10.33783 10.38835 11.94234 11.8724 13.5141 13.35646 15.05582 14.84052 16.56711 16.32457 18.04764 17.80862 19.49948 19.29266 20.92117 20.77673 22.31563 22.26079 23.6819 23.74483 25.02133 25.2289 26.33282 26.71294 27.6203 28.19699 28.8803 29.68105 30.11609 31.1651 31.32745 32.64915 32.51422 34.13321 33.67734 35.61725 34.81805 37.10132 35.93549 38.58536 37.03053 40.06941 38.1039 41.55348 39.15648 43.03752 40.18698 44.52159 41.19745 46.00563 42.18869 47.48969 43.15886 48.97374 44.11061 50.4578 45.04373 51.94183 45.95705 53.4259 46.85287 54.90994 47.73135 56.394 48.59146 57.87805 49.43533 59.3621 50.26146 60.84618 51.07222 62.33022 51.8661 63.81427 52.64384 65.29832 53.40672 66.78238 54.15407 68.26642 54.88687 69.75049 55.60503 71.23453 56.30917 72.7186 56.99864 74.20264 57.67531 75.68669 58.33759 77.17075 58.9868 78.65482 59.62358 80.13887 60.24767 81.62291 60.85896 83.10698 61.45784 84.59103 62.04549 86.07509 62.6207 87.55914 63.18497 89.0432 63.7384 90.52724 64.28036 92.01132 64.81114 93.49536 65.3322 94.97942 65.84229 96.46347 66.34227 97.94753 66.83241 99.4316 67.31297 100.91563 67.78378 102.3997 68.24498 103.88374 68.69746 105.36781 69.1407 106.85187 69.57507 108.33592 70.0013 109.81996 70.4183 111.30403 70.82733 112.78807 71.22835 114.27214 71.62169 115.7562 72.00609 117.24025 72.38382 118.7243 72.7538 120.20836 73.1159 121.69243 73.47147 123.17647 73.81989 124.66054 74.16107 126.14458 74.49571 127.62863 74.8237 129.11269 75.14493 130.59676 75.45999 132.0808 75.76866 133.56487 76.07129 135.0489 76.36751 136.53298 76.65846 138.01702 76.94322 139.50109 77.22235 140.98514 77.49605 142.4692 77.76419 143.95326 78.02705 145.4373 78.28452 146.92136 78.53702 148.40541 78.78154 149.88948 79.02399 151.37352 79.26295 152.85759 79.49577 154.34165 79.72366 155.8257 79.94774 157.30974 80.16704 158.79381 80.38249 160.27788 80.59302 161.76192 80.79987 163.24599 81.0019 164.73003 81.20026 166.2141 81.39479 167.69814 81.58562 169.1822 81.77289 170.66625 81.95511 172.15032 82.135 173.63437 82.31093 175.11843 82.48341 176.60247 82.6521 178.08654 82.81708 179.57059 82.97972 181.05464 83.13855 182.53871 83.29504 184.02275 83.44771 185.5068 83.59802 186.99086 83.74454 188.47493 83.88847 189.95897 84.02896 191.44304 84.16809 192.92708 84.30241 194.41114 84.43538 195.89519 84.56589 197.37926 84.6927 198.86331 84.8184 200.34735 84.94043 201.83142 85.06096 203.31548 85.17915 204.79953 85.29378 206.28359 85.40704 207.76764 85.51785 209.25168 85.6262 210.73577 85.73221 212.2198 85.83687 213.70386 85.93906 215.18791 86.03989 216.67197 86.13727 218.15602 86.23344 219.64008 86.32813 221.12415 86.42058 222.60819 86.51169 224.09226 86.60033 225.5763 86.68652 227.06035 86.77283 228.5444 86.85655 230.02846 86.9378 231.5125 87.01784 232.99657 87.09663 234.4806 87.17432 235.96466 87.24942 237.44872 87.32454 238.93277 87.39594 240.41684 87.46736 241.90088 87.53764 243.38494 87.60526 244.86899 87.67308 246.35305 87.7382 247.83708 87.80347 249.32115 87.8664 250.80519 87.92807 252.28926 87.98828 253.7733 88.04726 255.25736 88.10648 256.74143 88.16322 258.22547 88.21974 259.70954 88.27403 261.19358 88.32822 262.67765 88.37979 264.16169 88.43164 265.64576 88.482 267.1298 88.5326 268.61387 88.58061 270.0979 88.62862 271.58195 88.67554 273.066 88.72098 274.55006 88.76529 276.0341 88.80962 277.51817 88.85283 279.0022 88.89456 280.48628 88.93643 281.9703 88.97731 283.45436 89.01645 284.93843 89.05598 286.42247 89.09415 287.90653 89.13109 289.3906 89.16814 290.87464 89.20384 292.35868 89.23956 293.84275 89.2739 295.32679 89.30714"/>
</g>
<use data-text="x" xlink:href="#font_3_3" transform="matrix(9.962799,0,0,-9.963397,292.35758,88.240879)"/>
<use data-text="y" xlink:href="#font_3_4" transform="matrix(9.962799,0,0,-9.963397,158.18889,9.37056)"/>
<path transform="matrix(1.00002,0,0,-1.00008,6.581848,183.15647)" d="M310.69178 137.17356H387.3767V181.34955H310.69178Z" fill="#ffffff"/>
<path transform="matrix(1.00002,0,0,-1.00008,6.581848,183.15647)" stroke-width="1.19553" stroke-linecap="butt" stroke-miterlimit="10" stroke-linejoin="miter" fill="none" stroke="#000000" d="M310.69178 137.17356H387.3767V181.34955H310.69178Z"/>
<path transform="matrix(1.00002,0,0,-1.00008,320.86714,9.985626)" stroke-width="1.19553" stroke-linecap="butt" stroke-miterlimit="10" stroke-linejoin="miter" fill="none" stroke="#0000ff" d="M0 0H8.50412 17.00826"/>
<use data-text="y" xlink:href="#font_3_4" transform="matrix(9.962799,0,0,-9.963397,342.9016,12.697845)"/>
<use data-text="=" xlink:href="#font_2_6" transform="matrix(9.962799,0,0,-9.963397,350.91078,12.697845)"/>
<use data-text="s" xlink:href="#font_2_10" transform="matrix(9.962799,0,0,-9.963397,361.41157,12.697845)"/>
<use data-text="i" xlink:href="#font_2_8" transform="matrix(9.962799,0,0,-9.963397,365.33689,12.697845)"/>
<use data-text="n" xlink:href="#font_2_9" transform="matrix(9.962799,0,0,-9.963397,368.0966,12.697845)"/>
<use data-text="h" xlink:href="#font_2_7" transform="matrix(9.962799,0,0,-9.963397,373.62593,12.697845)"/>
<use data-text="x" xlink:href="#font_3_3" transform="matrix(9.962799,0,0,-9.963397,380.85438,12.697845)"/>
<path transform="matrix(1.00002,0,0,-1.00008,320.86714,23.133667)" stroke-width="1.19553" stroke-linecap="butt" stroke-miterlimit="10" stroke-linejoin="miter" fill="none" stroke="#ff0000" d="M0 0H8.50412 17.00826"/>
<use data-text="y" xlink:href="#font_3_4" transform="matrix(9.962799,0,0,-9.963397,347.45368,26.59494)"/>
<use data-text="=" xlink:href="#font_2_6" transform="matrix(9.962799,0,0,-9.963397,355.46284,26.59494)"/>
<use data-text="1" xlink:href="#font_5_1" transform="matrix(6.97394,0,0,-6.974358,367.17509,22.671616)"/>
<path transform="matrix(1.00002,0,0,-1.00008,200.72774,-127.08035)" stroke-width=".3985" stroke-linecap="butt" stroke-miterlimit="10" stroke-linejoin="miter" fill="none" stroke="#000000" d="M166.444-151.172H170.415"/>
<use data-text="2" xlink:href="#font_5_2" transform="matrix(6.97394,0,0,-6.974358,367.17506,30.030228)"/>
<use data-text="e" xlink:href="#font_3_2" transform="matrix(9.962799,0,0,-9.963397,372.3412,26.594956)"/>
<use data-text="x" xlink:href="#font_6_1" transform="matrix(6.97394,0,0,-6.974358,376.98027,22.978669)"/>
<path transform="matrix(1.00002,0,0,-1.00008,320.86714,37.030778)" stroke-width="1.19553" stroke-linecap="butt" stroke-miterlimit="10" stroke-linejoin="miter" fill="none" stroke="#00ff00" d="M0 0H8.50412 17.00826"/>
<use data-text="y" xlink:href="#font_3_4" transform="matrix(9.962799,0,0,-9.963397,340.46556,40.49205)"/>
<use data-text="=" xlink:href="#font_2_6" transform="matrix(9.962799,0,0,-9.963397,348.4747,40.49205)"/>
<use data-text="&#x2212;" xlink:href="#font_1_1" transform="matrix(9.962799,0,0,-9.963397,358.9909,40.49205)"/>
<use data-text="1" xlink:href="#font_5_1" transform="matrix(6.97394,0,0,-6.974358,367.93513,36.56874)"/>
<path transform="matrix(1.00002,0,0,-1.00008,193.7396,-127.08035)" stroke-width=".3985" stroke-linecap="butt" stroke-miterlimit="10" stroke-linejoin="miter" fill="none" stroke="#000000" d="M174.192-165.068H178.164"/>
<use data-text="2" xlink:href="#font_5_2" transform="matrix(6.97394,0,0,-6.974358,367.9351,43.927324)"/>
<use data-text="e" xlink:href="#font_3_2" transform="matrix(9.962799,0,0,-9.963397,373.10218,40.49205)"/>
<use data-text="&#x2212;" xlink:href="#font_7_1" transform="matrix(6.97394,0,0,-6.974358,377.74128,36.876756)"/>
<use data-text="x" xlink:href="#font_6_1" transform="matrix(6.97394,0,0,-6.974358,383.96846,36.876756)"/>
</svg>
