<svg xmlns="http://www.w3.org/2000/svg" xmlns:xlink="http://www.w3.org/1999/xlink" xmlns:inkscape="http://www.inkscape.org/namespaces/inkscape" version="1.1" width="206" height="354" viewBox="0 0 206 354">
<defs>
<path id="font_1_1" d="M.33399964 .30233766C.33999635 .32835389 .36299134 .42037965 .43299867 .42037965 .43798829 .42037965 .46199037 .42037965 .48298646 .40734864 .45498658 .402359 .43499757 .37734986 .43499757 .35334779 .43499757 .33735658 .44599916 .31835938 .47299195 .31835938 .49499513 .31835938 .5269928 .3363495 .5269928 .37635804 .5269928 .42837525 .46798707 .4423828 .43399049 .4423828 .37599183 .4423828 .34098817 .38935853 .32899476 .36634828 .3039856 .43237306 .25 .4423828 .22099304 .4423828 .116989139 .4423828 .05999756 .3133545 .05999756 .28834535 .05999756 .27833558 .069992069 .27833558 .07199097 .27833558 .07998657 .27833558 .08299255 .28033448 .084991458 .28933717 .11898804 .39535523 .18499756 .42037965 .21899414 .42037965 .23799134 .42037965 .272995 .4113617 .272995 .35334779 .272995 .32235719 .2559967 .25532533 .21899414 .11528015 .20298767 .053268434 .16799927 .011245728 .12399292 .011245728 .117996219 .011245728 .09498596 .011245728 .07398987 .024276734 .09899902 .029266358 .12098694 .05027771 .12098694 .07827759 .12098694 .105270389 .09899902 .11328125 .083999637 .11328125 .053985597 .11328125 .0289917 .08728027 .0289917 .055267335 .0289917 .009246826 .07899475-.0107421879 .12298584-.0107421879 .18899536-.0107421879 .22499085 .059280397 .22799683 .0652771 .23999024 .028274537 .27598573-.0107421879 .33599855-.0107421879 .43899537-.0107421879 .49598695 .118270877 .49598695 .14328003 .49598695 .1532898 .4869995 .1532898 .48399354 .1532898 .47499085 .1532898 .47299195 .14929199 .47099305 .14228821 .43798829 .03527832 .36999513 .011245728 .33799745 .011245728 .29899598 .011245728 .2829895 .043273927 .2829895 .07727051 .2829895 .09927368 .2889862 .121276859 .2999878 .16529846L.33399964 .30233766Z"/>
<path id="font_1_2" d="M.48599244 .38136292C.48999024 .39537049 .48999024 .39736939 .48999024 .40437318 .48999024 .42237855 .47599793 .43138124 .46099855 .43138124 .45098878 .43138124 .43499757 .42536927 .42599488 .41036988 .42399598 .405365 .41600038 .37435914 .4119873 .35635377 .40499879 .33035279 .397995 .30334474 .3919983 .27633668L.34700013 .09628296C.34298707 .08126831 .2999878 .011245728 .23399353 .011245728 .18299866 .011245728 .17199707 .055267335 .17199707 .0922699 .17199707 .1382904 .18899536 .20030213 .22299195 .28833009 .23899842 .3293457 .24299622 .3403473 .24299622 .36035157 .24299622 .405365 .21099854 .4423828 .16099549 .4423828 .06599426 .4423828 .0289917 .29733277 .0289917 .28833009 .0289917 .27833558 .038986207 .27833558 .040985109 .27833558 .050994874 .27833558 .051986696 .28033448 .056991579 .29634095 .083999637 .3903656 .12399292 .42037965 .1579895 .42037965 .1659851 .42037965 .18299866 .42037965 .18299866 .3883667 .18299866 .36335755 .17298889 .3373413 .1659851 .31834413 .12599182 .21231079 .10798645 .1552887 .10798645 .10827637 .10798645 .019256592 .17098999-.0107421879 .22999573-.0107421879 .2689972-.0107421879 .30299378 .0062561037 .33099366 .03425598 .31799317-.017745972 .30599977-.06674194 .2659912-.11973572 .23999024-.15385437 .20199585-.18309021 .1559906-.18309021 .14199829-.18309021 .09700012-.18005371 .07998657-.14074707 .09599304-.14074707 .10899353-.14074707 .12298584-.1287384 .1329956-.11973572 .14299011-.10673523 .14299011-.08773804 .14299011-.056747438 .115997318-.052734376 .10598755-.052734376 .08299255-.052734376 .049987794-.068740848 .049987794-.11773682 .049987794-.16796875 .09399414-.20507813 .1559906-.20507813 .25898744-.20507813 .3619995-.11373901 .3899994-.00074768069L.48599244 .38136292Z"/>
<path id="font_2_1" d="M.2939911 .64004519C.2939911 .66400149 .2939911 .6660156 .2709961 .6660156 .20899964 .60227969 .12098694 .60227969 .08898926 .60227969V.57128909C.10899353 .57128909 .16799927 .57128909 .21998596 .5972748V.07902527C.21998596 .042999269 .21699524 .0309906 .1269989 .0309906H.09498596V0C.12998963 .0029907227 .21699524 .0029907227 .25698854 .0029907227 .29699708 .0029907227 .38398744 .0029907227 .4189911 0V.0309906H.3869934C.29699708 .0309906 .2939911 .041992189 .2939911 .07902527V.64004519Z"/>
<path id="font_2_3" d="M.36698915 .31781007V.28579713C.36698915 .05178833 .2630005 .0055389406 .20498657 .0055389406 .18798828 .0055389406 .13398743 .007537842 .10699463 .041778566 .15098572 .041778566 .15899658 .07078552 .15899658 .08778381 .15899658 .118774417 .1349945 .13378906 .11299133 .13378906 .09700012 .13378906 .066986087 .12478638 .066986087 .08578491 .066986087 .018615723 .12098694-.022460938 .20599365-.022460938 .33499146-.022460938 .45700074 .11378479 .45700074 .32881166 .45700074 .5979767 .34199525 .6660156 .25299073 .6660156 .19799805 .6660156 .14898682 .64801028 .10598755 .60298159 .06498718 .5579529 .041992189 .5159302 .041992189 .44088746 .041992189 .31581117 .12998963 .21777344 .24198914 .21777344 .30299378 .21777344 .34399415 .25978089 .36698915 .31781007M.24299622 .24076844C.22698975 .24076844 .18099976 .24076844 .1499939 .3038025 .13198853 .3408203 .13198853 .39085389 .13198853 .43988038 .13198853 .49391175 .13198853 .54093936 .15299988 .5779724 .17999268 .6279907 .21798706 .64100649 .25299073 .64100649 .29899598 .64100649 .33198548 .60697939 .34899903 .5619507 .36099244 .52993777 .36499024 .4669037 .36499024 .42086793 .36499024 .3378296 .33099366 .24076844 .24299622 .24076844Z"/>
<path id="font_3_80" d="M.72099307 .3387909C.72099307 .5429535 .56999209 .7050781 .3880005 .7050781 .20899964 .7050781 .055999757 .5449524 .055999757 .3387909 .055999757 .13363648 .20999146-.022460938 .3880005-.022460938 .56999209-.022460938 .72099307 .13664246 .72099307 .3387909M.6179962 .35281373C.6179962 .08760071 .48098756 .0035247803 .3889923 .0035247803 .29299928 .0035247803 .15899658 .09159851 .15899658 .35281373 .15899658 .6120148 .30499269 .68006899 .3880005 .68006899 .47499085 .68006899 .6179962 .6090088 .6179962 .35281373Z"/>
<path id="font_2_4" d="M.68699648 .32714845C.70199587 .32714845 .72099307 .32714845 .72099307 .34713746 .72099307 .36714173 .70199587 .36714173 .6879883 .36714173H.08898926C.07499695 .36714173 .055999757 .36714173 .055999757 .34713746 .055999757 .32714845 .07499695 .32714845 .08999634 .32714845H.68699648M.6879883 .13284302C.70199587 .13284302 .72099307 .13284302 .72099307 .15284729 .72099307 .17285156 .70199587 .17285156 .68699648 .17285156H.08999634C.07499695 .17285156 .055999757 .17285156 .055999757 .15284729 .055999757 .13284302 .07499695 .13284302 .08898926 .13284302H.6879883Z"/>
<path id="font_2_2" d="M.2899933 .35191346C.37199403 .37893678 .42999269 .4490509 .42999269 .52809146 .42999269 .6100464 .34199525 .6660156 .24598694 .6660156 .14498902 .6660156 .068984989 .60606387 .068984989 .53009036 .068984989 .49710084 .09098816 .47808839 .11999512 .47808839 .15098572 .47808839 .17098999 .50009158 .17098999 .5290985 .17098999 .57910159 .12399292 .57910159 .10899353 .57910159 .13999939 .62802127 .20599365 .64100649 .24198914 .64100649 .2829895 .64100649 .33799745 .6190338 .33799745 .5290985 .33799745 .51708987 .33599855 .45906068 .30999757 .4149933 .27999879 .36691285 .24598694 .36390687 .22099304 .36291505 .21299744 .36190797 .18899536 .35990907 .18199158 .35990907 .17399597 .35890199 .16699219 .35791017 .16699219 .3479004 .16699219 .33691407 .17399597 .33691407 .19099427 .33691407H.23498535C.31698609 .33691407 .35398866 .2686615 .35398866 .17037964 .35398866 .034469606 .2849884 .0055389406 .24099732 .0055389406 .19799805 .0055389406 .12298584 .022491456 .08799744 .08137512 .12298584 .07637024 .1539917 .09837341 .1539917 .1363678 .1539917 .17237854 .1269989 .19238281 .09799194 .19238281 .07398987 .19238281 .041992189 .17837525 .041992189 .1343689 .041992189 .043441774 .1349945-.022460938 .24398804-.022460938 .3659973-.022460938 .45700074 .06838989 .45700074 .17037964 .45700074 .252594 .3939972 .33088685 .2899933 .35191346Z"/>
<path id="font_4_1" d="M.24899292 .10601807C.23899842 .072021488 .20599365 .018234253 .15499878 .018234253 .1519928 .018234253 .12199402 .018234253 .100997928 .03215027 .14199829 .04508972 .14498902 .08100891 .14498902 .087020877 .14498902 .10900879 .12799073 .12402344 .10499573 .12402344 .07699585 .12402344 .04798889 .10002136 .04798889 .0630188 .04798889 .01322937 .10398865-.009765625 .15299988-.009765625 .19898987-.009765625 .23999024 .019226075 .2649994 .061019899 .2889862 .008224487 .34399415-.009765625 .38398744-.009765625 .49899293-.009765625 .55999758 .11502075 .55999758 .14305115 .55999758 .15608216 .5469971 .15608216 .5439911 .15608216 .5299988 .15608216 .5289917 .15107727 .5249939 .13905335 .5039978 .07002258 .44400025 .018234253 .3880005 .018234253 .34799195 .018234253 .32699586 .04508972 .32699586 .08302307 .32699586 .10900879 .35099793 .20018006 .3789978 .31140138 .39898683 .38841249 .44400025 .4133911 .47698976 .4133911 .47898866 .4133911 .5099945 .4133911 .5309906 .39941407 .49899293 .39041139 .4869995 .3624115 .4869995 .34440614 .4869995 .32240296 .5039978 .30740357 .5269928 .30740357 .5499878 .30740357 .58299258 .32640077 .58299258 .3684082 .58299258 .4243927 .5189972 .44140626 .47898866 .44140626 .42900086 .44140626 .3889923 .4084015 .36698915 .3704071 .34899903 .4113922 .30299378 .44140626 .24699402 .44140626 .1349945 .44140626 .070999149 .31840516 .070999149 .2883606 .070999149 .27534486 .084991458 .27534486 .08799744 .27534486 .100997928 .27534486 .101989749 .27934266 .10699463 .29237367 .13198853 .3704071 .19499207 .4133911 .24398804 .4133911 .2769928 .4133911 .3039856 .395401 .3039856 .3474121 .3039856 .32740785 .2919922 .27734376 .2829895 .24327088L.24899292 .10601807Z"/>
<path id="font_5_1" d="M.46299745 .2263794H.7689972C.7819977 .2263794 .80599978 .2263794 .80599978 .25038148 .80599978 .27539063 .7829895 .27539063 .7689972 .27539063H.46299745V.5821533C.46299745 .59513857 .46299745 .6191406 .43899537 .6191406 .4139862 .6191406 .4139862 .5961304 .4139862 .5821533V.27539063H.10699463C.09399414 .27539063 .069992069 .27539063 .069992069 .25138856 .069992069 .2263794 .09298706 .2263794 .10699463 .2263794H.4139862V-.08114624C.4139862-.09416199 .4139862-.11816406 .43798829-.11816406 .46299745-.11816406 .46299745-.09516907 .46299745-.08114624V.2263794Z"/>
<path id="font_5_2" d="M.33499146 .63612368C.33499146 .6630554 .33299256 .6640625 .30499269 .6640625 .24099732 .6014404 .1499939 .6004486 .10899353 .6004486V.5644531C.1329956 .5644531 .19898987 .5644531 .2539978 .592453V.08203125C.2539978 .04899597 .2539978 .035995485 .1539917 .035995485H.115997318V0C.13398743 .0009918213 .25698854 .0039978029 .2939911 .0039978029 .32499696 .0039978029 .45098878 .0009918213 .47299195 0V.035995485H.43499757C.33499146 .035995485 .33499146 .04899597 .33499146 .08203125V.63612368Z"/>
</defs>
<path transform="matrix(1.00005,0,0,-1.00005,114.88583,295.5431)" stroke-width="1.19553" stroke-linecap="butt" stroke-miterlimit="10" stroke-linejoin="miter" fill="none" stroke="#000000" d="M-113.38724 0H69.9106"/>
<path transform="matrix(1.00005,0,0,-1.00005,184.79993,295.5431)" stroke-width=".9564" stroke-linecap="round" stroke-linejoin="round" fill="none" stroke="#000000" d="M-1.91284 2.55046C-1.75343 1.59402 0 .15938 .4782 0 0-.15938-1.75343-1.59402-1.91284-2.55046"/>
<use data-text="x" xlink:href="#font_1_1" transform="matrix(9.963098,0,0,-9.963098,189.67458,297.6882)"/>
<path transform="matrix(1.00005,0,0,-1.00005,114.88583,295.5431)" stroke-width="1.19553" stroke-linecap="butt" stroke-miterlimit="10" stroke-linejoin="miter" fill="none" stroke="#000000" d="M0-56.69362V282.51167"/>
<path transform="matrix(0,-1.00005,-1.00005,-0,114.88583,13.017334)" stroke-width=".9564" stroke-linecap="round" stroke-linejoin="round" fill="none" stroke="#000000" d="M-1.91284 2.55046C-1.75343 1.59402 0 .15938 .4782 0 0-.15938-1.75343-1.59402-1.91284-2.55046"/>
<use data-text="y" xlink:href="#font_1_2" transform="matrix(9.963098,0,0,-9.963098,112.2647,6.2046205)"/>
<path transform="matrix(1.00005,0,0,-1.00005,114.88583,295.5431)" stroke-width="1.19553" stroke-linecap="butt" stroke-miterlimit="10" stroke-linejoin="miter" fill="none" stroke="#000000" d="M-113.38724 1.04889C-113.38724 1.04889-112.63594 1.0791-112.3474 1.09128-112.05887 1.10345-111.59612 1.12373-111.30759 1.13669-111.01906 1.14964-110.55629 1.17134-110.26776 1.18471-109.97922 1.19809-109.51648 1.21936-109.22794 1.23314-108.9394 1.24693-108.47665 1.27003-108.18813 1.2842-107.8996 1.29836-107.43683 1.3203-107.1483 1.33522-106.85976 1.35016-106.39702 1.37616-106.10847 1.39189-105.81995 1.40761-105.35718 1.43243-105.06865 1.44856-104.78012 1.46469-104.31737 1.49132-104.02884 1.50824-103.7403 1.52516-103.27756 1.55283-102.98901 1.57053-102.70049 1.58823-102.23772 1.61772-101.94919 1.63585-101.66066 1.65396-101.1979 1.68231-100.90938 1.70116-100.62083 1.71999-100.15808 1.75163-99.86954 1.77167-99.58101 1.7917-99.11826 1.82515-98.82973 1.84561-98.5412 1.86607-98.07845 1.89792-97.78992 1.91914-97.50137 1.94038-97.03862 1.9763-96.75008 1.99875-96.46155 2.02118-95.9988 2.05736-95.71027 2.08093-95.42174 2.1045-94.95897 2.14438-94.67044 2.16873-94.3819 2.19308-93.91916 2.23132-93.63062 2.25653-93.34209 2.28174-92.87933 2.32399-92.5908 2.3504-92.30228 2.3768-91.83951 2.41974-91.55098 2.44685-91.26244 2.47398-90.7997 2.51758-90.51115 2.5459-90.22263 2.57422-89.75986 2.62112-89.47133 2.651-89.1828 2.6809-88.72005 2.7303-88.43152 2.7613-88.14297 2.79233-87.68024 2.84235-87.3917 2.87462-87.10316 2.9069-86.6404 2.96053-86.35187 2.994-86.06334 3.02748-85.60059 3.08138-85.31206 3.11598-85.02351 3.1506-84.56076 3.20741-84.27222 3.24359-83.98369 3.27977-83.52094 3.33907-83.2324 3.3768-82.94388 3.41455-82.48112 3.47635-82.1926 3.51564-81.90405 3.55495-81.4413 3.61884-81.15276 3.66013-80.86423 3.70142-80.40147 3.77034-80.11295 3.81325-79.82442 3.85614-79.36165 3.92534-79.07312 3.96938-78.78458 4.01343-78.32184 4.08469-78.0333 4.13072-77.74477 4.17676-77.28201 4.25273-76.99348 4.30115-76.70496 4.34956-76.24219 4.42944-75.95366 4.47978-75.66512 4.53014-75.20238 4.61214-74.91383 4.66403-74.6253 4.71594-74.16254 4.79968-73.87401 4.85393-73.58548 4.90816-73.12273 4.99841-72.8342 5.05505-72.54565 5.11171-72.08292 5.2032-71.79437 5.26225-71.50584 5.32129-71.04308 5.41928-70.75455 5.48067-70.46602 5.54205-70.00327 5.641-69.71474 5.70473-69.4262 5.76846-68.96344 5.8736-68.6749 5.94003-68.38637 6.00645-67.92361 6.11436-67.63509 6.18355-67.34656 6.25273-66.8838 6.36673-66.59528 6.43875-66.30673 6.51076-65.84398 6.62782-65.55544 6.70259-65.2669 6.77736-64.80415 6.89944-64.51563 6.97769-64.2271 7.05592-63.76434 7.1852-63.47581 7.26663-63.18727 7.34807-62.72452 7.48004-62.43597 7.56465-62.14745 7.64926-61.6847 7.7884-61.39616 7.8765-61.10764 7.9646-60.64487 8.10797-60.35634 8.1996-60.0678 8.29124-59.60506 8.44139-59.31651 8.53699-59.02798 8.63257-58.56523 8.78908-58.2767 8.88864-57.98817 8.98819-57.5254 9.1511-57.23688 9.25456-56.94833 9.35803-56.4856 9.52655-56.19705 9.63434-55.90852 9.74213-55.44576 9.91931-55.15723 10.03142-54.8687 10.14351-54.40594 10.32549-54.11742 10.44232-53.82887 10.55916-53.36613 10.75197-53.07759 10.87355-52.78906 10.99515-52.3263 11.19237-52.03777 11.31863-51.74922 11.44492-51.28648 11.65184-50.99794 11.78363-50.70941 11.9154-50.24664 12.13118-49.95811 12.2685-49.66959 12.40579-49.20683 12.63007-48.9183 12.77325-48.62976 12.91644-48.16702 13.15146-47.87848 13.30052-47.58995 13.4496-47.12718 13.6931-46.83865 13.84769-46.55013 14.00227-46.08737 14.25345-45.79884 14.41475-45.5103 14.57607-45.04755 14.84238-44.759 15.01035-44.47047 15.17831-44.00772 15.45078-43.7192 15.62543-43.43066 15.80006-42.96791 16.08691-42.67938 16.26904-42.39084 16.45117-41.92809 16.74855-41.63954 16.93817-41.35101 17.1278-40.88826 17.43878-40.59973 17.63585-40.3112 17.83293-39.84843 18.15369-39.5599 18.35863-39.27136 18.56357-38.80862 18.89897-38.52008 19.11298-38.23155 19.32697-37.7688 19.6784-37.48027 19.90105-37.19174 20.1237-36.72897 20.48598-36.44044 20.71768-36.1519 20.9494-35.68916 21.32954-35.40062 21.57108-35.11209 21.81262-34.64932 22.20763-34.3608 22.45865-34.07227 22.70969-33.60951 23.11879-33.32098 23.38039-33.03244 23.64198-32.5697 24.07152-32.28116 24.34409-31.99263 24.61667-31.52986 25.06172-31.24133 25.34497-30.9528 25.62823-30.49005 26.09059-30.20152 26.38567-29.91298 26.68076-29.45023 27.16528-29.16168 27.47177-28.87315 27.77826-28.4104 28.27573-28.12187 28.59464-27.83334 28.91354-27.37059 29.43732-27.08206 29.77026-26.79352 30.10323-26.33076 30.64774-26.04222 30.99437-25.7537 31.341-25.29094 31.90771-25.00241 32.26863-24.71388 32.62953-24.25111 33.21986-23.96259 33.59566-23.67404 33.97144-23.2113 34.58595-22.92276 34.97717-22.63423 35.3684-22.17148 36.00806-21.88295 36.41536-21.59442 36.82266-21.13165 37.48875-20.84312 37.9128-20.55458 38.33684-20.09184 39.03023-19.8033 39.47166-19.51477 39.91312-19.05202 40.63487-18.76349 41.09456-18.47496 41.55424-18.01219 42.30637-17.72366 42.78491-17.43512 43.26346-16.97238 44.04544-16.68384 44.54361-16.39531 45.04178-15.93254 45.85672-15.64401 46.37541-15.35548 46.8941-14.89273 47.74197-14.6042 48.28204-14.31566 48.8221-13.85292 49.7055-13.56438 50.26782-13.27585 50.83015-12.81308 51.74954-12.52455 52.33492-12.23602 52.92029-11.77327 53.8773-11.48474 54.4868-11.1962 55.0963-10.73344 56.09332-10.4449 56.72777-10.15637 57.36223-9.69362 58.39902-9.40509 59.05959-9.11656 59.72015-8.65381 60.80086-8.36528 61.48872-8.07674 62.1766-7.61398 63.30113-7.32544 64.01733-7.03691 64.73352-6.57416 65.90515-6.28563 66.65063-5.9971 67.39612-5.53433 68.61423-5.2458 69.39032-4.95726 70.16641-4.49452 71.43608-4.20598 72.24422-3.91745 73.05235-3.4547 74.3735-3.16617 75.21487-2.87764 76.05626-2.41487 77.43262-2.12634 78.3084-1.8378 79.18416-1.37506 80.615-1.08652 81.52692-.79799 82.43881-.33522 83.93127-.04669 84.8808 .24182 85.83034 .70456 87.38205 .99309 88.37053 1.28163 89.359 1.74437 90.97609 2.03291 92.00514 2.32144 93.0342 2.78421 94.71576 3.07274 95.78725 3.36127 96.85873 3.82402 98.61214 4.11255 99.72768 4.4011 100.84322 4.86385 102.666 5.15239 103.82727 5.44092 104.98854 5.90367 106.88812 6.1922 108.09727 6.48073 109.30643 6.94348 111.28308 7.23201 112.54205 7.52055 113.80101 7.9833 115.86037 8.27185 117.17107 8.56038 118.48177 9.02313 120.62415 9.31166 121.98868 9.60019 123.35321 10.06296 125.58516 10.35149 127.00568 10.64003 128.4262 11.10277 130.74788 11.39131 132.22686 11.67984 133.70581 12.1426 136.12516 12.43112 137.66516 12.71965 139.20517 13.18242 141.72307 13.47095 143.3262 13.75949 144.92935 14.22223 147.55063 14.51077 149.21955 14.7993 150.88846 15.26207 153.61684 15.5506 155.35465 15.83913 157.09247 16.30188 159.93524 16.59041 161.74454 16.87895 163.55384 17.34169 166.51105 17.63023 168.39482 17.91876 170.27858 18.38153 173.36013 18.67006 175.32147 18.95859 177.28284 19.42134 180.48952 19.70987 182.531 19.99841 184.57251 20.46117 187.9095 20.74971 190.03513 21.03824 192.16074 21.50099 195.63755 21.78952 197.85108 22.07805 200.06462 22.5408 203.68476 22.82933 205.98885 23.11787 208.29296 23.58063 212.05895 23.86917 214.4575 24.1577 216.85608 24.62045 220.77887 24.90898 223.27611 25.19751 225.77333 25.66026 229.85558 25.94879 232.45584 26.23734 235.0561 26.70009 239.31008 26.98863 242.0171 27.27716 244.72414 27.73991 249.14797 28.02844 251.96634 28.31697 254.78472 28.77974 259.3953 29.06827 262.32997 29.35681 265.26463 29.81955 270.06257 30.1081 273.11747 30.39662 276.17234 31.1479 284.34745 31.1479 284.34745"/>
<path transform="matrix(1.00005,0,0,-1.00005,114.88583,295.5431)" stroke-width="1.19553" stroke-linecap="butt" stroke-dasharray="2.98883,2.98883" stroke-miterlimit="10" stroke-linejoin="miter" fill="none" stroke="#7f807f" d="M28.3468 0V255.12128"/>
<path transform="matrix(1.00005,0,0,-1.00005,114.88583,295.5431)" stroke-width="1.19553" stroke-linecap="butt" stroke-dasharray="2.98883,2.98883" stroke-miterlimit="10" stroke-linejoin="miter" fill="none" stroke="#7f807f" d="M0 255.12128H28.3468"/>
<path transform="matrix(1.00005,0,0,-1.00005,114.88583,295.5431)" stroke-width=".3985" stroke-linecap="butt" stroke-miterlimit="10" stroke-linejoin="miter" fill="none" stroke="#000000" d="M28.3468 4.25183V-4.25183"/>
<use data-text="1" xlink:href="#font_2_1" transform="matrix(9.963098,0,0,-9.963098,140.74314,309.7358)"/>
<path transform="matrix(1.00005,0,0,-1.00005,114.88583,295.5431)" stroke-width=".3985" stroke-linecap="butt" stroke-miterlimit="10" stroke-linejoin="miter" fill="none" stroke="#000000" d="M4.25183 28.3468H-4.25183"/>
<use data-text="1" xlink:href="#font_2_1" transform="matrix(9.963098,0,0,-9.963098,106.38441,270.40486)"/>
<path transform="matrix(1.00005,0,0,-1.00005,114.88583,295.5431)" stroke-width=".3985" stroke-linecap="butt" stroke-miterlimit="10" stroke-linejoin="miter" fill="none" stroke="#000000" d="M4.25183 85.04042H-4.25183"/>
<path transform="matrix(1.00005,0,0,-1.00005,114.88583,295.5431)" stroke-width=".3985" stroke-linecap="butt" stroke-miterlimit="10" stroke-linejoin="miter" fill="none" stroke="#000000" d="M4.25183 255.12128H-4.25183"/>
<use data-text="9" xlink:href="#font_2_3" transform="matrix(9.963098,0,0,-9.963098,106.38441,43.619508)"/>
<use data-text="O" xlink:href="#font_3_80" transform="matrix(9.963098,0,0,-9.963098,103.61427,306.08763)"/>
<use data-text="y" xlink:href="#font_1_2" transform="matrix(9.963098,0,0,-9.963098,166.59741,43.51851)"/>
<use data-text="=" xlink:href="#font_2_4" transform="matrix(9.963098,0,0,-9.963098,174.60683,43.51851)"/>
<use data-text="3" xlink:href="#font_2_2" transform="matrix(9.963098,0,0,-9.963098,185.10793,43.51851)"/>
<use data-text="x" xlink:href="#font_4_1" transform="matrix(6.9741489,0,0,-6.9741489,190.10559,39.903367)"/>
<use data-text="+" xlink:href="#font_5_1" transform="matrix(6.9741489,0,0,-6.9741489,194.62383,39.903367)"/>
<use data-text="1" xlink:href="#font_5_2" transform="matrix(6.9741489,0,0,-6.9741489,200.74016,39.903367)"/>
</svg>
