<svg xmlns="http://www.w3.org/2000/svg" xmlns:xlink="http://www.w3.org/1999/xlink" xmlns:inkscape="http://www.inkscape.org/namespaces/inkscape" version="1.1" width="379" height="184" viewBox="0 0 379 184">
<defs>
<path id="font_1_2" d="M.20599365 .3996582H.2999878C.31999208 .3996582 .32998658 .3996582 .32998658 .41966249 .32998658 .43066407 .31999208 .43066407 .3019867 .43066407H.21398926C.25 .5724945 .25498963 .59246829 .25498963 .59846499 .25498963 .61546328 .24299622 .62545779 .22599793 .62545779 .22299195 .62545779 .19499207 .62446597 .18598938 .58947756L.14698792 .43066407H.052993776C.032989503 .43066407 .022994996 .43066407 .022994996 .4116516 .022994996 .3996582 .0309906 .3996582 .050994874 .3996582H.13899231C.066986087 .11608887 .06298828 .099121097 .06298828 .08114624 .06298828 .02722168 .100997928-.0107421879 .15499878-.0107421879 .25698854-.0107421879 .31399537 .13505554 .31399537 .14305115 .31399537 .1530304 .30599977 .1530304 .3019867 .1530304 .29299928 .1530304 .2919922 .15003968 .2869873 .13905335 .24398804 .035217287 .19099427 .011245728 .15699768 .011245728 .13598633 .011245728 .12599182 .024230957 .12599182 .057174684 .12599182 .08114624 .12799073 .088134769 .13198853 .10510254L.20599365 .3996582Z"/>
<path id="font_1_3" d="M.48599244 .38136292C.48999024 .39537049 .48999024 .39736939 .48999024 .40437318 .48999024 .42237855 .47599793 .43138124 .46099855 .43138124 .45098878 .43138124 .43499757 .42536927 .42599488 .41036988 .42399598 .405365 .41600038 .37435914 .4119873 .35635377 .40499879 .33035279 .397995 .30334474 .3919983 .27633668L.34700013 .09628296C.34298707 .08126831 .2999878 .011245728 .23399353 .011245728 .18299866 .011245728 .17199707 .055267335 .17199707 .0922699 .17199707 .1382904 .18899536 .20030213 .22299195 .28833009 .23899842 .3293457 .24299622 .3403473 .24299622 .36035157 .24299622 .405365 .21099854 .4423828 .16099549 .4423828 .06599426 .4423828 .0289917 .29733277 .0289917 .28833009 .0289917 .27833558 .038986207 .27833558 .040985109 .27833558 .050994874 .27833558 .051986696 .28033448 .056991579 .29634095 .083999637 .3903656 .12399292 .42037965 .1579895 .42037965 .1659851 .42037965 .18299866 .42037965 .18299866 .3883667 .18299866 .36335755 .17298889 .3373413 .1659851 .31834413 .12599182 .21231079 .10798645 .1552887 .10798645 .10827637 .10798645 .019256592 .17098999-.0107421879 .22999573-.0107421879 .2689972-.0107421879 .30299378 .0062561037 .33099366 .03425598 .31799317-.017745972 .30599977-.06674194 .2659912-.11973572 .23999024-.15385437 .20199585-.18309021 .1559906-.18309021 .14199829-.18309021 .09700012-.18005371 .07998657-.14074707 .09599304-.14074707 .10899353-.14074707 .12298584-.1287384 .1329956-.11973572 .14299011-.10673523 .14299011-.08773804 .14299011-.056747438 .115997318-.052734376 .10598755-.052734376 .08299255-.052734376 .049987794-.068740848 .049987794-.11773682 .049987794-.16796875 .09399414-.20507813 .1559906-.20507813 .25898744-.20507813 .3619995-.11373901 .3899994-.00074768069L.48599244 .38136292Z"/>
<path id="font_2_1" d="M.6589966 .23046875C.6759949 .23046875 .69400027 .23046875 .69400027 .25045777 .69400027 .27046205 .6759949 .27046205 .6589966 .27046205H.117996219C.100997928 .27046205 .08299255 .27046205 .08299255 .25045777 .08299255 .23046875 .100997928 .23046875 .117996219 .23046875H.6589966Z"/>
<path id="font_3_3" d="M.2939911 .16503906V.07800293C.2939911 .041992189 .2919922 .0309906 .21798706 .0309906H.19699097V0C.23799134 .0029907227 .2899933 .0029907227 .33198548 .0029907227 .37399293 .0029907227 .4269867 .0029907227 .46798707 0V.0309906H.44699098C.37298585 .0309906 .37098695 .041992189 .37098695 .07800293V.16503906H.47099305V.19602967H.37098695V.65075686C.37098695 .67074587 .37098695 .6767578 .35499574 .6767578 .34599305 .6767578 .34298707 .6767578 .33499146 .66474917L.027999878 .19602967V.16503906H.2939911M.2999878 .19602967H.055999757L.2999878 .5688019V.19602967Z"/>
<path id="font_1_1" d="M.2649994 .37265016H.37799073C.34498597 .22489929 .33599855 .18196106 .33599855 .11508179 .33599855 .100097659 .33599855 .073150638 .34399415 .03919983 .35398866-.0047454836 .36499024-.0107421879 .37998963-.0107421879 .3999939-.0107421879 .42099 .007247925 .42099 .02722168 .42099 .033218385 .42099 .035202028 .4149933 .049179079 .38598634 .12106323 .38598634 .18595886 .38598634 .21391297 .38598634 .26683045 .3929901 .32073976 .4039917 .37265016H.5179901C.5309906 .37265016 .5669861 .37265016 .5669861 .406662 .5669861 .43066407 .54599 .43066407 .5269928 .43066407H.19198609C.16999817 .43066407 .13198853 .43066407 .08799744 .38365174 .052993776 .34469605 .026992798 .29878236 .026992798 .29379273 .026992798 .29278565 .026992798 .28379823 .038986207 .28379823 .04699707 .28379823 .04899597 .28779603 .054992677 .29577638 .10398865 .37265016 .1619873 .37265016 .18199158 .37265016H.23899842C.20698548 .25186158 .15299988 .13105774 .11099243 .04020691 .102996829 .025222779 .102996829 .023223877 .102996829 .016235352 .102996829-.002746582 .11898804-.0107421879 .13198853-.0107421879 .1619873-.0107421879 .16999817 .017242432 .18199158 .05418396 .19599915 .100097659 .19599915 .10209656 .20899964 .15202332L.2649994 .37265016Z"/>
<path id="font_3_2" d="M.1269989 .07699585 .23298645 .18003845C.3889923 .31811524 .44898988 .3721466 .44898988 .47216798 .44898988 .5860901 .35899354 .6660156 .23699951 .6660156 .12399292 .6660156 .049987794 .57411196 .049987794 .48516847 .049987794 .4291687 .099990848 .4291687 .102996829 .4291687 .11999512 .4291687 .15499878 .44117738 .15499878 .48217774 .15499878 .5081787 .13699341 .5341797 .101989749 .5341797 .09399414 .5341797 .09199524 .5341797 .08898926 .5331726 .11199951 .59806826 .1659851 .63500979 .22399903 .63500979 .31498719 .63500979 .35798646 .5541382 .35798646 .47216798 .35798646 .39215089 .30799867 .31311036 .25299073 .25108338L.06098938 .036987306C.049987794 .025985718 .049987794 .023986817 .049987794 0H.42099L.44898988 .17404175H.42399598C.4189911 .14402771 .4119873 .1000061 .4019928 .084991458 .394989 .07699585 .32899476 .07699585 .30699159 .07699585H.1269989Z"/>
<path id="font_3_1" d="M.2939911 .64004519C.2939911 .66400149 .2939911 .6660156 .2709961 .6660156 .20899964 .60227969 .12098694 .60227969 .08898926 .60227969V.57128909C.10899353 .57128909 .16799927 .57128909 .21998596 .5972748V.07902527C.21998596 .042999269 .21699524 .0309906 .1269989 .0309906H.09498596V0C.12998963 .0029907227 .21699524 .0029907227 .25698854 .0029907227 .29699708 .0029907227 .38398744 .0029907227 .4189911 0V.0309906H.3869934C.29699708 .0309906 .2939911 .041992189 .2939911 .07902527V.64004519Z"/>
</defs>
<path transform="matrix(1,0,0,-1.00002,185.746,97.10669)" stroke-width="1.19553" stroke-linecap="butt" stroke-miterlimit="10" stroke-linejoin="miter" fill="none" stroke="#000000" d="M-184.25424 0H183.29784"/>
<path transform="matrix(1,0,0,-1.00002,369.04383,97.10669)" stroke-width=".9564" stroke-linecap="round" stroke-linejoin="round" fill="none" stroke="#000000" d="M-1.91284 2.55046C-1.75343 1.59402 0 .15938 .4782 0 0-.15938-1.75343-1.59402-1.91284-2.55046"/>
<use data-text="t" xlink:href="#font_1_2" transform="matrix(9.9626,0,0,-9.962799,373.919,100.170749)"/>
<path transform="matrix(1,0,0,-1.00002,185.746,97.10669)" stroke-width="1.19553" stroke-linecap="butt" stroke-miterlimit="10" stroke-linejoin="miter" fill="none" stroke="#000000" d="M0-85.0404V84.08398"/>
<path transform="matrix(0,-1.00002,-1,-0,185.746,13.021027)" stroke-width=".9564" stroke-linecap="round" stroke-linejoin="round" fill="none" stroke="#000000" d="M-1.91284 2.55046C-1.75343 1.59402 0 .15938 .4782 0 0-.15938-1.75343-1.59402-1.91284-2.55046"/>
<use data-text="y" xlink:href="#font_1_3" transform="matrix(9.9626,0,0,-9.962799,183.125,6.2088625)"/>
<path transform="matrix(1,0,0,-1.00002,185.746,97.10669)" stroke-width=".3985" stroke-linecap="butt" stroke-miterlimit="10" stroke-linejoin="miter" fill="none" stroke="#000000" d="M-170.08086 5.6697V-5.6697"/>
<use data-text="&#x2212;" xlink:href="#font_2_1" transform="matrix(9.9626,0,0,-9.962799,6.282013,112.717)"/>
<use data-text="4" xlink:href="#font_3_3" transform="matrix(9.9626,0,0,-9.962799,14.031006,112.717)"/>
<use data-text="&#x03c0;" xlink:href="#font_1_1" transform="matrix(9.9626,0,0,-9.962799,19.011994,112.717)"/>
<path transform="matrix(1,0,0,-1.00002,185.746,97.10669)" stroke-width=".3985" stroke-linecap="butt" stroke-miterlimit="10" stroke-linejoin="miter" fill="none" stroke="#000000" d="M-85.04042 5.6697V-5.6697"/>
<use data-text="&#x2212;" xlink:href="#font_2_1" transform="matrix(9.9626,0,0,-9.962799,91.32199,112.717)"/>
<use data-text="2" xlink:href="#font_3_2" transform="matrix(9.9626,0,0,-9.962799,99.070987,112.717)"/>
<use data-text="&#x03c0;" xlink:href="#font_1_1" transform="matrix(9.9626,0,0,-9.962799,104.05197,112.717)"/>
<path transform="matrix(1,0,0,-1.00002,185.746,97.10669)" stroke-width=".3985" stroke-linecap="butt" stroke-miterlimit="10" stroke-linejoin="miter" fill="none" stroke="#000000" d="M85.04042 5.6697V-5.6697"/>
<use data-text="2" xlink:href="#font_3_2" transform="matrix(9.9626,0,0,-9.962799,265.277,112.717)"/>
<use data-text="&#x03c0;" xlink:href="#font_1_1" transform="matrix(9.9626,0,0,-9.962799,270.259,112.717)"/>
<path transform="matrix(1,0,0,-1.00002,185.746,97.10669)" stroke-width=".3985" stroke-linecap="butt" stroke-miterlimit="10" stroke-linejoin="miter" fill="none" stroke="#000000" d="M170.08086 5.6697V-5.6697"/>
<use data-text="4" xlink:href="#font_3_3" transform="matrix(9.9626,0,0,-9.962799,350.318,112.717)"/>
<use data-text="&#x03c0;" xlink:href="#font_1_1" transform="matrix(9.9626,0,0,-9.962799,355.3,112.717)"/>
<path transform="matrix(1,0,0,-1.00002,185.746,97.10669)" stroke-width=".3985" stroke-linecap="butt" stroke-miterlimit="10" stroke-linejoin="miter" fill="none" stroke="#000000" d="M2.83463-56.69362H-2.83463"/>
<use data-text="&#x2212;" xlink:href="#font_2_1" transform="matrix(9.9626,0,0,-9.962799,166.66101,156.59688)"/>
<use data-text="1" xlink:href="#font_3_1" transform="matrix(9.9626,0,0,-9.962799,174.41,156.59688)"/>
<path transform="matrix(1,0,0,-1.00002,185.746,97.10669)" stroke-width=".3985" stroke-linecap="butt" stroke-miterlimit="10" stroke-linejoin="miter" fill="none" stroke="#000000" d="M2.83463 56.69362H-2.83463"/>
<use data-text="1" xlink:href="#font_3_1" transform="matrix(9.9626,0,0,-9.962799,174.41,43.622617)"/>
<path transform="matrix(1,0,0,-1.00002,185.746,97.10669)" stroke-width="1.19553" stroke-linecap="butt" stroke-miterlimit="10" stroke-linejoin="miter" fill="none" stroke="#000000" d="M-178.1029 56.69273C-178.1029 56.69273-167.37958 40.1306-163.26102 28.32948-159.14246 16.52838-152.53769-16.56483-148.41913-28.3615-144.30057-40.15817-137.6958-56.69656-133.57724-56.69273-129.45868-56.6889-122.8539-40.13431-118.73534-28.3338-114.61676-16.5333-108.01201 16.5599-103.89345 28.35715-99.77487 40.1544-93.17012 56.69522-89.05156 56.69273-84.93298 56.69023-78.32823 40.13878-74.20967 28.339-70.0911 16.53923-63.48634-16.554-59.36778-28.35199-55.2492-40.14996-48.64444-56.69391-44.52588-56.69273-40.4073-56.69154-33.80255-40.1424-29.68399-28.34332-25.56541-16.54425-18.96066 16.5482-14.84209 28.34679-10.72353 40.14537-4.11877 56.69252-.0002 56.69273 4.11835 56.69295 10.72308 40.14687 14.84166 28.34853 18.96022 16.55017 25.56499-16.54227 29.68356-28.34158 33.80212-40.14091 40.40688-56.69118 44.52545-56.69273 48.64401-56.69427 55.24876-40.15057 59.36734-28.35284 63.4859-16.5551 70.09065 16.53737 74.20923 28.33727 78.32779 40.13716 84.93257 56.68987 89.05113 56.69273 93.1697 56.69559 99.77446 40.15517 103.89302 28.35803 108.01158 16.56091 114.61635-16.53233 118.73491-28.33295 122.85347-40.13358 129.45824-56.68866 133.5768-56.69273 137.69536-56.69681 144.30013-40.15878 148.41869-28.36235 152.53725-16.56592 159.14203 16.52652 163.26059 28.32776 167.37915 40.12898 178.10248 56.69273 178.10248 56.69273"/>
<path transform="matrix(1,0,0,-1.00002,185.746,97.10669)" d="M1.49442 56.69362C1.49442 59.99503 .82533 62.67128 0 62.67128-.82533 62.67128-1.49442 59.99503-1.49442 56.69362-1.49442 53.3922-.82533 50.71596 0 50.71596 .82533 50.71596 1.49442 53.3922 1.49442 56.69362ZM0 56.69362"/>
<path transform="matrix(1,0,0,-1.00002,185.746,97.10669)" stroke-width=".3985" stroke-linecap="butt" stroke-miterlimit="10" stroke-linejoin="miter" fill="none" stroke="#000000" d="M1.49442 56.69362C1.49442 59.99503 .82533 62.67128 0 62.67128-.82533 62.67128-1.49442 59.99503-1.49442 56.69362-1.49442 53.3922-.82533 50.71596 0 50.71596 .82533 50.71596 1.49442 53.3922 1.49442 56.69362ZM0 56.69362"/>
</svg>
