<?xml version="1.0" standalone="no"?>
<!DOCTYPE svg PUBLIC "-//W3C//DTD SVG 20001102//EN"
"http://www.w3.org/TR/2000/CR-SVG-20001102/DTD/svg-20001102.dtd">
<svg width="768" height="93"
	xmlns:sodipodi="http://sodipodi.sourceforge.net/DTD/sodipodi-0.dtd">
<desc>wmf2svg</desc>
<text x="0" y="0" style="font-family:Times; font-style:normal; font-weight:normal; font-size:74.078987; fill:black" transform="matrix(1.000000 -0.000000 0.000000 1.000000 739.423279 75.961830)"
	>0</text>
<text x="0" y="0" style="font-family:Times; font-style:normal; font-weight:normal; font-size:74.078987; fill:black" transform="matrix(1.000000 -0.000000 0.000000 1.000000 593.860474 75.961830)"
	>100</text>
<text x="0" y="0" style="font-family:Times; font-style:normal; font-weight:normal; font-size:74.078987; fill:black" transform="matrix(1.000000 -0.000000 0.000000 1.000000 455.441864 75.961830)"
	>60</text>
<text x="0" y="0" style="font-family:Times; font-style:normal; font-weight:normal; font-size:74.078987; fill:black" transform="matrix(1.000000 -0.000000 0.000000 1.000000 286.660461 75.961830)"
	>125</text>
<text x="0" y="0" style="font-family:Times; font-style:normal; font-weight:normal; font-size:74.078987; fill:black" transform="matrix(1.000000 -0.000000 0.000000 1.000000 143.776749 75.961830)"
	>5</text>
<text x="0" y="0" style="font-family:Times; font-style:normal; font-weight:normal; font-size:74.078987; fill:black" transform="matrix(1.000000 -0.000000 0.000000 1.000000 0.000000 75.961830)"
	>5</text>
<text x="0" y="0" style="font-family:Times; font-style:normal; font-weight:normal; font-size:55.559242; fill:black" transform="matrix(1.000000 -0.000000 0.000000 1.000000 209.265121 42.780617)"
	>2</text>
<text x="0" y="0" style="font-family:Times; font-style:normal; font-weight:normal; font-size:55.559242; fill:black" transform="matrix(1.000000 -0.000000 0.000000 1.000000 61.916279 42.780617)"
	>2</text>
<text x="0" y="0" style="font-family:Symbol; font-style:normal; font-weight:normal; font-size:74.078987; fill:black" transform="matrix(1.000000 -0.000000 0.000000 1.000000 693.879089 75.961830)"
	>=</text>
<text x="0" y="0" style="font-family:Symbol; font-style:normal; font-weight:normal; font-size:74.078987; fill:black" transform="matrix(1.000000 -0.000000 0.000000 1.000000 557.246521 75.961830)"
	>-</text>
<text x="0" y="0" style="font-family:Symbol; font-style:normal; font-weight:normal; font-size:74.078987; fill:black" transform="matrix(1.000000 -0.000000 0.000000 1.000000 412.576752 75.961830)"
	>+</text>
<text x="0" y="0" style="font-family:Symbol; font-style:normal; font-weight:normal; font-size:74.078987; fill:black" transform="matrix(1.000000 -0.000000 0.000000 1.000000 249.153488 75.961830)"
	>+</text>
<text x="0" y="0" style="font-family:Symbol; font-style:normal; font-weight:normal; font-size:74.078987; fill:black" transform="matrix(1.000000 -0.000000 0.000000 1.000000 101.804649 75.961830)"
	>+</text>
<text x="0" y="0" style="font-family:Times; font-style:italic; font-weight:normal; font-size:74.078987; fill:black" transform="matrix(1.000000 -0.000000 0.000000 1.000000 518.846497 75.961830)"
	>y</text>
<text x="0" y="0" style="font-family:Times; font-style:italic; font-weight:normal; font-size:74.078987; fill:black" transform="matrix(1.000000 -0.000000 0.000000 1.000000 375.069763 75.961830)"
	>x</text>
<text x="0" y="0" style="font-family:Times; font-style:italic; font-weight:normal; font-size:74.078987; fill:black" transform="matrix(1.000000 -0.000000 0.000000 1.000000 177.711624 75.961830)"
	>y</text>
<text x="0" y="0" style="font-family:Times; font-style:italic; font-weight:normal; font-size:74.078987; fill:black" transform="matrix(1.000000 -0.000000 0.000000 1.000000 31.255814 75.961830)"
	>x</text>
</svg>
