<?xml version="1.0" standalone="no"?>
<!DOCTYPE svg PUBLIC "-//W3C//DTD SVG 20001102//EN"
"http://www.w3.org/TR/2000/CR-SVG-20001102/DTD/svg-20001102.dtd">
<svg width="768" height="185"
	xmlns:sodipodi="http://sodipodi.sourceforge.net/DTD/sodipodi-0.dtd">
<desc>wmf2svg</desc>
<line x1="395.088348" y1="82.920547" x2="450.941620" y2="82.920547" 
	style="stroke-width:4.885963; stroke-linecap:round; stroke-linejoin:round; stroke-dasharray:none; stroke:black" />
<text x="0" y="0" style="font-family:Times; font-style:normal; font-weight:normal; font-size:121.643845; fill:black" transform="matrix(1.000000 -0.000000 0.000000 1.000000 729.619995 113.331512)"
	>)</text>
<text x="0" y="0" style="font-family:Times; font-style:normal; font-weight:normal; font-size:121.643845; fill:black" transform="matrix(1.000000 -0.000000 0.000000 1.000000 673.178833 113.331512)"
	>4</text>
<text x="0" y="0" style="font-family:Times; font-style:normal; font-weight:normal; font-size:121.643845; fill:black" transform="matrix(1.000000 -0.000000 0.000000 1.000000 468.579498 113.331512)"
	>(</text>
<text x="0" y="0" style="font-family:Times; font-style:normal; font-weight:normal; font-size:121.643845; fill:black" transform="matrix(1.000000 -0.000000 0.000000 1.000000 148.158127 113.331512)"
	>1</text>
<text x="0" y="0" style="font-family:Times; font-style:normal; font-weight:normal; font-size:91.232887; fill:black" transform="matrix(1.000000 -0.000000 0.000000 1.000000 403.319366 164.016449)"
	>2</text>
<text x="0" y="0" style="font-family:Times; font-style:normal; font-weight:normal; font-size:91.232887; fill:black" transform="matrix(1.000000 -0.000000 0.000000 1.000000 403.319366 70.249321)"
	>3</text>
<text x="0" y="0" style="font-family:Symbol; font-style:normal; font-weight:normal; font-size:121.643845; fill:black" transform="matrix(1.000000 -0.000000 0.000000 1.000000 588.516968 113.331512)"
	>-</text>
<text x="0" y="0" style="font-family:Symbol; font-style:normal; font-weight:normal; font-size:121.643845; fill:black" transform="matrix(1.000000 -0.000000 0.000000 1.000000 315.717926 113.331512)"
	>-</text>
<text x="0" y="0" style="font-family:Symbol; font-style:normal; font-weight:normal; font-size:121.643845; fill:black" transform="matrix(1.000000 -0.000000 0.000000 1.000000 224.000992 113.331512)"
	>=</text>
<text x="0" y="0" style="font-family:Symbol; font-style:normal; font-weight:normal; font-size:121.643845; fill:black" transform="matrix(1.000000 -0.000000 0.000000 1.000000 75.842850 113.331512)"
	>-</text>
<text x="0" y="0" style="font-family:Times; font-style:italic; font-weight:normal; font-size:121.643845; fill:black" transform="matrix(1.000000 -0.000000 0.000000 1.000000 514.437927 113.331512)"
	>x</text>
<text x="0" y="0" style="font-family:Times; font-style:italic; font-weight:normal; font-size:121.643845; fill:black" transform="matrix(1.000000 -0.000000 0.000000 1.000000 0.000000 113.331512)"
	>y</text>
</svg>
