<?xml version="1.0" standalone="no"?>
<!DOCTYPE svg PUBLIC "-//W3C//DTD SVG 20001102//EN"
"http://www.w3.org/TR/2000/CR-SVG-20001102/DTD/svg-20001102.dtd">
<svg width="768" height="177"
	xmlns:sodipodi="http://sodipodi.sourceforge.net/DTD/sodipodi-0.dtd">
<desc>wmf2svg</desc>
<line x1="211.462799" y1="80.595222" x2="359.547699" y2="80.595222" 
	style="stroke-width:3.180837; stroke-linecap:round; stroke-linejoin:round; stroke-dasharray:none; stroke:black" />
<line x1="390.627258" y1="80.595222" x2="505.804413" y2="80.595222" 
	style="stroke-width:3.180837; stroke-linecap:round; stroke-linejoin:round; stroke-dasharray:none; stroke:black" />
<text x="0" y="0" style="font-family:Symbol; font-style:normal; font-weight:normal; font-size:91.784538; fill:black" transform="matrix(1.000000 -0.000000 0.000000 1.000000 593.863098 103.222023)"
	>(</text>
<text x="0" y="0" style="font-family:Symbol; font-style:normal; font-weight:normal; font-size:91.784538; fill:black" transform="matrix(1.000000 -0.000000 0.000000 1.000000 678.722473 103.222023)"
	>)</text>
<text x="0" y="0" style="font-family:Times; font-style:normal; font-weight:normal; font-size:70.070107; fill:black" transform="matrix(1.000000 -0.000000 0.000000 1.000000 247.112869 53.953983)"
	>2</text>
<text x="0" y="0" style="font-family:Times; font-style:normal; font-weight:normal; font-size:70.070107; fill:black" transform="matrix(1.000000 -0.000000 0.000000 1.000000 328.468170 53.953983)"
	>4</text>
<text x="0" y="0" style="font-family:Times; font-style:normal; font-weight:normal; font-size:70.070107; fill:black" transform="matrix(1.000000 -0.000000 0.000000 1.000000 393.369568 53.953983)"
	>0</text>
<text x="0" y="0" style="font-family:Times; font-style:normal; font-weight:normal; font-size:70.070107; fill:black" transform="matrix(1.000000 -0.000000 0.000000 1.000000 474.724854 53.953983)"
	>2</text>
<text x="0" y="0" style="font-family:Times; font-style:normal; font-weight:normal; font-size:70.070107; fill:black" transform="matrix(1.000000 -0.000000 0.000000 1.000000 0.000000 98.112747)"
	>(</text>
<text x="0" y="0" style="font-family:Times; font-style:normal; font-weight:normal; font-size:70.070107; fill:black" transform="matrix(1.000000 -0.000000 0.000000 1.000000 50.275738 98.112747)"
	>,</text>
<text x="0" y="0" style="font-family:Times; font-style:normal; font-weight:normal; font-size:70.070107; fill:black" transform="matrix(1.000000 -0.000000 0.000000 1.000000 103.293793 98.112747)"
	>)</text>
<text x="0" y="0" style="font-family:Times; font-style:normal; font-weight:normal; font-size:70.070107; fill:black" transform="matrix(1.000000 -0.000000 0.000000 1.000000 367.774658 98.112747)"
	>,</text>
<text x="0" y="0" style="font-family:Times; font-style:normal; font-weight:normal; font-size:70.070107; fill:black" transform="matrix(1.000000 -0.000000 0.000000 1.000000 611.688171 98.112747)"
	>1</text>
<text x="0" y="0" style="font-family:Times; font-style:normal; font-weight:normal; font-size:70.070107; fill:black" transform="matrix(1.000000 -0.000000 0.000000 1.000000 635.454895 98.112747)"
	>,</text>
<text x="0" y="0" style="font-family:Times; font-style:normal; font-weight:normal; font-size:70.070107; fill:black" transform="matrix(1.000000 -0.000000 0.000000 1.000000 650.994629 98.112747)"
	>1</text>
<text x="0" y="0" style="font-family:Times; font-style:normal; font-weight:normal; font-size:70.070107; fill:black" transform="matrix(1.000000 -0.000000 0.000000 1.000000 271.793701 152.855011)"
	>2</text>
<text x="0" y="0" style="font-family:Times; font-style:normal; font-weight:normal; font-size:70.070107; fill:black" transform="matrix(1.000000 -0.000000 0.000000 1.000000 434.504272 152.855011)"
	>2</text>
<text x="0" y="0" style="font-family:Times; font-style:italic; font-weight:normal; font-size:70.070107; fill:black" transform="matrix(1.000000 -0.000000 0.000000 1.000000 21.024401 98.112747)"
	>h</text>
<text x="0" y="0" style="font-family:Times; font-style:italic; font-weight:normal; font-size:70.070107; fill:black" transform="matrix(1.000000 -0.000000 0.000000 1.000000 72.214241 98.112747)"
	>k</text>
<text x="0" y="0" style="font-family:Symbol; font-style:normal; font-weight:normal; font-size:70.070107; fill:black" transform="matrix(1.000000 -0.000000 0.000000 1.000000 215.119217 53.953983)"
	>-</text>
<text x="0" y="0" style="font-family:Symbol; font-style:normal; font-weight:normal; font-size:70.070107; fill:black" transform="matrix(1.000000 -0.000000 0.000000 1.000000 285.505249 53.953983)"
	>+</text>
<text x="0" y="0" style="font-family:Symbol; font-style:normal; font-weight:normal; font-size:70.070107; fill:black" transform="matrix(1.000000 -0.000000 0.000000 1.000000 431.761963 53.953983)"
	>+</text>
<text x="0" y="0" style="font-family:Symbol; font-style:normal; font-weight:normal; font-size:70.070107; fill:black" transform="matrix(1.000000 -0.000000 0.000000 1.000000 180.078552 59.428207)"
	>æ</text>
<text x="0" y="0" style="font-family:Symbol; font-style:normal; font-weight:normal; font-size:70.070107; fill:black" transform="matrix(1.000000 -0.000000 0.000000 1.000000 514.336060 59.428207)"
	>ö</text>
<text x="0" y="0" style="font-family:Symbol; font-style:normal; font-weight:normal; font-size:70.070107; fill:black" transform="matrix(1.000000 -0.000000 0.000000 1.000000 136.201553 98.112747)"
	>=</text>
<text x="0" y="0" style="font-family:Symbol; font-style:normal; font-weight:normal; font-size:70.070107; fill:black" transform="matrix(1.000000 -0.000000 0.000000 1.000000 549.986084 98.112747)"
	>=</text>
<text x="0" y="0" style="font-family:Symbol; font-style:normal; font-weight:normal; font-size:70.070107; fill:black" transform="matrix(1.000000 -0.000000 0.000000 1.000000 180.078552 116.907593)"
	>ç</text>
<text x="0" y="0" style="font-family:Symbol; font-style:normal; font-weight:normal; font-size:70.070107; fill:black" transform="matrix(1.000000 -0.000000 0.000000 1.000000 514.336060 116.907593)"
	>÷</text>
<text x="0" y="0" style="font-family:Symbol; font-style:normal; font-weight:normal; font-size:70.070107; fill:black" transform="matrix(1.000000 -0.000000 0.000000 1.000000 180.078552 160.883881)"
	>è</text>
<text x="0" y="0" style="font-family:Symbol; font-style:normal; font-weight:normal; font-size:70.070107; fill:black" transform="matrix(1.000000 -0.000000 0.000000 1.000000 514.336060 160.883881)"
	>ø</text>
</svg>
