<?xml version="1.0" standalone="no"?>
<!DOCTYPE svg PUBLIC "-//W3C//DTD SVG 20001102//EN"
"http://www.w3.org/TR/2000/CR-SVG-20001102/DTD/svg-20001102.dtd">
<svg width="768" height="194"
	xmlns:sodipodi="http://sodipodi.sourceforge.net/DTD/sodipodi-0.dtd">
<desc>wmf2svg</desc>
<line x1="686.434753" y1="107.113411" x2="738.582947" y2="107.113411" 
	style="stroke-width:4.319820; stroke-linecap:round; stroke-linejoin:round; stroke-dasharray:none; stroke:black" />
<text x="0" y="0" style="font-family:Symbol; font-style:normal; font-weight:normal; font-size:171.521637; fill:black" transform="matrix(1.000000 -0.000000 0.000000 1.000000 489.643982 132.071671)"
	>(</text>
<text x="0" y="0" style="font-family:Symbol; font-style:normal; font-weight:normal; font-size:171.521637; fill:black" transform="matrix(1.000000 -0.000000 0.000000 1.000000 746.816895 132.071671)"
	>)</text>
<text x="0" y="0" style="font-family:Times; font-style:normal; font-weight:normal; font-size:76.467850; fill:black" transform="matrix(1.000000 -0.000000 0.000000 1.000000 694.119751 176.412399)"
	>2</text>
<text x="0" y="0" style="font-family:Times; font-style:normal; font-weight:normal; font-size:76.467850; fill:black" transform="matrix(1.000000 -0.000000 0.000000 1.000000 692.747437 96.492874)"
	>1</text>
<text x="0" y="0" style="font-family:Times; font-style:normal; font-weight:normal; font-size:76.467850; fill:black" transform="matrix(1.000000 -0.000000 0.000000 1.000000 277.208771 86.934395)"
	>2</text>
<text x="0" y="0" style="font-family:Times; font-style:normal; font-weight:normal; font-size:101.957130; fill:black" transform="matrix(1.000000 -0.000000 0.000000 1.000000 436.397949 132.602692)"
	>6</text>
<text x="0" y="0" style="font-family:Times; font-style:normal; font-weight:normal; font-size:101.957130; fill:black" transform="matrix(1.000000 -0.000000 0.000000 1.000000 232.196655 132.602692)"
	>)</text>
<text x="0" y="0" style="font-family:Times; font-style:normal; font-weight:normal; font-size:101.957130; fill:black" transform="matrix(1.000000 -0.000000 0.000000 1.000000 187.733459 132.602692)"
	>1</text>
<text x="0" y="0" style="font-family:Times; font-style:normal; font-weight:normal; font-size:101.957130; fill:black" transform="matrix(1.000000 -0.000000 0.000000 1.000000 0.000000 132.602692)"
	>(</text>
<text x="0" y="0" style="font-family:Symbol; font-style:normal; font-weight:normal; font-size:101.957130; fill:black" transform="matrix(1.000000 -0.000000 0.000000 1.000000 600.801941 132.602692)"
	>+</text>
<text x="0" y="0" style="font-family:Symbol; font-style:normal; font-weight:normal; font-size:101.957130; fill:black" transform="matrix(1.000000 -0.000000 0.000000 1.000000 355.705505 132.602692)"
	>=</text>
<text x="0" y="0" style="font-family:Symbol; font-style:normal; font-weight:normal; font-size:101.957130; fill:black" transform="matrix(1.000000 -0.000000 0.000000 1.000000 115.274933 132.602692)"
	>+</text>
<text x="0" y="0" style="font-family:Times; font-style:italic; font-weight:normal; font-size:101.957130; fill:black" transform="matrix(1.000000 -0.000000 0.000000 1.000000 526.696655 132.602692)"
	>y</text>
<text x="0" y="0" style="font-family:Times; font-style:italic; font-weight:normal; font-size:101.957130; fill:black" transform="matrix(1.000000 -0.000000 0.000000 1.000000 42.816402 132.602692)"
	>x</text>
</svg>
