<?xml version="1.0" standalone="no"?>
<!DOCTYPE svg PUBLIC "-//W3C//DTD SVG 20001102//EN"
"http://www.w3.org/TR/2000/CR-SVG-20001102/DTD/svg-20001102.dtd">
<svg width="768" height="224"
	xmlns:sodipodi="http://sodipodi.sourceforge.net/DTD/sodipodi-0.dtd">
<desc>wmf2svg</desc>
<text x="0" y="0" style="font-family:Times; font-style:normal; font-weight:normal; font-size:154.603928; fill:black" transform="matrix(1.000000 -0.000000 0.000000 1.000000 705.681885 188.441086)"
	>0</text>
<text x="0" y="0" style="font-family:Times; font-style:normal; font-weight:normal; font-size:154.603928; fill:black" transform="matrix(1.000000 -0.000000 0.000000 1.000000 460.658417 188.441086)"
	>16</text>
<text x="0" y="0" style="font-family:Times; font-style:normal; font-weight:normal; font-size:154.603928; fill:black" transform="matrix(1.000000 -0.000000 0.000000 1.000000 371.076080 188.441086)"
	>'</text>
<text x="0" y="0" style="font-family:Times; font-style:normal; font-weight:normal; font-size:154.603928; fill:black" transform="matrix(1.000000 -0.000000 0.000000 1.000000 236.525604 188.441086)"
	>8</text>
<text x="0" y="0" style="font-family:Times; font-style:normal; font-weight:normal; font-size:154.603928; fill:black" transform="matrix(1.000000 -0.000000 0.000000 1.000000 87.103745 119.045021)"
	>2</text>
<text x="0" y="0" style="font-family:Times; font-style:normal; font-weight:normal; font-size:154.603928; fill:black" transform="matrix(1.000000 -0.000000 0.000000 1.000000 58.423237 188.441086)"
	>'</text>
<text x="0" y="0" style="font-family:Symbol; font-style:normal; font-weight:normal; font-size:154.603928; fill:black" transform="matrix(1.000000 -0.000000 0.000000 1.000000 611.496582 188.441086)"
	>=</text>
<text x="0" y="0" style="font-family:Symbol; font-style:normal; font-weight:normal; font-size:154.603928; fill:black" transform="matrix(1.000000 -0.000000 0.000000 1.000000 392.674988 188.441086)"
	>-</text>
<text x="0" y="0" style="font-family:Symbol; font-style:normal; font-weight:normal; font-size:154.603928; fill:black" transform="matrix(1.000000 -0.000000 0.000000 1.000000 168.542191 188.441086)"
	>+</text>
<text x="0" y="0" style="font-family:Times; font-style:italic; font-weight:normal; font-size:154.603928; fill:black" transform="matrix(1.000000 -0.000000 0.000000 1.000000 310.528351 188.441086)"
	>y</text>
<text x="0" y="0" style="font-family:Times; font-style:italic; font-weight:normal; font-size:154.603928; fill:black" transform="matrix(1.000000 -0.000000 0.000000 1.000000 0.000000 188.441086)"
	>x</text>
</svg>
