<?xml version="1.0" standalone="no"?>
<!DOCTYPE svg PUBLIC "-//W3C//DTD SVG 20001102//EN"
"http://www.w3.org/TR/2000/CR-SVG-20001102/DTD/svg-20001102.dtd">
<svg width="768" height="203"
	xmlns:sodipodi="http://sodipodi.sourceforge.net/DTD/sodipodi-0.dtd">
<desc>wmf2svg</desc>
<text x="0" y="0" style="font-family:Times; font-style:italic; font-weight:normal; font-size:175.884460; fill:black" transform="matrix(1.000000 -0.000000 0.000000 1.000000 701.928772 135.431046)"
	>x</text>
<text x="0" y="0" style="font-family:Times; font-style:italic; font-weight:normal; font-size:175.884460; fill:black" transform="matrix(1.000000 -0.000000 0.000000 1.000000 141.558899 135.431046)"
	>x</text>
<text x="0" y="0" style="font-family:Times; font-style:italic; font-weight:normal; font-size:175.884460; fill:black" transform="matrix(1.000000 -0.000000 0.000000 1.000000 0.000000 135.431046)"
	>f</text>
<text x="0" y="0" style="font-family:Times; font-style:normal; font-weight:normal; font-size:102.599266; fill:black" transform="matrix(1.000000 -0.000000 0.000000 1.000000 616.289551 179.402145)"
	>5</text>
<text x="0" y="0" style="font-family:Times; font-style:normal; font-weight:normal; font-size:175.884460; fill:black" transform="matrix(1.000000 -0.000000 0.000000 1.000000 418.028900 135.431046)"
	>log</text>
<text x="0" y="0" style="font-family:Times; font-style:normal; font-weight:normal; font-size:175.884460; fill:black" transform="matrix(1.000000 -0.000000 0.000000 1.000000 215.466721 135.431046)"
	>)</text>
<text x="0" y="0" style="font-family:Times; font-style:normal; font-weight:normal; font-size:175.884460; fill:black" transform="matrix(1.000000 -0.000000 0.000000 1.000000 77.427246 135.431046)"
	>(</text>
<text x="0" y="0" style="font-family:Symbol; font-style:normal; font-weight:normal; font-size:175.884460; fill:black" transform="matrix(1.000000 -0.000000 0.000000 1.000000 301.888031 135.431046)"
	>=</text>
</svg>
