<?xml version="1.0" standalone="no"?>
<!DOCTYPE svg PUBLIC "-//W3C//DTD SVG 20001102//EN"
"http://www.w3.org/TR/2000/CR-SVG-20001102/DTD/svg-20001102.dtd">
<svg width="768" height="260"
	xmlns:sodipodi="http://sodipodi.sourceforge.net/DTD/sodipodi-0.dtd">
<desc>wmf2svg</desc>
<line x1="318.215149" y1="138.922333" x2="339.633484" y2="125.225769" 
	style="stroke-width:7.410175; stroke-linecap:round; stroke-linejoin:round; stroke-dasharray:none; stroke:black" />
<line x1="339.633484" y1="129.139084" x2="370.668182" y2="192.241135" 
	style="stroke-width:14.820350; stroke-linecap:round; stroke-linejoin:round; stroke-dasharray:none; stroke:black" />
<line x1="374.165039" y1="192.241135" x2="415.253265" y2="3.913305" 
	style="stroke-width:7.410175; stroke-linecap:round; stroke-linejoin:round; stroke-dasharray:none; stroke:black" />
<line x1="415.253265" y1="3.913305" x2="511.417175" y2="3.913305" 
	style="stroke-width:7.410175; stroke-linecap:round; stroke-linejoin:round; stroke-dasharray:none; stroke:black" />
<line x1="693.691528" y1="135.498199" x2="764.503113" y2="135.498199" 
	style="stroke-width:7.410175; stroke-linecap:round; stroke-linejoin:round; stroke-dasharray:none; stroke:black" />
<text x="0" y="0" style="font-family:Times; font-style:normal; font-weight:normal; font-size:109.572548; fill:black" transform="matrix(1.000000 -0.000000 0.000000 1.000000 705.493469 234.798325)"
	>2</text>
<text x="0" y="0" style="font-family:Times; font-style:normal; font-weight:normal; font-size:109.572548; fill:black" transform="matrix(1.000000 -0.000000 0.000000 1.000000 705.056335 119.355820)"
	>1</text>
<text x="0" y="0" style="font-family:Times; font-style:normal; font-weight:normal; font-size:109.572548; fill:black" transform="matrix(1.000000 -0.000000 0.000000 1.000000 222.925446 229.417526)"
	>6</text>
<text x="0" y="0" style="font-family:Times; font-style:normal; font-weight:normal; font-size:187.838669; fill:black" transform="matrix(1.000000 -0.000000 0.000000 1.000000 422.247009 182.457870)"
	>6</text>
<text x="0" y="0" style="font-family:Times; font-style:normal; font-weight:normal; font-size:187.838669; fill:black" transform="matrix(1.000000 -0.000000 0.000000 1.000000 0.000000 182.457870)"
	>log</text>
<text x="0" y="0" style="font-family:Symbol; font-style:normal; font-weight:normal; font-size:187.838669; fill:black" transform="matrix(1.000000 -0.000000 0.000000 1.000000 557.750671 182.457870)"
	>=</text>
</svg>
