<?xml version="1.0" standalone="no"?>
<!DOCTYPE svg PUBLIC "-//W3C//DTD SVG 20001102//EN"
"http://www.w3.org/TR/2000/CR-SVG-20001102/DTD/svg-20001102.dtd">
<svg width="768" height="168"
	xmlns:sodipodi="http://sodipodi.sourceforge.net/DTD/sodipodi-0.dtd">
<desc>wmf2svg</desc>
<text x="0" y="0" style="font-family:Times; font-style:normal; font-weight:normal; font-size:133.820114; fill:black" transform="matrix(1.000000 -0.000000 0.000000 1.000000 662.523621 137.221375)"
	>24</text>
<text x="0" y="0" style="font-family:Times; font-style:normal; font-weight:normal; font-size:133.820114; fill:black" transform="matrix(1.000000 -0.000000 0.000000 1.000000 449.922760 137.221375)"
	>8</text>
<text x="0" y="0" style="font-family:Times; font-style:normal; font-weight:normal; font-size:133.820114; fill:black" transform="matrix(1.000000 -0.000000 0.000000 1.000000 245.562225 137.221375)"
	>)</text>
<text x="0" y="0" style="font-family:Times; font-style:normal; font-weight:normal; font-size:133.820114; fill:black" transform="matrix(1.000000 -0.000000 0.000000 1.000000 192.824036 137.221375)"
	>2</text>
<text x="0" y="0" style="font-family:Times; font-style:normal; font-weight:normal; font-size:133.820114; fill:black" transform="matrix(1.000000 -0.000000 0.000000 1.000000 0.000000 137.221375)"
	>(</text>
<text x="0" y="0" style="font-family:Times; font-style:normal; font-weight:normal; font-size:100.365082; fill:black" transform="matrix(1.000000 -0.000000 0.000000 1.000000 288.961365 77.281113)"
	>2</text>
<text x="0" y="0" style="font-family:Symbol; font-style:normal; font-weight:normal; font-size:133.820114; fill:black" transform="matrix(1.000000 -0.000000 0.000000 1.000000 583.416321 137.221375)"
	>-</text>
<text x="0" y="0" style="font-family:Symbol; font-style:normal; font-weight:normal; font-size:133.820114; fill:black" transform="matrix(1.000000 -0.000000 0.000000 1.000000 369.167389 137.221375)"
	>=</text>
<text x="0" y="0" style="font-family:Symbol; font-style:normal; font-weight:normal; font-size:133.820114; fill:black" transform="matrix(1.000000 -0.000000 0.000000 1.000000 112.068672 137.221375)"
	>+</text>
<text x="0" y="0" style="font-family:Times; font-style:italic; font-weight:normal; font-size:133.820114; fill:black" transform="matrix(1.000000 -0.000000 0.000000 1.000000 512.549377 137.221375)"
	>y</text>
<text x="0" y="0" style="font-family:Times; font-style:italic; font-weight:normal; font-size:133.820114; fill:black" transform="matrix(1.000000 -0.000000 0.000000 1.000000 42.849785 137.221375)"
	>x</text>
</svg>
