<?xml version="1.0" standalone="no"?>
<!DOCTYPE svg PUBLIC "-//W3C//DTD SVG 20001102//EN"
"http://www.w3.org/TR/2000/CR-SVG-20001102/DTD/svg-20001102.dtd">
<svg width="768" height="266"
	xmlns:sodipodi="http://sodipodi.sourceforge.net/DTD/sodipodi-0.dtd">
<desc>wmf2svg</desc>
<line x1="130.474060" y1="42.065895" x2="137.700912" y2="37.879242" 
	style="stroke-width:2.368109; stroke-linecap:round; stroke-linejoin:round; stroke-dasharray:none; stroke:black" />
<line x1="137.700912" y1="39.075428" x2="148.052902" y2="58.214417" 
	style="stroke-width:4.736218; stroke-linecap:round; stroke-linejoin:round; stroke-dasharray:none; stroke:black" />
<line x1="149.224823" y1="58.214417" x2="162.897247" y2="1.196187" 
	style="stroke-width:2.368109; stroke-linecap:round; stroke-linejoin:round; stroke-dasharray:none; stroke:black" />
<line x1="162.897247" y1="1.196187" x2="198.054932" y2="1.196187" 
	style="stroke-width:2.368109; stroke-linecap:round; stroke-linejoin:round; stroke-dasharray:none; stroke:black" />
<line x1="123.051880" y1="67.783905" x2="204.305191" y2="67.783905" 
	style="stroke-width:3.157479; stroke-linecap:round; stroke-linejoin:round; stroke-dasharray:none; stroke:black" />
<line x1="372.280762" y1="42.065895" x2="379.507629" y2="37.879242" 
	style="stroke-width:2.368109; stroke-linecap:round; stroke-linejoin:round; stroke-dasharray:none; stroke:black" />
<line x1="379.507629" y1="39.075428" x2="389.859619" y2="58.214417" 
	style="stroke-width:4.736218; stroke-linecap:round; stroke-linejoin:round; stroke-dasharray:none; stroke:black" />
<line x1="391.031525" y1="58.214417" x2="404.703979" y2="1.196187" 
	style="stroke-width:2.368109; stroke-linecap:round; stroke-linejoin:round; stroke-dasharray:none; stroke:black" />
<line x1="404.703979" y1="1.196187" x2="439.861633" y2="1.196187" 
	style="stroke-width:2.368109; stroke-linecap:round; stroke-linejoin:round; stroke-dasharray:none; stroke:black" />
<line x1="364.858582" y1="67.783905" x2="446.111908" y2="67.783905" 
	style="stroke-width:3.157479; stroke-linecap:round; stroke-linejoin:round; stroke-dasharray:none; stroke:black" />
<line x1="663.308228" y1="42.065895" x2="670.535095" y2="37.879242" 
	style="stroke-width:2.368109; stroke-linecap:round; stroke-linejoin:round; stroke-dasharray:none; stroke:black" />
<line x1="670.535095" y1="39.075428" x2="680.887085" y2="58.214417" 
	style="stroke-width:4.736218; stroke-linecap:round; stroke-linejoin:round; stroke-dasharray:none; stroke:black" />
<line x1="682.059021" y1="58.214417" x2="695.731445" y2="1.196187" 
	style="stroke-width:2.368109; stroke-linecap:round; stroke-linejoin:round; stroke-dasharray:none; stroke:black" />
<line x1="695.731445" y1="1.196187" x2="730.889099" y2="1.196187" 
	style="stroke-width:2.368109; stroke-linecap:round; stroke-linejoin:round; stroke-dasharray:none; stroke:black" />
<line x1="628.931824" y1="67.783905" x2="737.139343" y2="67.783905" 
	style="stroke-width:3.157479; stroke-linecap:round; stroke-linejoin:round; stroke-dasharray:none; stroke:black" />
<line x1="186.726349" y1="176.038788" x2="193.953201" y2="171.852142" 
	style="stroke-width:2.368109; stroke-linecap:round; stroke-linejoin:round; stroke-dasharray:none; stroke:black" />
<line x1="193.953201" y1="173.048325" x2="204.305191" y2="192.187317" 
	style="stroke-width:4.736218; stroke-linecap:round; stroke-linejoin:round; stroke-dasharray:none; stroke:black" />
<line x1="205.477112" y1="192.187317" x2="219.149536" y2="135.169083" 
	style="stroke-width:2.368109; stroke-linecap:round; stroke-linejoin:round; stroke-dasharray:none; stroke:black" />
<line x1="219.149536" y1="135.169083" x2="254.307220" y2="135.169083" 
	style="stroke-width:2.368109; stroke-linecap:round; stroke-linejoin:round; stroke-dasharray:none; stroke:black" />
<line x1="179.304169" y1="201.756805" x2="260.557465" y2="201.756805" 
	style="stroke-width:3.157479; stroke-linecap:round; stroke-linejoin:round; stroke-dasharray:none; stroke:black" />
<line x1="428.533051" y1="176.038788" x2="435.759918" y2="171.852142" 
	style="stroke-width:2.368109; stroke-linecap:round; stroke-linejoin:round; stroke-dasharray:none; stroke:black" />
<line x1="435.759918" y1="173.048325" x2="446.111908" y2="192.187317" 
	style="stroke-width:4.736218; stroke-linecap:round; stroke-linejoin:round; stroke-dasharray:none; stroke:black" />
<line x1="447.283813" y1="192.187317" x2="460.956268" y2="135.169083" 
	style="stroke-width:2.368109; stroke-linecap:round; stroke-linejoin:round; stroke-dasharray:none; stroke:black" />
<line x1="460.956268" y1="135.169083" x2="496.113922" y2="135.169083" 
	style="stroke-width:2.368109; stroke-linecap:round; stroke-linejoin:round; stroke-dasharray:none; stroke:black" />
<line x1="421.110870" y1="201.756805" x2="502.364197" y2="201.756805" 
	style="stroke-width:3.157479; stroke-linecap:round; stroke-linejoin:round; stroke-dasharray:none; stroke:black" />
<line x1="692.606323" y1="176.038788" x2="699.833191" y2="171.852142" 
	style="stroke-width:2.368109; stroke-linecap:round; stroke-linejoin:round; stroke-dasharray:none; stroke:black" />
<line x1="699.833191" y1="173.048325" x2="710.185120" y2="192.187317" 
	style="stroke-width:4.736218; stroke-linecap:round; stroke-linejoin:round; stroke-dasharray:none; stroke:black" />
<line x1="711.357056" y1="192.187317" x2="725.029480" y2="135.169083" 
	style="stroke-width:2.368109; stroke-linecap:round; stroke-linejoin:round; stroke-dasharray:none; stroke:black" />
<line x1="725.029480" y1="135.169083" x2="760.187195" y2="135.169083" 
	style="stroke-width:2.368109; stroke-linecap:round; stroke-linejoin:round; stroke-dasharray:none; stroke:black" />
<line x1="685.184143" y1="201.756805" x2="766.437439" y2="201.756805" 
	style="stroke-width:3.157479; stroke-linecap:round; stroke-linejoin:round; stroke-dasharray:none; stroke:black" />
<text x="0" y="0" style="font-family:Times; font-style:normal; font-weight:normal; font-size:57.416958; fill:black" transform="matrix(1.000000 -0.000000 0.000000 1.000000 712.724304 252.794098)"
	>2</text>
<text x="0" y="0" style="font-family:Times; font-style:normal; font-weight:normal; font-size:57.416958; fill:black" transform="matrix(1.000000 -0.000000 0.000000 1.000000 730.107849 189.794937)"
	>2</text>
<text x="0" y="0" style="font-family:Times; font-style:normal; font-weight:normal; font-size:57.416958; fill:black" transform="matrix(1.000000 -0.000000 0.000000 1.000000 448.651062 252.794098)"
	>2</text>
<text x="0" y="0" style="font-family:Times; font-style:normal; font-weight:normal; font-size:57.416958; fill:black" transform="matrix(1.000000 -0.000000 0.000000 1.000000 466.034576 189.794937)"
	>2</text>
<text x="0" y="0" style="font-family:Times; font-style:normal; font-weight:normal; font-size:57.416958; fill:black" transform="matrix(1.000000 -0.000000 0.000000 1.000000 206.844360 252.794098)"
	>2</text>
<text x="0" y="0" style="font-family:Times; font-style:normal; font-weight:normal; font-size:57.416958; fill:black" transform="matrix(1.000000 -0.000000 0.000000 1.000000 224.227875 189.794937)"
	>2</text>
<text x="0" y="0" style="font-family:Times; font-style:normal; font-weight:normal; font-size:57.416958; fill:black" transform="matrix(1.000000 -0.000000 0.000000 1.000000 669.949158 118.821205)"
	>2</text>
<text x="0" y="0" style="font-family:Times; font-style:normal; font-weight:normal; font-size:57.416958; fill:black" transform="matrix(1.000000 -0.000000 0.000000 1.000000 700.809753 55.822041)"
	>2</text>
<text x="0" y="0" style="font-family:Times; font-style:normal; font-weight:normal; font-size:57.416958; fill:black" transform="matrix(1.000000 -0.000000 0.000000 1.000000 632.642944 55.822041)"
	>3</text>
<text x="0" y="0" style="font-family:Times; font-style:normal; font-weight:normal; font-size:57.416958; fill:black" transform="matrix(1.000000 -0.000000 0.000000 1.000000 392.398773 118.821205)"
	>2</text>
<text x="0" y="0" style="font-family:Times; font-style:normal; font-weight:normal; font-size:57.416958; fill:black" transform="matrix(1.000000 -0.000000 0.000000 1.000000 409.782288 55.822041)"
	>2</text>
<text x="0" y="0" style="font-family:Times; font-style:normal; font-weight:normal; font-size:57.416958; fill:black" transform="matrix(1.000000 -0.000000 0.000000 1.000000 150.592072 118.821205)"
	>2</text>
<text x="0" y="0" style="font-family:Times; font-style:normal; font-weight:normal; font-size:57.416958; fill:black" transform="matrix(1.000000 -0.000000 0.000000 1.000000 167.975586 55.822041)"
	>2</text>
<text x="0" y="0" style="font-family:Times; font-style:normal; font-weight:normal; font-size:76.555939; fill:black" transform="matrix(1.000000 -0.000000 0.000000 1.000000 578.539185 220.895798)"
	>)</text>
<text x="0" y="0" style="font-family:Times; font-style:normal; font-weight:normal; font-size:76.555939; fill:black" transform="matrix(1.000000 -0.000000 0.000000 1.000000 541.037659 220.895798)"
	>2</text>
<text x="0" y="0" style="font-family:Times; font-style:normal; font-weight:normal; font-size:76.555939; fill:black" transform="matrix(1.000000 -0.000000 0.000000 1.000000 514.083435 220.895798)"
	>(</text>
<text x="0" y="0" style="font-family:Times; font-style:normal; font-weight:normal; font-size:76.555939; fill:black" transform="matrix(1.000000 -0.000000 0.000000 1.000000 322.669373 220.895798)"
	>)</text>
<text x="0" y="0" style="font-family:Times; font-style:normal; font-weight:normal; font-size:76.555939; fill:black" transform="matrix(1.000000 -0.000000 0.000000 1.000000 291.027466 220.895798)"
	>1</text>
<text x="0" y="0" style="font-family:Times; font-style:normal; font-weight:normal; font-size:76.555939; fill:black" transform="matrix(1.000000 -0.000000 0.000000 1.000000 272.276703 220.895798)"
	>(</text>
<text x="0" y="0" style="font-family:Times; font-style:normal; font-weight:normal; font-size:76.555939; fill:black" transform="matrix(1.000000 -0.000000 0.000000 1.000000 48.048832 220.895798)"
	> </text>
<text x="0" y="0" style="font-family:Times; font-style:normal; font-weight:normal; font-size:76.555939; fill:black" transform="matrix(1.000000 -0.000000 0.000000 1.000000 39.845371 220.895798)"
	>'</text>
<text x="0" y="0" style="font-family:Times; font-style:normal; font-weight:normal; font-size:76.555939; fill:black" transform="matrix(1.000000 -0.000000 0.000000 1.000000 522.286865 86.922890)"
	>)</text>
<text x="0" y="0" style="font-family:Times; font-style:normal; font-weight:normal; font-size:76.555939; fill:black" transform="matrix(1.000000 -0.000000 0.000000 1.000000 484.785339 86.922890)"
	>2</text>
<text x="0" y="0" style="font-family:Times; font-style:normal; font-weight:normal; font-size:76.555939; fill:black" transform="matrix(1.000000 -0.000000 0.000000 1.000000 457.831116 86.922890)"
	>(</text>
<text x="0" y="0" style="font-family:Times; font-style:normal; font-weight:normal; font-size:76.555939; fill:black" transform="matrix(1.000000 -0.000000 0.000000 1.000000 266.417084 86.922890)"
	>)</text>
<text x="0" y="0" style="font-family:Times; font-style:normal; font-weight:normal; font-size:76.555939; fill:black" transform="matrix(1.000000 -0.000000 0.000000 1.000000 234.775177 86.922890)"
	>1</text>
<text x="0" y="0" style="font-family:Times; font-style:normal; font-weight:normal; font-size:76.555939; fill:black" transform="matrix(1.000000 -0.000000 0.000000 1.000000 216.024414 86.922890)"
	>(</text>
<text x="0" y="0" style="font-family:Times; font-style:normal; font-weight:normal; font-size:76.555939; fill:black" transform="matrix(1.000000 -0.000000 0.000000 1.000000 43.361141 86.922890)"
	> </text>
<text x="0" y="0" style="font-family:Times; font-style:normal; font-weight:normal; font-size:76.555939; fill:black" transform="matrix(1.000000 -0.000000 0.000000 1.000000 35.157681 86.922890)"
	>'</text>
<text x="0" y="0" style="font-family:Symbol; font-style:normal; font-weight:normal; font-size:76.555939; fill:black" transform="matrix(1.000000 -0.000000 0.000000 1.000000 623.072205 220.895798)"
	>=</text>
<text x="0" y="0" style="font-family:Symbol; font-style:normal; font-weight:normal; font-size:76.555939; fill:black" transform="matrix(1.000000 -0.000000 0.000000 1.000000 362.514740 220.895798)"
	>+</text>
<text x="0" y="0" style="font-family:Symbol; font-style:normal; font-weight:normal; font-size:76.555939; fill:black" transform="matrix(1.000000 -0.000000 0.000000 1.000000 126.567650 220.895798)"
	>-</text>
<text x="0" y="0" style="font-family:Symbol; font-style:normal; font-weight:normal; font-size:76.555939; fill:black" transform="matrix(1.000000 -0.000000 0.000000 1.000000 65.627670 220.895798)"
	>=</text>
<text x="0" y="0" style="font-family:Symbol; font-style:normal; font-weight:normal; font-size:76.555939; fill:black" transform="matrix(1.000000 -0.000000 0.000000 1.000000 566.819946 86.922890)"
	>=</text>
<text x="0" y="0" style="font-family:Symbol; font-style:normal; font-weight:normal; font-size:76.555939; fill:black" transform="matrix(1.000000 -0.000000 0.000000 1.000000 306.262451 86.922890)"
	>+</text>
<text x="0" y="0" style="font-family:Symbol; font-style:normal; font-weight:normal; font-size:76.555939; fill:black" transform="matrix(1.000000 -0.000000 0.000000 1.000000 60.939980 86.922890)"
	>=</text>
<text x="0" y="0" style="font-family:Times; font-style:italic; font-weight:normal; font-size:76.555939; fill:black" transform="matrix(1.000000 -0.000000 0.000000 1.000000 3.515768 220.895798)"
	>y</text>
<text x="0" y="0" style="font-family:Times; font-style:italic; font-weight:normal; font-size:76.555939; fill:black" transform="matrix(1.000000 -0.000000 0.000000 1.000000 0.000000 86.922890)"
	>x</text>
</svg>
