<?xml version="1.0" standalone="no"?>
<!DOCTYPE svg PUBLIC "-//W3C//DTD SVG 20001102//EN"
"http://www.w3.org/TR/2000/CR-SVG-20001102/DTD/svg-20001102.dtd">
<svg width="768" height="131"
	xmlns:sodipodi="http://sodipodi.sourceforge.net/DTD/sodipodi-0.dtd">
<desc>wmf2svg</desc>
<text x="0" y="0" style="font-family:Times; font-style:italic; font-weight:normal; font-size:102.243904; fill:black" transform="matrix(1.000000 -0.000000 0.000000 1.000000 730.002075 91.721298)"
	>x</text>
<text x="0" y="0" style="font-family:Times; font-style:italic; font-weight:normal; font-size:102.243904; fill:black" transform="matrix(1.000000 -0.000000 0.000000 1.000000 595.516235 91.721298)"
	>b</text>
<text x="0" y="0" style="font-family:Times; font-style:italic; font-weight:normal; font-size:102.243904; fill:black" transform="matrix(1.000000 -0.000000 0.000000 1.000000 388.839691 91.721298)"
	>x</text>
<text x="0" y="0" style="font-family:Times; font-style:italic; font-weight:normal; font-size:102.243904; fill:black" transform="matrix(1.000000 -0.000000 0.000000 1.000000 181.038727 91.721298)"
	>b</text>
<text x="0" y="0" style="font-family:Times; font-style:italic; font-weight:normal; font-size:59.642277; fill:black" transform="matrix(1.000000 -0.000000 0.000000 1.000000 551.886963 117.282272)"
	>b</text>
<text x="0" y="0" style="font-family:Times; font-style:italic; font-weight:normal; font-size:59.642277; fill:black" transform="matrix(1.000000 -0.000000 0.000000 1.000000 232.089401 45.924553)"
	>x</text>
<text x="0" y="0" style="font-family:Times; font-style:italic; font-weight:normal; font-size:59.642277; fill:black" transform="matrix(1.000000 -0.000000 0.000000 1.000000 114.245560 117.282272)"
	>b</text>
<text x="0" y="0" style="font-family:Symbol; font-style:normal; font-weight:normal; font-size:102.243904; fill:black" transform="matrix(1.000000 -0.000000 0.000000 1.000000 658.036438 91.721298)"
	>=</text>
<text x="0" y="0" style="font-family:Symbol; font-style:normal; font-weight:normal; font-size:102.243904; fill:black" transform="matrix(1.000000 -0.000000 0.000000 1.000000 316.873993 91.721298)"
	>=</text>
<text x="0" y="0" style="font-family:Times; font-style:normal; font-weight:normal; font-size:102.243904; fill:black" transform="matrix(1.000000 -0.000000 0.000000 1.000000 437.641418 91.721298)"
	>log</text>
<text x="0" y="0" style="font-family:Times; font-style:normal; font-weight:normal; font-size:102.243904; fill:black" transform="matrix(1.000000 -0.000000 0.000000 1.000000 268.297119 91.721298)"
	>)</text>
<text x="0" y="0" style="font-family:Times; font-style:normal; font-weight:normal; font-size:102.243904; fill:black" transform="matrix(1.000000 -0.000000 0.000000 1.000000 150.453293 91.721298)"
	>(</text>
<text x="0" y="0" style="font-family:Times; font-style:normal; font-weight:normal; font-size:102.243904; fill:black" transform="matrix(1.000000 -0.000000 0.000000 1.000000 0.000000 91.721298)"
	>log</text>
</svg>
