<?xml version="1.0" standalone="no"?>
<!DOCTYPE svg PUBLIC "-//W3C//DTD SVG 20001102//EN"
"http://www.w3.org/TR/2000/CR-SVG-20001102/DTD/svg-20001102.dtd">
<svg width="768" height="341"
	xmlns:sodipodi="http://sodipodi.sourceforge.net/DTD/sodipodi-0.dtd">
<desc>wmf2svg</desc>
<line x1="380.809448" y1="203.319595" x2="408.010101" y2="183.778595" 
	style="stroke-width:10.826906; stroke-linecap:round; stroke-linejoin:round; stroke-dasharray:none; stroke:black" />
<line x1="408.010101" y1="190.292252" x2="446.238129" y2="281.483643" 
	style="stroke-width:21.653812; stroke-linecap:round; stroke-linejoin:round; stroke-dasharray:none; stroke:black" />
<line x1="450.649017" y1="281.483643" x2="502.844910" y2="6.048407" 
	style="stroke-width:10.826906; stroke-linecap:round; stroke-linejoin:round; stroke-dasharray:none; stroke:black" />
<line x1="502.844910" y1="6.048407" x2="635.172546" y2="6.048407" 
	style="stroke-width:10.826906; stroke-linecap:round; stroke-linejoin:round; stroke-dasharray:none; stroke:black" />
<text x="0" y="0" style="font-family:Times; font-style:normal; font-weight:normal; font-size:327.544617; fill:black" transform="matrix(1.000000 -0.000000 0.000000 1.000000 680.016846 265.664734)"
	>)</text>
<text x="0" y="0" style="font-family:Times; font-style:normal; font-weight:normal; font-size:327.544617; fill:black" transform="matrix(1.000000 -0.000000 0.000000 1.000000 247.011536 265.664734)"
	>  </text>
<text x="0" y="0" style="font-family:Times; font-style:normal; font-weight:normal; font-size:327.544617; fill:black" transform="matrix(1.000000 -0.000000 0.000000 1.000000 194.815643 265.664734)"
	>,</text>
<text x="0" y="0" style="font-family:Times; font-style:normal; font-weight:normal; font-size:327.544617; fill:black" transform="matrix(1.000000 -0.000000 0.000000 1.000000 0.000000 265.664734)"
	>(</text>
<text x="0" y="0" style="font-family:Times; font-style:normal; font-weight:normal; font-size:267.991058; fill:black" transform="matrix(1.000000 -0.000000 0.000000 1.000000 635.172546 265.664734)"
	> </text>
<text x="0" y="0" style="font-family:Times; font-style:normal; font-weight:normal; font-size:267.991058; fill:black" transform="matrix(1.000000 -0.000000 0.000000 1.000000 516.812805 265.664734)"
	>7</text>
<text x="0" y="0" style="font-family:Times; font-style:normal; font-weight:normal; font-size:267.991058; fill:black" transform="matrix(1.000000 -0.000000 0.000000 1.000000 90.423866 265.664734)"
	>0</text>
</svg>
