<?xml version="1.0" standalone="no"?>
<!DOCTYPE svg PUBLIC "-//W3C//DTD SVG 20001102//EN"
"http://www.w3.org/TR/2000/CR-SVG-20001102/DTD/svg-20001102.dtd">
<svg width="768" height="118"
	xmlns:sodipodi="http://sodipodi.sourceforge.net/DTD/sodipodi-0.dtd">
<desc>wmf2svg</desc>
<text x="0" y="0" style="font-family:Times; font-style:normal; font-weight:normal; font-size:93.992699; fill:black" transform="matrix(1.000000 -0.000000 0.000000 1.000000 731.319397 96.381676)"
	>0</text>
<text x="0" y="0" style="font-family:Times; font-style:normal; font-weight:normal; font-size:93.992699; fill:black" transform="matrix(1.000000 -0.000000 0.000000 1.000000 586.889526 96.381676)"
	>11</text>
<text x="0" y="0" style="font-family:Times; font-style:normal; font-weight:normal; font-size:93.992699; fill:black" transform="matrix(1.000000 -0.000000 0.000000 1.000000 444.752228 96.381676)"
	>2</text>
<text x="0" y="0" style="font-family:Times; font-style:normal; font-weight:normal; font-size:93.992699; fill:black" transform="matrix(1.000000 -0.000000 0.000000 1.000000 300.322388 96.381676)"
	>4</text>
<text x="0" y="0" style="font-family:Times; font-style:normal; font-weight:normal; font-size:70.494522; fill:black" transform="matrix(1.000000 -0.000000 0.000000 1.000000 194.101486 54.280781)"
	>2</text>
<text x="0" y="0" style="font-family:Times; font-style:normal; font-weight:normal; font-size:70.494522; fill:black" transform="matrix(1.000000 -0.000000 0.000000 1.000000 39.355225 54.280781)"
	>2</text>
<text x="0" y="0" style="font-family:Symbol; font-style:normal; font-weight:normal; font-size:93.992699; fill:black" transform="matrix(1.000000 -0.000000 0.000000 1.000000 672.859680 96.381676)"
	>=</text>
<text x="0" y="0" style="font-family:Symbol; font-style:normal; font-weight:normal; font-size:93.992699; fill:black" transform="matrix(1.000000 -0.000000 0.000000 1.000000 538.746277 96.381676)"
	>+</text>
<text x="0" y="0" style="font-family:Symbol; font-style:normal; font-weight:normal; font-size:93.992699; fill:black" transform="matrix(1.000000 -0.000000 0.000000 1.000000 389.731354 96.381676)"
	>-</text>
<text x="0" y="0" style="font-family:Symbol; font-style:normal; font-weight:normal; font-size:93.992699; fill:black" transform="matrix(1.000000 -0.000000 0.000000 1.000000 245.301498 96.381676)"
	>-</text>
<text x="0" y="0" style="font-family:Symbol; font-style:normal; font-weight:normal; font-size:93.992699; fill:black" transform="matrix(1.000000 -0.000000 0.000000 1.000000 90.555222 96.381676)"
	>+</text>
<text x="0" y="0" style="font-family:Times; font-style:italic; font-weight:normal; font-size:93.992699; fill:black" transform="matrix(1.000000 -0.000000 0.000000 1.000000 489.456726 96.381676)"
	>y</text>
<text x="0" y="0" style="font-family:Times; font-style:italic; font-weight:normal; font-size:93.992699; fill:black" transform="matrix(1.000000 -0.000000 0.000000 1.000000 341.588074 96.381676)"
	>x</text>
<text x="0" y="0" style="font-family:Times; font-style:italic; font-weight:normal; font-size:93.992699; fill:black" transform="matrix(1.000000 -0.000000 0.000000 1.000000 153.600006 96.381676)"
	>y</text>
<text x="0" y="0" style="font-family:Times; font-style:italic; font-weight:normal; font-size:93.992699; fill:black" transform="matrix(1.000000 -0.000000 0.000000 1.000000 0.000000 96.381676)"
	>x</text>
</svg>
