<?xml version="1.0" standalone="no"?>
<!DOCTYPE svg PUBLIC "-//W3C//DTD SVG 20001102//EN"
"http://www.w3.org/TR/2000/CR-SVG-20001102/DTD/svg-20001102.dtd">
<svg width="768" height="144"
	xmlns:sodipodi="http://sodipodi.sourceforge.net/DTD/sodipodi-0.dtd">
<desc>wmf2svg</desc>
<text x="0" y="0" style="font-family:Times; font-style:italic; font-weight:normal; font-size:112.390244; fill:black" transform="matrix(1.000000 -0.000000 0.000000 1.000000 725.773193 100.823410)"
	>x</text>
<text x="0" y="0" style="font-family:Times; font-style:italic; font-weight:normal; font-size:112.390244; fill:black" transform="matrix(1.000000 -0.000000 0.000000 1.000000 397.875671 100.823410)"
	>y</text>
<text x="0" y="0" style="font-family:Times; font-style:italic; font-weight:normal; font-size:112.390244; fill:black" transform="matrix(1.000000 -0.000000 0.000000 1.000000 142.705414 100.823410)"
	>b</text>
<text x="0" y="0" style="font-family:Times; font-style:italic; font-weight:normal; font-size:112.390244; fill:black" transform="matrix(1.000000 -0.000000 0.000000 1.000000 0.000000 100.823410)"
	>x</text>
<text x="0" y="0" style="font-family:Times; font-style:italic; font-weight:normal; font-size:65.560974; fill:black" transform="matrix(1.000000 -0.000000 0.000000 1.000000 669.040955 128.920975)"
	>b</text>
<text x="0" y="0" style="font-family:Times; font-style:italic; font-weight:normal; font-size:65.560974; fill:black" transform="matrix(1.000000 -0.000000 0.000000 1.000000 202.686661 50.481949)"
	>y</text>
<text x="0" y="0" style="font-family:Times; font-style:normal; font-weight:normal; font-size:112.390244; fill:black" transform="matrix(1.000000 -0.000000 0.000000 1.000000 541.580750 100.823410)"
	>log</text>
<text x="0" y="0" style="font-family:Symbol; font-style:normal; font-weight:normal; font-size:112.390244; fill:black" transform="matrix(1.000000 -0.000000 0.000000 1.000000 467.353943 100.823410)"
	>=</text>
<text x="0" y="0" style="font-family:Symbol; font-style:normal; font-weight:normal; font-size:112.390244; fill:black" transform="matrix(1.000000 -0.000000 0.000000 1.000000 265.167145 100.823410)"
	>Û</text>
<text x="0" y="0" style="font-family:Symbol; font-style:normal; font-weight:normal; font-size:112.390244; fill:black" transform="matrix(1.000000 -0.000000 0.000000 1.000000 68.478600 100.823410)"
	>=</text>
</svg>
