<?xml version="1.0" standalone="no"?>
<!DOCTYPE svg PUBLIC "-//W3C//DTD SVG 20001102//EN"
"http://www.w3.org/TR/2000/CR-SVG-20001102/DTD/svg-20001102.dtd">
<svg width="768" height="114"
	xmlns:sodipodi="http://sodipodi.sourceforge.net/DTD/sodipodi-0.dtd">
<desc>wmf2svg</desc>
<text x="0" y="0" style="font-family:Times; font-style:normal; font-weight:normal; font-size:90.806503; fill:black" transform="matrix(1.000000 -0.000000 0.000000 1.000000 732.587891 93.114502)"
	>0</text>
<text x="0" y="0" style="font-family:Times; font-style:normal; font-weight:normal; font-size:90.806503; fill:black" transform="matrix(1.000000 -0.000000 0.000000 1.000000 628.564819 93.114502)"
	>1</text>
<text x="0" y="0" style="font-family:Times; font-style:normal; font-weight:normal; font-size:90.806503; fill:black" transform="matrix(1.000000 -0.000000 0.000000 1.000000 457.037476 93.114502)"
	>18</text>
<text x="0" y="0" style="font-family:Times; font-style:normal; font-weight:normal; font-size:90.806503; fill:black" transform="matrix(1.000000 -0.000000 0.000000 1.000000 324.242065 93.114502)"
	>2</text>
<text x="0" y="0" style="font-family:Times; font-style:normal; font-weight:normal; font-size:90.806503; fill:black" transform="matrix(1.000000 -0.000000 0.000000 1.000000 139.435165 93.114502)"
	>9</text>
<text x="0" y="0" style="font-family:Times; font-style:normal; font-weight:normal; font-size:68.104881; fill:black" transform="matrix(1.000000 -0.000000 0.000000 1.000000 221.694519 52.440754)"
	>2</text>
<text x="0" y="0" style="font-family:Times; font-style:normal; font-weight:normal; font-size:68.104881; fill:black" transform="matrix(1.000000 -0.000000 0.000000 1.000000 37.994236 52.440754)"
	>2</text>
<text x="0" y="0" style="font-family:Symbol; font-style:normal; font-weight:normal; font-size:90.806503; fill:black" transform="matrix(1.000000 -0.000000 0.000000 1.000000 676.149841 93.114502)"
	>=</text>
<text x="0" y="0" style="font-family:Symbol; font-style:normal; font-weight:normal; font-size:90.806503; fill:black" transform="matrix(1.000000 -0.000000 0.000000 1.000000 582.086426 93.114502)"
	>+</text>
<text x="0" y="0" style="font-family:Symbol; font-style:normal; font-weight:normal; font-size:90.806503; fill:black" transform="matrix(1.000000 -0.000000 0.000000 1.000000 410.559082 93.114502)"
	>+</text>
<text x="0" y="0" style="font-family:Symbol; font-style:normal; font-weight:normal; font-size:90.806503; fill:black" transform="matrix(1.000000 -0.000000 0.000000 1.000000 271.123932 93.114502)"
	>-</text>
<text x="0" y="0" style="font-family:Symbol; font-style:normal; font-weight:normal; font-size:90.806503; fill:black" transform="matrix(1.000000 -0.000000 0.000000 1.000000 87.423630 93.114502)"
	>+</text>
<text x="0" y="0" style="font-family:Times; font-style:italic; font-weight:normal; font-size:90.806503; fill:black" transform="matrix(1.000000 -0.000000 0.000000 1.000000 534.501465 93.114502)"
	>y</text>
<text x="0" y="0" style="font-family:Times; font-style:italic; font-weight:normal; font-size:90.806503; fill:black" transform="matrix(1.000000 -0.000000 0.000000 1.000000 364.080688 93.114502)"
	>x</text>
<text x="0" y="0" style="font-family:Times; font-style:italic; font-weight:normal; font-size:90.806503; fill:black" transform="matrix(1.000000 -0.000000 0.000000 1.000000 182.593658 93.114502)"
	>y</text>
<text x="0" y="0" style="font-family:Times; font-style:italic; font-weight:normal; font-size:90.806503; fill:black" transform="matrix(1.000000 -0.000000 0.000000 1.000000 0.000000 93.114502)"
	>x</text>
</svg>
