<?xml version="1.0" standalone="no"?>
<!DOCTYPE svg PUBLIC "-//W3C//DTD SVG 20001102//EN"
"http://www.w3.org/TR/2000/CR-SVG-20001102/DTD/svg-20001102.dtd">
<svg width="768" height="143"
	xmlns:sodipodi="http://sodipodi.sourceforge.net/DTD/sodipodi-0.dtd">
<desc>wmf2svg</desc>
<text x="0" y="0" style="font-family:Times; font-style:normal; font-weight:normal; font-size:113.906410; fill:black" transform="matrix(1.000000 -0.000000 0.000000 1.000000 679.117554 116.801529)"
	>27</text>
<text x="0" y="0" style="font-family:Times; font-style:normal; font-weight:normal; font-size:113.906410; fill:black" transform="matrix(1.000000 -0.000000 0.000000 1.000000 449.967438 116.801529)"
	>18</text>
<text x="0" y="0" style="font-family:Times; font-style:normal; font-weight:normal; font-size:113.906410; fill:black" transform="matrix(1.000000 -0.000000 0.000000 1.000000 227.761276 116.801529)"
	>4</text>
<text x="0" y="0" style="font-family:Times; font-style:normal; font-weight:normal; font-size:113.906410; fill:black" transform="matrix(1.000000 -0.000000 0.000000 1.000000 0.000000 116.801529)"
	>9</text>
<text x="0" y="0" style="font-family:Times; font-style:normal; font-weight:normal; font-size:85.429810; fill:black" transform="matrix(1.000000 -0.000000 0.000000 1.000000 330.994537 65.780952)"
	>2</text>
<text x="0" y="0" style="font-family:Times; font-style:normal; font-weight:normal; font-size:85.429810; fill:black" transform="matrix(1.000000 -0.000000 0.000000 1.000000 97.678116 65.780952)"
	>2</text>
<text x="0" y="0" style="font-family:Symbol; font-style:normal; font-weight:normal; font-size:113.906410; fill:black" transform="matrix(1.000000 -0.000000 0.000000 1.000000 606.900513 116.801529)"
	>=</text>
<text x="0" y="0" style="font-family:Symbol; font-style:normal; font-weight:normal; font-size:113.906410; fill:black" transform="matrix(1.000000 -0.000000 0.000000 1.000000 393.027100 116.801529)"
	>-</text>
<text x="0" y="0" style="font-family:Symbol; font-style:normal; font-weight:normal; font-size:113.906410; fill:black" transform="matrix(1.000000 -0.000000 0.000000 1.000000 159.710648 116.801529)"
	>+</text>
<text x="0" y="0" style="font-family:Times; font-style:italic; font-weight:normal; font-size:113.906410; fill:black" transform="matrix(1.000000 -0.000000 0.000000 1.000000 543.016235 116.801529)"
	>x</text>
<text x="0" y="0" style="font-family:Times; font-style:italic; font-weight:normal; font-size:113.906410; fill:black" transform="matrix(1.000000 -0.000000 0.000000 1.000000 281.924042 116.801529)"
	>y</text>
<text x="0" y="0" style="font-family:Times; font-style:italic; font-weight:normal; font-size:113.906410; fill:black" transform="matrix(1.000000 -0.000000 0.000000 1.000000 49.996376 116.801529)"
	>x</text>
</svg>
