<?xml version="1.0" standalone="no"?>
<!DOCTYPE svg PUBLIC "-//W3C//DTD SVG 20001102//EN"
"http://www.w3.org/TR/2000/CR-SVG-20001102/DTD/svg-20001102.dtd">
<svg width="768" height="122"
	xmlns:sodipodi="http://sodipodi.sourceforge.net/DTD/sodipodi-0.dtd">
<desc>wmf2svg</desc>
<text x="0" y="0" style="font-family:Times; font-style:italic; font-weight:normal; font-size:108.243996; fill:black" transform="matrix(1.000000 -0.000000 0.000000 1.000000 726.140991 97.103882)"
	>x</text>
<text x="0" y="0" style="font-family:Times; font-style:italic; font-weight:normal; font-size:108.243996; fill:black" transform="matrix(1.000000 -0.000000 0.000000 1.000000 630.263611 97.103882)"
	>h</text>
<text x="0" y="0" style="font-family:Times; font-style:italic; font-weight:normal; font-size:108.243996; fill:black" transform="matrix(1.000000 -0.000000 0.000000 1.000000 357.496246 97.103882)"
	>x</text>
<text x="0" y="0" style="font-family:Times; font-style:normal; font-weight:normal; font-size:63.142330; fill:black" transform="matrix(1.000000 -0.000000 0.000000 1.000000 686.254028 48.619595)"
	>2</text>
<text x="0" y="0" style="font-family:Times; font-style:normal; font-weight:normal; font-size:63.142330; fill:black" transform="matrix(1.000000 -0.000000 0.000000 1.000000 301.258087 48.619595)"
	>2</text>
<text x="0" y="0" style="font-family:Times; font-style:normal; font-weight:normal; font-size:108.243996; fill:black" transform="matrix(1.000000 -0.000000 0.000000 1.000000 497.719971 97.103882)"
	>sec</text>
<text x="0" y="0" style="font-family:Times; font-style:normal; font-weight:normal; font-size:108.243996; fill:black" transform="matrix(1.000000 -0.000000 0.000000 1.000000 129.075211 97.103882)"
	>tanh</text>
<text x="0" y="0" style="font-family:Times; font-style:normal; font-weight:normal; font-size:108.243996; fill:black" transform="matrix(1.000000 -0.000000 0.000000 1.000000 0.000000 97.103882)"
	>1</text>
<text x="0" y="0" style="font-family:Symbol; font-style:normal; font-weight:normal; font-size:108.243996; fill:black" transform="matrix(1.000000 -0.000000 0.000000 1.000000 425.378387 97.103882)"
	>=</text>
<text x="0" y="0" style="font-family:Symbol; font-style:normal; font-weight:normal; font-size:108.243996; fill:black" transform="matrix(1.000000 -0.000000 0.000000 1.000000 57.476871 97.103882)"
	>-</text>
</svg>
