<?xml version="1.0" standalone="no"?>
<!DOCTYPE svg PUBLIC "-//W3C//DTD SVG 20001102//EN"
"http://www.w3.org/TR/2000/CR-SVG-20001102/DTD/svg-20001102.dtd">
<svg width="768" height="301"
	xmlns:sodipodi="http://sodipodi.sourceforge.net/DTD/sodipodi-0.dtd">
<desc>wmf2svg</desc>
<line x1="200.900299" y1="165.946274" x2="332.454315" y2="165.946274" 
	style="stroke-width:7.432067; stroke-linecap:round; stroke-linejoin:round; stroke-dasharray:none; stroke:black" />
<line x1="595.562317" y1="165.946274" x2="713.349060" y2="165.946274" 
	style="stroke-width:7.432067; stroke-linecap:round; stroke-linejoin:round; stroke-dasharray:none; stroke:black" />
<text x="0" y="0" style="font-family:Symbol; font-style:normal; font-weight:normal; font-size:266.134308; fill:black" transform="matrix(1.000000 -0.000000 0.000000 1.000000 0.000000 204.923416)"
	>(</text>
<text x="0" y="0" style="font-family:Symbol; font-style:normal; font-weight:normal; font-size:266.134308; fill:black" transform="matrix(1.000000 -0.000000 0.000000 1.000000 728.645996 204.923416)"
	>)</text>
<text x="0" y="0" style="font-family:Times; font-style:normal; font-weight:normal; font-size:120.703438; fill:black" transform="matrix(1.000000 -0.000000 0.000000 1.000000 620.037476 273.238220)"
	>2</text>
<text x="0" y="0" style="font-family:Times; font-style:normal; font-weight:normal; font-size:120.703438; fill:black" transform="matrix(1.000000 -0.000000 0.000000 1.000000 609.839478 150.858337)"
	>E</text>
<text x="0" y="0" style="font-family:Times; font-style:normal; font-weight:normal; font-size:120.703438; fill:black" transform="matrix(1.000000 -0.000000 0.000000 1.000000 232.514053 273.238220)"
	>2</text>
<text x="0" y="0" style="font-family:Times; font-style:normal; font-weight:normal; font-size:120.703438; fill:black" transform="matrix(1.000000 -0.000000 0.000000 1.000000 215.177475 150.858337)"
	>D</text>
<text x="0" y="0" style="font-family:Times; font-style:normal; font-weight:normal; font-size:160.937912; fill:black" transform="matrix(1.000000 -0.000000 0.000000 1.000000 399.760986 206.180740)"
	> </text>
<text x="0" y="0" style="font-family:Times; font-style:normal; font-weight:normal; font-size:160.937912; fill:black" transform="matrix(1.000000 -0.000000 0.000000 1.000000 359.988861 206.180740)"
	>,</text>
<text x="0" y="0" style="font-family:Symbol; font-style:normal; font-weight:normal; font-size:160.937912; fill:black" transform="matrix(1.000000 -0.000000 0.000000 1.000000 445.651947 206.180740)"
	>-</text>
<text x="0" y="0" style="font-family:Symbol; font-style:normal; font-weight:normal; font-size:160.937912; fill:black" transform="matrix(1.000000 -0.000000 0.000000 1.000000 50.989922 206.180740)"
	>-</text>
</svg>
