<?xml version="1.0" standalone="no"?>
<!DOCTYPE svg PUBLIC "-//W3C//DTD SVG 20001102//EN"
"http://www.w3.org/TR/2000/CR-SVG-20001102/DTD/svg-20001102.dtd">
<svg width="768" height="144"
	xmlns:sodipodi="http://sodipodi.sourceforge.net/DTD/sodipodi-0.dtd">
<desc>wmf2svg</desc>
<text x="0" y="0" style="font-family:Times; font-style:normal; font-weight:normal; font-size:124.765343; fill:black" transform="matrix(1.000000 -0.000000 0.000000 1.000000 716.994812 96.069305)"
	>2</text>
<text x="0" y="0" style="font-family:Times; font-style:normal; font-weight:normal; font-size:124.765343; fill:black" transform="matrix(1.000000 -0.000000 0.000000 1.000000 514.302307 96.069305)"
	>25</text>
<text x="0" y="0" style="font-family:Times; font-style:normal; font-weight:normal; font-size:124.765343; fill:black" transform="matrix(1.000000 -0.000000 0.000000 1.000000 327.548950 96.069305)"
	>log</text>
<text x="0" y="0" style="font-family:Times; font-style:normal; font-weight:normal; font-size:124.765343; fill:black" transform="matrix(1.000000 -0.000000 0.000000 1.000000 189.941193 96.069305)"
	>)</text>
<text x="0" y="0" style="font-family:Times; font-style:normal; font-weight:normal; font-size:124.765343; fill:black" transform="matrix(1.000000 -0.000000 0.000000 1.000000 90.056038 96.069305)"
	>25</text>
<text x="0" y="0" style="font-family:Times; font-style:normal; font-weight:normal; font-size:124.765343; fill:black" transform="matrix(1.000000 -0.000000 0.000000 1.000000 52.599102 96.069305)"
	>(</text>
<text x="0" y="0" style="font-family:Times; font-style:normal; font-weight:normal; font-size:72.779785; fill:black" transform="matrix(1.000000 -0.000000 0.000000 1.000000 462.234528 127.260643)"
	>5</text>
<text x="0" y="0" style="font-family:Symbol; font-style:normal; font-weight:normal; font-size:124.765343; fill:black" transform="matrix(1.000000 -0.000000 0.000000 1.000000 636.767883 96.069305)"
	>=</text>
<text x="0" y="0" style="font-family:Symbol; font-style:normal; font-weight:normal; font-size:124.765343; fill:black" transform="matrix(1.000000 -0.000000 0.000000 1.000000 248.650299 96.069305)"
	>=</text>
<text x="0" y="0" style="font-family:Times; font-style:italic; font-weight:normal; font-size:124.765343; fill:black" transform="matrix(1.000000 -0.000000 0.000000 1.000000 0.000000 96.069305)"
	>f</text>
</svg>
