<?xml version="1.0" standalone="no"?>
<!DOCTYPE svg PUBLIC "-//W3C//DTD SVG 20001102//EN"
"http://www.w3.org/TR/2000/CR-SVG-20001102/DTD/svg-20001102.dtd">
<svg width="768" height="151"
	xmlns:sodipodi="http://sodipodi.sourceforge.net/DTD/sodipodi-0.dtd">
<desc>wmf2svg</desc>
<text x="0" y="0" style="font-family:Times; font-style:normal; font-weight:normal; font-size:130.830322; fill:black" transform="matrix(1.000000 -0.000000 0.000000 1.000000 730.925537 100.739342)"
	>)</text>
<text x="0" y="0" style="font-family:Times; font-style:normal; font-weight:normal; font-size:130.830322; fill:black" transform="matrix(1.000000 -0.000000 0.000000 1.000000 566.225891 100.739342)"
	>(</text>
<text x="0" y="0" style="font-family:Times; font-style:normal; font-weight:normal; font-size:130.830322; fill:black" transform="matrix(1.000000 -0.000000 0.000000 1.000000 378.241180 100.739342)"
	>log</text>
<text x="0" y="0" style="font-family:Times; font-style:normal; font-weight:normal; font-size:130.830322; fill:black" transform="matrix(1.000000 -0.000000 0.000000 1.000000 156.464630 100.739342)"
	>)</text>
<text x="0" y="0" style="font-family:Times; font-style:normal; font-weight:normal; font-size:130.830322; fill:black" transform="matrix(1.000000 -0.000000 0.000000 1.000000 56.225040 100.739342)"
	>(</text>
<text x="0" y="0" style="font-family:Times; font-style:normal; font-weight:normal; font-size:76.317688; fill:black" transform="matrix(1.000000 -0.000000 0.000000 1.000000 523.063232 133.446930)"
	>3</text>
<text x="0" y="0" style="font-family:Times; font-style:italic; font-weight:normal; font-size:130.830322; fill:black" transform="matrix(1.000000 -0.000000 0.000000 1.000000 677.256165 100.739342)"
	>x</text>
<text x="0" y="0" style="font-family:Times; font-style:italic; font-weight:normal; font-size:130.830322; fill:black" transform="matrix(1.000000 -0.000000 0.000000 1.000000 102.795280 100.739342)"
	>x</text>
<text x="0" y="0" style="font-family:Times; font-style:italic; font-weight:normal; font-size:130.830322; fill:black" transform="matrix(1.000000 -0.000000 0.000000 1.000000 0.000000 100.739342)"
	>f</text>
<text x="0" y="0" style="font-family:Symbol; font-style:normal; font-weight:normal; font-size:130.830322; fill:black" transform="matrix(1.000000 -0.000000 0.000000 1.000000 607.684814 100.739342)"
	>-</text>
<text x="0" y="0" style="font-family:Symbol; font-style:normal; font-weight:normal; font-size:130.830322; fill:black" transform="matrix(1.000000 -0.000000 0.000000 1.000000 306.398071 100.739342)"
	>-</text>
<text x="0" y="0" style="font-family:Symbol; font-style:normal; font-weight:normal; font-size:130.830322; fill:black" transform="matrix(1.000000 -0.000000 0.000000 1.000000 219.220871 100.739342)"
	>=</text>
</svg>
