<?xml version="1.0" standalone="no"?>
<!DOCTYPE svg PUBLIC "-//W3C//DTD SVG 20001102//EN"
"http://www.w3.org/TR/2000/CR-SVG-20001102/DTD/svg-20001102.dtd">
<svg width="768" height="506"
	xmlns:sodipodi="http://sodipodi.sourceforge.net/DTD/sodipodi-0.dtd">
<desc>wmf2svg</desc>
<line x1="231.849075" y1="241.349976" x2="540.981140" y2="241.349976" 
	style="stroke-width:9.015044; stroke-linecap:round; stroke-linejoin:round; stroke-dasharray:none; stroke:black" />
<text x="0" y="0" style="font-family:Times; font-style:normal; font-weight:normal; font-size:209.831528; fill:black" transform="matrix(1.000000 -0.000000 0.000000 1.000000 458.867920 161.570282)"
	>2</text>
<text x="0" y="0" style="font-family:Times; font-style:normal; font-weight:normal; font-size:209.831528; fill:black" transform="matrix(1.000000 -0.000000 0.000000 1.000000 455.245300 457.738739)"
	>1</text>
<text x="0" y="0" style="font-family:Times; font-style:italic; font-weight:normal; font-size:209.831528; fill:black" transform="matrix(1.000000 -0.000000 0.000000 1.000000 248.754730 161.570282)"
	>x</text>
<text x="0" y="0" style="font-family:Times; font-style:italic; font-weight:normal; font-size:209.831528; fill:black" transform="matrix(1.000000 -0.000000 0.000000 1.000000 0.000000 293.807861)"
	>y</text>
<text x="0" y="0" style="font-family:Times; font-style:italic; font-weight:normal; font-size:209.831528; fill:black" transform="matrix(1.000000 -0.000000 0.000000 1.000000 264.452850 457.738739)"
	>x</text>
<text x="0" y="0" style="font-family:Symbol; font-style:normal; font-weight:normal; font-size:209.831528; fill:black" transform="matrix(1.000000 -0.000000 0.000000 1.000000 345.358521 161.570282)"
	>+</text>
<text x="0" y="0" style="font-family:Symbol; font-style:normal; font-weight:normal; font-size:209.831528; fill:black" transform="matrix(1.000000 -0.000000 0.000000 1.000000 108.679245 293.807861)"
	>=</text>
<text x="0" y="0" style="font-family:Symbol; font-style:normal; font-weight:normal; font-size:209.831528; fill:black" transform="matrix(1.000000 -0.000000 0.000000 1.000000 361.056610 457.738739)"
	>-</text>
</svg>
