<?xml version="1.0" standalone="no"?>
<!DOCTYPE svg PUBLIC "-//W3C//DTD SVG 20001102//EN"
"http://www.w3.org/TR/2000/CR-SVG-20001102/DTD/svg-20001102.dtd">
<svg width="768" height="108"
	xmlns:sodipodi="http://sodipodi.sourceforge.net/DTD/sodipodi-0.dtd">
<desc>wmf2svg</desc>
<text x="0" y="0" style="font-family:Times; font-style:normal; font-weight:normal; font-size:86.027214; fill:black" transform="matrix(1.000000 -0.000000 0.000000 1.000000 734.608704 88.213737)"
	>0</text>
<text x="0" y="0" style="font-family:Times; font-style:normal; font-weight:normal; font-size:86.027214; fill:black" transform="matrix(1.000000 -0.000000 0.000000 1.000000 632.347839 88.213737)"
	>8</text>
<text x="0" y="0" style="font-family:Times; font-style:normal; font-weight:normal; font-size:86.027214; fill:black" transform="matrix(1.000000 -0.000000 0.000000 1.000000 465.391296 88.213737)"
	>12</text>
<text x="0" y="0" style="font-family:Times; font-style:normal; font-weight:normal; font-size:86.027214; fill:black" transform="matrix(1.000000 -0.000000 0.000000 1.000000 340.173920 88.213737)"
	>4</text>
<text x="0" y="0" style="font-family:Times; font-style:normal; font-weight:normal; font-size:86.027214; fill:black" transform="matrix(1.000000 -0.000000 0.000000 1.000000 168.000000 88.213737)"
	>3</text>
<text x="0" y="0" style="font-family:Times; font-style:normal; font-weight:normal; font-size:86.027214; fill:black" transform="matrix(1.000000 -0.000000 0.000000 1.000000 0.000000 88.213737)"
	>2</text>
<text x="0" y="0" style="font-family:Times; font-style:normal; font-weight:normal; font-size:64.520409; fill:black" transform="matrix(1.000000 -0.000000 0.000000 1.000000 243.478256 49.680714)"
	>2</text>
<text x="0" y="0" style="font-family:Times; font-style:normal; font-weight:normal; font-size:64.520409; fill:black" transform="matrix(1.000000 -0.000000 0.000000 1.000000 73.391304 49.680714)"
	>2</text>
<text x="0" y="0" style="font-family:Symbol; font-style:normal; font-weight:normal; font-size:86.027214; fill:black" transform="matrix(1.000000 -0.000000 0.000000 1.000000 681.391296 88.213737)"
	>=</text>
<text x="0" y="0" style="font-family:Symbol; font-style:normal; font-weight:normal; font-size:86.027214; fill:black" transform="matrix(1.000000 -0.000000 0.000000 1.000000 584.347839 88.213737)"
	>+</text>
<text x="0" y="0" style="font-family:Symbol; font-style:normal; font-weight:normal; font-size:86.027214; fill:black" transform="matrix(1.000000 -0.000000 0.000000 1.000000 421.565216 88.213737)"
	>+</text>
<text x="0" y="0" style="font-family:Symbol; font-style:normal; font-weight:normal; font-size:86.027214; fill:black" transform="matrix(1.000000 -0.000000 0.000000 1.000000 290.086945 88.213737)"
	>-</text>
<text x="0" y="0" style="font-family:Symbol; font-style:normal; font-weight:normal; font-size:86.027214; fill:black" transform="matrix(1.000000 -0.000000 0.000000 1.000000 120.000000 88.213737)"
	>-</text>
<text x="0" y="0" style="font-family:Times; font-style:italic; font-weight:normal; font-size:86.027214; fill:black" transform="matrix(1.000000 -0.000000 0.000000 1.000000 539.478271 88.213737)"
	>y</text>
<text x="0" y="0" style="font-family:Times; font-style:italic; font-weight:normal; font-size:86.027214; fill:black" transform="matrix(1.000000 -0.000000 0.000000 1.000000 377.739136 88.213737)"
	>x</text>
<text x="0" y="0" style="font-family:Times; font-style:italic; font-weight:normal; font-size:86.027214; fill:black" transform="matrix(1.000000 -0.000000 0.000000 1.000000 206.608688 88.213737)"
	>y</text>
<text x="0" y="0" style="font-family:Times; font-style:italic; font-weight:normal; font-size:86.027214; fill:black" transform="matrix(1.000000 -0.000000 0.000000 1.000000 37.565216 88.213737)"
	>x</text>
</svg>
