<?xml version="1.0" standalone="no"?>
<!DOCTYPE svg PUBLIC "-//W3C//DTD SVG 20001102//EN"
"http://www.w3.org/TR/2000/CR-SVG-20001102/DTD/svg-20001102.dtd">
<svg width="768" height="95"
	xmlns:sodipodi="http://sodipodi.sourceforge.net/DTD/sodipodi-0.dtd">
<desc>wmf2svg</desc>
<line x1="1.059676" y1="63.333332" x2="7.550189" y2="58.809525" 
	style="stroke-width:2.352193; stroke-linecap:round; stroke-linejoin:round; stroke-dasharray:none; stroke:black" />
<line x1="7.550189" y1="60.102039" x2="16.954811" y2="92.414963" 
	style="stroke-width:4.704386; stroke-linecap:round; stroke-linejoin:round; stroke-dasharray:none; stroke:black" />
<line x1="18.014488" y1="92.414963" x2="30.465677" y2="1.292517" 
	style="stroke-width:2.352193; stroke-linecap:round; stroke-linejoin:round; stroke-dasharray:none; stroke:black" />
<line x1="30.465677" y1="1.292517" x2="304.921692" y2="1.292517" 
	style="stroke-width:2.352193; stroke-linecap:round; stroke-linejoin:round; stroke-dasharray:none; stroke:black" />
<line x1="356.845795" y1="63.333332" x2="363.336334" y2="58.809525" 
	style="stroke-width:2.352193; stroke-linecap:round; stroke-linejoin:round; stroke-dasharray:none; stroke:black" />
<line x1="363.336334" y1="60.102039" x2="372.740936" y2="92.414963" 
	style="stroke-width:4.704386; stroke-linecap:round; stroke-linejoin:round; stroke-dasharray:none; stroke:black" />
<line x1="373.800629" y1="92.414963" x2="386.251801" y2="1.292517" 
	style="stroke-width:2.352193; stroke-linecap:round; stroke-linejoin:round; stroke-dasharray:none; stroke:black" />
<line x1="386.251801" y1="1.292517" x2="659.913086" y2="1.292517" 
	style="stroke-width:2.352193; stroke-linecap:round; stroke-linejoin:round; stroke-dasharray:none; stroke:black" />
<text x="0" y="0" style="font-family:Times; font-style:italic; font-weight:normal; font-size:62.040817; fill:black" transform="matrix(1.000000 -0.000000 0.000000 1.000000 742.567810 76.258507)"
	>a</text>
<text x="0" y="0" style="font-family:Times; font-style:italic; font-weight:normal; font-size:62.040817; fill:black" transform="matrix(1.000000 -0.000000 0.000000 1.000000 604.015198 76.258507)"
	>y</text>
<text x="0" y="0" style="font-family:Times; font-style:italic; font-weight:normal; font-size:62.040817; fill:black" transform="matrix(1.000000 -0.000000 0.000000 1.000000 480.033112 76.258507)"
	>c</text>
<text x="0" y="0" style="font-family:Times; font-style:italic; font-weight:normal; font-size:62.040817; fill:black" transform="matrix(1.000000 -0.000000 0.000000 1.000000 409.299744 76.258507)"
	>x</text>
<text x="0" y="0" style="font-family:Times; font-style:italic; font-weight:normal; font-size:62.040817; fill:black" transform="matrix(1.000000 -0.000000 0.000000 1.000000 249.023804 76.258507)"
	>y</text>
<text x="0" y="0" style="font-family:Times; font-style:italic; font-weight:normal; font-size:62.040817; fill:black" transform="matrix(1.000000 -0.000000 0.000000 1.000000 125.041740 76.258507)"
	>c</text>
<text x="0" y="0" style="font-family:Times; font-style:italic; font-weight:normal; font-size:62.040817; fill:black" transform="matrix(1.000000 -0.000000 0.000000 1.000000 53.513626 76.258507)"
	>x</text>
<text x="0" y="0" style="font-family:Times; font-style:normal; font-weight:normal; font-size:62.040817; fill:black" transform="matrix(1.000000 -0.000000 0.000000 1.000000 716.340820 76.258507)"
	>2</text>
<text x="0" y="0" style="font-family:Times; font-style:normal; font-weight:normal; font-size:62.040817; fill:black" transform="matrix(1.000000 -0.000000 0.000000 1.000000 503.875824 76.258507)"
	>)</text>
<text x="0" y="0" style="font-family:Times; font-style:normal; font-weight:normal; font-size:62.040817; fill:black" transform="matrix(1.000000 -0.000000 0.000000 1.000000 388.636078 76.258507)"
	>(</text>
<text x="0" y="0" style="font-family:Times; font-style:normal; font-weight:normal; font-size:62.040817; fill:black" transform="matrix(1.000000 -0.000000 0.000000 1.000000 148.884445 76.258507)"
	>)</text>
<text x="0" y="0" style="font-family:Times; font-style:normal; font-weight:normal; font-size:62.040817; fill:black" transform="matrix(1.000000 -0.000000 0.000000 1.000000 32.849949 76.258507)"
	>(</text>
<text x="0" y="0" style="font-family:Times; font-style:normal; font-weight:normal; font-size:46.530613; fill:black" transform="matrix(1.000000 -0.000000 0.000000 1.000000 632.096558 48.469387)"
	>2</text>
<text x="0" y="0" style="font-family:Times; font-style:normal; font-weight:normal; font-size:46.530613; fill:black" transform="matrix(1.000000 -0.000000 0.000000 1.000000 524.804443 48.469387)"
	>2</text>
<text x="0" y="0" style="font-family:Times; font-style:normal; font-weight:normal; font-size:46.530613; fill:black" transform="matrix(1.000000 -0.000000 0.000000 1.000000 277.105194 48.469387)"
	>2</text>
<text x="0" y="0" style="font-family:Times; font-style:normal; font-weight:normal; font-size:46.530613; fill:black" transform="matrix(1.000000 -0.000000 0.000000 1.000000 169.813034 48.469387)"
	>2</text>
<text x="0" y="0" style="font-family:Symbol; font-style:normal; font-weight:normal; font-size:62.040817; fill:black" transform="matrix(1.000000 -0.000000 0.000000 1.000000 675.013428 76.258507)"
	>=</text>
<text x="0" y="0" style="font-family:Symbol; font-style:normal; font-weight:normal; font-size:62.040817; fill:black" transform="matrix(1.000000 -0.000000 0.000000 1.000000 560.303528 76.258507)"
	>+</text>
<text x="0" y="0" style="font-family:Symbol; font-style:normal; font-weight:normal; font-size:62.040817; fill:black" transform="matrix(1.000000 -0.000000 0.000000 1.000000 442.679535 76.258507)"
	>-</text>
<text x="0" y="0" style="font-family:Symbol; font-style:normal; font-weight:normal; font-size:62.040817; fill:black" transform="matrix(1.000000 -0.000000 0.000000 1.000000 316.843048 76.258507)"
	>-</text>
<text x="0" y="0" style="font-family:Symbol; font-style:normal; font-weight:normal; font-size:62.040817; fill:black" transform="matrix(1.000000 -0.000000 0.000000 1.000000 205.312180 76.258507)"
	>+</text>
<text x="0" y="0" style="font-family:Symbol; font-style:normal; font-weight:normal; font-size:62.040817; fill:black" transform="matrix(1.000000 -0.000000 0.000000 1.000000 86.893410 76.258507)"
	>+</text>
</svg>
