<?xml version="1.0" standalone="no"?>
<!DOCTYPE svg PUBLIC "-//W3C//DTD SVG 20001102//EN"
"http://www.w3.org/TR/2000/CR-SVG-20001102/DTD/svg-20001102.dtd">
<svg width="768" height="136"
	xmlns:sodipodi="http://sodipodi.sourceforge.net/DTD/sodipodi-0.dtd">
<desc>wmf2svg</desc>
<text x="0" y="0" style="font-family:Times; font-style:normal; font-weight:normal; font-size:70.008812; fill:black" transform="matrix(1.000000 -0.000000 0.000000 1.000000 211.911484 53.906784)"
	>2</text>
<text x="0" y="0" style="font-family:Times; font-style:normal; font-weight:normal; font-size:121.096321; fill:black" transform="matrix(1.000000 -0.000000 0.000000 1.000000 0.000000 108.147842)"
	>(</text>
<text x="0" y="0" style="font-family:Times; font-style:normal; font-weight:normal; font-size:121.096321; fill:black" transform="matrix(1.000000 -0.000000 0.000000 1.000000 183.042389 108.147842)"
	>)</text>
<text x="0" y="0" style="font-family:Times; font-style:normal; font-weight:normal; font-size:121.096321; fill:black" transform="matrix(1.000000 -0.000000 0.000000 1.000000 329.435364 108.147842)"
	>4</text>
<text x="0" y="0" style="font-family:Times; font-style:normal; font-weight:normal; font-size:121.096321; fill:black" transform="matrix(1.000000 -0.000000 0.000000 1.000000 421.570770 108.147842)"
	>(</text>
<text x="0" y="0" style="font-family:Times; font-style:normal; font-weight:normal; font-size:121.096321; fill:black" transform="matrix(1.000000 -0.000000 0.000000 1.000000 610.755554 108.147842)"
	>)</text>
<text x="0" y="0" style="font-family:Times; font-style:italic; font-weight:normal; font-size:121.096321; fill:black" transform="matrix(1.000000 -0.000000 0.000000 1.000000 31.940283 108.147842)"
	>x</text>
<text x="0" y="0" style="font-family:Times; font-style:italic; font-weight:normal; font-size:121.096321; fill:black" transform="matrix(1.000000 -0.000000 0.000000 1.000000 142.502792 108.147842)"
	>h</text>
<text x="0" y="0" style="font-family:Times; font-style:italic; font-weight:normal; font-size:121.096321; fill:black" transform="matrix(1.000000 -0.000000 0.000000 1.000000 379.802734 108.147842)"
	>p</text>
<text x="0" y="0" style="font-family:Times; font-style:italic; font-weight:normal; font-size:121.096321; fill:black" transform="matrix(1.000000 -0.000000 0.000000 1.000000 457.196472 108.147842)"
	>y</text>
<text x="0" y="0" style="font-family:Times; font-style:italic; font-weight:normal; font-size:121.096321; fill:black" transform="matrix(1.000000 -0.000000 0.000000 1.000000 568.987488 108.147842)"
	>k</text>
<text x="0" y="0" style="font-family:Symbol; font-style:normal; font-weight:normal; font-size:121.096321; fill:black" transform="matrix(1.000000 -0.000000 0.000000 1.000000 83.536125 108.147842)"
	>-</text>
<text x="0" y="0" style="font-family:Symbol; font-style:normal; font-weight:normal; font-size:121.096321; fill:black" transform="matrix(1.000000 -0.000000 0.000000 1.000000 265.554779 108.147842)"
	>=</text>
<text x="0" y="0" style="font-family:Symbol; font-style:normal; font-weight:normal; font-size:121.096321; fill:black" transform="matrix(1.000000 -0.000000 0.000000 1.000000 510.020782 108.147842)"
	>-</text>
</svg>
