<?xml version="1.0" standalone="no"?>
<!DOCTYPE svg PUBLIC "-//W3C//DTD SVG 20001102//EN"
"http://www.w3.org/TR/2000/CR-SVG-20001102/DTD/svg-20001102.dtd">
<svg width="768" height="187"
	xmlns:sodipodi="http://sodipodi.sourceforge.net/DTD/sodipodi-0.dtd">
<desc>wmf2svg</desc>
<line x1="405.257660" y1="83.816986" x2="461.496338" y2="83.816986" 
	style="stroke-width:4.822495; stroke-linecap:round; stroke-linejoin:round; stroke-dasharray:none; stroke:black" />
<text x="0" y="0" style="font-family:Times; font-style:normal; font-weight:normal; font-size:122.958908; fill:black" transform="matrix(1.000000 -0.000000 0.000000 1.000000 731.102905 114.556717)"
	>)</text>
<text x="0" y="0" style="font-family:Times; font-style:normal; font-weight:normal; font-size:122.958908; fill:black" transform="matrix(1.000000 -0.000000 0.000000 1.000000 478.452728 114.556717)"
	>(</text>
<text x="0" y="0" style="font-family:Times; font-style:italic; font-weight:normal; font-size:122.958908; fill:black" transform="matrix(1.000000 -0.000000 0.000000 1.000000 675.146790 114.556717)"
	>h</text>
<text x="0" y="0" style="font-family:Times; font-style:italic; font-weight:normal; font-size:122.958908; fill:black" transform="matrix(1.000000 -0.000000 0.000000 1.000000 522.539307 114.556717)"
	>x</text>
<text x="0" y="0" style="font-family:Times; font-style:italic; font-weight:normal; font-size:122.958908; fill:black" transform="matrix(1.000000 -0.000000 0.000000 1.000000 154.303116 114.556717)"
	>k</text>
<text x="0" y="0" style="font-family:Times; font-style:italic; font-weight:normal; font-size:122.958908; fill:black" transform="matrix(1.000000 -0.000000 0.000000 1.000000 0.000000 114.556717)"
	>y</text>
<text x="0" y="0" style="font-family:Times; font-style:italic; font-weight:normal; font-size:92.219177; fill:black" transform="matrix(1.000000 -0.000000 0.000000 1.000000 412.322815 165.789597)"
	>b</text>
<text x="0" y="0" style="font-family:Times; font-style:italic; font-weight:normal; font-size:92.219177; fill:black" transform="matrix(1.000000 -0.000000 0.000000 1.000000 413.170624 71.008766)"
	>a</text>
<text x="0" y="0" style="font-family:Symbol; font-style:normal; font-weight:normal; font-size:122.958908; fill:black" transform="matrix(1.000000 -0.000000 0.000000 1.000000 593.756165 114.556717)"
	>-</text>
<text x="0" y="0" style="font-family:Symbol; font-style:normal; font-weight:normal; font-size:122.958908; fill:black" transform="matrix(1.000000 -0.000000 0.000000 1.000000 327.258270 114.556717)"
	>±</text>
<text x="0" y="0" style="font-family:Symbol; font-style:normal; font-weight:normal; font-size:122.958908; fill:black" transform="matrix(1.000000 -0.000000 0.000000 1.000000 239.085052 114.556717)"
	>=</text>
<text x="0" y="0" style="font-family:Symbol; font-style:normal; font-weight:normal; font-size:122.958908; fill:black" transform="matrix(1.000000 -0.000000 0.000000 1.000000 72.912460 114.556717)"
	>-</text>
</svg>
