<?xml version="1.0" standalone="no"?>
<!DOCTYPE svg PUBLIC "-//W3C//DTD SVG 20001102//EN"
"http://www.w3.org/TR/2000/CR-SVG-20001102/DTD/svg-20001102.dtd">
<svg width="768" height="128"
	xmlns:sodipodi="http://sodipodi.sourceforge.net/DTD/sodipodi-0.dtd">
<desc>wmf2svg</desc>
<text x="0" y="0" style="font-family:Times; font-style:normal; font-weight:normal; font-size:88.345093; fill:black" transform="matrix(1.000000 -0.000000 0.000000 1.000000 733.377075 107.680626)"
	>0</text>
<text x="0" y="0" style="font-family:Times; font-style:normal; font-weight:normal; font-size:88.345093; fill:black" transform="matrix(1.000000 -0.000000 0.000000 1.000000 598.229492 107.680626)"
	>75</text>
<text x="0" y="0" style="font-family:Times; font-style:normal; font-weight:normal; font-size:88.345093; fill:black" transform="matrix(1.000000 -0.000000 0.000000 1.000000 548.459045 107.680626)"
	>'</text>
<text x="0" y="0" style="font-family:Times; font-style:normal; font-weight:normal; font-size:88.345093; fill:black" transform="matrix(1.000000 -0.000000 0.000000 1.000000 442.426239 107.680626)"
	>50</text>
<text x="0" y="0" style="font-family:Times; font-style:normal; font-weight:normal; font-size:88.345093; fill:black" transform="matrix(1.000000 -0.000000 0.000000 1.000000 348.983612 107.680626)"
	>'</text>
<text x="0" y="0" style="font-family:Times; font-style:normal; font-weight:normal; font-size:88.345093; fill:black" transform="matrix(1.000000 -0.000000 0.000000 1.000000 204.000000 107.680626)"
	>100</text>
<text x="0" y="0" style="font-family:Times; font-style:normal; font-weight:normal; font-size:88.345093; fill:black" transform="matrix(1.000000 -0.000000 0.000000 1.000000 120.983604 68.025726)"
	>2</text>
<text x="0" y="0" style="font-family:Times; font-style:normal; font-weight:normal; font-size:88.345093; fill:black" transform="matrix(1.000000 -0.000000 0.000000 1.000000 105.049179 107.680626)"
	>'</text>
<text x="0" y="0" style="font-family:Times; font-style:normal; font-weight:normal; font-size:88.345093; fill:black" transform="matrix(1.000000 -0.000000 0.000000 1.000000 0.000000 107.680626)"
	>25</text>
<text x="0" y="0" style="font-family:Times; font-style:normal; font-weight:normal; font-size:72.282349; fill:black" transform="matrix(1.000000 -0.000000 0.000000 1.000000 365.114746 68.025726)"
	>2</text>
<text x="0" y="0" style="font-family:Symbol; font-style:normal; font-weight:normal; font-size:88.345093; fill:black" transform="matrix(1.000000 -0.000000 0.000000 1.000000 681.049194 107.680626)"
	>=</text>
<text x="0" y="0" style="font-family:Symbol; font-style:normal; font-weight:normal; font-size:88.345093; fill:black" transform="matrix(1.000000 -0.000000 0.000000 1.000000 560.459045 107.680626)"
	>-</text>
<text x="0" y="0" style="font-family:Symbol; font-style:normal; font-weight:normal; font-size:88.345093; fill:black" transform="matrix(1.000000 -0.000000 0.000000 1.000000 404.655731 107.680626)"
	>+</text>
<text x="0" y="0" style="font-family:Symbol; font-style:normal; font-weight:normal; font-size:88.345093; fill:black" transform="matrix(1.000000 -0.000000 0.000000 1.000000 166.229507 107.680626)"
	>+</text>
<text x="0" y="0" style="font-family:Times; font-style:italic; font-weight:normal; font-size:88.345093; fill:black" transform="matrix(1.000000 -0.000000 0.000000 1.000000 516.000000 107.680626)"
	>x</text>
<text x="0" y="0" style="font-family:Times; font-style:italic; font-weight:normal; font-size:88.345093; fill:black" transform="matrix(1.000000 -0.000000 0.000000 1.000000 315.344269 107.680626)"
	>y</text>
<text x="0" y="0" style="font-family:Times; font-style:italic; font-weight:normal; font-size:88.345093; fill:black" transform="matrix(1.000000 -0.000000 0.000000 1.000000 72.590164 107.680626)"
	>x</text>
</svg>
