<?xml version="1.0" standalone="no"?>
<!DOCTYPE svg PUBLIC "-//W3C//DTD SVG 20001102//EN"
"http://www.w3.org/TR/2000/CR-SVG-20001102/DTD/svg-20001102.dtd">
<svg width="768" height="129"
	xmlns:sodipodi="http://sodipodi.sourceforge.net/DTD/sodipodi-0.dtd">
<desc>wmf2svg</desc>
<text x="0" y="0" style="font-family:Times; font-style:normal; font-weight:normal; font-size:111.768951; fill:black" transform="matrix(1.000000 -0.000000 0.000000 1.000000 737.038696 86.062088)"
	>)</text>
<text x="0" y="0" style="font-family:Times; font-style:normal; font-weight:normal; font-size:111.768951; fill:black" transform="matrix(1.000000 -0.000000 0.000000 1.000000 690.084473 86.062088)"
	>2</text>
<text x="0" y="0" style="font-family:Times; font-style:normal; font-weight:normal; font-size:111.768951; fill:black" transform="matrix(1.000000 -0.000000 0.000000 1.000000 525.033325 86.062088)"
	>(</text>
<text x="0" y="0" style="font-family:Times; font-style:normal; font-weight:normal; font-size:111.768951; fill:black" transform="matrix(1.000000 -0.000000 0.000000 1.000000 368.045044 86.062088)"
	>log</text>
<text x="0" y="0" style="font-family:Times; font-style:normal; font-weight:normal; font-size:111.768951; fill:black" transform="matrix(1.000000 -0.000000 0.000000 1.000000 246.628128 86.062088)"
	>1</text>
<text x="0" y="0" style="font-family:Times; font-style:normal; font-weight:normal; font-size:111.768951; fill:black" transform="matrix(1.000000 -0.000000 0.000000 1.000000 130.665482 86.062088)"
	>)</text>
<text x="0" y="0" style="font-family:Times; font-style:normal; font-weight:normal; font-size:111.768951; fill:black" transform="matrix(1.000000 -0.000000 0.000000 1.000000 46.954201 86.062088)"
	>(</text>
<text x="0" y="0" style="font-family:Times; font-style:normal; font-weight:normal; font-size:65.198555; fill:black" transform="matrix(1.000000 -0.000000 0.000000 1.000000 488.987701 114.004326)"
	>3</text>
<text x="0" y="0" style="font-family:Symbol; font-style:normal; font-weight:normal; font-size:111.768951; fill:black" transform="matrix(1.000000 -0.000000 0.000000 1.000000 623.684570 86.062088)"
	>-</text>
<text x="0" y="0" style="font-family:Symbol; font-style:normal; font-weight:normal; font-size:111.768951; fill:black" transform="matrix(1.000000 -0.000000 0.000000 1.000000 301.645172 86.062088)"
	>+</text>
<text x="0" y="0" style="font-family:Symbol; font-style:normal; font-weight:normal; font-size:111.768951; fill:black" transform="matrix(1.000000 -0.000000 0.000000 1.000000 183.073959 86.062088)"
	>=</text>
<text x="0" y="0" style="font-family:Times; font-style:italic; font-weight:normal; font-size:111.768951; fill:black" transform="matrix(1.000000 -0.000000 0.000000 1.000000 563.924683 86.062088)"
	>x</text>
<text x="0" y="0" style="font-family:Times; font-style:italic; font-weight:normal; font-size:111.768951; fill:black" transform="matrix(1.000000 -0.000000 0.000000 1.000000 85.845558 86.062088)"
	>x</text>
<text x="0" y="0" style="font-family:Times; font-style:italic; font-weight:normal; font-size:111.768951; fill:black" transform="matrix(1.000000 -0.000000 0.000000 1.000000 0.000000 86.062088)"
	>f</text>
</svg>
