<?xml version="1.0" standalone="no"?>
<!DOCTYPE svg PUBLIC "-//W3C//DTD SVG 20001102//EN"
"http://www.w3.org/TR/2000/CR-SVG-20001102/DTD/svg-20001102.dtd">
<svg width="768" height="226"
	xmlns:sodipodi="http://sodipodi.sourceforge.net/DTD/sodipodi-0.dtd">
<desc>wmf2svg</desc>
<text x="0" y="0" style="font-family:Times; font-style:normal; font-weight:normal; font-size:116.338173; fill:black" transform="matrix(1.000000 -0.000000 0.000000 1.000000 63.274628 89.580399)"
	>2</text>
<text x="0" y="0" style="font-family:Times; font-style:normal; font-weight:normal; font-size:116.338173; fill:black" transform="matrix(1.000000 -0.000000 0.000000 1.000000 318.716644 89.580399)"
	>2</text>
<text x="0" y="0" style="font-family:Times; font-style:normal; font-weight:normal; font-size:116.338173; fill:black" transform="matrix(1.000000 -0.000000 0.000000 1.000000 572.149902 89.580399)"
	>2</text>
<text x="0" y="0" style="font-family:Times; font-style:italic; font-weight:normal; font-size:201.233597; fill:black" transform="matrix(1.000000 -0.000000 0.000000 1.000000 0.000000 179.716278)"
	>x</text>
<text x="0" y="0" style="font-family:Times; font-style:italic; font-weight:normal; font-size:201.233597; fill:black" transform="matrix(1.000000 -0.000000 0.000000 1.000000 253.433289 179.716278)"
	>y</text>
<text x="0" y="0" style="font-family:Times; font-style:italic; font-weight:normal; font-size:201.233597; fill:black" transform="matrix(1.000000 -0.000000 0.000000 1.000000 510.884033 179.716278)"
	>r</text>
<text x="0" y="0" style="font-family:Symbol; font-style:normal; font-weight:normal; font-size:201.233597; fill:black" transform="matrix(1.000000 -0.000000 0.000000 1.000000 142.953781 179.716278)"
	>+</text>
<text x="0" y="0" style="font-family:Symbol; font-style:normal; font-weight:normal; font-size:201.233597; fill:black" transform="matrix(1.000000 -0.000000 0.000000 1.000000 406.430664 179.716278)"
	>=</text>
</svg>
