<?xml version="1.0" standalone="no"?>
<!DOCTYPE svg PUBLIC "-//W3C//DTD SVG 20001102//EN"
"http://www.w3.org/TR/2000/CR-SVG-20001102/DTD/svg-20001102.dtd">
<svg width="768" height="157"
	xmlns:sodipodi="http://sodipodi.sourceforge.net/DTD/sodipodi-0.dtd">
<desc>wmf2svg</desc>
<text x="0" y="0" style="font-family:Times; font-style:normal; font-weight:normal; font-size:139.297592; fill:black" transform="matrix(1.000000 -0.000000 0.000000 1.000000 729.766296 124.961548)"
	>)</text>
<text x="0" y="0" style="font-family:Times; font-style:normal; font-weight:normal; font-size:139.297592; fill:black" transform="matrix(1.000000 -0.000000 0.000000 1.000000 680.275757 124.961548)"
	>1</text>
<text x="0" y="0" style="font-family:Times; font-style:normal; font-weight:normal; font-size:139.297592; fill:black" transform="matrix(1.000000 -0.000000 0.000000 1.000000 399.438721 124.961548)"
	>ln(</text>
<text x="0" y="0" style="font-family:Times; font-style:normal; font-weight:normal; font-size:139.297592; fill:black" transform="matrix(1.000000 -0.000000 0.000000 1.000000 247.745712 124.961548)"
	>)</text>
<text x="0" y="0" style="font-family:Times; font-style:normal; font-weight:normal; font-size:139.297592; fill:black" transform="matrix(1.000000 -0.000000 0.000000 1.000000 144.371902 124.961548)"
	>(</text>
<text x="0" y="0" style="font-family:Times; font-style:normal; font-weight:normal; font-size:81.256927; fill:black" transform="matrix(1.000000 -0.000000 0.000000 1.000000 101.616737 62.567837)"
	>1</text>
<text x="0" y="0" style="font-family:Symbol; font-style:normal; font-weight:normal; font-size:139.297592; fill:black" transform="matrix(1.000000 -0.000000 0.000000 1.000000 608.236206 124.961548)"
	>-</text>
<text x="0" y="0" style="font-family:Symbol; font-style:normal; font-weight:normal; font-size:139.297592; fill:black" transform="matrix(1.000000 -0.000000 0.000000 1.000000 312.464142 124.961548)"
	>=</text>
<text x="0" y="0" style="font-family:Symbol; font-style:normal; font-weight:normal; font-size:81.256927; fill:black" transform="matrix(1.000000 -0.000000 0.000000 1.000000 65.596970 62.567837)"
	>-</text>
<text x="0" y="0" style="font-family:Times; font-style:italic; font-weight:normal; font-size:139.297592; fill:black" transform="matrix(1.000000 -0.000000 0.000000 1.000000 534.439636 124.961548)"
	>x</text>
<text x="0" y="0" style="font-family:Times; font-style:italic; font-weight:normal; font-size:139.297592; fill:black" transform="matrix(1.000000 -0.000000 0.000000 1.000000 192.398270 124.961548)"
	>x</text>
<text x="0" y="0" style="font-family:Times; font-style:italic; font-weight:normal; font-size:139.297592; fill:black" transform="matrix(1.000000 -0.000000 0.000000 1.000000 0.000000 124.961548)"
	>f</text>
</svg>
