<?xml version="1.0" standalone="no"?>
<!DOCTYPE svg PUBLIC "-//W3C//DTD SVG 20001102//EN"
"http://www.w3.org/TR/2000/CR-SVG-20001102/DTD/svg-20001102.dtd">
<svg width="768" height="140"
	xmlns:sodipodi="http://sodipodi.sourceforge.net/DTD/sodipodi-0.dtd">
<desc>wmf2svg</desc>
<text x="0" y="0" style="font-family:Times; font-style:normal; font-weight:normal; font-size:111.516762; fill:black" transform="matrix(1.000000 -0.000000 0.000000 1.000000 724.425537 114.351143)"
	>0</text>
<text x="0" y="0" style="font-family:Times; font-style:normal; font-weight:normal; font-size:111.516762; fill:black" transform="matrix(1.000000 -0.000000 0.000000 1.000000 552.851074 114.351143)"
	>)</text>
<text x="0" y="0" style="font-family:Times; font-style:normal; font-weight:normal; font-size:111.516762; fill:black" transform="matrix(1.000000 -0.000000 0.000000 1.000000 509.276581 114.351143)"
	>2</text>
<text x="0" y="0" style="font-family:Times; font-style:normal; font-weight:normal; font-size:111.516762; fill:black" transform="matrix(1.000000 -0.000000 0.000000 1.000000 351.319153 114.351143)"
	>(</text>
<text x="0" y="0" style="font-family:Times; font-style:normal; font-weight:normal; font-size:111.516762; fill:black" transform="matrix(1.000000 -0.000000 0.000000 1.000000 190.638290 114.351143)"
	>)</text>
<text x="0" y="0" style="font-family:Times; font-style:normal; font-weight:normal; font-size:111.516762; fill:black" transform="matrix(1.000000 -0.000000 0.000000 1.000000 153.872345 114.351143)"
	>1</text>
<text x="0" y="0" style="font-family:Times; font-style:normal; font-weight:normal; font-size:111.516762; fill:black" transform="matrix(1.000000 -0.000000 0.000000 1.000000 0.000000 114.351143)"
	>(</text>
<text x="0" y="0" style="font-family:Times; font-style:normal; font-weight:normal; font-size:83.637573; fill:black" transform="matrix(1.000000 -0.000000 0.000000 1.000000 588.709229 64.400925)"
	>2</text>
<text x="0" y="0" style="font-family:Times; font-style:normal; font-weight:normal; font-size:83.637573; fill:black" transform="matrix(1.000000 -0.000000 0.000000 1.000000 226.496460 64.400925)"
	>2</text>
<text x="0" y="0" style="font-family:Symbol; font-style:normal; font-weight:normal; font-size:111.516762; fill:black" transform="matrix(1.000000 -0.000000 0.000000 1.000000 654.978699 114.351143)"
	>=</text>
<text x="0" y="0" style="font-family:Symbol; font-style:normal; font-weight:normal; font-size:111.516762; fill:black" transform="matrix(1.000000 -0.000000 0.000000 1.000000 443.914886 114.351143)"
	>-</text>
<text x="0" y="0" style="font-family:Symbol; font-style:normal; font-weight:normal; font-size:111.516762; fill:black" transform="matrix(1.000000 -0.000000 0.000000 1.000000 287.319153 114.351143)"
	>-</text>
<text x="0" y="0" style="font-family:Symbol; font-style:normal; font-weight:normal; font-size:111.516762; fill:black" transform="matrix(1.000000 -0.000000 0.000000 1.000000 98.042557 114.351143)"
	>-</text>
<text x="0" y="0" style="font-family:Times; font-style:italic; font-weight:normal; font-size:111.516762; fill:black" transform="matrix(1.000000 -0.000000 0.000000 1.000000 386.723419 114.351143)"
	>x</text>
<text x="0" y="0" style="font-family:Times; font-style:italic; font-weight:normal; font-size:111.516762; fill:black" transform="matrix(1.000000 -0.000000 0.000000 1.000000 39.489361 114.351143)"
	>y</text>
</svg>
