<?xml version="1.0" standalone="no"?>
<!DOCTYPE svg PUBLIC "-//W3C//DTD SVG 20001102//EN"
"http://www.w3.org/TR/2000/CR-SVG-20001102/DTD/svg-20001102.dtd">
<svg width="768" height="217"
	xmlns:sodipodi="http://sodipodi.sourceforge.net/DTD/sodipodi-0.dtd">
<desc>wmf2svg</desc>
<text x="0" y="0" style="font-family:Symbol; font-style:normal; font-weight:normal; font-size:98.729858; fill:black" transform="matrix(1.000000 -0.000000 0.000000 1.000000 719.981995 194.292130)"
	>q</text>
<text x="0" y="0" style="font-family:Symbol; font-style:normal; font-weight:normal; font-size:98.729858; fill:black" transform="matrix(1.000000 -0.000000 0.000000 1.000000 380.912323 194.292130)"
	>q</text>
<text x="0" y="0" style="font-family:Symbol; font-style:normal; font-weight:normal; font-size:98.729858; fill:black" transform="matrix(1.000000 -0.000000 0.000000 1.000000 701.224915 76.021988)"
	>q</text>
<text x="0" y="0" style="font-family:Symbol; font-style:normal; font-weight:normal; font-size:98.729858; fill:black" transform="matrix(1.000000 -0.000000 0.000000 1.000000 375.140900 76.021988)"
	>q</text>
<text x="0" y="0" style="font-family:Times; font-style:normal; font-weight:normal; font-size:98.729858; fill:black" transform="matrix(1.000000 -0.000000 0.000000 1.000000 593.011230 194.292130)"
	>cos</text>
<text x="0" y="0" style="font-family:Times; font-style:normal; font-weight:normal; font-size:98.729858; fill:black" transform="matrix(1.000000 -0.000000 0.000000 1.000000 265.484344 194.292130)"
	>sin</text>
<text x="0" y="0" style="font-family:Times; font-style:normal; font-weight:normal; font-size:98.729858; fill:black" transform="matrix(1.000000 -0.000000 0.000000 1.000000 59.156837 194.292130)"
	> </text>
<text x="0" y="0" style="font-family:Times; font-style:normal; font-weight:normal; font-size:98.729858; fill:black" transform="matrix(1.000000 -0.000000 0.000000 1.000000 49.056889 194.292130)"
	>'</text>
<text x="0" y="0" style="font-family:Times; font-style:normal; font-weight:normal; font-size:98.729858; fill:black" transform="matrix(1.000000 -0.000000 0.000000 1.000000 585.796936 76.021988)"
	>sin</text>
<text x="0" y="0" style="font-family:Times; font-style:normal; font-weight:normal; font-size:98.729858; fill:black" transform="matrix(1.000000 -0.000000 0.000000 1.000000 248.170135 76.021988)"
	>cos</text>
<text x="0" y="0" style="font-family:Times; font-style:normal; font-weight:normal; font-size:98.729858; fill:black" transform="matrix(1.000000 -0.000000 0.000000 1.000000 122.642220 76.021988)"
	>   </text>
<text x="0" y="0" style="font-family:Times; font-style:normal; font-weight:normal; font-size:98.729858; fill:black" transform="matrix(1.000000 -0.000000 0.000000 1.000000 53.385437 76.021988)"
	> </text>
<text x="0" y="0" style="font-family:Times; font-style:normal; font-weight:normal; font-size:98.729858; fill:black" transform="matrix(1.000000 -0.000000 0.000000 1.000000 43.285488 76.021988)"
	>'</text>
<text x="0" y="0" style="font-family:Times; font-style:italic; font-weight:normal; font-size:98.729858; fill:black" transform="matrix(1.000000 -0.000000 0.000000 1.000000 538.182922 194.292130)"
	>y</text>
<text x="0" y="0" style="font-family:Times; font-style:italic; font-weight:normal; font-size:98.729858; fill:black" transform="matrix(1.000000 -0.000000 0.000000 1.000000 213.541748 194.292130)"
	>x</text>
<text x="0" y="0" style="font-family:Times; font-style:italic; font-weight:normal; font-size:98.729858; fill:black" transform="matrix(1.000000 -0.000000 0.000000 1.000000 4.328549 194.292130)"
	>y</text>
<text x="0" y="0" style="font-family:Times; font-style:italic; font-weight:normal; font-size:98.729858; fill:black" transform="matrix(1.000000 -0.000000 0.000000 1.000000 532.411499 76.021988)"
	>y</text>
<text x="0" y="0" style="font-family:Times; font-style:italic; font-weight:normal; font-size:98.729858; fill:black" transform="matrix(1.000000 -0.000000 0.000000 1.000000 194.784698 76.021988)"
	>x</text>
<text x="0" y="0" style="font-family:Times; font-style:italic; font-weight:normal; font-size:98.729858; fill:black" transform="matrix(1.000000 -0.000000 0.000000 1.000000 0.000000 76.021988)"
	>x</text>
<text x="0" y="0" style="font-family:Symbol; font-style:normal; font-weight:normal; font-size:98.729858; fill:black" transform="matrix(1.000000 -0.000000 0.000000 1.000000 458.826202 194.292130)"
	>+</text>
<text x="0" y="0" style="font-family:Symbol; font-style:normal; font-weight:normal; font-size:98.729858; fill:black" transform="matrix(1.000000 -0.000000 0.000000 1.000000 155.827759 194.292130)"
	>-</text>
<text x="0" y="0" style="font-family:Symbol; font-style:normal; font-weight:normal; font-size:98.729858; fill:black" transform="matrix(1.000000 -0.000000 0.000000 1.000000 80.799583 194.292130)"
	>=</text>
<text x="0" y="0" style="font-family:Symbol; font-style:normal; font-weight:normal; font-size:98.729858; fill:black" transform="matrix(1.000000 -0.000000 0.000000 1.000000 453.054779 76.021988)"
	>+</text>
<text x="0" y="0" style="font-family:Symbol; font-style:normal; font-weight:normal; font-size:98.729858; fill:black" transform="matrix(1.000000 -0.000000 0.000000 1.000000 75.028183 76.021988)"
	>=</text>
</svg>
