<?xml version="1.0" standalone="no"?>
<!DOCTYPE svg PUBLIC "-//W3C//DTD SVG 20001102//EN"
"http://www.w3.org/TR/2000/CR-SVG-20001102/DTD/svg-20001102.dtd">
<svg width="768" height="122"
	xmlns:sodipodi="http://sodipodi.sourceforge.net/DTD/sodipodi-0.dtd">
<desc>wmf2svg</desc>
<text x="0" y="0" style="font-family:Times; font-style:normal; font-weight:normal; font-size:62.802021; fill:black" transform="matrix(1.000000 -0.000000 0.000000 1.000000 200.322586 48.357555)"
	>2</text>
<text x="0" y="0" style="font-family:Times; font-style:normal; font-weight:normal; font-size:62.802021; fill:black" transform="matrix(1.000000 -0.000000 0.000000 1.000000 508.258057 48.357555)"
	>2</text>
<text x="0" y="0" style="font-family:Times; font-style:normal; font-weight:normal; font-size:62.802021; fill:black" transform="matrix(1.000000 -0.000000 0.000000 1.000000 654.774170 48.357555)"
	>2</text>
<text x="0" y="0" style="font-family:Times; font-style:normal; font-weight:normal; font-size:108.630524; fill:black" transform="matrix(1.000000 -0.000000 0.000000 1.000000 0.000000 97.014977)"
	>(</text>
<text x="0" y="0" style="font-family:Times; font-style:normal; font-weight:normal; font-size:108.630524; fill:black" transform="matrix(1.000000 -0.000000 0.000000 1.000000 173.032257 97.014977)"
	>)</text>
<text x="0" y="0" style="font-family:Times; font-style:normal; font-weight:normal; font-size:108.630524; fill:black" transform="matrix(1.000000 -0.000000 0.000000 1.000000 302.129028 97.014977)"
	>(</text>
<text x="0" y="0" style="font-family:Times; font-style:normal; font-weight:normal; font-size:108.630524; fill:black" transform="matrix(1.000000 -0.000000 0.000000 1.000000 480.967743 97.014977)"
	>)</text>
<text x="0" y="0" style="font-family:Times; font-style:italic; font-weight:normal; font-size:108.630524; fill:black" transform="matrix(1.000000 -0.000000 0.000000 1.000000 30.193548 97.014977)"
	>x</text>
<text x="0" y="0" style="font-family:Times; font-style:italic; font-weight:normal; font-size:108.630524; fill:black" transform="matrix(1.000000 -0.000000 0.000000 1.000000 134.709671 97.014977)"
	>h</text>
<text x="0" y="0" style="font-family:Times; font-style:italic; font-weight:normal; font-size:108.630524; fill:black" transform="matrix(1.000000 -0.000000 0.000000 1.000000 335.806458 97.014977)"
	>y</text>
<text x="0" y="0" style="font-family:Times; font-style:italic; font-weight:normal; font-size:108.630524; fill:black" transform="matrix(1.000000 -0.000000 0.000000 1.000000 441.483856 97.014977)"
	>k</text>
<text x="0" y="0" style="font-family:Times; font-style:italic; font-weight:normal; font-size:108.630524; fill:black" transform="matrix(1.000000 -0.000000 0.000000 1.000000 619.354858 97.014977)"
	>r</text>
<text x="0" y="0" style="font-family:Symbol; font-style:normal; font-weight:normal; font-size:108.630524; fill:black" transform="matrix(1.000000 -0.000000 0.000000 1.000000 78.967743 97.014977)"
	>-</text>
<text x="0" y="0" style="font-family:Symbol; font-style:normal; font-weight:normal; font-size:108.630524; fill:black" transform="matrix(1.000000 -0.000000 0.000000 1.000000 246.387100 97.014977)"
	>+</text>
<text x="0" y="0" style="font-family:Symbol; font-style:normal; font-weight:normal; font-size:108.630524; fill:black" transform="matrix(1.000000 -0.000000 0.000000 1.000000 385.741943 97.014977)"
	>-</text>
<text x="0" y="0" style="font-family:Symbol; font-style:normal; font-weight:normal; font-size:108.630524; fill:black" transform="matrix(1.000000 -0.000000 0.000000 1.000000 558.967712 97.014977)"
	>=</text>
</svg>
