<?xml version="1.0" standalone="no"?>
<!DOCTYPE svg PUBLIC "-//W3C//DTD SVG 20001102//EN"
"http://www.w3.org/TR/2000/CR-SVG-20001102/DTD/svg-20001102.dtd">
<svg width="768" height="95"
	xmlns:sodipodi="http://sodipodi.sourceforge.net/DTD/sodipodi-0.dtd">
<desc>wmf2svg</desc>
<line x1="1.059310" y1="63.333332" x2="7.547586" y2="58.809525" 
	style="stroke-width:2.351827; stroke-linecap:round; stroke-linejoin:round; stroke-dasharray:none; stroke:black" />
<line x1="7.547586" y1="60.102039" x2="16.948965" y2="92.414963" 
	style="stroke-width:4.703655; stroke-linecap:round; stroke-linejoin:round; stroke-dasharray:none; stroke:black" />
<line x1="18.008276" y1="92.414963" x2="30.455172" y2="1.292517" 
	style="stroke-width:2.351827; stroke-linecap:round; stroke-linejoin:round; stroke-dasharray:none; stroke:black" />
<line x1="30.455172" y1="1.292517" x2="304.022064" y2="1.292517" 
	style="stroke-width:2.351827; stroke-linecap:round; stroke-linejoin:round; stroke-dasharray:none; stroke:black" />
<line x1="463.183441" y1="63.333332" x2="469.671722" y2="58.809525" 
	style="stroke-width:2.351827; stroke-linecap:round; stroke-linejoin:round; stroke-dasharray:none; stroke:black" />
<line x1="469.671722" y1="60.102039" x2="479.073090" y2="92.414963" 
	style="stroke-width:4.703655; stroke-linecap:round; stroke-linejoin:round; stroke-dasharray:none; stroke:black" />
<line x1="480.132416" y1="92.414963" x2="492.579315" y2="1.292517" 
	style="stroke-width:2.351827; stroke-linecap:round; stroke-linejoin:round; stroke-dasharray:none; stroke:black" />
<line x1="492.579315" y1="1.292517" x2="766.940674" y2="1.292517" 
	style="stroke-width:2.351827; stroke-linecap:round; stroke-linejoin:round; stroke-dasharray:none; stroke:black" />
<text x="0" y="0" style="font-family:Times; font-style:normal; font-weight:normal; font-size:46.530613; fill:black" transform="matrix(1.000000 -0.000000 0.000000 1.000000 739.133789 48.469387)"
	>2</text>
<text x="0" y="0" style="font-family:Times; font-style:normal; font-weight:normal; font-size:46.530613; fill:black" transform="matrix(1.000000 -0.000000 0.000000 1.000000 631.878601 48.469387)"
	>2</text>
<text x="0" y="0" style="font-family:Times; font-style:normal; font-weight:normal; font-size:46.530613; fill:black" transform="matrix(1.000000 -0.000000 0.000000 1.000000 276.215179 48.469387)"
	>2</text>
<text x="0" y="0" style="font-family:Times; font-style:normal; font-weight:normal; font-size:46.530613; fill:black" transform="matrix(1.000000 -0.000000 0.000000 1.000000 168.960007 48.469387)"
	>2</text>
<text x="0" y="0" style="font-family:Times; font-style:normal; font-weight:normal; font-size:62.040817; fill:black" transform="matrix(1.000000 -0.000000 0.000000 1.000000 610.957214 76.258507)"
	>)</text>
<text x="0" y="0" style="font-family:Times; font-style:normal; font-weight:normal; font-size:62.040817; fill:black" transform="matrix(1.000000 -0.000000 0.000000 1.000000 494.962769 76.258507)"
	>(</text>
<text x="0" y="0" style="font-family:Times; font-style:normal; font-weight:normal; font-size:62.040817; fill:black" transform="matrix(1.000000 -0.000000 0.000000 1.000000 360.430359 76.258507)"
	>2</text>
<text x="0" y="0" style="font-family:Times; font-style:normal; font-weight:normal; font-size:62.040817; fill:black" transform="matrix(1.000000 -0.000000 0.000000 1.000000 148.038620 76.258507)"
	>)</text>
<text x="0" y="0" style="font-family:Times; font-style:normal; font-weight:normal; font-size:62.040817; fill:black" transform="matrix(1.000000 -0.000000 0.000000 1.000000 32.838619 76.258507)"
	>(</text>
<text x="0" y="0" style="font-family:Times; font-style:italic; font-weight:normal; font-size:62.040817; fill:black" transform="matrix(1.000000 -0.000000 0.000000 1.000000 711.062073 76.258507)"
	>y</text>
<text x="0" y="0" style="font-family:Times; font-style:italic; font-weight:normal; font-size:62.040817; fill:black" transform="matrix(1.000000 -0.000000 0.000000 1.000000 587.122742 76.258507)"
	>c</text>
<text x="0" y="0" style="font-family:Times; font-style:italic; font-weight:normal; font-size:62.040817; fill:black" transform="matrix(1.000000 -0.000000 0.000000 1.000000 515.619324 76.258507)"
	>x</text>
<text x="0" y="0" style="font-family:Times; font-style:italic; font-weight:normal; font-size:62.040817; fill:black" transform="matrix(1.000000 -0.000000 0.000000 1.000000 386.648285 76.258507)"
	>a</text>
<text x="0" y="0" style="font-family:Times; font-style:italic; font-weight:normal; font-size:62.040817; fill:black" transform="matrix(1.000000 -0.000000 0.000000 1.000000 248.143448 76.258507)"
	>y</text>
<text x="0" y="0" style="font-family:Times; font-style:italic; font-weight:normal; font-size:62.040817; fill:black" transform="matrix(1.000000 -0.000000 0.000000 1.000000 124.204140 76.258507)"
	>c</text>
<text x="0" y="0" style="font-family:Times; font-style:italic; font-weight:normal; font-size:62.040817; fill:black" transform="matrix(1.000000 -0.000000 0.000000 1.000000 53.495171 76.258507)"
	>x</text>
<text x="0" y="0" style="font-family:Symbol; font-style:normal; font-weight:normal; font-size:62.040817; fill:black" transform="matrix(1.000000 -0.000000 0.000000 1.000000 667.365540 76.258507)"
	>+</text>
<text x="0" y="0" style="font-family:Symbol; font-style:normal; font-weight:normal; font-size:62.040817; fill:black" transform="matrix(1.000000 -0.000000 0.000000 1.000000 548.987610 76.258507)"
	>+</text>
<text x="0" y="0" style="font-family:Symbol; font-style:normal; font-weight:normal; font-size:62.040817; fill:black" transform="matrix(1.000000 -0.000000 0.000000 1.000000 423.194489 76.258507)"
	>-</text>
<text x="0" y="0" style="font-family:Symbol; font-style:normal; font-weight:normal; font-size:62.040817; fill:black" transform="matrix(1.000000 -0.000000 0.000000 1.000000 319.117249 76.258507)"
	>=</text>
<text x="0" y="0" style="font-family:Symbol; font-style:normal; font-weight:normal; font-size:62.040817; fill:black" transform="matrix(1.000000 -0.000000 0.000000 1.000000 204.446899 76.258507)"
	>+</text>
<text x="0" y="0" style="font-family:Symbol; font-style:normal; font-weight:normal; font-size:62.040817; fill:black" transform="matrix(1.000000 -0.000000 0.000000 1.000000 86.863449 76.258507)"
	>-</text>
</svg>
