<?xml version="1.0" standalone="no"?>
<!DOCTYPE svg PUBLIC "-//W3C//DTD SVG 20001102//EN"
"http://www.w3.org/TR/2000/CR-SVG-20001102/DTD/svg-20001102.dtd">
<svg width="768" height="209"
	xmlns:sodipodi="http://sodipodi.sourceforge.net/DTD/sodipodi-0.dtd">
<desc>wmf2svg</desc>
<text x="0" y="0" style="font-family:Times; font-style:normal; font-weight:normal; font-size:181.083023; fill:black" transform="matrix(1.000000 -0.000000 0.000000 1.000000 691.795349 139.433929)"
	>0</text>
<text x="0" y="0" style="font-family:Times; font-style:normal; font-weight:normal; font-size:181.083023; fill:black" transform="matrix(1.000000 -0.000000 0.000000 1.000000 414.759705 139.433929)"
	>log</text>
<text x="0" y="0" style="font-family:Times; font-style:normal; font-weight:normal; font-size:181.083023; fill:black" transform="matrix(1.000000 -0.000000 0.000000 1.000000 209.165894 139.433929)"
	>)</text>
<text x="0" y="0" style="font-family:Times; font-style:normal; font-weight:normal; font-size:181.083023; fill:black" transform="matrix(1.000000 -0.000000 0.000000 1.000000 132.564346 139.433929)"
	>0</text>
<text x="0" y="0" style="font-family:Times; font-style:normal; font-weight:normal; font-size:181.083023; fill:black" transform="matrix(1.000000 -0.000000 0.000000 1.000000 78.586044 139.433929)"
	>(</text>
<text x="0" y="0" style="font-family:Times; font-style:normal; font-weight:normal; font-size:105.631767; fill:black" transform="matrix(1.000000 -0.000000 0.000000 1.000000 615.987610 184.704681)"
	>5</text>
<text x="0" y="0" style="font-family:Symbol; font-style:normal; font-weight:normal; font-size:181.083023; fill:black" transform="matrix(1.000000 -0.000000 0.000000 1.000000 296.880615 139.433929)"
	>=</text>
<text x="0" y="0" style="font-family:Times; font-style:italic; font-weight:normal; font-size:181.083023; fill:black" transform="matrix(1.000000 -0.000000 0.000000 1.000000 0.000000 139.433929)"
	>f</text>
</svg>
