<?xml version="1.0" standalone="no"?>
<!DOCTYPE svg PUBLIC "-//W3C//DTD SVG 20001102//EN"
"http://www.w3.org/TR/2000/CR-SVG-20001102/DTD/svg-20001102.dtd">
<svg width="768" height="429"
	xmlns:sodipodi="http://sodipodi.sourceforge.net/DTD/sodipodi-0.dtd">
<desc>wmf2svg</desc>
<line x1="343.536407" y1="277.018585" x2="381.968597" y2="259.457184" 
	style="stroke-width:11.292181; stroke-linecap:round; stroke-linejoin:round; stroke-dasharray:none; stroke:black" />
<line x1="381.968597" y1="264.474731" x2="437.655975" y2="346.009796" 
	style="stroke-width:22.584362; stroke-linecap:round; stroke-linejoin:round; stroke-dasharray:none; stroke:black" />
<line x1="443.930603" y1="346.009796" x2="517.657593" y2="102.658928" 
	style="stroke-width:11.292181; stroke-linecap:round; stroke-linejoin:round; stroke-dasharray:none; stroke:black" />
<line x1="517.657593" y1="102.658928" x2="683.935486" y2="102.658928" 
	style="stroke-width:11.292181; stroke-linecap:round; stroke-linejoin:round; stroke-dasharray:none; stroke:black" />
<text x="0" y="0" style="font-family:Symbol; font-style:normal; font-weight:normal; font-size:429.000000; fill:black" transform="matrix(1.000000 -0.000000 0.000000 1.000000 0.000000 330.329987)"
	>(</text>
<text x="0" y="0" style="font-family:Symbol; font-style:normal; font-weight:normal; font-size:429.000000; fill:black" transform="matrix(1.000000 -0.000000 0.000000 1.000000 707.465393 330.329987)"
	>)</text>
<text x="0" y="0" style="font-family:Times; font-style:normal; font-weight:normal; font-size:240.842102; fill:black" transform="matrix(1.000000 -0.000000 0.000000 1.000000 527.069580 332.211548)"
	>5</text>
<text x="0" y="0" style="font-family:Times; font-style:normal; font-weight:normal; font-size:240.842102; fill:black" transform="matrix(1.000000 -0.000000 0.000000 1.000000 261.966125 332.211548)"
	> </text>
<text x="0" y="0" style="font-family:Times; font-style:normal; font-weight:normal; font-size:240.842102; fill:black" transform="matrix(1.000000 -0.000000 0.000000 1.000000 200.788406 332.211548)"
	>,</text>
<text x="0" y="0" style="font-family:Times; font-style:normal; font-weight:normal; font-size:240.842102; fill:black" transform="matrix(1.000000 -0.000000 0.000000 1.000000 64.315033 332.211548)"
	>3</text>
</svg>
