<?xml version="1.0" standalone="no"?>
<!DOCTYPE svg PUBLIC "-//W3C//DTD SVG 20001102//EN"
"http://www.w3.org/TR/2000/CR-SVG-20001102/DTD/svg-20001102.dtd">
<svg width="768" height="128"
	xmlns:sodipodi="http://sodipodi.sourceforge.net/DTD/sodipodi-0.dtd">
<desc>wmf2svg</desc>
<text x="0" y="0" style="font-family:Times; font-style:normal; font-weight:normal; font-size:101.958183; fill:black" transform="matrix(1.000000 -0.000000 0.000000 1.000000 728.297241 104.549614)"
	>6</text>
<text x="0" y="0" style="font-family:Times; font-style:normal; font-weight:normal; font-size:101.958183; fill:black" transform="matrix(1.000000 -0.000000 0.000000 1.000000 518.617126 104.549614)"
	>10</text>
<text x="0" y="0" style="font-family:Times; font-style:normal; font-weight:normal; font-size:101.958183; fill:black" transform="matrix(1.000000 -0.000000 0.000000 1.000000 370.972534 104.549614)"
	>2</text>
<text x="0" y="0" style="font-family:Times; font-style:normal; font-weight:normal; font-size:101.958183; fill:black" transform="matrix(1.000000 -0.000000 0.000000 1.000000 0.000000 104.549614)"
	>4</text>
<text x="0" y="0" style="font-family:Times; font-style:normal; font-weight:normal; font-size:76.468636; fill:black" transform="matrix(1.000000 -0.000000 0.000000 1.000000 254.759293 58.880848)"
	>2</text>
<text x="0" y="0" style="font-family:Times; font-style:normal; font-weight:normal; font-size:76.468636; fill:black" transform="matrix(1.000000 -0.000000 0.000000 1.000000 87.263329 58.880848)"
	>2</text>
<text x="0" y="0" style="font-family:Symbol; font-style:normal; font-weight:normal; font-size:101.958183; fill:black" transform="matrix(1.000000 -0.000000 0.000000 1.000000 665.020996 104.549614)"
	>=</text>
<text x="0" y="0" style="font-family:Symbol; font-style:normal; font-weight:normal; font-size:101.958183; fill:black" transform="matrix(1.000000 -0.000000 0.000000 1.000000 467.747986 104.549614)"
	>-</text>
<text x="0" y="0" style="font-family:Symbol; font-style:normal; font-weight:normal; font-size:101.958183; fill:black" transform="matrix(1.000000 -0.000000 0.000000 1.000000 310.177704 104.549614)"
	>+</text>
<text x="0" y="0" style="font-family:Symbol; font-style:normal; font-weight:normal; font-size:101.958183; fill:black" transform="matrix(1.000000 -0.000000 0.000000 1.000000 142.681747 104.549614)"
	>+</text>
<text x="0" y="0" style="font-family:Times; font-style:italic; font-weight:normal; font-size:101.958183; fill:black" transform="matrix(1.000000 -0.000000 0.000000 1.000000 606.707581 104.549614)"
	>y</text>
<text x="0" y="0" style="font-family:Times; font-style:italic; font-weight:normal; font-size:101.958183; fill:black" transform="matrix(1.000000 -0.000000 0.000000 1.000000 415.638123 104.549614)"
	>x</text>
<text x="0" y="0" style="font-family:Times; font-style:italic; font-weight:normal; font-size:101.958183; fill:black" transform="matrix(1.000000 -0.000000 0.000000 1.000000 210.920837 104.549614)"
	>y</text>
<text x="0" y="0" style="font-family:Times; font-style:italic; font-weight:normal; font-size:101.958183; fill:black" transform="matrix(1.000000 -0.000000 0.000000 1.000000 44.665588 104.549614)"
	>x</text>
</svg>
