<?xml version="1.0" standalone="no"?>
<!DOCTYPE svg PUBLIC "-//W3C//DTD SVG 20001102//EN"
"http://www.w3.org/TR/2000/CR-SVG-20001102/DTD/svg-20001102.dtd">
<svg width="768" height="228"
	xmlns:sodipodi="http://sodipodi.sourceforge.net/DTD/sodipodi-0.dtd">
<desc>wmf2svg</desc>
<text x="0" y="0" style="font-family:Symbol; font-style:normal; font-weight:normal; font-size:103.734596; fill:black" transform="matrix(1.000000 -0.000000 0.000000 1.000000 717.813416 204.141037)"
	>q</text>
<text x="0" y="0" style="font-family:Symbol; font-style:normal; font-weight:normal; font-size:103.734596; fill:black" transform="matrix(1.000000 -0.000000 0.000000 1.000000 348.350616 204.141037)"
	>q</text>
<text x="0" y="0" style="font-family:Symbol; font-style:normal; font-weight:normal; font-size:103.734596; fill:black" transform="matrix(1.000000 -0.000000 0.000000 1.000000 710.273315 79.875641)"
	>q</text>
<text x="0" y="0" style="font-family:Symbol; font-style:normal; font-weight:normal; font-size:103.734596; fill:black" transform="matrix(1.000000 -0.000000 0.000000 1.000000 355.890686 79.875641)"
	>q</text>
<text x="0" y="0" style="font-family:Times; font-style:normal; font-weight:normal; font-size:103.734596; fill:black" transform="matrix(1.000000 -0.000000 0.000000 1.000000 585.108398 204.141037)"
	>cos</text>
<text x="0" y="0" style="font-family:Times; font-style:normal; font-weight:normal; font-size:103.734596; fill:black" transform="matrix(1.000000 -0.000000 0.000000 1.000000 559.472229 204.141037)"
	>'</text>
<text x="0" y="0" style="font-family:Times; font-style:normal; font-weight:normal; font-size:103.734596; fill:black" transform="matrix(1.000000 -0.000000 0.000000 1.000000 227.709717 204.141037)"
	>sin</text>
<text x="0" y="0" style="font-family:Times; font-style:normal; font-weight:normal; font-size:103.734596; fill:black" transform="matrix(1.000000 -0.000000 0.000000 1.000000 203.581528 204.141037)"
	>'</text>
<text x="0" y="0" style="font-family:Times; font-style:normal; font-weight:normal; font-size:103.734596; fill:black" transform="matrix(1.000000 -0.000000 0.000000 1.000000 589.632446 79.875641)"
	>sin</text>
<text x="0" y="0" style="font-family:Times; font-style:normal; font-weight:normal; font-size:103.734596; fill:black" transform="matrix(1.000000 -0.000000 0.000000 1.000000 565.504272 79.875641)"
	>'</text>
<text x="0" y="0" style="font-family:Times; font-style:normal; font-weight:normal; font-size:103.734596; fill:black" transform="matrix(1.000000 -0.000000 0.000000 1.000000 223.185684 79.875641)"
	>cos</text>
<text x="0" y="0" style="font-family:Times; font-style:normal; font-weight:normal; font-size:103.734596; fill:black" transform="matrix(1.000000 -0.000000 0.000000 1.000000 197.549484 79.875641)"
	>'</text>
<text x="0" y="0" style="font-family:Times; font-style:italic; font-weight:normal; font-size:103.734596; fill:black" transform="matrix(1.000000 -0.000000 0.000000 1.000000 512.723877 204.141037)"
	>y</text>
<text x="0" y="0" style="font-family:Times; font-style:italic; font-weight:normal; font-size:103.734596; fill:black" transform="matrix(1.000000 -0.000000 0.000000 1.000000 158.341187 204.141037)"
	>x</text>
<text x="0" y="0" style="font-family:Times; font-style:italic; font-weight:normal; font-size:103.734596; fill:black" transform="matrix(1.000000 -0.000000 0.000000 1.000000 4.524034 204.141037)"
	>y</text>
<text x="0" y="0" style="font-family:Times; font-style:italic; font-weight:normal; font-size:103.734596; fill:black" transform="matrix(1.000000 -0.000000 0.000000 1.000000 518.755920 79.875641)"
	>y</text>
<text x="0" y="0" style="font-family:Times; font-style:italic; font-weight:normal; font-size:103.734596; fill:black" transform="matrix(1.000000 -0.000000 0.000000 1.000000 152.309143 79.875641)"
	>x</text>
<text x="0" y="0" style="font-family:Times; font-style:italic; font-weight:normal; font-size:103.734596; fill:black" transform="matrix(1.000000 -0.000000 0.000000 1.000000 0.000000 79.875641)"
	>x</text>
<text x="0" y="0" style="font-family:Symbol; font-style:normal; font-weight:normal; font-size:103.734596; fill:black" transform="matrix(1.000000 -0.000000 0.000000 1.000000 429.783234 204.141037)"
	>+</text>
<text x="0" y="0" style="font-family:Symbol; font-style:normal; font-weight:normal; font-size:103.734596; fill:black" transform="matrix(1.000000 -0.000000 0.000000 1.000000 75.400566 204.141037)"
	>=</text>
<text x="0" y="0" style="font-family:Symbol; font-style:normal; font-weight:normal; font-size:103.734596; fill:black" transform="matrix(1.000000 -0.000000 0.000000 1.000000 437.323303 79.875641)"
	>-</text>
<text x="0" y="0" style="font-family:Symbol; font-style:normal; font-weight:normal; font-size:103.734596; fill:black" transform="matrix(1.000000 -0.000000 0.000000 1.000000 69.368523 79.875641)"
	>=</text>
</svg>
