<?xml version="1.0" standalone="no"?>
<!DOCTYPE svg PUBLIC "-//W3C//DTD SVG 20001102//EN"
"http://www.w3.org/TR/2000/CR-SVG-20001102/DTD/svg-20001102.dtd">
<svg width="768" height="181"
	xmlns:sodipodi="http://sodipodi.sourceforge.net/DTD/sodipodi-0.dtd">
<desc>wmf2svg</desc>
<text x="0" y="0" style="font-family:Times; font-style:normal; font-weight:normal; font-size:160.591492; fill:black" transform="matrix(1.000000 -0.000000 0.000000 1.000000 703.776978 144.063950)"
	>2</text>
<text x="0" y="0" style="font-family:Times; font-style:normal; font-weight:normal; font-size:160.591492; fill:black" transform="matrix(1.000000 -0.000000 0.000000 1.000000 462.606262 144.063950)"
	>3</text>
<text x="0" y="0" style="font-family:Times; font-style:normal; font-weight:normal; font-size:160.591492; fill:black" transform="matrix(1.000000 -0.000000 0.000000 1.000000 289.337982 144.063950)"
	>)</text>
<text x="0" y="0" style="font-family:Times; font-style:normal; font-weight:normal; font-size:160.591492; fill:black" transform="matrix(1.000000 -0.000000 0.000000 1.000000 171.261322 144.063950)"
	>(</text>
<text x="0" y="0" style="font-family:Times; font-style:normal; font-weight:normal; font-size:93.678375; fill:black" transform="matrix(1.000000 -0.000000 0.000000 1.000000 122.425087 72.132347)"
	>1</text>
<text x="0" y="0" style="font-family:Symbol; font-style:normal; font-weight:normal; font-size:160.591492; fill:black" transform="matrix(1.000000 -0.000000 0.000000 1.000000 608.445984 144.063950)"
	>+</text>
<text x="0" y="0" style="font-family:Symbol; font-style:normal; font-weight:normal; font-size:160.591492; fill:black" transform="matrix(1.000000 -0.000000 0.000000 1.000000 363.261322 144.063950)"
	>=</text>
<text x="0" y="0" style="font-family:Symbol; font-style:normal; font-weight:normal; font-size:93.678375; fill:black" transform="matrix(1.000000 -0.000000 0.000000 1.000000 81.282227 72.132347)"
	>-</text>
<text x="0" y="0" style="font-family:Times; font-style:italic; font-weight:normal; font-size:93.678375; fill:black" transform="matrix(1.000000 -0.000000 0.000000 1.000000 532.850159 72.132347)"
	>x</text>
<text x="0" y="0" style="font-family:Times; font-style:italic; font-weight:normal; font-size:160.591492; fill:black" transform="matrix(1.000000 -0.000000 0.000000 1.000000 226.118469 144.063950)"
	>x</text>
<text x="0" y="0" style="font-family:Times; font-style:italic; font-weight:normal; font-size:160.591492; fill:black" transform="matrix(1.000000 -0.000000 0.000000 1.000000 0.000000 144.063950)"
	>g</text>
</svg>
