<?xml version="1.0" standalone="no"?>
<!DOCTYPE svg PUBLIC "-//W3C//DTD SVG 20001102//EN"
"http://www.w3.org/TR/2000/CR-SVG-20001102/DTD/svg-20001102.dtd">
<svg width="768" height="94"
	xmlns:sodipodi="http://sodipodi.sourceforge.net/DTD/sodipodi-0.dtd">
<desc>wmf2svg</desc>
<line x1="81.870804" y1="29.949867" x2="86.663879" y2="26.969074" 
	style="stroke-width:1.628910; stroke-linecap:round; stroke-linejoin:round; stroke-dasharray:none; stroke:black" />
<line x1="86.663879" y1="27.820730" x2="93.529625" y2="41.447208" 
	style="stroke-width:3.257819; stroke-linecap:round; stroke-linejoin:round; stroke-dasharray:none; stroke:black" />
<line x1="94.306877" y1="41.447208" x2="103.374847" y2="0.851655" 
	style="stroke-width:1.628910; stroke-linecap:round; stroke-linejoin:round; stroke-dasharray:none; stroke:black" />
<line x1="103.374847" y1="0.851655" x2="126.692482" y2="0.851655" 
	style="stroke-width:1.628910; stroke-linecap:round; stroke-linejoin:round; stroke-dasharray:none; stroke:black" />
<line x1="76.948196" y1="48.260448" x2="130.837845" y2="48.260448" 
	style="stroke-width:2.171879; stroke-linecap:round; stroke-linejoin:round; stroke-dasharray:none; stroke:black" />
<line x1="213.485901" y1="29.949867" x2="218.278976" y2="26.969074" 
	style="stroke-width:1.628910; stroke-linecap:round; stroke-linejoin:round; stroke-dasharray:none; stroke:black" />
<line x1="218.278976" y1="27.820730" x2="225.144714" y2="41.447208" 
	style="stroke-width:3.257819; stroke-linecap:round; stroke-linejoin:round; stroke-dasharray:none; stroke:black" />
<line x1="225.921982" y1="41.447208" x2="234.989944" y2="0.851655" 
	style="stroke-width:1.628910; stroke-linecap:round; stroke-linejoin:round; stroke-dasharray:none; stroke:black" />
<line x1="234.989944" y1="0.851655" x2="258.307587" y2="0.851655" 
	style="stroke-width:1.628910; stroke-linecap:round; stroke-linejoin:round; stroke-dasharray:none; stroke:black" />
<line x1="208.563293" y1="48.260448" x2="262.452942" y2="48.260448" 
	style="stroke-width:2.171879; stroke-linecap:round; stroke-linejoin:round; stroke-dasharray:none; stroke:black" />
<line x1="532.419312" y1="29.949867" x2="537.212402" y2="26.969074" 
	style="stroke-width:1.628910; stroke-linecap:round; stroke-linejoin:round; stroke-dasharray:none; stroke:black" />
<line x1="537.212402" y1="27.820730" x2="544.078125" y2="41.447208" 
	style="stroke-width:3.257819; stroke-linecap:round; stroke-linejoin:round; stroke-dasharray:none; stroke:black" />
<line x1="544.855408" y1="41.447208" x2="553.923401" y2="0.851655" 
	style="stroke-width:1.628910; stroke-linecap:round; stroke-linejoin:round; stroke-dasharray:none; stroke:black" />
<line x1="553.923401" y1="0.851655" x2="577.241028" y2="0.851655" 
	style="stroke-width:1.628910; stroke-linecap:round; stroke-linejoin:round; stroke-dasharray:none; stroke:black" />
<line x1="527.496704" y1="48.260448" x2="581.386353" y2="48.260448" 
	style="stroke-width:2.171879; stroke-linecap:round; stroke-linejoin:round; stroke-dasharray:none; stroke:black" />
<line x1="664.811707" y1="29.949867" x2="669.604736" y2="26.969074" 
	style="stroke-width:1.628910; stroke-linecap:round; stroke-linejoin:round; stroke-dasharray:none; stroke:black" />
<line x1="669.604736" y1="27.820730" x2="676.470520" y2="41.447208" 
	style="stroke-width:3.257819; stroke-linecap:round; stroke-linejoin:round; stroke-dasharray:none; stroke:black" />
<line x1="677.247742" y1="41.447208" x2="686.315735" y2="0.851655" 
	style="stroke-width:1.628910; stroke-linecap:round; stroke-linejoin:round; stroke-dasharray:none; stroke:black" />
<line x1="686.315735" y1="0.851655" x2="709.633362" y2="0.851655" 
	style="stroke-width:1.628910; stroke-linecap:round; stroke-linejoin:round; stroke-dasharray:none; stroke:black" />
<line x1="659.889099" y1="48.260448" x2="713.778748" y2="48.260448" 
	style="stroke-width:2.171879; stroke-linecap:round; stroke-linejoin:round; stroke-dasharray:none; stroke:black" />
<text x="0" y="0" style="font-family:Times; font-style:normal; font-weight:normal; font-size:54.505920; fill:black" transform="matrix(1.000000 -0.000000 0.000000 1.000000 751.086914 61.886929)"
	>'</text>
<text x="0" y="0" style="font-family:Times; font-style:normal; font-weight:normal; font-size:54.505920; fill:black" transform="matrix(1.000000 -0.000000 0.000000 1.000000 615.585571 61.886929)"
	>'</text>
<text x="0" y="0" style="font-family:Times; font-style:normal; font-weight:normal; font-size:54.505920; fill:black" transform="matrix(1.000000 -0.000000 0.000000 1.000000 474.643402 61.886929)"
	> </text>
<text x="0" y="0" style="font-family:Times; font-style:normal; font-weight:normal; font-size:54.505920; fill:black" transform="matrix(1.000000 -0.000000 0.000000 1.000000 411.685791 61.886929)"
	>   </text>
<text x="0" y="0" style="font-family:Times; font-style:normal; font-weight:normal; font-size:54.505920; fill:black" transform="matrix(1.000000 -0.000000 0.000000 1.000000 340.955627 61.886929)"
	>and</text>
<text x="0" y="0" style="font-family:Times; font-style:normal; font-weight:normal; font-size:54.505920; fill:black" transform="matrix(1.000000 -0.000000 0.000000 1.000000 305.201935 61.886929)"
	>   </text>
<text x="0" y="0" style="font-family:Times; font-style:normal; font-weight:normal; font-size:54.505920; fill:black" transform="matrix(1.000000 -0.000000 0.000000 1.000000 299.761139 61.886929)"
	>'</text>
<text x="0" y="0" style="font-family:Times; font-style:normal; font-weight:normal; font-size:54.505920; fill:black" transform="matrix(1.000000 -0.000000 0.000000 1.000000 165.037033 61.886929)"
	>'</text>
<text x="0" y="0" style="font-family:Times; font-style:normal; font-weight:normal; font-size:40.879440; fill:black" transform="matrix(1.000000 -0.000000 0.000000 1.000000 678.154541 84.597733)"
	>2</text>
<text x="0" y="0" style="font-family:Times; font-style:normal; font-weight:normal; font-size:40.879440; fill:black" transform="matrix(1.000000 -0.000000 0.000000 1.000000 689.683838 39.743900)"
	>2</text>
<text x="0" y="0" style="font-family:Times; font-style:normal; font-weight:normal; font-size:40.879440; fill:black" transform="matrix(1.000000 -0.000000 0.000000 1.000000 545.762207 84.597733)"
	>2</text>
<text x="0" y="0" style="font-family:Times; font-style:normal; font-weight:normal; font-size:40.879440; fill:black" transform="matrix(1.000000 -0.000000 0.000000 1.000000 557.291504 39.743900)"
	>2</text>
<text x="0" y="0" style="font-family:Times; font-style:normal; font-weight:normal; font-size:40.879440; fill:black" transform="matrix(1.000000 -0.000000 0.000000 1.000000 226.828766 84.597733)"
	>2</text>
<text x="0" y="0" style="font-family:Times; font-style:normal; font-weight:normal; font-size:40.879440; fill:black" transform="matrix(1.000000 -0.000000 0.000000 1.000000 238.358047 39.743900)"
	>2</text>
<text x="0" y="0" style="font-family:Times; font-style:normal; font-weight:normal; font-size:40.879440; fill:black" transform="matrix(1.000000 -0.000000 0.000000 1.000000 95.213676 84.597733)"
	>2</text>
<text x="0" y="0" style="font-family:Times; font-style:normal; font-weight:normal; font-size:40.879440; fill:black" transform="matrix(1.000000 -0.000000 0.000000 1.000000 106.742950 39.743900)"
	>2</text>
<text x="0" y="0" style="font-family:Times; font-style:italic; font-weight:normal; font-size:54.505920; fill:black" transform="matrix(1.000000 -0.000000 0.000000 1.000000 726.992065 61.886929)"
	>y</text>
<text x="0" y="0" style="font-family:Times; font-style:italic; font-weight:normal; font-size:54.505920; fill:black" transform="matrix(1.000000 -0.000000 0.000000 1.000000 592.267944 61.886929)"
	>x</text>
<text x="0" y="0" style="font-family:Times; font-style:italic; font-weight:normal; font-size:54.505920; fill:black" transform="matrix(1.000000 -0.000000 0.000000 1.000000 452.880280 61.886929)"
	>y</text>
<text x="0" y="0" style="font-family:Times; font-style:italic; font-weight:normal; font-size:54.505920; fill:black" transform="matrix(1.000000 -0.000000 0.000000 1.000000 275.666260 61.886929)"
	>y</text>
<text x="0" y="0" style="font-family:Times; font-style:italic; font-weight:normal; font-size:54.505920; fill:black" transform="matrix(1.000000 -0.000000 0.000000 1.000000 141.719406 61.886929)"
	>x</text>
<text x="0" y="0" style="font-family:Times; font-style:italic; font-weight:normal; font-size:54.505920; fill:black" transform="matrix(1.000000 -0.000000 0.000000 1.000000 0.000000 61.886929)"
	>x</text>
<text x="0" y="0" style="font-family:Symbol; font-style:normal; font-weight:normal; font-size:54.505920; fill:black" transform="matrix(1.000000 -0.000000 0.000000 1.000000 624.135376 61.886929)"
	>+</text>
<text x="0" y="0" style="font-family:Symbol; font-style:normal; font-weight:normal; font-size:54.505920; fill:black" transform="matrix(1.000000 -0.000000 0.000000 1.000000 486.302246 61.886929)"
	>=</text>
<text x="0" y="0" style="font-family:Symbol; font-style:normal; font-weight:normal; font-size:54.505920; fill:black" transform="matrix(1.000000 -0.000000 0.000000 1.000000 173.586838 61.886929)"
	>-</text>
<text x="0" y="0" style="font-family:Symbol; font-style:normal; font-weight:normal; font-size:54.505920; fill:black" transform="matrix(1.000000 -0.000000 0.000000 1.000000 35.753708 61.886929)"
	>=</text>
</svg>
