<?xml version="1.0" standalone="no"?>
<!DOCTYPE svg PUBLIC "-//W3C//DTD SVG 20001102//EN"
"http://www.w3.org/TR/2000/CR-SVG-20001102/DTD/svg-20001102.dtd">
<svg width="768" height="204"
	xmlns:sodipodi="http://sodipodi.sourceforge.net/DTD/sodipodi-0.dtd">
<desc>wmf2svg</desc>
<text x="0" y="0" style="font-family:Times; font-style:normal; font-weight:normal; font-size:204.000000; fill:black" transform="matrix(1.000000 -0.000000 0.000000 1.000000 691.079834 157.080002)"
	>}</text>
<text x="0" y="0" style="font-family:Times; font-style:normal; font-weight:normal; font-size:204.000000; fill:black" transform="matrix(1.000000 -0.000000 0.000000 1.000000 182.368286 157.080002)"
	>:</text>
<text x="0" y="0" style="font-family:Times; font-style:normal; font-weight:normal; font-size:204.000000; fill:black" transform="matrix(1.000000 -0.000000 0.000000 1.000000 0.000000 157.080002)"
	>{</text>
<text x="0" y="0" style="font-family:Symbol; font-style:normal; font-weight:normal; font-size:204.000000; fill:black" transform="matrix(1.000000 -0.000000 0.000000 1.000000 586.332825 157.080002)"
	>p</text>
<text x="0" y="0" style="font-family:Times; font-style:italic; font-weight:normal; font-size:204.000000; fill:black" transform="matrix(1.000000 -0.000000 0.000000 1.000000 506.207642 157.080002)"
	>n</text>
<text x="0" y="0" style="font-family:Times; font-style:italic; font-weight:normal; font-size:204.000000; fill:black" transform="matrix(1.000000 -0.000000 0.000000 1.000000 265.832031 157.080002)"
	>x</text>
<text x="0" y="0" style="font-family:Times; font-style:italic; font-weight:normal; font-size:204.000000; fill:black" transform="matrix(1.000000 -0.000000 0.000000 1.000000 80.125198 157.080002)"
	>x</text>
<text x="0" y="0" style="font-family:Symbol; font-style:normal; font-weight:normal; font-size:204.000000; fill:black" transform="matrix(1.000000 -0.000000 0.000000 1.000000 380.177368 157.080002)"
	>¹</text>
</svg>
