<?xml version="1.0" standalone="no"?>
<!DOCTYPE svg PUBLIC "-//W3C//DTD SVG 20001102//EN"
"http://www.w3.org/TR/2000/CR-SVG-20001102/DTD/svg-20001102.dtd">
<svg width="768" height="131"
	xmlns:sodipodi="http://sodipodi.sourceforge.net/DTD/sodipodi-0.dtd">
<desc>wmf2svg</desc>
<text x="0" y="0" style="font-family:Times; font-style:normal; font-weight:normal; font-size:67.434959; fill:black" transform="matrix(1.000000 -0.000000 0.000000 1.000000 39.483257 51.924919)"
	>2</text>
<text x="0" y="0" style="font-family:Times; font-style:normal; font-weight:normal; font-size:116.644249; fill:black" transform="matrix(1.000000 -0.000000 0.000000 1.000000 143.557083 104.171822)"
	>8</text>
<text x="0" y="0" style="font-family:Times; font-style:normal; font-weight:normal; font-size:116.644249; fill:black" transform="matrix(1.000000 -0.000000 0.000000 1.000000 295.415771 104.171822)"
	>6</text>
<text x="0" y="0" style="font-family:Times; font-style:normal; font-weight:normal; font-size:116.644249; fill:black" transform="matrix(1.000000 -0.000000 0.000000 1.000000 454.563660 104.171822)"
	>2</text>
<text x="0" y="0" style="font-family:Times; font-style:normal; font-weight:normal; font-size:116.644249; fill:black" transform="matrix(1.000000 -0.000000 0.000000 1.000000 493.439484 104.171822)"
	>5</text>
<text x="0" y="0" style="font-family:Times; font-style:normal; font-weight:normal; font-size:116.644249; fill:black" transform="matrix(1.000000 -0.000000 0.000000 1.000000 612.496704 104.171822)"
	>0</text>
<text x="0" y="0" style="font-family:Times; font-style:italic; font-weight:normal; font-size:116.644249; fill:black" transform="matrix(1.000000 -0.000000 0.000000 1.000000 0.000000 104.171822)"
	>y</text>
<text x="0" y="0" style="font-family:Times; font-style:italic; font-weight:normal; font-size:116.644249; fill:black" transform="matrix(1.000000 -0.000000 0.000000 1.000000 186.077515 104.171822)"
	>x</text>
<text x="0" y="0" style="font-family:Times; font-style:italic; font-weight:normal; font-size:116.644249; fill:black" transform="matrix(1.000000 -0.000000 0.000000 1.000000 342.795685 104.171822)"
	>y</text>
<text x="0" y="0" style="font-family:Symbol; font-style:normal; font-weight:normal; font-size:116.644249; fill:black" transform="matrix(1.000000 -0.000000 0.000000 1.000000 87.673080 104.171822)"
	>+</text>
<text x="0" y="0" style="font-family:Symbol; font-style:normal; font-weight:normal; font-size:116.644249; fill:black" transform="matrix(1.000000 -0.000000 0.000000 1.000000 237.102036 104.171822)"
	>+</text>
<text x="0" y="0" style="font-family:Symbol; font-style:normal; font-weight:normal; font-size:116.644249; fill:black" transform="matrix(1.000000 -0.000000 0.000000 1.000000 395.035065 104.171822)"
	>+</text>
<text x="0" y="0" style="font-family:Symbol; font-style:normal; font-weight:normal; font-size:116.644249; fill:black" transform="matrix(1.000000 -0.000000 0.000000 1.000000 550.538330 104.171822)"
	>=</text>
</svg>
