<?xml version="1.0" standalone="no"?>
<!DOCTYPE svg PUBLIC "-//W3C//DTD SVG 20001102//EN"
"http://www.w3.org/TR/2000/CR-SVG-20001102/DTD/svg-20001102.dtd">
<svg width="768" height="242"
	xmlns:sodipodi="http://sodipodi.sourceforge.net/DTD/sodipodi-0.dtd">
<desc>wmf2svg</desc>
<line x1="1.724874" y1="120.937271" x2="284.604156" y2="120.937271" 
	style="stroke-width:3.517334; stroke-linecap:round; stroke-linejoin:round; stroke-dasharray:none; stroke:black" />
<line x1="367.398102" y1="120.937271" x2="643.809082" y2="120.937271" 
	style="stroke-width:3.517334; stroke-linecap:round; stroke-linejoin:round; stroke-dasharray:none; stroke:black" />
<text x="0" y="0" style="font-family:Times; font-style:normal; font-weight:normal; font-size:86.038078; fill:black" transform="matrix(1.000000 -0.000000 0.000000 1.000000 726.603027 142.446793)"
	>1</text>
<text x="0" y="0" style="font-family:Times; font-style:normal; font-weight:normal; font-size:86.038078; fill:black" transform="matrix(1.000000 -0.000000 0.000000 1.000000 564.464905 88.224876)"
	>)</text>
<text x="0" y="0" style="font-family:Times; font-style:normal; font-weight:normal; font-size:86.038078; fill:black" transform="matrix(1.000000 -0.000000 0.000000 1.000000 371.710266 88.224876)"
	>(</text>
<text x="0" y="0" style="font-family:Times; font-style:normal; font-weight:normal; font-size:86.038078; fill:black" transform="matrix(1.000000 -0.000000 0.000000 1.000000 205.259964 88.224876)"
	>)</text>
<text x="0" y="0" style="font-family:Times; font-style:normal; font-weight:normal; font-size:86.038078; fill:black" transform="matrix(1.000000 -0.000000 0.000000 1.000000 6.037058 88.224876)"
	>(</text>
<text x="0" y="0" style="font-family:Times; font-style:normal; font-weight:normal; font-size:64.528557; fill:black" transform="matrix(1.000000 -0.000000 0.000000 1.000000 508.622131 183.673370)"
	>2</text>
<text x="0" y="0" style="font-family:Times; font-style:normal; font-weight:normal; font-size:64.528557; fill:black" transform="matrix(1.000000 -0.000000 0.000000 1.000000 598.531189 49.686989)"
	>2</text>
<text x="0" y="0" style="font-family:Times; font-style:normal; font-weight:normal; font-size:64.528557; fill:black" transform="matrix(1.000000 -0.000000 0.000000 1.000000 148.123520 183.673370)"
	>2</text>
<text x="0" y="0" style="font-family:Times; font-style:normal; font-weight:normal; font-size:64.528557; fill:black" transform="matrix(1.000000 -0.000000 0.000000 1.000000 239.326218 49.686989)"
	>2</text>
<text x="0" y="0" style="font-family:Symbol; font-style:normal; font-weight:normal; font-size:86.038078; fill:black" transform="matrix(1.000000 -0.000000 0.000000 1.000000 668.388550 142.446793)"
	>=</text>
<text x="0" y="0" style="font-family:Symbol; font-style:normal; font-weight:normal; font-size:86.038078; fill:black" transform="matrix(1.000000 -0.000000 0.000000 1.000000 459.678833 88.224876)"
	>-</text>
<text x="0" y="0" style="font-family:Symbol; font-style:normal; font-weight:normal; font-size:86.038078; fill:black" transform="matrix(1.000000 -0.000000 0.000000 1.000000 304.008972 142.446793)"
	>-</text>
<text x="0" y="0" style="font-family:Symbol; font-style:normal; font-weight:normal; font-size:86.038078; fill:black" transform="matrix(1.000000 -0.000000 0.000000 1.000000 99.180237 88.224876)"
	>-</text>
<text x="0" y="0" style="font-family:Times; font-style:italic; font-weight:normal; font-size:86.038078; fill:black" transform="matrix(1.000000 -0.000000 0.000000 1.000000 460.325653 222.211258)"
	>b</text>
<text x="0" y="0" style="font-family:Times; font-style:italic; font-weight:normal; font-size:86.038078; fill:black" transform="matrix(1.000000 -0.000000 0.000000 1.000000 521.774292 88.224876)"
	>h</text>
<text x="0" y="0" style="font-family:Times; font-style:italic; font-weight:normal; font-size:86.038078; fill:black" transform="matrix(1.000000 -0.000000 0.000000 1.000000 405.345306 88.224876)"
	>x</text>
<text x="0" y="0" style="font-family:Times; font-style:italic; font-weight:normal; font-size:86.038078; fill:black" transform="matrix(1.000000 -0.000000 0.000000 1.000000 98.533409 222.211258)"
	>a</text>
<text x="0" y="0" style="font-family:Times; font-style:italic; font-weight:normal; font-size:86.038078; fill:black" transform="matrix(1.000000 -0.000000 0.000000 1.000000 161.275681 88.224876)"
	>k</text>
<text x="0" y="0" style="font-family:Times; font-style:italic; font-weight:normal; font-size:86.038078; fill:black" transform="matrix(1.000000 -0.000000 0.000000 1.000000 43.553059 88.224876)"
	>y</text>
</svg>
