<?xml version="1.0" standalone="no"?>
<!DOCTYPE svg PUBLIC "-//W3C//DTD SVG 20001102//EN"
"http://www.w3.org/TR/2000/CR-SVG-20001102/DTD/svg-20001102.dtd">
<svg width="768" height="144"
	xmlns:sodipodi="http://sodipodi.sourceforge.net/DTD/sodipodi-0.dtd">
<desc>wmf2svg</desc>
<text x="0" y="0" style="font-family:Times; font-style:normal; font-weight:normal; font-size:112.390244; fill:black" transform="matrix(1.000000 -0.000000 0.000000 1.000000 735.130615 100.823410)"
	>)</text>
<text x="0" y="0" style="font-family:Times; font-style:normal; font-weight:normal; font-size:112.390244; fill:black" transform="matrix(1.000000 -0.000000 0.000000 1.000000 685.282715 100.823410)"
	>4</text>
<text x="0" y="0" style="font-family:Times; font-style:normal; font-weight:normal; font-size:112.390244; fill:black" transform="matrix(1.000000 -0.000000 0.000000 1.000000 510.059784 100.823410)"
	>(</text>
<text x="0" y="0" style="font-family:Times; font-style:normal; font-weight:normal; font-size:112.390244; fill:black" transform="matrix(1.000000 -0.000000 0.000000 1.000000 343.396606 100.823410)"
	>log</text>
<text x="0" y="0" style="font-family:Times; font-style:normal; font-weight:normal; font-size:112.390244; fill:black" transform="matrix(1.000000 -0.000000 0.000000 1.000000 212.986465 100.823410)"
	>)</text>
<text x="0" y="0" style="font-family:Times; font-style:normal; font-weight:normal; font-size:112.390244; fill:black" transform="matrix(1.000000 -0.000000 0.000000 1.000000 124.116226 100.823410)"
	>(</text>
<text x="0" y="0" style="font-family:Times; font-style:normal; font-weight:normal; font-size:65.560974; fill:black" transform="matrix(1.000000 -0.000000 0.000000 1.000000 471.792725 128.920975)"
	>3</text>
<text x="0" y="0" style="font-family:Times; font-style:normal; font-weight:normal; font-size:65.560974; fill:black" transform="matrix(1.000000 -0.000000 0.000000 1.000000 87.359695 50.481949)"
	>1</text>
<text x="0" y="0" style="font-family:Symbol; font-style:normal; font-weight:normal; font-size:112.390244; fill:black" transform="matrix(1.000000 -0.000000 0.000000 1.000000 614.790710 100.823410)"
	>-</text>
<text x="0" y="0" style="font-family:Symbol; font-style:normal; font-weight:normal; font-size:112.390244; fill:black" transform="matrix(1.000000 -0.000000 0.000000 1.000000 268.624786 100.823410)"
	>=</text>
<text x="0" y="0" style="font-family:Symbol; font-style:normal; font-weight:normal; font-size:65.560974; fill:black" transform="matrix(1.000000 -0.000000 0.000000 1.000000 56.393578 50.481949)"
	>-</text>
<text x="0" y="0" style="font-family:Times; font-style:italic; font-weight:normal; font-size:112.390244; fill:black" transform="matrix(1.000000 -0.000000 0.000000 1.000000 551.347961 100.823410)"
	>x</text>
<text x="0" y="0" style="font-family:Times; font-style:italic; font-weight:normal; font-size:112.390244; fill:black" transform="matrix(1.000000 -0.000000 0.000000 1.000000 165.404388 100.823410)"
	>x</text>
<text x="0" y="0" style="font-family:Times; font-style:italic; font-weight:normal; font-size:112.390244; fill:black" transform="matrix(1.000000 -0.000000 0.000000 1.000000 0.000000 100.823410)"
	>f</text>
</svg>
