<?xml version="1.0" standalone="no"?>
<!DOCTYPE svg PUBLIC "-//W3C//DTD SVG 20001102//EN"
"http://www.w3.org/TR/2000/CR-SVG-20001102/DTD/svg-20001102.dtd">
<svg width="768" height="347"
	xmlns:sodipodi="http://sodipodi.sourceforge.net/DTD/sodipodi-0.dtd">
<desc>wmf2svg</desc>
<line x1="406.769196" y1="214.660828" x2="437.152863" y2="193.645081" 
	style="stroke-width:10.965098; stroke-linecap:round; stroke-linejoin:round; stroke-dasharray:none; stroke:black" />
<line x1="437.152863" y1="199.649597" x2="481.178192" y2="297.222687" 
	style="stroke-width:21.930197; stroke-linecap:round; stroke-linejoin:round; stroke-dasharray:none; stroke:black" />
<line x1="486.138794" y1="297.222687" x2="544.425842" y2="6.004498" 
	style="stroke-width:10.965098; stroke-linecap:round; stroke-linejoin:round; stroke-dasharray:none; stroke:black" />
<line x1="544.425842" y1="6.004498" x2="675.881714" y2="6.004498" 
	style="stroke-width:10.965098; stroke-linecap:round; stroke-linejoin:round; stroke-dasharray:none; stroke:black" />
<text x="0" y="0" style="font-family:Times; font-style:normal; font-weight:normal; font-size:288.215942; fill:black" transform="matrix(1.000000 -0.000000 0.000000 1.000000 687.043030 280.710327)"
	>)</text>
<text x="0" y="0" style="font-family:Times; font-style:normal; font-weight:normal; font-size:288.215942; fill:black" transform="matrix(1.000000 -0.000000 0.000000 1.000000 551.866699 280.710327)"
	>5</text>
<text x="0" y="0" style="font-family:Times; font-style:normal; font-weight:normal; font-size:288.215942; fill:black" transform="matrix(1.000000 -0.000000 0.000000 1.000000 197.183838 280.710327)"
	>,</text>
<text x="0" y="0" style="font-family:Times; font-style:normal; font-weight:normal; font-size:288.215942; fill:black" transform="matrix(1.000000 -0.000000 0.000000 1.000000 81.849892 280.710327)"
	>0</text>
<text x="0" y="0" style="font-family:Times; font-style:normal; font-weight:normal; font-size:288.215942; fill:black" transform="matrix(1.000000 -0.000000 0.000000 1.000000 0.000000 280.710327)"
	>(</text>
<text x="0" y="0" style="font-family:Symbol; font-style:normal; font-weight:normal; font-size:288.215942; fill:black" transform="matrix(1.000000 -0.000000 0.000000 1.000000 260.431488 280.710327)"
	>-</text>
</svg>
