<?xml version="1.0" standalone="no"?>
<!DOCTYPE svg PUBLIC "-//W3C//DTD SVG 20001102//EN"
"http://www.w3.org/TR/2000/CR-SVG-20001102/DTD/svg-20001102.dtd">
<svg width="768" height="139"
	xmlns:sodipodi="http://sodipodi.sourceforge.net/DTD/sodipodi-0.dtd">
<desc>wmf2svg</desc>
<text x="0" y="0" style="font-family:Times; font-style:italic; font-weight:normal; font-size:123.327179; fill:black" transform="matrix(1.000000 -0.000000 0.000000 1.000000 720.397949 110.634750)"
	>x</text>
<text x="0" y="0" style="font-family:Times; font-style:italic; font-weight:normal; font-size:123.327179; fill:black" transform="matrix(1.000000 -0.000000 0.000000 1.000000 349.915619 110.634750)"
	>x</text>
<text x="0" y="0" style="font-family:Times; font-style:normal; font-weight:normal; font-size:71.940849; fill:black" transform="matrix(1.000000 -0.000000 0.000000 1.000000 656.443909 55.394455)"
	>2</text>
<text x="0" y="0" style="font-family:Times; font-style:normal; font-weight:normal; font-size:71.940849; fill:black" transform="matrix(1.000000 -0.000000 0.000000 1.000000 285.961639 55.394455)"
	>2</text>
<text x="0" y="0" style="font-family:Times; font-style:normal; font-weight:normal; font-size:123.327179; fill:black" transform="matrix(1.000000 -0.000000 0.000000 1.000000 510.786652 110.634750)"
	>csc</text>
<text x="0" y="0" style="font-family:Times; font-style:normal; font-weight:normal; font-size:123.327179; fill:black" transform="matrix(1.000000 -0.000000 0.000000 1.000000 144.248627 110.634750)"
	>cot</text>
<text x="0" y="0" style="font-family:Times; font-style:normal; font-weight:normal; font-size:123.327179; fill:black" transform="matrix(1.000000 -0.000000 0.000000 1.000000 0.000000 110.634750)"
	>1</text>
<text x="0" y="0" style="font-family:Symbol; font-style:normal; font-weight:normal; font-size:123.327179; fill:black" transform="matrix(1.000000 -0.000000 0.000000 1.000000 427.111145 110.634750)"
	>=</text>
<text x="0" y="0" style="font-family:Symbol; font-style:normal; font-weight:normal; font-size:123.327179; fill:black" transform="matrix(1.000000 -0.000000 0.000000 1.000000 65.362663 110.634750)"
	>+</text>
</svg>
