<?xml version="1.0" standalone="no"?>
<!DOCTYPE svg PUBLIC "-//W3C//DTD SVG 20001102//EN"
"http://www.w3.org/TR/2000/CR-SVG-20001102/DTD/svg-20001102.dtd">
<svg width="768" height="139"
	xmlns:sodipodi="http://sodipodi.sourceforge.net/DTD/sodipodi-0.dtd">
<desc>wmf2svg</desc>
<text x="0" y="0" style="font-family:Times; font-style:normal; font-weight:normal; font-size:123.327179; fill:black" transform="matrix(1.000000 -0.000000 0.000000 1.000000 714.006592 110.634750)"
	>1</text>
<text x="0" y="0" style="font-family:Times; font-style:normal; font-weight:normal; font-size:123.327179; fill:black" transform="matrix(1.000000 -0.000000 0.000000 1.000000 348.144989 110.634750)"
	>cos</text>
<text x="0" y="0" style="font-family:Times; font-style:normal; font-weight:normal; font-size:123.327179; fill:black" transform="matrix(1.000000 -0.000000 0.000000 1.000000 0.000000 110.634750)"
	>sin</text>
<text x="0" y="0" style="font-family:Times; font-style:normal; font-weight:normal; font-size:71.940849; fill:black" transform="matrix(1.000000 -0.000000 0.000000 1.000000 497.751740 55.394455)"
	>2</text>
<text x="0" y="0" style="font-family:Times; font-style:normal; font-weight:normal; font-size:71.940849; fill:black" transform="matrix(1.000000 -0.000000 0.000000 1.000000 134.702301 55.394455)"
	>2</text>
<text x="0" y="0" style="font-family:Symbol; font-style:normal; font-weight:normal; font-size:123.327179; fill:black" transform="matrix(1.000000 -0.000000 0.000000 1.000000 638.640747 110.634750)"
	>=</text>
<text x="0" y="0" style="font-family:Symbol; font-style:normal; font-weight:normal; font-size:123.327179; fill:black" transform="matrix(1.000000 -0.000000 0.000000 1.000000 269.404633 110.634750)"
	>+</text>
<text x="0" y="0" style="font-family:Times; font-style:italic; font-weight:normal; font-size:123.327179; fill:black" transform="matrix(1.000000 -0.000000 0.000000 1.000000 561.587708 110.634750)"
	>x</text>
<text x="0" y="0" style="font-family:Times; font-style:italic; font-weight:normal; font-size:123.327179; fill:black" transform="matrix(1.000000 -0.000000 0.000000 1.000000 198.538269 110.634750)"
	>x</text>
</svg>
