<?xml version="1.0" standalone="no"?>
<!DOCTYPE svg PUBLIC "-//W3C//DTD SVG 20001102//EN"
"http://www.w3.org/TR/2000/CR-SVG-20001102/DTD/svg-20001102.dtd">
<svg width="768" height="64"
	xmlns:sodipodi="http://sodipodi.sourceforge.net/DTD/sodipodi-0.dtd">
<desc>wmf2svg</desc>
<line x1="82.103210" y1="28.588520" x2="100.499779" y2="28.588520" 
	style="stroke-width:2.021516; stroke-linecap:round; stroke-linejoin:round; stroke-dasharray:none; stroke:black" />
<text x="0" y="0" style="font-family:Times; font-style:normal; font-weight:normal; font-size:53.426086; fill:black" transform="matrix(1.000000 -0.000000 0.000000 1.000000 746.196655 41.945042)"
	>2</text>
<text x="0" y="0" style="font-family:Times; font-style:normal; font-weight:normal; font-size:53.426086; fill:black" transform="matrix(1.000000 -0.000000 0.000000 1.000000 665.115479 41.945042)"
	>log</text>
<text x="0" y="0" style="font-family:Times; font-style:normal; font-weight:normal; font-size:53.426086; fill:black" transform="matrix(1.000000 -0.000000 0.000000 1.000000 569.385193 41.945042)"
	>2</text>
<text x="0" y="0" style="font-family:Times; font-style:normal; font-weight:normal; font-size:53.426086; fill:black" transform="matrix(1.000000 -0.000000 0.000000 1.000000 488.304016 41.945042)"
	>log</text>
<text x="0" y="0" style="font-family:Times; font-style:normal; font-weight:normal; font-size:53.426086; fill:black" transform="matrix(1.000000 -0.000000 0.000000 1.000000 428.004150 41.945042)"
	>0</text>
<text x="0" y="0" style="font-family:Times; font-style:normal; font-weight:normal; font-size:53.426086; fill:black" transform="matrix(1.000000 -0.000000 0.000000 1.000000 362.139893 41.945042)"
	>2</text>
<text x="0" y="0" style="font-family:Times; font-style:normal; font-weight:normal; font-size:53.426086; fill:black" transform="matrix(1.000000 -0.000000 0.000000 1.000000 281.058716 41.945042)"
	>log</text>
<text x="0" y="0" style="font-family:Times; font-style:normal; font-weight:normal; font-size:53.426086; fill:black" transform="matrix(1.000000 -0.000000 0.000000 1.000000 223.484253 41.945042)"
	>1</text>
<text x="0" y="0" style="font-family:Times; font-style:normal; font-weight:normal; font-size:53.426086; fill:black" transform="matrix(1.000000 -0.000000 0.000000 1.000000 146.264084 41.945042)"
	>log</text>
<text x="0" y="0" style="font-family:Times; font-style:normal; font-weight:normal; font-size:53.426086; fill:black" transform="matrix(1.000000 -0.000000 0.000000 1.000000 0.000000 41.945042)"
	>log</text>
<text x="0" y="0" style="font-family:Times; font-style:normal; font-weight:normal; font-size:31.165216; fill:black" transform="matrix(1.000000 -0.000000 0.000000 1.000000 85.169304 56.831997)"
	>2</text>
<text x="0" y="0" style="font-family:Times; font-style:normal; font-weight:normal; font-size:31.165216; fill:black" transform="matrix(1.000000 -0.000000 0.000000 1.000000 85.055748 23.997215)"
	>1</text>
<text x="0" y="0" style="font-family:Times; font-style:italic; font-weight:normal; font-size:31.165216; fill:black" transform="matrix(1.000000 -0.000000 0.000000 1.000000 723.030579 55.301563)"
	>b</text>
<text x="0" y="0" style="font-family:Times; font-style:italic; font-weight:normal; font-size:31.165216; fill:black" transform="matrix(1.000000 -0.000000 0.000000 1.000000 546.219116 55.301563)"
	>b</text>
<text x="0" y="0" style="font-family:Times; font-style:italic; font-weight:normal; font-size:31.165216; fill:black" transform="matrix(1.000000 -0.000000 0.000000 1.000000 338.973816 55.301563)"
	>b</text>
<text x="0" y="0" style="font-family:Times; font-style:italic; font-weight:normal; font-size:31.165216; fill:black" transform="matrix(1.000000 -0.000000 0.000000 1.000000 204.179214 55.301563)"
	>b</text>
<text x="0" y="0" style="font-family:Times; font-style:italic; font-weight:normal; font-size:31.165216; fill:black" transform="matrix(1.000000 -0.000000 0.000000 1.000000 57.915127 55.301563)"
	>b</text>
<text x="0" y="0" style="font-family:Symbol; font-style:normal; font-weight:normal; font-size:53.426086; fill:black" transform="matrix(1.000000 -0.000000 0.000000 1.000000 636.385010 41.945042)"
	>-</text>
<text x="0" y="0" style="font-family:Symbol; font-style:normal; font-weight:normal; font-size:53.426086; fill:black" transform="matrix(1.000000 -0.000000 0.000000 1.000000 601.522400 41.945042)"
	>=</text>
<text x="0" y="0" style="font-family:Symbol; font-style:normal; font-weight:normal; font-size:53.426086; fill:black" transform="matrix(1.000000 -0.000000 0.000000 1.000000 457.075256 41.945042)"
	>-</text>
<text x="0" y="0" style="font-family:Symbol; font-style:normal; font-weight:normal; font-size:53.426086; fill:black" transform="matrix(1.000000 -0.000000 0.000000 1.000000 394.277100 41.945042)"
	>=</text>
<text x="0" y="0" style="font-family:Symbol; font-style:normal; font-weight:normal; font-size:53.426086; fill:black" transform="matrix(1.000000 -0.000000 0.000000 1.000000 249.829956 41.945042)"
	>-</text>
<text x="0" y="0" style="font-family:Symbol; font-style:normal; font-weight:normal; font-size:53.426086; fill:black" transform="matrix(1.000000 -0.000000 0.000000 1.000000 112.537041 41.945042)"
	>=</text>
</svg>
