<?xml version="1.0" standalone="no"?>
<!DOCTYPE svg PUBLIC "-//W3C//DTD SVG 20001102//EN"
"http://www.w3.org/TR/2000/CR-SVG-20001102/DTD/svg-20001102.dtd">
<svg width="768" height="41"
	xmlns:sodipodi="http://sodipodi.sourceforge.net/DTD/sodipodi-0.dtd">
<desc>wmf2svg</desc>
<line x1="0.457381" y1="20.000252" x2="19.324350" y2="20.000252" 
	style="stroke-width:0.973917; stroke-linecap:round; stroke-linejoin:round; stroke-dasharray:none; stroke:black" />
<text x="0" y="0" style="font-family:Symbol; font-style:normal; font-weight:normal; font-size:32.735435; fill:black" transform="matrix(1.000000 -0.000000 0.000000 1.000000 23.040571 26.069544)"
	>(</text>
<text x="0" y="0" style="font-family:Symbol; font-style:normal; font-weight:normal; font-size:32.735435; fill:black" transform="matrix(1.000000 -0.000000 0.000000 1.000000 91.647736 26.069544)"
	>)</text>
<line x1="132.354645" y1="20.000252" x2="151.221619" y2="20.000252" 
	style="stroke-width:0.973917; stroke-linecap:round; stroke-linejoin:round; stroke-dasharray:none; stroke:black" />
<text x="0" y="0" style="font-family:Symbol; font-style:normal; font-weight:normal; font-size:32.735435; fill:black" transform="matrix(1.000000 -0.000000 0.000000 1.000000 154.937836 26.069544)"
	>(</text>
<text x="0" y="0" style="font-family:Symbol; font-style:normal; font-weight:normal; font-size:32.735435; fill:black" transform="matrix(1.000000 -0.000000 0.000000 1.000000 226.975357 26.069544)"
	>)</text>
<text x="0" y="0" style="font-family:Symbol; font-style:normal; font-weight:normal; font-size:32.735435; fill:black" transform="matrix(1.000000 -0.000000 0.000000 1.000000 232.635452 26.069544)"
	>(</text>
<text x="0" y="0" style="font-family:Symbol; font-style:normal; font-weight:normal; font-size:32.735435; fill:black" transform="matrix(1.000000 -0.000000 0.000000 1.000000 305.359039 26.069544)"
	>)</text>
<line x1="333.259277" y1="20.000252" x2="352.126251" y2="20.000252" 
	style="stroke-width:0.973917; stroke-linecap:round; stroke-linejoin:round; stroke-dasharray:none; stroke:black" />
<text x="0" y="0" style="font-family:Symbol; font-style:normal; font-weight:normal; font-size:32.735435; fill:black" transform="matrix(1.000000 -0.000000 0.000000 1.000000 355.842468 26.069544)"
	>(</text>
<text x="0" y="0" style="font-family:Symbol; font-style:normal; font-weight:normal; font-size:32.735435; fill:black" transform="matrix(1.000000 -0.000000 0.000000 1.000000 428.566071 26.069544)"
	>)</text>
<line x1="469.616028" y1="20.000252" x2="488.197113" y2="20.000252" 
	style="stroke-width:0.973917; stroke-linecap:round; stroke-linejoin:round; stroke-dasharray:none; stroke:black" />
<text x="0" y="0" style="font-family:Symbol; font-style:normal; font-weight:normal; font-size:32.735435; fill:black" transform="matrix(1.000000 -0.000000 0.000000 1.000000 491.913361 26.069544)"
	>(</text>
<text x="0" y="0" style="font-family:Symbol; font-style:normal; font-weight:normal; font-size:32.735435; fill:black" transform="matrix(1.000000 -0.000000 0.000000 1.000000 563.950867 26.069544)"
	>)</text>
<line x1="591.851135" y1="20.000252" x2="610.946777" y2="20.000252" 
	style="stroke-width:0.973917; stroke-linecap:round; stroke-linejoin:round; stroke-dasharray:none; stroke:black" />
<text x="0" y="0" style="font-family:Symbol; font-style:normal; font-weight:normal; font-size:32.735435; fill:black" transform="matrix(1.000000 -0.000000 0.000000 1.000000 614.662964 26.069544)"
	>(</text>
<text x="0" y="0" style="font-family:Symbol; font-style:normal; font-weight:normal; font-size:32.735435; fill:black" transform="matrix(1.000000 -0.000000 0.000000 1.000000 687.386597 26.069544)"
	>)</text>
<text x="0" y="0" style="font-family:Times; font-style:normal; font-weight:normal; font-size:24.793701; fill:black" transform="matrix(1.000000 -0.000000 0.000000 1.000000 757.022827 26.198677)"
	>0</text>
<text x="0" y="0" style="font-family:Times; font-style:normal; font-weight:normal; font-size:24.793701; fill:black" transform="matrix(1.000000 -0.000000 0.000000 1.000000 714.257751 26.198677)"
	>75</text>
<text x="0" y="0" style="font-family:Times; font-style:normal; font-weight:normal; font-size:24.793701; fill:black" transform="matrix(1.000000 -0.000000 0.000000 1.000000 683.270142 26.198677)"
	>'</text>
<text x="0" y="0" style="font-family:Times; font-style:normal; font-weight:normal; font-size:24.793701; fill:black" transform="matrix(1.000000 -0.000000 0.000000 1.000000 659.943726 26.198677)"
	>3</text>
<text x="0" y="0" style="font-family:Times; font-style:normal; font-weight:normal; font-size:24.793701; fill:black" transform="matrix(1.000000 -0.000000 0.000000 1.000000 644.164062 26.198677)"
	>'</text>
<text x="0" y="0" style="font-family:Times; font-style:normal; font-weight:normal; font-size:24.793701; fill:black" transform="matrix(1.000000 -0.000000 0.000000 1.000000 621.523682 26.198677)"
	>4</text>
<text x="0" y="0" style="font-family:Times; font-style:normal; font-weight:normal; font-size:24.793701; fill:black" transform="matrix(1.000000 -0.000000 0.000000 1.000000 559.834412 26.198677)"
	>'</text>
<text x="0" y="0" style="font-family:Times; font-style:normal; font-weight:normal; font-size:24.793701; fill:black" transform="matrix(1.000000 -0.000000 0.000000 1.000000 535.821960 26.198677)"
	>4</text>
<text x="0" y="0" style="font-family:Times; font-style:normal; font-weight:normal; font-size:24.793701; fill:black" transform="matrix(1.000000 -0.000000 0.000000 1.000000 520.042297 26.198677)"
	>'</text>
<text x="0" y="0" style="font-family:Times; font-style:normal; font-weight:normal; font-size:24.793701; fill:black" transform="matrix(1.000000 -0.000000 0.000000 1.000000 498.087982 26.198677)"
	>3</text>
<text x="0" y="0" style="font-family:Times; font-style:normal; font-weight:normal; font-size:24.793701; fill:black" transform="matrix(1.000000 -0.000000 0.000000 1.000000 424.449646 26.198677)"
	>'</text>
<text x="0" y="0" style="font-family:Times; font-style:normal; font-weight:normal; font-size:24.793701; fill:black" transform="matrix(1.000000 -0.000000 0.000000 1.000000 401.123199 26.198677)"
	>3</text>
<text x="0" y="0" style="font-family:Times; font-style:normal; font-weight:normal; font-size:24.793701; fill:black" transform="matrix(1.000000 -0.000000 0.000000 1.000000 385.343567 26.198677)"
	>'</text>
<text x="0" y="0" style="font-family:Times; font-style:normal; font-weight:normal; font-size:24.793701; fill:black" transform="matrix(1.000000 -0.000000 0.000000 1.000000 362.703186 26.198677)"
	>4</text>
<text x="0" y="0" style="font-family:Times; font-style:normal; font-weight:normal; font-size:24.793701; fill:black" transform="matrix(1.000000 -0.000000 0.000000 1.000000 301.242615 26.198677)"
	>'</text>
<text x="0" y="0" style="font-family:Times; font-style:normal; font-weight:normal; font-size:24.793701; fill:black" transform="matrix(1.000000 -0.000000 0.000000 1.000000 277.916168 26.198677)"
	>3</text>
<text x="0" y="0" style="font-family:Times; font-style:normal; font-weight:normal; font-size:24.793701; fill:black" transform="matrix(1.000000 -0.000000 0.000000 1.000000 262.136536 26.198677)"
	>'</text>
<text x="0" y="0" style="font-family:Times; font-style:normal; font-weight:normal; font-size:24.793701; fill:black" transform="matrix(1.000000 -0.000000 0.000000 1.000000 239.496170 26.198677)"
	>4</text>
<text x="0" y="0" style="font-family:Times; font-style:normal; font-weight:normal; font-size:24.793701; fill:black" transform="matrix(1.000000 -0.000000 0.000000 1.000000 222.858932 26.198677)"
	>'</text>
<text x="0" y="0" style="font-family:Times; font-style:normal; font-weight:normal; font-size:24.793701; fill:black" transform="matrix(1.000000 -0.000000 0.000000 1.000000 198.846420 26.198677)"
	>4</text>
<text x="0" y="0" style="font-family:Times; font-style:normal; font-weight:normal; font-size:24.793701; fill:black" transform="matrix(1.000000 -0.000000 0.000000 1.000000 183.066772 26.198677)"
	>'</text>
<text x="0" y="0" style="font-family:Times; font-style:normal; font-weight:normal; font-size:24.793701; fill:black" transform="matrix(1.000000 -0.000000 0.000000 1.000000 161.112488 26.198677)"
	>3</text>
<text x="0" y="0" style="font-family:Times; font-style:normal; font-weight:normal; font-size:24.793701; fill:black" transform="matrix(1.000000 -0.000000 0.000000 1.000000 66.949158 26.198677)"
	>4</text>
<text x="0" y="0" style="font-family:Times; font-style:normal; font-weight:normal; font-size:24.793701; fill:black" transform="matrix(1.000000 -0.000000 0.000000 1.000000 51.169506 26.198677)"
	>'</text>
<text x="0" y="0" style="font-family:Times; font-style:normal; font-weight:normal; font-size:24.793701; fill:black" transform="matrix(1.000000 -0.000000 0.000000 1.000000 29.215216 26.198677)"
	>3</text>
<text x="0" y="0" style="font-family:Times; font-style:normal; font-weight:normal; font-size:18.595276; fill:black" transform="matrix(1.000000 -0.000000 0.000000 1.000000 597.454041 36.723087)"
	>5</text>
<text x="0" y="0" style="font-family:Times; font-style:normal; font-weight:normal; font-size:18.595276; fill:black" transform="matrix(1.000000 -0.000000 0.000000 1.000000 593.451965 17.223873)"
	>40</text>
<text x="0" y="0" style="font-family:Times; font-style:normal; font-weight:normal; font-size:18.595276; fill:black" transform="matrix(1.000000 -0.000000 0.000000 1.000000 474.933075 36.723087)"
	>5</text>
<text x="0" y="0" style="font-family:Times; font-style:normal; font-weight:normal; font-size:18.595276; fill:black" transform="matrix(1.000000 -0.000000 0.000000 1.000000 470.702301 17.223873)"
	>30</text>
<text x="0" y="0" style="font-family:Times; font-style:normal; font-weight:normal; font-size:18.595276; fill:black" transform="matrix(1.000000 -0.000000 0.000000 1.000000 435.998505 14.318362)"
	>2</text>
<text x="0" y="0" style="font-family:Times; font-style:normal; font-weight:normal; font-size:18.595276; fill:black" transform="matrix(1.000000 -0.000000 0.000000 1.000000 334.860107 36.723087)"
	>25</text>
<text x="0" y="0" style="font-family:Times; font-style:normal; font-weight:normal; font-size:18.595276; fill:black" transform="matrix(1.000000 -0.000000 0.000000 1.000000 334.517090 17.223873)"
	>52</text>
<text x="0" y="0" style="font-family:Times; font-style:normal; font-weight:normal; font-size:18.595276; fill:black" transform="matrix(1.000000 -0.000000 0.000000 1.000000 133.955490 36.723087)"
	>25</text>
<text x="0" y="0" style="font-family:Times; font-style:normal; font-weight:normal; font-size:18.595276; fill:black" transform="matrix(1.000000 -0.000000 0.000000 1.000000 133.726791 17.223873)"
	>72</text>
<text x="0" y="0" style="font-family:Times; font-style:normal; font-weight:normal; font-size:18.595276; fill:black" transform="matrix(1.000000 -0.000000 0.000000 1.000000 99.080177 14.318362)"
	>2</text>
<text x="0" y="0" style="font-family:Times; font-style:normal; font-weight:normal; font-size:18.595276; fill:black" transform="matrix(1.000000 -0.000000 0.000000 1.000000 2.058215 36.723087)"
	>25</text>
<text x="0" y="0" style="font-family:Times; font-style:normal; font-weight:normal; font-size:18.595276; fill:black" transform="matrix(1.000000 -0.000000 0.000000 1.000000 2.058215 17.223873)"
	>73</text>
<text x="0" y="0" style="font-family:Symbol; font-style:normal; font-weight:normal; font-size:24.793701; fill:black" transform="matrix(1.000000 -0.000000 0.000000 1.000000 740.442810 26.198677)"
	>=</text>
<text x="0" y="0" style="font-family:Symbol; font-style:normal; font-weight:normal; font-size:24.793701; fill:black" transform="matrix(1.000000 -0.000000 0.000000 1.000000 697.677673 26.198677)"
	>-</text>
<text x="0" y="0" style="font-family:Symbol; font-style:normal; font-weight:normal; font-size:24.793701; fill:black" transform="matrix(1.000000 -0.000000 0.000000 1.000000 647.937439 26.198677)"
	>+</text>
<text x="0" y="0" style="font-family:Symbol; font-style:normal; font-weight:normal; font-size:24.793701; fill:black" transform="matrix(1.000000 -0.000000 0.000000 1.000000 574.241943 26.198677)"
	>+</text>
<text x="0" y="0" style="font-family:Symbol; font-style:normal; font-weight:normal; font-size:24.793701; fill:black" transform="matrix(1.000000 -0.000000 0.000000 1.000000 523.815674 26.198677)"
	>-</text>
<text x="0" y="0" style="font-family:Symbol; font-style:normal; font-weight:normal; font-size:24.793701; fill:black" transform="matrix(1.000000 -0.000000 0.000000 1.000000 452.006836 26.198677)"
	>+</text>
<text x="0" y="0" style="font-family:Symbol; font-style:normal; font-weight:normal; font-size:24.793701; fill:black" transform="matrix(1.000000 -0.000000 0.000000 1.000000 389.116943 26.198677)"
	>+</text>
<text x="0" y="0" style="font-family:Symbol; font-style:normal; font-weight:normal; font-size:24.793701; fill:black" transform="matrix(1.000000 -0.000000 0.000000 1.000000 315.650116 26.198677)"
	>+</text>
<text x="0" y="0" style="font-family:Symbol; font-style:normal; font-weight:normal; font-size:24.793701; fill:black" transform="matrix(1.000000 -0.000000 0.000000 1.000000 265.909912 26.198677)"
	>+</text>
<text x="0" y="0" style="font-family:Symbol; font-style:normal; font-weight:normal; font-size:24.793701; fill:black" transform="matrix(1.000000 -0.000000 0.000000 1.000000 186.840164 26.198677)"
	>-</text>
<text x="0" y="0" style="font-family:Symbol; font-style:normal; font-weight:normal; font-size:24.793701; fill:black" transform="matrix(1.000000 -0.000000 0.000000 1.000000 115.088516 26.198677)"
	>-</text>
<text x="0" y="0" style="font-family:Symbol; font-style:normal; font-weight:normal; font-size:24.793701; fill:black" transform="matrix(1.000000 -0.000000 0.000000 1.000000 54.942902 26.198677)"
	>-</text>
<text x="0" y="0" style="font-family:Times; font-style:italic; font-weight:normal; font-size:24.793701; fill:black" transform="matrix(1.000000 -0.000000 0.000000 1.000000 672.636047 26.198677)"
	>y</text>
<text x="0" y="0" style="font-family:Times; font-style:italic; font-weight:normal; font-size:24.793701; fill:black" transform="matrix(1.000000 -0.000000 0.000000 1.000000 633.872986 26.198677)"
	>x</text>
<text x="0" y="0" style="font-family:Times; font-style:italic; font-weight:normal; font-size:24.793701; fill:black" transform="matrix(1.000000 -0.000000 0.000000 1.000000 549.200317 26.198677)"
	>y</text>
<text x="0" y="0" style="font-family:Times; font-style:italic; font-weight:normal; font-size:24.793701; fill:black" transform="matrix(1.000000 -0.000000 0.000000 1.000000 509.751221 26.198677)"
	>x</text>
<text x="0" y="0" style="font-family:Times; font-style:italic; font-weight:normal; font-size:24.793701; fill:black" transform="matrix(1.000000 -0.000000 0.000000 1.000000 413.815521 26.198677)"
	>y</text>
<text x="0" y="0" style="font-family:Times; font-style:italic; font-weight:normal; font-size:24.793701; fill:black" transform="matrix(1.000000 -0.000000 0.000000 1.000000 375.052490 26.198677)"
	>x</text>
<text x="0" y="0" style="font-family:Times; font-style:italic; font-weight:normal; font-size:24.793701; fill:black" transform="matrix(1.000000 -0.000000 0.000000 1.000000 290.608490 26.198677)"
	>y</text>
<text x="0" y="0" style="font-family:Times; font-style:italic; font-weight:normal; font-size:24.793701; fill:black" transform="matrix(1.000000 -0.000000 0.000000 1.000000 251.845459 26.198677)"
	>x</text>
<text x="0" y="0" style="font-family:Times; font-style:italic; font-weight:normal; font-size:24.793701; fill:black" transform="matrix(1.000000 -0.000000 0.000000 1.000000 212.224823 26.198677)"
	>y</text>
<text x="0" y="0" style="font-family:Times; font-style:italic; font-weight:normal; font-size:24.793701; fill:black" transform="matrix(1.000000 -0.000000 0.000000 1.000000 172.775696 26.198677)"
	>x</text>
<text x="0" y="0" style="font-family:Times; font-style:italic; font-weight:normal; font-size:24.793701; fill:black" transform="matrix(1.000000 -0.000000 0.000000 1.000000 80.327553 26.198677)"
	>y</text>
<text x="0" y="0" style="font-family:Times; font-style:italic; font-weight:normal; font-size:24.793701; fill:black" transform="matrix(1.000000 -0.000000 0.000000 1.000000 40.878433 26.198677)"
	>x</text>
</svg>
