<?xml version="1.0" standalone="no"?>
<!DOCTYPE svg PUBLIC "-//W3C//DTD SVG 20001102//EN"
"http://www.w3.org/TR/2000/CR-SVG-20001102/DTD/svg-20001102.dtd">
<svg width="768" height="121"
	xmlns:sodipodi="http://sodipodi.sourceforge.net/DTD/sodipodi-0.dtd">
<desc>wmf2svg</desc>
<text x="0" y="0" style="font-family:Times; font-style:normal; font-weight:normal; font-size:96.382339; fill:black" transform="matrix(1.000000 -0.000000 0.000000 1.000000 730.074097 98.832062)"
	>0</text>
<text x="0" y="0" style="font-family:Times; font-style:normal; font-weight:normal; font-size:96.382339; fill:black" transform="matrix(1.000000 -0.000000 0.000000 1.000000 613.925903 98.832062)"
	>5</text>
<text x="0" y="0" style="font-family:Times; font-style:normal; font-weight:normal; font-size:96.382339; fill:black" transform="matrix(1.000000 -0.000000 0.000000 1.000000 461.037048 98.832062)"
	>4</text>
<text x="0" y="0" style="font-family:Times; font-style:normal; font-weight:normal; font-size:96.382339; fill:black" transform="matrix(1.000000 -0.000000 0.000000 1.000000 310.518524 98.832062)"
	>2</text>
<text x="0" y="0" style="font-family:Times; font-style:normal; font-weight:normal; font-size:72.286758; fill:black" transform="matrix(1.000000 -0.000000 0.000000 1.000000 200.691360 55.660801)"
	>2</text>
<text x="0" y="0" style="font-family:Times; font-style:normal; font-weight:normal; font-size:72.286758; fill:black" transform="matrix(1.000000 -0.000000 0.000000 1.000000 40.691357 55.660801)"
	>2</text>
<text x="0" y="0" style="font-family:Symbol; font-style:normal; font-weight:normal; font-size:96.382339; fill:black" transform="matrix(1.000000 -0.000000 0.000000 1.000000 669.629639 98.832062)"
	>=</text>
<text x="0" y="0" style="font-family:Symbol; font-style:normal; font-weight:normal; font-size:96.382339; fill:black" transform="matrix(1.000000 -0.000000 0.000000 1.000000 558.222229 98.832062)"
	>+</text>
<text x="0" y="0" style="font-family:Symbol; font-style:normal; font-weight:normal; font-size:96.382339; fill:black" transform="matrix(1.000000 -0.000000 0.000000 1.000000 402.962952 98.832062)"
	>+</text>
<text x="0" y="0" style="font-family:Symbol; font-style:normal; font-weight:normal; font-size:96.382339; fill:black" transform="matrix(1.000000 -0.000000 0.000000 1.000000 253.629623 98.832062)"
	>-</text>
<text x="0" y="0" style="font-family:Symbol; font-style:normal; font-weight:normal; font-size:96.382339; fill:black" transform="matrix(1.000000 -0.000000 0.000000 1.000000 93.629631 98.832062)"
	>+</text>
<text x="0" y="0" style="font-family:Times; font-style:italic; font-weight:normal; font-size:96.382339; fill:black" transform="matrix(1.000000 -0.000000 0.000000 1.000000 507.259247 98.832062)"
	>y</text>
<text x="0" y="0" style="font-family:Times; font-style:italic; font-weight:normal; font-size:96.382339; fill:black" transform="matrix(1.000000 -0.000000 0.000000 1.000000 353.185181 98.832062)"
	>x</text>
<text x="0" y="0" style="font-family:Times; font-style:italic; font-weight:normal; font-size:96.382339; fill:black" transform="matrix(1.000000 -0.000000 0.000000 1.000000 158.814819 98.832062)"
	>y</text>
<text x="0" y="0" style="font-family:Times; font-style:italic; font-weight:normal; font-size:96.382339; fill:black" transform="matrix(1.000000 -0.000000 0.000000 1.000000 0.000000 98.832062)"
	>x</text>
</svg>
