<?xml version="1.0" standalone="no"?>
<!DOCTYPE svg PUBLIC "-//W3C//DTD SVG 20001102//EN"
"http://www.w3.org/TR/2000/CR-SVG-20001102/DTD/svg-20001102.dtd">
<svg width="768" height="117"
	xmlns:sodipodi="http://sodipodi.sourceforge.net/DTD/sodipodi-0.dtd">
<desc>wmf2svg</desc>
<line x1="42.323929" y1="65.427025" x2="69.583412" y2="65.427025" 
	style="stroke-width:2.363968; stroke-linecap:round; stroke-linejoin:round; stroke-dasharray:none; stroke:black" />
<line x1="156.096390" y1="65.427025" x2="181.490753" y2="65.427025" 
	style="stroke-width:2.363968; stroke-linecap:round; stroke-linejoin:round; stroke-dasharray:none; stroke:black" />
<text x="0" y="0" style="font-family:Symbol; font-style:normal; font-weight:normal; font-size:103.529060; fill:black" transform="matrix(1.000000 -0.000000 0.000000 1.000000 27.833364 79.717377)"
	>(</text>
<text x="0" y="0" style="font-family:Symbol; font-style:normal; font-weight:normal; font-size:103.529060; fill:black" transform="matrix(1.000000 -0.000000 0.000000 1.000000 223.240799 79.717377)"
	>)</text>
<line x1="382.780487" y1="65.427025" x2="434.143097" y2="65.427025" 
	style="stroke-width:2.363968; stroke-linecap:round; stroke-linejoin:round; stroke-dasharray:none; stroke:black" />
<line x1="520.656067" y1="65.427025" x2="547.915588" y2="65.427025" 
	style="stroke-width:2.363968; stroke-linecap:round; stroke-linejoin:round; stroke-dasharray:none; stroke:black" />
<text x="0" y="0" style="font-family:Symbol; font-style:normal; font-weight:normal; font-size:103.529060; fill:black" transform="matrix(1.000000 -0.000000 0.000000 1.000000 368.289917 79.717377)"
	>(</text>
<text x="0" y="0" style="font-family:Symbol; font-style:normal; font-weight:normal; font-size:103.529060; fill:black" transform="matrix(1.000000 -0.000000 0.000000 1.000000 589.665588 79.717377)"
	>)</text>
<text x="0" y="0" style="font-family:Times; font-style:normal; font-weight:normal; font-size:58.377621; fill:black" transform="matrix(1.000000 -0.000000 0.000000 1.000000 685.360718 80.021431)"
	>225</text>
<text x="0" y="0" style="font-family:Times; font-style:normal; font-weight:normal; font-size:58.377621; fill:black" transform="matrix(1.000000 -0.000000 0.000000 1.000000 313.770966 80.021431)"
	>25</text>
<text x="0" y="0" style="font-family:Times; font-style:normal; font-weight:normal; font-size:58.377621; fill:black" transform="matrix(1.000000 -0.000000 0.000000 1.000000 0.000000 80.021431)"
	>9</text>
<text x="0" y="0" style="font-family:Times; font-style:normal; font-weight:normal; font-size:43.783215; fill:black" transform="matrix(1.000000 -0.000000 0.000000 1.000000 603.869263 40.190865)"
	>2</text>
<text x="0" y="0" style="font-family:Times; font-style:normal; font-weight:normal; font-size:43.783215; fill:black" transform="matrix(1.000000 -0.000000 0.000000 1.000000 524.386353 106.929863)"
	>5</text>
<text x="0" y="0" style="font-family:Times; font-style:normal; font-weight:normal; font-size:43.783215; fill:black" transform="matrix(1.000000 -0.000000 0.000000 1.000000 524.673279 57.521721)"
	>4</text>
<text x="0" y="0" style="font-family:Times; font-style:normal; font-weight:normal; font-size:43.783215; fill:black" transform="matrix(1.000000 -0.000000 0.000000 1.000000 398.562286 106.929863)"
	>5</text>
<text x="0" y="0" style="font-family:Times; font-style:normal; font-weight:normal; font-size:43.783215; fill:black" transform="matrix(1.000000 -0.000000 0.000000 1.000000 412.192047 56.913620)"
	>3</text>
<text x="0" y="0" style="font-family:Times; font-style:normal; font-weight:normal; font-size:43.783215; fill:black" transform="matrix(1.000000 -0.000000 0.000000 1.000000 237.444427 40.190865)"
	>2</text>
<text x="0" y="0" style="font-family:Times; font-style:normal; font-weight:normal; font-size:43.783215; fill:black" transform="matrix(1.000000 -0.000000 0.000000 1.000000 158.822342 106.929863)"
	>5</text>
<text x="0" y="0" style="font-family:Times; font-style:normal; font-weight:normal; font-size:43.783215; fill:black" transform="matrix(1.000000 -0.000000 0.000000 1.000000 159.109283 56.913620)"
	>3</text>
<text x="0" y="0" style="font-family:Times; font-style:normal; font-weight:normal; font-size:43.783215; fill:black" transform="matrix(1.000000 -0.000000 0.000000 1.000000 46.054176 106.929863)"
	>5</text>
<text x="0" y="0" style="font-family:Times; font-style:normal; font-weight:normal; font-size:43.783215; fill:black" transform="matrix(1.000000 -0.000000 0.000000 1.000000 46.341118 57.521721)"
	>4</text>
<text x="0" y="0" style="font-family:Symbol; font-style:normal; font-weight:normal; font-size:58.377621; fill:black" transform="matrix(1.000000 -0.000000 0.000000 1.000000 642.749878 80.021431)"
	>=</text>
<text x="0" y="0" style="font-family:Symbol; font-style:normal; font-weight:normal; font-size:58.377621; fill:black" transform="matrix(1.000000 -0.000000 0.000000 1.000000 479.336456 80.021431)"
	>+</text>
<text x="0" y="0" style="font-family:Symbol; font-style:normal; font-weight:normal; font-size:58.377621; fill:black" transform="matrix(1.000000 -0.000000 0.000000 1.000000 273.312164 80.021431)"
	>+</text>
<text x="0" y="0" style="font-family:Symbol; font-style:normal; font-weight:normal; font-size:58.377621; fill:black" transform="matrix(1.000000 -0.000000 0.000000 1.000000 114.776764 80.021431)"
	>+</text>
<text x="0" y="0" style="font-family:Symbol; font-style:normal; font-weight:normal; font-size:43.783215; fill:black" transform="matrix(1.000000 -0.000000 0.000000 1.000000 386.797668 56.913620)"
	>-</text>
<text x="0" y="0" style="font-family:Times; font-style:italic; font-weight:normal; font-size:58.377621; fill:black" transform="matrix(1.000000 -0.000000 0.000000 1.000000 561.258362 80.021431)"
	>y</text>
<text x="0" y="0" style="font-family:Times; font-style:italic; font-weight:normal; font-size:58.377621; fill:black" transform="matrix(1.000000 -0.000000 0.000000 1.000000 444.903412 80.021431)"
	>x</text>
<text x="0" y="0" style="font-family:Times; font-style:italic; font-weight:normal; font-size:58.377621; fill:black" transform="matrix(1.000000 -0.000000 0.000000 1.000000 194.833557 80.021431)"
	>y</text>
<text x="0" y="0" style="font-family:Times; font-style:italic; font-weight:normal; font-size:58.377621; fill:black" transform="matrix(1.000000 -0.000000 0.000000 1.000000 80.343735 80.021431)"
	>x</text>
</svg>
