<?xml version="1.0" standalone="no"?>
<!DOCTYPE svg PUBLIC "-//W3C//DTD SVG 20001102//EN"
"http://www.w3.org/TR/2000/CR-SVG-20001102/DTD/svg-20001102.dtd">
<svg width="768" height="149"
	xmlns:sodipodi="http://sodipodi.sourceforge.net/DTD/sodipodi-0.dtd">
<desc>wmf2svg</desc>
<text x="0" y="0" style="font-family:Times; font-style:normal; font-weight:normal; font-size:118.685699; fill:black" transform="matrix(1.000000 -0.000000 0.000000 1.000000 721.188538 121.702293)"
	>0</text>
<text x="0" y="0" style="font-family:Times; font-style:normal; font-weight:normal; font-size:118.685699; fill:black" transform="matrix(1.000000 -0.000000 0.000000 1.000000 381.805695 121.702293)"
	>6</text>
<text x="0" y="0" style="font-family:Times; font-style:normal; font-weight:normal; font-size:89.014275; fill:black" transform="matrix(1.000000 -0.000000 0.000000 1.000000 247.710464 68.540985)"
	>2</text>
<text x="0" y="0" style="font-family:Times; font-style:normal; font-weight:normal; font-size:89.014275; fill:black" transform="matrix(1.000000 -0.000000 0.000000 1.000000 50.224758 68.540985)"
	>2</text>
<text x="0" y="0" style="font-family:Symbol; font-style:normal; font-weight:normal; font-size:118.685699; fill:black" transform="matrix(1.000000 -0.000000 0.000000 1.000000 646.582825 121.702293)"
	>=</text>
<text x="0" y="0" style="font-family:Symbol; font-style:normal; font-weight:normal; font-size:118.685699; fill:black" transform="matrix(1.000000 -0.000000 0.000000 1.000000 501.759979 121.702293)"
	>+</text>
<text x="0" y="0" style="font-family:Symbol; font-style:normal; font-weight:normal; font-size:118.685699; fill:black" transform="matrix(1.000000 -0.000000 0.000000 1.000000 313.051422 121.702293)"
	>-</text>
<text x="0" y="0" style="font-family:Symbol; font-style:normal; font-weight:normal; font-size:118.685699; fill:black" transform="matrix(1.000000 -0.000000 0.000000 1.000000 115.565712 121.702293)"
	>+</text>
<text x="0" y="0" style="font-family:Times; font-style:italic; font-weight:normal; font-size:118.685699; fill:black" transform="matrix(1.000000 -0.000000 0.000000 1.000000 573.439941 121.702293)"
	>k</text>
<text x="0" y="0" style="font-family:Times; font-style:italic; font-weight:normal; font-size:118.685699; fill:black" transform="matrix(1.000000 -0.000000 0.000000 1.000000 438.857117 121.702293)"
	>y</text>
<text x="0" y="0" style="font-family:Times; font-style:italic; font-weight:normal; font-size:118.685699; fill:black" transform="matrix(1.000000 -0.000000 0.000000 1.000000 196.022842 121.702293)"
	>y</text>
<text x="0" y="0" style="font-family:Times; font-style:italic; font-weight:normal; font-size:118.685699; fill:black" transform="matrix(1.000000 -0.000000 0.000000 1.000000 0.000000 121.702293)"
	>x</text>
</svg>
