<?xml version="1.0" standalone="no"?>
<!DOCTYPE svg PUBLIC "-//W3C//DTD SVG 20001102//EN"
"http://www.w3.org/TR/2000/CR-SVG-20001102/DTD/svg-20001102.dtd">
<svg width="768" height="384"
	xmlns:sodipodi="http://sodipodi.sourceforge.net/DTD/sodipodi-0.dtd">
<desc>wmf2svg</desc>
<line x1="148.535233" y1="183.132721" x2="169.274109" y2="173.784683" 
	style="stroke-width:6.033933; stroke-linecap:round; stroke-linejoin:round; stroke-dasharray:none; stroke:black" />
<line x1="169.274109" y1="176.455551" x2="198.981155" y2="219.189484" 
	style="stroke-width:12.067865; stroke-linecap:round; stroke-linejoin:round; stroke-dasharray:none; stroke:black" />
<line x1="202.344223" y1="219.189484" x2="241.579941" y2="91.877975" 
	style="stroke-width:6.033933; stroke-linecap:round; stroke-linejoin:round; stroke-dasharray:none; stroke:black" />
<line x1="241.579941" y1="91.877975" x2="342.471802" y2="91.877975" 
	style="stroke-width:6.033933; stroke-linecap:round; stroke-linejoin:round; stroke-dasharray:none; stroke:black" />
<line x1="49.885414" y1="240.556442" x2="360.408112" y2="240.556442" 
	style="stroke-width:8.045243; stroke-linecap:round; stroke-linejoin:round; stroke-dasharray:none; stroke:black" />
<line x1="496.051605" y1="183.132721" x2="516.790466" y2="173.784683" 
	style="stroke-width:6.033933; stroke-linecap:round; stroke-linejoin:round; stroke-dasharray:none; stroke:black" />
<line x1="516.790466" y1="176.455551" x2="546.497559" y2="219.189484" 
	style="stroke-width:12.067865; stroke-linecap:round; stroke-linejoin:round; stroke-dasharray:none; stroke:black" />
<line x1="549.860535" y1="219.189484" x2="589.096313" y2="91.877975" 
	style="stroke-width:6.033933; stroke-linecap:round; stroke-linejoin:round; stroke-dasharray:none; stroke:black" />
<line x1="589.096313" y1="91.877975" x2="689.988159" y2="91.877975" 
	style="stroke-width:6.033933; stroke-linecap:round; stroke-linejoin:round; stroke-dasharray:none; stroke:black" />
<line x1="474.752197" y1="240.556442" x2="707.924500" y2="240.556442" 
	style="stroke-width:8.045243; stroke-linecap:round; stroke-linejoin:round; stroke-dasharray:none; stroke:black" />
<text x="0" y="0" style="font-family:Symbol; font-style:normal; font-weight:normal; font-size:365.019012; fill:black" transform="matrix(1.000000 -0.000000 0.000000 1.000000 0.000000 281.954956)"
	>(</text>
<text x="0" y="0" style="font-family:Symbol; font-style:normal; font-weight:normal; font-size:365.019012; fill:black" transform="matrix(1.000000 -0.000000 0.000000 1.000000 724.739807 281.064667)"
	>)</text>
<text x="0" y="0" style="font-family:Times; font-style:normal; font-weight:normal; font-size:128.201797; fill:black" transform="matrix(1.000000 -0.000000 0.000000 1.000000 553.784180 354.513580)"
	>2</text>
<text x="0" y="0" style="font-family:Times; font-style:normal; font-weight:normal; font-size:128.201797; fill:black" transform="matrix(1.000000 -0.000000 0.000000 1.000000 603.669556 213.847748)"
	>2</text>
<text x="0" y="0" style="font-family:Times; font-style:normal; font-weight:normal; font-size:128.201797; fill:black" transform="matrix(1.000000 -0.000000 0.000000 1.000000 167.592575 354.513580)"
	>2</text>
<text x="0" y="0" style="font-family:Times; font-style:normal; font-weight:normal; font-size:128.201797; fill:black" transform="matrix(1.000000 -0.000000 0.000000 1.000000 256.153229 213.847748)"
	>2</text>
<text x="0" y="0" style="font-family:Times; font-style:normal; font-weight:normal; font-size:128.201797; fill:black" transform="matrix(1.000000 -0.000000 0.000000 1.000000 60.535110 213.847748)"
	>3</text>
<text x="0" y="0" style="font-family:Times; font-style:normal; font-weight:normal; font-size:170.935730; fill:black" transform="matrix(1.000000 -0.000000 0.000000 1.000000 390.675690 283.290375)"
	>,</text>
</svg>
