<?xml version="1.0" standalone="no"?>
<!DOCTYPE svg PUBLIC "-//W3C//DTD SVG 20001102//EN"
"http://www.w3.org/TR/2000/CR-SVG-20001102/DTD/svg-20001102.dtd">
<svg width="768" height="209"
	xmlns:sodipodi="http://sodipodi.sourceforge.net/DTD/sodipodi-0.dtd">
<desc>wmf2svg</desc>
<text x="0" y="0" style="font-family:Times; font-style:normal; font-weight:normal; font-size:185.434372; fill:black" transform="matrix(1.000000 -0.000000 0.000000 1.000000 692.497681 166.350082)"
	>1</text>
<text x="0" y="0" style="font-family:Times; font-style:normal; font-weight:normal; font-size:185.434372; fill:black" transform="matrix(1.000000 -0.000000 0.000000 1.000000 216.675888 166.350082)"
	>)</text>
<text x="0" y="0" style="font-family:Times; font-style:normal; font-weight:normal; font-size:185.434372; fill:black" transform="matrix(1.000000 -0.000000 0.000000 1.000000 77.861748 166.350082)"
	>(</text>
<text x="0" y="0" style="font-family:Symbol; font-style:normal; font-weight:normal; font-size:185.434372; fill:black" transform="matrix(1.000000 -0.000000 0.000000 1.000000 593.794189 166.350082)"
	>+</text>
<text x="0" y="0" style="font-family:Symbol; font-style:normal; font-weight:normal; font-size:185.434372; fill:black" transform="matrix(1.000000 -0.000000 0.000000 1.000000 303.582184 166.350082)"
	>=</text>
<text x="0" y="0" style="font-family:Times; font-style:italic; font-weight:normal; font-size:108.170052; fill:black" transform="matrix(1.000000 -0.000000 0.000000 1.000000 504.921661 83.290939)"
	>x</text>
<text x="0" y="0" style="font-family:Times; font-style:italic; font-weight:normal; font-size:185.434372; fill:black" transform="matrix(1.000000 -0.000000 0.000000 1.000000 422.341003 166.350082)"
	>e</text>
<text x="0" y="0" style="font-family:Times; font-style:italic; font-weight:normal; font-size:185.434372; fill:black" transform="matrix(1.000000 -0.000000 0.000000 1.000000 142.353302 166.350082)"
	>x</text>
<text x="0" y="0" style="font-family:Times; font-style:italic; font-weight:normal; font-size:185.434372; fill:black" transform="matrix(1.000000 -0.000000 0.000000 1.000000 0.000000 166.350082)"
	>f</text>
</svg>
