<?xml version="1.0" standalone="no"?>
<!DOCTYPE svg PUBLIC "-//W3C//DTD SVG 20001102//EN"
"http://www.w3.org/TR/2000/CR-SVG-20001102/DTD/svg-20001102.dtd">
<svg width="768" height="164"
	xmlns:sodipodi="http://sodipodi.sourceforge.net/DTD/sodipodi-0.dtd">
<desc>wmf2svg</desc>
<text x="0" y="0" style="font-family:Times; font-style:normal; font-weight:normal; font-size:84.422386; fill:black" transform="matrix(1.000000 -0.000000 0.000000 1.000000 98.868401 65.005241)"
	>2</text>
<text x="0" y="0" style="font-family:Times; font-style:normal; font-weight:normal; font-size:84.422386; fill:black" transform="matrix(1.000000 -0.000000 0.000000 1.000000 276.343292 65.005241)"
	>2</text>
<text x="0" y="0" style="font-family:Times; font-style:normal; font-weight:normal; font-size:146.027908; fill:black" transform="matrix(1.000000 -0.000000 0.000000 1.000000 0.000000 130.413574)"
	>4</text>
<text x="0" y="0" style="font-family:Times; font-style:normal; font-weight:normal; font-size:146.027908; fill:black" transform="matrix(1.000000 -0.000000 0.000000 1.000000 393.032410 130.413574)"
	>8</text>
<text x="0" y="0" style="font-family:Times; font-style:normal; font-weight:normal; font-size:146.027908; fill:black" transform="matrix(1.000000 -0.000000 0.000000 1.000000 580.516235 130.413574)"
	>0</text>
<text x="0" y="0" style="font-family:Times; font-style:italic; font-weight:normal; font-size:146.027908; fill:black" transform="matrix(1.000000 -0.000000 0.000000 1.000000 52.729816 130.413574)"
	>x</text>
<text x="0" y="0" style="font-family:Times; font-style:italic; font-weight:normal; font-size:146.027908; fill:black" transform="matrix(1.000000 -0.000000 0.000000 1.000000 228.739990 130.413574)"
	>y</text>
<text x="0" y="0" style="font-family:Times; font-style:italic; font-weight:normal; font-size:146.027908; fill:black" transform="matrix(1.000000 -0.000000 0.000000 1.000000 444.297516 130.413574)"
	>x</text>
<text x="0" y="0" style="font-family:Symbol; font-style:normal; font-weight:normal; font-size:146.027908; fill:black" transform="matrix(1.000000 -0.000000 0.000000 1.000000 151.109985 130.413574)"
	>+</text>
<text x="0" y="0" style="font-family:Symbol; font-style:normal; font-weight:normal; font-size:146.027908; fill:black" transform="matrix(1.000000 -0.000000 0.000000 1.000000 328.584869 130.413574)"
	>+</text>
<text x="0" y="0" style="font-family:Symbol; font-style:normal; font-weight:normal; font-size:146.027908; fill:black" transform="matrix(1.000000 -0.000000 0.000000 1.000000 508.745087 130.413574)"
	>=</text>
</svg>
