<?xml version="1.0" standalone="no"?>
<!DOCTYPE svg PUBLIC "-//W3C//DTD SVG 20001102//EN"
"http://www.w3.org/TR/2000/CR-SVG-20001102/DTD/svg-20001102.dtd">
<svg width="768" height="54"
	xmlns:sodipodi="http://sodipodi.sourceforge.net/DTD/sodipodi-0.dtd">
<desc>wmf2svg</desc>
<line x1="352.564056" y1="36.000000" x2="356.249115" y2="33.428570" 
	style="stroke-width:1.336339; stroke-linecap:round; stroke-linejoin:round; stroke-dasharray:none; stroke:black" />
<line x1="356.249115" y1="34.163265" x2="361.588715" y2="52.530613" 
	style="stroke-width:2.672678; stroke-linecap:round; stroke-linejoin:round; stroke-dasharray:none; stroke:black" />
<line x1="362.190369" y1="52.530613" x2="369.259705" y2="0.734694" 
	style="stroke-width:1.336339; stroke-linecap:round; stroke-linejoin:round; stroke-dasharray:none; stroke:black" />
<line x1="369.259705" y1="0.734694" x2="525.085754" y2="0.734694" 
	style="stroke-width:1.336339; stroke-linecap:round; stroke-linejoin:round; stroke-dasharray:none; stroke:black" />
<text x="0" y="0" style="font-family:Times; font-style:normal; font-weight:normal; font-size:26.448980; fill:black" transform="matrix(1.000000 -0.000000 0.000000 1.000000 757.170410 27.551020)"
	>2</text>
<text x="0" y="0" style="font-family:Times; font-style:normal; font-weight:normal; font-size:26.448980; fill:black" transform="matrix(1.000000 -0.000000 0.000000 1.000000 696.253845 27.551020)"
	>2</text>
<text x="0" y="0" style="font-family:Times; font-style:normal; font-weight:normal; font-size:26.448980; fill:black" transform="matrix(1.000000 -0.000000 0.000000 1.000000 570.810791 27.551020)"
	>2</text>
<text x="0" y="0" style="font-family:Times; font-style:normal; font-weight:normal; font-size:26.448980; fill:black" transform="matrix(1.000000 -0.000000 0.000000 1.000000 509.292603 27.551020)"
	>2</text>
<text x="0" y="0" style="font-family:Times; font-style:normal; font-weight:normal; font-size:26.448980; fill:black" transform="matrix(1.000000 -0.000000 0.000000 1.000000 448.376038 27.551020)"
	>2</text>
<text x="0" y="0" style="font-family:Times; font-style:normal; font-weight:normal; font-size:26.448980; fill:black" transform="matrix(1.000000 -0.000000 0.000000 1.000000 279.012939 27.551020)"
	>2</text>
<text x="0" y="0" style="font-family:Times; font-style:normal; font-weight:normal; font-size:26.448980; fill:black" transform="matrix(1.000000 -0.000000 0.000000 1.000000 201.400711 27.551020)"
	>2</text>
<text x="0" y="0" style="font-family:Times; font-style:normal; font-weight:normal; font-size:26.448980; fill:black" transform="matrix(1.000000 -0.000000 0.000000 1.000000 140.484131 27.551020)"
	>2</text>
<text x="0" y="0" style="font-family:Times; font-style:normal; font-weight:normal; font-size:26.448980; fill:black" transform="matrix(1.000000 -0.000000 0.000000 1.000000 15.492362 27.551020)"
	>2</text>
<text x="0" y="0" style="font-family:Times; font-style:normal; font-weight:normal; font-size:35.265305; fill:black" transform="matrix(1.000000 -0.000000 0.000000 1.000000 613.076355 43.346939)"
	>2</text>
<text x="0" y="0" style="font-family:Times; font-style:normal; font-weight:normal; font-size:35.265305; fill:black" transform="matrix(1.000000 -0.000000 0.000000 1.000000 436.493530 43.346939)"
	>)</text>
<text x="0" y="0" style="font-family:Times; font-style:normal; font-weight:normal; font-size:35.265305; fill:black" transform="matrix(1.000000 -0.000000 0.000000 1.000000 370.613403 43.346939)"
	>(</text>
<text x="0" y="0" style="font-family:Times; font-style:normal; font-weight:normal; font-size:35.265305; fill:black" transform="matrix(1.000000 -0.000000 0.000000 1.000000 320.827271 43.346939)"
	>4</text>
<text x="0" y="0" style="font-family:Times; font-style:normal; font-weight:normal; font-size:35.265305; fill:black" transform="matrix(1.000000 -0.000000 0.000000 1.000000 246.824905 43.346939)"
	>4</text>
<text x="0" y="0" style="font-family:Times; font-style:normal; font-weight:normal; font-size:35.265305; fill:black" transform="matrix(1.000000 -0.000000 0.000000 1.000000 57.306698 43.346939)"
	>2</text>
<text x="0" y="0" style="font-family:Times; font-style:italic; font-weight:normal; font-size:35.265305; fill:black" transform="matrix(1.000000 -0.000000 0.000000 1.000000 741.226807 43.346939)"
	>y</text>
<text x="0" y="0" style="font-family:Times; font-style:italic; font-weight:normal; font-size:35.265305; fill:black" transform="matrix(1.000000 -0.000000 0.000000 1.000000 680.761475 43.346939)"
	>c</text>
<text x="0" y="0" style="font-family:Times; font-style:italic; font-weight:normal; font-size:35.265305; fill:black" transform="matrix(1.000000 -0.000000 0.000000 1.000000 627.515869 43.346939)"
	>cx</text>
<text x="0" y="0" style="font-family:Times; font-style:italic; font-weight:normal; font-size:35.265305; fill:black" transform="matrix(1.000000 -0.000000 0.000000 1.000000 555.318420 43.346939)"
	>x</text>
<text x="0" y="0" style="font-family:Times; font-style:italic; font-weight:normal; font-size:35.265305; fill:black" transform="matrix(1.000000 -0.000000 0.000000 1.000000 493.348999 43.346939)"
	>y</text>
<text x="0" y="0" style="font-family:Times; font-style:italic; font-weight:normal; font-size:35.265305; fill:black" transform="matrix(1.000000 -0.000000 0.000000 1.000000 422.956512 43.346939)"
	>c</text>
<text x="0" y="0" style="font-family:Times; font-style:italic; font-weight:normal; font-size:35.265305; fill:black" transform="matrix(1.000000 -0.000000 0.000000 1.000000 382.345490 43.346939)"
	>x</text>
<text x="0" y="0" style="font-family:Times; font-style:italic; font-weight:normal; font-size:35.265305; fill:black" transform="matrix(1.000000 -0.000000 0.000000 1.000000 335.717987 43.346939)"
	>a</text>
<text x="0" y="0" style="font-family:Times; font-style:italic; font-weight:normal; font-size:35.265305; fill:black" transform="matrix(1.000000 -0.000000 0.000000 1.000000 261.715637 43.346939)"
	>a</text>
<text x="0" y="0" style="font-family:Times; font-style:italic; font-weight:normal; font-size:35.265305; fill:black" transform="matrix(1.000000 -0.000000 0.000000 1.000000 185.457108 43.346939)"
	>y</text>
<text x="0" y="0" style="font-family:Times; font-style:italic; font-weight:normal; font-size:35.265305; fill:black" transform="matrix(1.000000 -0.000000 0.000000 1.000000 124.991776 43.346939)"
	>c</text>
<text x="0" y="0" style="font-family:Times; font-style:italic; font-weight:normal; font-size:35.265305; fill:black" transform="matrix(1.000000 -0.000000 0.000000 1.000000 71.746178 43.346939)"
	>cx</text>
<text x="0" y="0" style="font-family:Times; font-style:italic; font-weight:normal; font-size:35.265305; fill:black" transform="matrix(1.000000 -0.000000 0.000000 1.000000 0.000000 43.346939)"
	>x</text>
<text x="0" y="0" style="font-family:Symbol; font-style:normal; font-weight:normal; font-size:35.265305; fill:black" transform="matrix(1.000000 -0.000000 0.000000 1.000000 716.408936 43.346939)"
	>+</text>
<text x="0" y="0" style="font-family:Symbol; font-style:normal; font-weight:normal; font-size:35.265305; fill:black" transform="matrix(1.000000 -0.000000 0.000000 1.000000 659.102234 43.346939)"
	>+</text>
<text x="0" y="0" style="font-family:Symbol; font-style:normal; font-weight:normal; font-size:35.265305; fill:black" transform="matrix(1.000000 -0.000000 0.000000 1.000000 590.965942 43.346939)"
	>+</text>
<text x="0" y="0" style="font-family:Symbol; font-style:normal; font-weight:normal; font-size:35.265305; fill:black" transform="matrix(1.000000 -0.000000 0.000000 1.000000 531.854309 43.346939)"
	>+</text>
<text x="0" y="0" style="font-family:Symbol; font-style:normal; font-weight:normal; font-size:35.265305; fill:black" transform="matrix(1.000000 -0.000000 0.000000 1.000000 468.531128 43.346939)"
	>+</text>
<text x="0" y="0" style="font-family:Symbol; font-style:normal; font-weight:normal; font-size:35.265305; fill:black" transform="matrix(1.000000 -0.000000 0.000000 1.000000 401.297302 43.346939)"
	>+</text>
<text x="0" y="0" style="font-family:Symbol; font-style:normal; font-weight:normal; font-size:35.265305; fill:black" transform="matrix(1.000000 -0.000000 0.000000 1.000000 299.168030 43.346939)"
	>-</text>
<text x="0" y="0" style="font-family:Symbol; font-style:normal; font-weight:normal; font-size:35.265305; fill:black" transform="matrix(1.000000 -0.000000 0.000000 1.000000 223.360748 43.346939)"
	>=</text>
<text x="0" y="0" style="font-family:Symbol; font-style:normal; font-weight:normal; font-size:35.265305; fill:black" transform="matrix(1.000000 -0.000000 0.000000 1.000000 160.639252 43.346939)"
	>+</text>
<text x="0" y="0" style="font-family:Symbol; font-style:normal; font-weight:normal; font-size:35.265305; fill:black" transform="matrix(1.000000 -0.000000 0.000000 1.000000 103.332550 43.346939)"
	>+</text>
<text x="0" y="0" style="font-family:Symbol; font-style:normal; font-weight:normal; font-size:35.265305; fill:black" transform="matrix(1.000000 -0.000000 0.000000 1.000000 35.647472 43.346939)"
	>-</text>
</svg>
