<?xml version="1.0" standalone="no"?>
<!DOCTYPE svg PUBLIC "-//W3C//DTD SVG 20001102//EN"
"http://www.w3.org/TR/2000/CR-SVG-20001102/DTD/svg-20001102.dtd">
<svg width="768" height="226"
	xmlns:sodipodi="http://sodipodi.sourceforge.net/DTD/sodipodi-0.dtd">
<desc>wmf2svg</desc>
<text x="0" y="0" style="font-family:Times; font-style:normal; font-weight:normal; font-size:116.338173; fill:black" transform="matrix(1.000000 -0.000000 0.000000 1.000000 62.845158 89.580399)"
	>2</text>
<text x="0" y="0" style="font-family:Times; font-style:normal; font-weight:normal; font-size:201.233597; fill:black" transform="matrix(1.000000 -0.000000 0.000000 1.000000 209.161575 179.716278)"
	>1</text>
<text x="0" y="0" style="font-family:Times; font-style:normal; font-weight:normal; font-size:201.233597; fill:black" transform="matrix(1.000000 -0.000000 0.000000 1.000000 271.039886 179.716278)"
	>0</text>
<text x="0" y="0" style="font-family:Times; font-style:normal; font-weight:normal; font-size:201.233597; fill:black" transform="matrix(1.000000 -0.000000 0.000000 1.000000 520.486816 179.716278)"
	>0</text>
<text x="0" y="0" style="font-family:Times; font-style:italic; font-weight:normal; font-size:201.233597; fill:black" transform="matrix(1.000000 -0.000000 0.000000 1.000000 0.000000 179.716278)"
	>y</text>
<text x="0" y="0" style="font-family:Times; font-style:italic; font-weight:normal; font-size:201.233597; fill:black" transform="matrix(1.000000 -0.000000 0.000000 1.000000 340.652954 179.716278)"
	>x</text>
<text x="0" y="0" style="font-family:Symbol; font-style:normal; font-weight:normal; font-size:201.233597; fill:black" transform="matrix(1.000000 -0.000000 0.000000 1.000000 131.813675 179.716278)"
	>+</text>
<text x="0" y="0" style="font-family:Symbol; font-style:normal; font-weight:normal; font-size:201.233597; fill:black" transform="matrix(1.000000 -0.000000 0.000000 1.000000 425.735626 179.716278)"
	>=</text>
</svg>
