<?xml version="1.0" standalone="no"?>
<!DOCTYPE svg PUBLIC "-//W3C//DTD SVG 20001102//EN"
"http://www.w3.org/TR/2000/CR-SVG-20001102/DTD/svg-20001102.dtd">
<svg width="768" height="239"
	xmlns:sodipodi="http://sodipodi.sourceforge.net/DTD/sodipodi-0.dtd">
<desc>wmf2svg</desc>
<line x1="346.476288" y1="125.969307" x2="638.576965" y2="125.969307" 
	style="stroke-width:3.664584; stroke-linecap:round; stroke-linejoin:round; stroke-dasharray:none; stroke:black" />
<text x="0" y="0" style="font-family:Times; font-style:normal; font-weight:normal; font-size:89.618004; fill:black" transform="matrix(1.000000 -0.000000 0.000000 1.000000 724.859009 148.373810)"
	>1</text>
<text x="0" y="0" style="font-family:Times; font-style:normal; font-weight:normal; font-size:89.618004; fill:black" transform="matrix(1.000000 -0.000000 0.000000 1.000000 472.304260 218.387878)"
	>4</text>
<text x="0" y="0" style="font-family:Times; font-style:normal; font-weight:normal; font-size:89.618004; fill:black" transform="matrix(1.000000 -0.000000 0.000000 1.000000 555.890015 91.895790)"
	>)</text>
<text x="0" y="0" style="font-family:Times; font-style:normal; font-weight:normal; font-size:89.618004; fill:black" transform="matrix(1.000000 -0.000000 0.000000 1.000000 512.748962 91.895790)"
	>2</text>
<text x="0" y="0" style="font-family:Times; font-style:normal; font-weight:normal; font-size:89.618004; fill:black" transform="matrix(1.000000 -0.000000 0.000000 1.000000 350.970154 91.895790)"
	>(</text>
<text x="0" y="0" style="font-family:Times; font-style:normal; font-weight:normal; font-size:89.618004; fill:black" transform="matrix(1.000000 -0.000000 0.000000 1.000000 184.697479 148.373810)"
	>)</text>
<text x="0" y="0" style="font-family:Times; font-style:normal; font-weight:normal; font-size:89.618004; fill:black" transform="matrix(1.000000 -0.000000 0.000000 1.000000 148.297256 148.373810)"
	>1</text>
<text x="0" y="0" style="font-family:Times; font-style:normal; font-weight:normal; font-size:89.618004; fill:black" transform="matrix(1.000000 -0.000000 0.000000 1.000000 0.000000 148.373810)"
	>(</text>
<text x="0" y="0" style="font-family:Times; font-style:normal; font-weight:normal; font-size:67.213501; fill:black" transform="matrix(1.000000 -0.000000 0.000000 1.000000 591.391479 51.754395)"
	>2</text>
<text x="0" y="0" style="font-family:Times; font-style:normal; font-weight:normal; font-size:67.213501; fill:black" transform="matrix(1.000000 -0.000000 0.000000 1.000000 220.198944 108.232407)"
	>2</text>
<text x="0" y="0" style="font-family:Symbol; font-style:normal; font-weight:normal; font-size:89.618004; fill:black" transform="matrix(1.000000 -0.000000 0.000000 1.000000 664.191956 148.373810)"
	>=</text>
<text x="0" y="0" style="font-family:Symbol; font-style:normal; font-weight:normal; font-size:89.618004; fill:black" transform="matrix(1.000000 -0.000000 0.000000 1.000000 448.037445 91.895790)"
	>-</text>
<text x="0" y="0" style="font-family:Symbol; font-style:normal; font-weight:normal; font-size:89.618004; fill:black" transform="matrix(1.000000 -0.000000 0.000000 1.000000 280.416626 148.373810)"
	>-</text>
<text x="0" y="0" style="font-family:Symbol; font-style:normal; font-weight:normal; font-size:89.618004; fill:black" transform="matrix(1.000000 -0.000000 0.000000 1.000000 91.674667 148.373810)"
	>+</text>
<text x="0" y="0" style="font-family:Times; font-style:italic; font-weight:normal; font-size:89.618004; fill:black" transform="matrix(1.000000 -0.000000 0.000000 1.000000 390.066711 91.895790)"
	>y</text>
<text x="0" y="0" style="font-family:Times; font-style:italic; font-weight:normal; font-size:89.618004; fill:black" transform="matrix(1.000000 -0.000000 0.000000 1.000000 35.052078 148.373810)"
	>x</text>
</svg>
