<?xml version="1.0" standalone="no"?>
<!DOCTYPE svg PUBLIC "-//W3C//DTD SVG 20001102//EN"
"http://www.w3.org/TR/2000/CR-SVG-20001102/DTD/svg-20001102.dtd">
<svg width="768" height="449"
	xmlns:sodipodi="http://sodipodi.sourceforge.net/DTD/sodipodi-0.dtd">
<desc>wmf2svg</desc>
<line x1="551.920349" y1="213.677444" x2="763.922974" y2="213.677444" 
	style="stroke-width:7.956023; stroke-linecap:round; stroke-linejoin:round; stroke-dasharray:none; stroke:black" />
<text x="0" y="0" style="font-family:Times; font-style:italic; font-weight:normal; font-size:108.613388; fill:black" transform="matrix(1.000000 -0.000000 0.000000 1.000000 675.248779 322.775696)"
	>x</text>
<text x="0" y="0" style="font-family:Times; font-style:italic; font-weight:normal; font-size:186.194382; fill:black" transform="matrix(1.000000 -0.000000 0.000000 1.000000 184.483063 260.226044)"
	>x</text>
<text x="0" y="0" style="font-family:Times; font-style:italic; font-weight:normal; font-size:186.194382; fill:black" transform="matrix(1.000000 -0.000000 0.000000 1.000000 0.000000 260.226044)"
	>f</text>
<text x="0" y="0" style="font-family:Times; font-style:normal; font-weight:normal; font-size:186.194382; fill:black" transform="matrix(1.000000 -0.000000 0.000000 1.000000 561.093506 406.175293)"
	>6</text>
<text x="0" y="0" style="font-family:Times; font-style:normal; font-weight:normal; font-size:186.194382; fill:black" transform="matrix(1.000000 -0.000000 0.000000 1.000000 609.507629 143.369675)"
	>1</text>
<text x="0" y="0" style="font-family:Times; font-style:normal; font-weight:normal; font-size:186.194382; fill:black" transform="matrix(1.000000 -0.000000 0.000000 1.000000 280.801575 260.226044)"
	>)</text>
<text x="0" y="0" style="font-family:Times; font-style:normal; font-weight:normal; font-size:186.194382; fill:black" transform="matrix(1.000000 -0.000000 0.000000 1.000000 100.905113 260.226044)"
	>(</text>
<text x="0" y="0" style="font-family:Symbol; font-style:normal; font-weight:normal; font-size:186.194382; fill:black" transform="matrix(1.000000 -0.000000 0.000000 1.000000 393.427979 260.226044)"
	>=</text>
</svg>
