<?xml version="1.0" standalone="no"?>
<!DOCTYPE svg PUBLIC "-//W3C//DTD SVG 20001102//EN"
"http://www.w3.org/TR/2000/CR-SVG-20001102/DTD/svg-20001102.dtd">
<svg width="768" height="65"
	xmlns:sodipodi="http://sodipodi.sourceforge.net/DTD/sodipodi-0.dtd">
<desc>wmf2svg</desc>
<text x="0" y="0" style="font-family:Times; font-style:normal; font-weight:normal; font-size:33.641403; fill:black" transform="matrix(1.000000 -0.000000 0.000000 1.000000 755.030151 25.903881)"
	>2</text>
<text x="0" y="0" style="font-family:Times; font-style:normal; font-weight:normal; font-size:33.641403; fill:black" transform="matrix(1.000000 -0.000000 0.000000 1.000000 713.341370 25.903881)"
	>2</text>
<text x="0" y="0" style="font-family:Times; font-style:normal; font-weight:normal; font-size:33.641403; fill:black" transform="matrix(1.000000 -0.000000 0.000000 1.000000 590.012085 25.903881)"
	>2</text>
<text x="0" y="0" style="font-family:Times; font-style:normal; font-weight:normal; font-size:33.641403; fill:black" transform="matrix(1.000000 -0.000000 0.000000 1.000000 478.841980 25.903881)"
	>4</text>
<text x="0" y="0" style="font-family:Times; font-style:normal; font-weight:normal; font-size:33.641403; fill:black" transform="matrix(1.000000 -0.000000 0.000000 1.000000 370.798553 25.903881)"
	>2</text>
<text x="0" y="0" style="font-family:Times; font-style:normal; font-weight:normal; font-size:33.641403; fill:black" transform="matrix(1.000000 -0.000000 0.000000 1.000000 279.893860 25.903881)"
	>2</text>
<text x="0" y="0" style="font-family:Times; font-style:normal; font-weight:normal; font-size:33.641403; fill:black" transform="matrix(1.000000 -0.000000 0.000000 1.000000 87.199036 25.903881)"
	>2</text>
<text x="0" y="0" style="font-family:Times; font-style:normal; font-weight:normal; font-size:33.641403; fill:black" transform="matrix(1.000000 -0.000000 0.000000 1.000000 26.287092 25.903881)"
	>2</text>
<text x="0" y="0" style="font-family:Times; font-style:normal; font-weight:normal; font-size:57.670979; fill:black" transform="matrix(1.000000 -0.000000 0.000000 1.000000 540.796143 51.735672)"
	>2</text>
<text x="0" y="0" style="font-family:Times; font-style:normal; font-weight:normal; font-size:57.670979; fill:black" transform="matrix(1.000000 -0.000000 0.000000 1.000000 389.790100 51.735672)"
	>)</text>
<text x="0" y="0" style="font-family:Times; font-style:normal; font-weight:normal; font-size:57.670979; fill:black" transform="matrix(1.000000 -0.000000 0.000000 1.000000 149.153198 51.735672)"
	>2</text>
<text x="0" y="0" style="font-family:Times; font-style:normal; font-weight:normal; font-size:57.670979; fill:black" transform="matrix(1.000000 -0.000000 0.000000 1.000000 44.699638 51.735672)"
	>(</text>
<text x="0" y="0" style="font-family:Times; font-style:italic; font-weight:normal; font-size:57.670979; fill:black" transform="matrix(1.000000 -0.000000 0.000000 1.000000 731.522339 51.735672)"
	>x</text>
<text x="0" y="0" style="font-family:Times; font-style:italic; font-weight:normal; font-size:57.670979; fill:black" transform="matrix(1.000000 -0.000000 0.000000 1.000000 690.412537 51.735672)"
	>c</text>
<text x="0" y="0" style="font-family:Times; font-style:italic; font-weight:normal; font-size:57.670979; fill:black" transform="matrix(1.000000 -0.000000 0.000000 1.000000 605.529541 51.735672)"
	>cx</text>
<text x="0" y="0" style="font-family:Times; font-style:italic; font-weight:normal; font-size:57.670979; fill:black" transform="matrix(1.000000 -0.000000 0.000000 1.000000 563.724976 51.735672)"
	>a</text>
<text x="0" y="0" style="font-family:Times; font-style:italic; font-weight:normal; font-size:57.670979; fill:black" transform="matrix(1.000000 -0.000000 0.000000 1.000000 452.554871 51.735672)"
	>a</text>
<text x="0" y="0" style="font-family:Times; font-style:italic; font-weight:normal; font-size:57.670979; fill:black" transform="matrix(1.000000 -0.000000 0.000000 1.000000 346.711700 51.735672)"
	>y</text>
<text x="0" y="0" style="font-family:Times; font-style:italic; font-weight:normal; font-size:57.670979; fill:black" transform="matrix(1.000000 -0.000000 0.000000 1.000000 256.965027 51.735672)"
	>c</text>
<text x="0" y="0" style="font-family:Times; font-style:italic; font-weight:normal; font-size:57.670979; fill:black" transform="matrix(1.000000 -0.000000 0.000000 1.000000 172.082031 51.735672)"
	>cx</text>
<text x="0" y="0" style="font-family:Times; font-style:italic; font-weight:normal; font-size:57.670979; fill:black" transform="matrix(1.000000 -0.000000 0.000000 1.000000 63.691193 51.735672)"
	>x</text>
<text x="0" y="0" style="font-family:Times; font-style:italic; font-weight:normal; font-size:57.670979; fill:black" transform="matrix(1.000000 -0.000000 0.000000 1.000000 0.000000 51.735672)"
	>a</text>
<text x="0" y="0" style="font-family:Symbol; font-style:normal; font-weight:normal; font-size:57.670979; fill:black" transform="matrix(1.000000 -0.000000 0.000000 1.000000 656.019287 51.735672)"
	>+</text>
<text x="0" y="0" style="font-family:Symbol; font-style:normal; font-weight:normal; font-size:57.670979; fill:black" transform="matrix(1.000000 -0.000000 0.000000 1.000000 506.402893 51.735672)"
	>+</text>
<text x="0" y="0" style="font-family:Symbol; font-style:normal; font-weight:normal; font-size:57.670979; fill:black" transform="matrix(1.000000 -0.000000 0.000000 1.000000 416.424622 51.735672)"
	>=</text>
<text x="0" y="0" style="font-family:Symbol; font-style:normal; font-weight:normal; font-size:57.670979; fill:black" transform="matrix(1.000000 -0.000000 0.000000 1.000000 307.454773 51.735672)"
	>+</text>
<text x="0" y="0" style="font-family:Symbol; font-style:normal; font-weight:normal; font-size:57.670979; fill:black" transform="matrix(1.000000 -0.000000 0.000000 1.000000 222.571777 51.735672)"
	>+</text>
<text x="0" y="0" style="font-family:Symbol; font-style:normal; font-weight:normal; font-size:57.670979; fill:black" transform="matrix(1.000000 -0.000000 0.000000 1.000000 114.759949 51.735672)"
	>+</text>
</svg>
