<?xml version="1.0" standalone="no"?>
<!DOCTYPE svg PUBLIC "-//W3C//DTD SVG 20001102//EN"
"http://www.w3.org/TR/2000/CR-SVG-20001102/DTD/svg-20001102.dtd">
<svg width="768" height="112"
	xmlns:sodipodi="http://sodipodi.sourceforge.net/DTD/sodipodi-0.dtd">
<desc>wmf2svg</desc>
<text x="0" y="0" style="font-family:Times; font-style:normal; font-weight:normal; font-size:89.213409; fill:black" transform="matrix(1.000000 -0.000000 0.000000 1.000000 733.579834 91.480911)"
	>0</text>
<text x="0" y="0" style="font-family:Times; font-style:normal; font-weight:normal; font-size:89.213409; fill:black" transform="matrix(1.000000 -0.000000 0.000000 1.000000 627.092407 91.480911)"
	>6</text>
<text x="0" y="0" style="font-family:Times; font-style:normal; font-weight:normal; font-size:89.213409; fill:black" transform="matrix(1.000000 -0.000000 0.000000 1.000000 487.260498 91.480911)"
	>4</text>
<text x="0" y="0" style="font-family:Times; font-style:normal; font-weight:normal; font-size:89.213409; fill:black" transform="matrix(1.000000 -0.000000 0.000000 1.000000 350.655457 91.480911)"
	>2</text>
<text x="0" y="0" style="font-family:Times; font-style:normal; font-weight:normal; font-size:89.213409; fill:black" transform="matrix(1.000000 -0.000000 0.000000 1.000000 172.100845 91.480911)"
	>3</text>
<text x="0" y="0" style="font-family:Times; font-style:normal; font-weight:normal; font-size:89.213409; fill:black" transform="matrix(1.000000 -0.000000 0.000000 1.000000 0.000000 91.480911)"
	>3</text>
<text x="0" y="0" style="font-family:Times; font-style:normal; font-weight:normal; font-size:66.910057; fill:black" transform="matrix(1.000000 -0.000000 0.000000 1.000000 249.904755 51.520741)"
	>2</text>
<text x="0" y="0" style="font-family:Times; font-style:normal; font-weight:normal; font-size:66.910057; fill:black" transform="matrix(1.000000 -0.000000 0.000000 1.000000 73.501404 51.520741)"
	>2</text>
<text x="0" y="0" style="font-family:Symbol; font-style:normal; font-weight:normal; font-size:89.213409; fill:black" transform="matrix(1.000000 -0.000000 0.000000 1.000000 678.722717 91.480911)"
	>=</text>
<text x="0" y="0" style="font-family:Symbol; font-style:normal; font-weight:normal; font-size:89.213409; fill:black" transform="matrix(1.000000 -0.000000 0.000000 1.000000 575.462158 91.480911)"
	>+</text>
<text x="0" y="0" style="font-family:Symbol; font-style:normal; font-weight:normal; font-size:89.213409; fill:black" transform="matrix(1.000000 -0.000000 0.000000 1.000000 434.554626 91.480911)"
	>+</text>
<text x="0" y="0" style="font-family:Symbol; font-style:normal; font-weight:normal; font-size:89.213409; fill:black" transform="matrix(1.000000 -0.000000 0.000000 1.000000 297.949585 91.480911)"
	>+</text>
<text x="0" y="0" style="font-family:Symbol; font-style:normal; font-weight:normal; font-size:89.213409; fill:black" transform="matrix(1.000000 -0.000000 0.000000 1.000000 121.546219 91.480911)"
	>+</text>
<text x="0" y="0" style="font-family:Times; font-style:italic; font-weight:normal; font-size:89.213409; fill:black" transform="matrix(1.000000 -0.000000 0.000000 1.000000 529.210083 91.480911)"
	>y</text>
<text x="0" y="0" style="font-family:Times; font-style:italic; font-weight:normal; font-size:89.213409; fill:black" transform="matrix(1.000000 -0.000000 0.000000 1.000000 389.378143 91.480911)"
	>x</text>
<text x="0" y="0" style="font-family:Times; font-style:italic; font-weight:normal; font-size:89.213409; fill:black" transform="matrix(1.000000 -0.000000 0.000000 1.000000 211.899155 91.480911)"
	>y</text>
<text x="0" y="0" style="font-family:Times; font-style:italic; font-weight:normal; font-size:89.213409; fill:black" transform="matrix(1.000000 -0.000000 0.000000 1.000000 36.571430 91.480911)"
	>x</text>
</svg>
