<?xml version="1.0" standalone="no"?>
<!DOCTYPE svg PUBLIC "-//W3C//DTD SVG 20001102//EN"
"http://www.w3.org/TR/2000/CR-SVG-20001102/DTD/svg-20001102.dtd">
<svg width="768" height="133"
	xmlns:sodipodi="http://sodipodi.sourceforge.net/DTD/sodipodi-0.dtd">
<desc>wmf2svg</desc>
<text x="0" y="0" style="font-family:Times; font-style:normal; font-weight:normal; font-size:105.940926; fill:black" transform="matrix(1.000000 -0.000000 0.000000 1.000000 684.972961 108.633591)"
	>16</text>
<text x="0" y="0" style="font-family:Times; font-style:normal; font-weight:normal; font-size:105.940926; fill:black" transform="matrix(1.000000 -0.000000 0.000000 1.000000 529.297241 108.633591)"
	>)</text>
<text x="0" y="0" style="font-family:Times; font-style:normal; font-weight:normal; font-size:105.940926; fill:black" transform="matrix(1.000000 -0.000000 0.000000 1.000000 494.270233 108.633591)"
	>1</text>
<text x="0" y="0" style="font-family:Times; font-style:normal; font-weight:normal; font-size:105.940926; fill:black" transform="matrix(1.000000 -0.000000 0.000000 1.000000 347.675659 108.633591)"
	>(</text>
<text x="0" y="0" style="font-family:Times; font-style:normal; font-weight:normal; font-size:105.940926; fill:black" transform="matrix(1.000000 -0.000000 0.000000 1.000000 193.297302 108.633591)"
	>)</text>
<text x="0" y="0" style="font-family:Times; font-style:normal; font-weight:normal; font-size:105.940926; fill:black" transform="matrix(1.000000 -0.000000 0.000000 1.000000 151.783783 108.633591)"
	>2</text>
<text x="0" y="0" style="font-family:Times; font-style:normal; font-weight:normal; font-size:105.940926; fill:black" transform="matrix(1.000000 -0.000000 0.000000 1.000000 0.000000 108.633591)"
	>(</text>
<text x="0" y="0" style="font-family:Times; font-style:normal; font-weight:normal; font-size:79.455696; fill:black" transform="matrix(1.000000 -0.000000 0.000000 1.000000 563.459473 61.180882)"
	>2</text>
<text x="0" y="0" style="font-family:Times; font-style:normal; font-weight:normal; font-size:79.455696; fill:black" transform="matrix(1.000000 -0.000000 0.000000 1.000000 227.459442 61.180882)"
	>2</text>
<text x="0" y="0" style="font-family:Symbol; font-style:normal; font-weight:normal; font-size:105.940926; fill:black" transform="matrix(1.000000 -0.000000 0.000000 1.000000 626.594604 108.633591)"
	>=</text>
<text x="0" y="0" style="font-family:Symbol; font-style:normal; font-weight:normal; font-size:105.940926; fill:black" transform="matrix(1.000000 -0.000000 0.000000 1.000000 441.081085 108.633591)"
	>-</text>
<text x="0" y="0" style="font-family:Symbol; font-style:normal; font-weight:normal; font-size:105.940926; fill:black" transform="matrix(1.000000 -0.000000 0.000000 1.000000 285.405396 108.633591)"
	>+</text>
<text x="0" y="0" style="font-family:Symbol; font-style:normal; font-weight:normal; font-size:105.940926; fill:black" transform="matrix(1.000000 -0.000000 0.000000 1.000000 88.216217 108.633591)"
	>+</text>
<text x="0" y="0" style="font-family:Times; font-style:italic; font-weight:normal; font-size:105.940926; fill:black" transform="matrix(1.000000 -0.000000 0.000000 1.000000 385.297302 108.633591)"
	>y</text>
<text x="0" y="0" style="font-family:Times; font-style:italic; font-weight:normal; font-size:105.940926; fill:black" transform="matrix(1.000000 -0.000000 0.000000 1.000000 33.729729 108.633591)"
	>x</text>
</svg>
