<?xml version="1.0" standalone="no"?>
<!DOCTYPE svg PUBLIC "-//W3C//DTD SVG 20001102//EN"
"http://www.w3.org/TR/2000/CR-SVG-20001102/DTD/svg-20001102.dtd">
<svg width="768" height="82"
	xmlns:sodipodi="http://sodipodi.sourceforge.net/DTD/sodipodi-0.dtd">
<desc>wmf2svg</desc>
<line x1="357.579895" y1="52.640038" x2="363.730621" y2="48.012501" 
	style="stroke-width:2.542169; stroke-linecap:round; stroke-linejoin:round; stroke-dasharray:none; stroke:black" />
<line x1="363.730621" y1="49.436359" x2="372.677094" y2="70.438271" 
	style="stroke-width:5.084338; stroke-linecap:round; stroke-linejoin:round; stroke-dasharray:none; stroke:black" />
<line x1="373.795410" y1="70.438271" x2="385.957031" y2="6.898592" 
	style="stroke-width:2.542169; stroke-linecap:round; stroke-linejoin:round; stroke-dasharray:none; stroke:black" />
<line x1="385.957031" y1="6.898592" x2="415.871857" y2="6.898592" 
	style="stroke-width:2.542169; stroke-linecap:round; stroke-linejoin:round; stroke-dasharray:none; stroke:black" />
<line x1="513.863831" y1="52.640038" x2="520.014587" y2="48.012501" 
	style="stroke-width:2.542169; stroke-linecap:round; stroke-linejoin:round; stroke-dasharray:none; stroke:black" />
<line x1="520.014587" y1="49.436359" x2="528.961060" y2="70.438271" 
	style="stroke-width:5.084338; stroke-linecap:round; stroke-linejoin:round; stroke-dasharray:none; stroke:black" />
<line x1="530.079346" y1="70.438271" x2="542.240967" y2="6.898592" 
	style="stroke-width:2.542169; stroke-linecap:round; stroke-linejoin:round; stroke-dasharray:none; stroke:black" />
<line x1="542.240967" y1="6.898592" x2="572.155823" y2="6.898592" 
	style="stroke-width:2.542169; stroke-linecap:round; stroke-linejoin:round; stroke-dasharray:none; stroke:black" />
<text x="0" y="0" style="font-family:Times; font-style:normal; font-weight:normal; font-size:62.649765; fill:black" transform="matrix(1.000000 -0.000000 0.000000 1.000000 743.397156 67.590553)"
	>0</text>
<text x="0" y="0" style="font-family:Times; font-style:normal; font-weight:normal; font-size:62.649765; fill:black" transform="matrix(1.000000 -0.000000 0.000000 1.000000 646.663269 67.590553)"
	>32</text>
<text x="0" y="0" style="font-family:Times; font-style:normal; font-weight:normal; font-size:62.649765; fill:black" transform="matrix(1.000000 -0.000000 0.000000 1.000000 545.456116 67.590553)"
	>2</text>
<text x="0" y="0" style="font-family:Times; font-style:normal; font-weight:normal; font-size:62.649765; fill:black" transform="matrix(1.000000 -0.000000 0.000000 1.000000 487.303955 67.590553)"
	>8</text>
<text x="0" y="0" style="font-family:Times; font-style:normal; font-weight:normal; font-size:62.649765; fill:black" transform="matrix(1.000000 -0.000000 0.000000 1.000000 389.172180 67.590553)"
	>2</text>
<text x="0" y="0" style="font-family:Times; font-style:normal; font-weight:normal; font-size:62.649765; fill:black" transform="matrix(1.000000 -0.000000 0.000000 1.000000 331.020020 67.590553)"
	>8</text>
<text x="0" y="0" style="font-family:Times; font-style:normal; font-weight:normal; font-size:62.649765; fill:black" transform="matrix(1.000000 -0.000000 0.000000 1.000000 103.303970 67.590553)"
	>2</text>
<text x="0" y="0" style="font-family:Times; font-style:normal; font-weight:normal; font-size:51.258896; fill:black" transform="matrix(1.000000 -0.000000 0.000000 1.000000 257.770660 39.469349)"
	>2</text>
<text x="0" y="0" style="font-family:Times; font-style:normal; font-weight:normal; font-size:51.258896; fill:black" transform="matrix(1.000000 -0.000000 0.000000 1.000000 26.839460 39.469349)"
	>2</text>
<text x="0" y="0" style="font-family:Symbol; font-style:normal; font-weight:normal; font-size:62.649765; fill:black" transform="matrix(1.000000 -0.000000 0.000000 1.000000 706.213318 67.590553)"
	>=</text>
<text x="0" y="0" style="font-family:Symbol; font-style:normal; font-weight:normal; font-size:62.649765; fill:black" transform="matrix(1.000000 -0.000000 0.000000 1.000000 610.178406 67.590553)"
	>-</text>
<text x="0" y="0" style="font-family:Symbol; font-style:normal; font-weight:normal; font-size:62.649765; fill:black" transform="matrix(1.000000 -0.000000 0.000000 1.000000 450.819061 67.590553)"
	>+</text>
<text x="0" y="0" style="font-family:Symbol; font-style:normal; font-weight:normal; font-size:62.649765; fill:black" transform="matrix(1.000000 -0.000000 0.000000 1.000000 295.373871 67.590553)"
	>-</text>
<text x="0" y="0" style="font-family:Symbol; font-style:normal; font-weight:normal; font-size:62.649765; fill:black" transform="matrix(1.000000 -0.000000 0.000000 1.000000 186.757919 67.590553)"
	>+</text>
<text x="0" y="0" style="font-family:Symbol; font-style:normal; font-weight:normal; font-size:62.649765; fill:black" transform="matrix(1.000000 -0.000000 0.000000 1.000000 64.442665 67.590553)"
	>+</text>
<text x="0" y="0" style="font-family:Times; font-style:italic; font-weight:normal; font-size:62.649765; fill:black" transform="matrix(1.000000 -0.000000 0.000000 1.000000 575.930115 67.590553)"
	>y</text>
<text x="0" y="0" style="font-family:Times; font-style:italic; font-weight:normal; font-size:62.649765; fill:black" transform="matrix(1.000000 -0.000000 0.000000 1.000000 417.409546 67.590553)"
	>x</text>
<text x="0" y="0" style="font-family:Times; font-style:italic; font-weight:normal; font-size:62.649765; fill:black" transform="matrix(1.000000 -0.000000 0.000000 1.000000 230.092468 67.590553)"
	>y</text>
<text x="0" y="0" style="font-family:Times; font-style:italic; font-weight:normal; font-size:62.649765; fill:black" transform="matrix(1.000000 -0.000000 0.000000 1.000000 130.982162 67.590553)"
	>xy</text>
<text x="0" y="0" style="font-family:Times; font-style:italic; font-weight:normal; font-size:62.649765; fill:black" transform="matrix(1.000000 -0.000000 0.000000 1.000000 0.000000 67.590553)"
	>x</text>
</svg>
