<?xml version="1.0" standalone="no"?>
<!DOCTYPE svg PUBLIC "-//W3C//DTD SVG 20001102//EN"
"http://www.w3.org/TR/2000/CR-SVG-20001102/DTD/svg-20001102.dtd">
<svg width="768" height="181"
	xmlns:sodipodi="http://sodipodi.sourceforge.net/DTD/sodipodi-0.dtd">
<desc>wmf2svg</desc>
<line x1="1.410145" y1="91.073074" x2="766.589844" y2="91.073074" 
	style="stroke-width:2.898632; stroke-linecap:round; stroke-linejoin:round; stroke-dasharray:none; stroke:black" />
<text x="0" y="0" style="font-family:Times; font-style:normal; font-weight:normal; font-size:71.447372; fill:black" transform="matrix(1.000000 -0.000000 0.000000 1.000000 367.518921 164.567108)"
	>4</text>
<text x="0" y="0" style="font-family:Times; font-style:italic; font-weight:normal; font-size:41.677635; fill:black" transform="matrix(1.000000 -0.000000 0.000000 1.000000 735.566650 32.091778)"
	>y</text>
<text x="0" y="0" style="font-family:Times; font-style:italic; font-weight:normal; font-size:41.677635; fill:black" transform="matrix(1.000000 -0.000000 0.000000 1.000000 686.916687 32.091778)"
	>x</text>
<text x="0" y="0" style="font-family:Times; font-style:italic; font-weight:normal; font-size:41.677635; fill:black" transform="matrix(1.000000 -0.000000 0.000000 1.000000 534.797363 32.091778)"
	>y</text>
<text x="0" y="0" style="font-family:Times; font-style:italic; font-weight:normal; font-size:41.677635; fill:black" transform="matrix(1.000000 -0.000000 0.000000 1.000000 472.398438 32.091778)"
	>x</text>
<text x="0" y="0" style="font-family:Times; font-style:italic; font-weight:normal; font-size:41.677635; fill:black" transform="matrix(1.000000 -0.000000 0.000000 1.000000 320.279083 32.091778)"
	>y</text>
<text x="0" y="0" style="font-family:Times; font-style:italic; font-weight:normal; font-size:41.677635; fill:black" transform="matrix(1.000000 -0.000000 0.000000 1.000000 232.321320 32.091778)"
	>x</text>
<text x="0" y="0" style="font-family:Times; font-style:italic; font-weight:normal; font-size:41.677635; fill:black" transform="matrix(1.000000 -0.000000 0.000000 1.000000 104.879501 32.091778)"
	>y</text>
<text x="0" y="0" style="font-family:Times; font-style:italic; font-weight:normal; font-size:41.677635; fill:black" transform="matrix(1.000000 -0.000000 0.000000 1.000000 42.480606 32.091778)"
	>x</text>
<text x="0" y="0" style="font-family:Times; font-style:italic; font-weight:normal; font-size:71.447372; fill:black" transform="matrix(1.000000 -0.000000 0.000000 1.000000 624.341492 64.094246)"
	>e</text>
<text x="0" y="0" style="font-family:Times; font-style:italic; font-weight:normal; font-size:71.447372; fill:black" transform="matrix(1.000000 -0.000000 0.000000 1.000000 495.842102 64.094246)"
	>e</text>
<text x="0" y="0" style="font-family:Times; font-style:italic; font-weight:normal; font-size:71.447372; fill:black" transform="matrix(1.000000 -0.000000 0.000000 1.000000 409.823273 64.094246)"
	>e</text>
<text x="0" y="0" style="font-family:Times; font-style:italic; font-weight:normal; font-size:71.447372; fill:black" transform="matrix(1.000000 -0.000000 0.000000 1.000000 255.764969 64.094246)"
	>e</text>
<text x="0" y="0" style="font-family:Times; font-style:italic; font-weight:normal; font-size:71.447372; fill:black" transform="matrix(1.000000 -0.000000 0.000000 1.000000 195.305023 64.094246)"
	>e</text>
<text x="0" y="0" style="font-family:Times; font-style:italic; font-weight:normal; font-size:71.447372; fill:black" transform="matrix(1.000000 -0.000000 0.000000 1.000000 65.924263 64.094246)"
	>e</text>
<text x="0" y="0" style="font-family:Times; font-style:italic; font-weight:normal; font-size:71.447372; fill:black" transform="matrix(1.000000 -0.000000 0.000000 1.000000 5.464310 64.094246)"
	>e</text>
<text x="0" y="0" style="font-family:Symbol; font-style:normal; font-weight:normal; font-size:41.677635; fill:black" transform="matrix(1.000000 -0.000000 0.000000 1.000000 707.716309 32.091778)"
	>-</text>
<text x="0" y="0" style="font-family:Symbol; font-style:normal; font-weight:normal; font-size:41.677635; fill:black" transform="matrix(1.000000 -0.000000 0.000000 1.000000 659.595154 32.091778)"
	>-</text>
<text x="0" y="0" style="font-family:Symbol; font-style:normal; font-weight:normal; font-size:41.677635; fill:black" transform="matrix(1.000000 -0.000000 0.000000 1.000000 445.076874 32.091778)"
	>-</text>
<text x="0" y="0" style="font-family:Symbol; font-style:normal; font-weight:normal; font-size:41.677635; fill:black" transform="matrix(1.000000 -0.000000 0.000000 1.000000 291.018585 32.091778)"
	>-</text>
<text x="0" y="0" style="font-family:Symbol; font-style:normal; font-weight:normal; font-size:71.447372; fill:black" transform="matrix(1.000000 -0.000000 0.000000 1.000000 574.986450 64.094246)"
	>-</text>
<text x="0" y="0" style="font-family:Symbol; font-style:normal; font-weight:normal; font-size:71.447372; fill:black" transform="matrix(1.000000 -0.000000 0.000000 1.000000 360.468201 64.094246)"
	>-</text>
<text x="0" y="0" style="font-family:Symbol; font-style:normal; font-weight:normal; font-size:71.447372; fill:black" transform="matrix(1.000000 -0.000000 0.000000 1.000000 145.068619 64.094246)"
	>+</text>
</svg>
