<?xml version="1.0" standalone="no"?>
<!DOCTYPE svg PUBLIC "-//W3C//DTD SVG 20001102//EN"
"http://www.w3.org/TR/2000/CR-SVG-20001102/DTD/svg-20001102.dtd">
<svg width="768" height="179"
	xmlns:sodipodi="http://sodipodi.sourceforge.net/DTD/sodipodi-0.dtd">
<desc>wmf2svg</desc>
<line x1="389.204254" y1="80.387268" x2="450.674316" y2="80.387268" 
	style="stroke-width:5.647549; stroke-linecap:round; stroke-linejoin:round; stroke-dasharray:none; stroke:black" />
<text x="0" y="0" style="font-family:Times; font-style:normal; font-weight:normal; font-size:148.779221; fill:black" transform="matrix(1.000000 -0.000000 0.000000 1.000000 709.294495 117.582069)"
	>}</text>
<text x="0" y="0" style="font-family:Times; font-style:normal; font-weight:normal; font-size:148.779221; fill:black" transform="matrix(1.000000 -0.000000 0.000000 1.000000 139.183517 117.582069)"
	>:</text>
<text x="0" y="0" style="font-family:Times; font-style:normal; font-weight:normal; font-size:148.779221; fill:black" transform="matrix(1.000000 -0.000000 0.000000 1.000000 0.000000 117.582069)"
	>{</text>
<text x="0" y="0" style="font-family:Times; font-style:normal; font-weight:normal; font-size:86.787872; fill:black" transform="matrix(1.000000 -0.000000 0.000000 1.000000 402.581146 159.038788)"
	>2</text>
<text x="0" y="0" style="font-family:Symbol; font-style:normal; font-weight:normal; font-size:148.779221; fill:black" transform="matrix(1.000000 -0.000000 0.000000 1.000000 629.351562 117.582069)"
	>p</text>
<text x="0" y="0" style="font-family:Symbol; font-style:normal; font-weight:normal; font-size:86.787872; fill:black" transform="matrix(1.000000 -0.000000 0.000000 1.000000 393.344727 66.826660)"
	>p</text>
<text x="0" y="0" style="font-family:Times; font-style:italic; font-weight:normal; font-size:148.779221; fill:black" transform="matrix(1.000000 -0.000000 0.000000 1.000000 568.199951 117.582069)"
	>n</text>
<text x="0" y="0" style="font-family:Times; font-style:italic; font-weight:normal; font-size:148.779221; fill:black" transform="matrix(1.000000 -0.000000 0.000000 1.000000 202.883057 117.582069)"
	>x</text>
<text x="0" y="0" style="font-family:Times; font-style:italic; font-weight:normal; font-size:148.779221; fill:black" transform="matrix(1.000000 -0.000000 0.000000 1.000000 61.151566 117.582069)"
	>x</text>
<text x="0" y="0" style="font-family:Symbol; font-style:normal; font-weight:normal; font-size:148.779221; fill:black" transform="matrix(1.000000 -0.000000 0.000000 1.000000 477.428131 117.582069)"
	>+</text>
<text x="0" y="0" style="font-family:Symbol; font-style:normal; font-weight:normal; font-size:148.779221; fill:black" transform="matrix(1.000000 -0.000000 0.000000 1.000000 290.151459 117.582069)"
	>¹</text>
</svg>
