<?xml version="1.0" standalone="no"?>
<!DOCTYPE svg PUBLIC "-//W3C//DTD SVG 20001102//EN"
"http://www.w3.org/TR/2000/CR-SVG-20001102/DTD/svg-20001102.dtd">
<svg width="768" height="77"
	xmlns:sodipodi="http://sodipodi.sourceforge.net/DTD/sodipodi-0.dtd">
<desc>wmf2svg</desc>
<line x1="24.875401" y1="61.964260" x2="27.639336" y2="60.219395" 
	style="stroke-width:1.025633; stroke-linecap:round; stroke-linejoin:round; stroke-dasharray:none; stroke:black" />
<line x1="27.639336" y1="60.801018" x2="31.523781" y2="68.777534" 
	style="stroke-width:2.051265; stroke-linecap:round; stroke-linejoin:round; stroke-dasharray:none; stroke:black" />
<line x1="31.971987" y1="68.777534" x2="37.275753" y2="44.515625" 
	style="stroke-width:1.025633; stroke-linecap:round; stroke-linejoin:round; stroke-dasharray:none; stroke:black" />
<line x1="37.275753" y1="44.515625" x2="50.721912" y2="44.515625" 
	style="stroke-width:1.025633; stroke-linecap:round; stroke-linejoin:round; stroke-dasharray:none; stroke:black" />
<line x1="13.595565" y1="41.025898" x2="61.553547" y2="41.025898" 
	style="stroke-width:1.262317; stroke-linecap:round; stroke-linejoin:round; stroke-dasharray:none; stroke:black" />
<line x1="155.676682" y1="61.964260" x2="158.440613" y2="60.219395" 
	style="stroke-width:1.025633; stroke-linecap:round; stroke-linejoin:round; stroke-dasharray:none; stroke:black" />
<line x1="158.440613" y1="60.801018" x2="162.325073" y2="68.777534" 
	style="stroke-width:2.051265; stroke-linecap:round; stroke-linejoin:round; stroke-dasharray:none; stroke:black" />
<line x1="162.773270" y1="68.777534" x2="168.077042" y2="44.515625" 
	style="stroke-width:1.025633; stroke-linecap:round; stroke-linejoin:round; stroke-dasharray:none; stroke:black" />
<line x1="168.077042" y1="44.515625" x2="181.523193" y2="44.515625" 
	style="stroke-width:1.025633; stroke-linecap:round; stroke-linejoin:round; stroke-dasharray:none; stroke:black" />
<line x1="144.396851" y1="41.025898" x2="192.354828" y2="41.025898" 
	style="stroke-width:1.262317; stroke-linecap:round; stroke-linejoin:round; stroke-dasharray:none; stroke:black" />
<line x1="230.601700" y1="61.964260" x2="233.365631" y2="60.219395" 
	style="stroke-width:1.025633; stroke-linecap:round; stroke-linejoin:round; stroke-dasharray:none; stroke:black" />
<line x1="233.365631" y1="60.801018" x2="237.250076" y2="68.777534" 
	style="stroke-width:2.051265; stroke-linecap:round; stroke-linejoin:round; stroke-dasharray:none; stroke:black" />
<line x1="237.698273" y1="68.777534" x2="243.002045" y2="44.515625" 
	style="stroke-width:1.025633; stroke-linecap:round; stroke-linejoin:round; stroke-dasharray:none; stroke:black" />
<line x1="243.002045" y1="44.515625" x2="256.448212" y2="44.515625" 
	style="stroke-width:1.025633; stroke-linecap:round; stroke-linejoin:round; stroke-dasharray:none; stroke:black" />
<line x1="219.172455" y1="41.025898" x2="267.503937" y2="41.025898" 
	style="stroke-width:1.262317; stroke-linecap:round; stroke-linejoin:round; stroke-dasharray:none; stroke:black" />
<line x1="331.597321" y1="61.964260" x2="334.361237" y2="60.219395" 
	style="stroke-width:1.025633; stroke-linecap:round; stroke-linejoin:round; stroke-dasharray:none; stroke:black" />
<line x1="334.361237" y1="60.801018" x2="338.245697" y2="68.777534" 
	style="stroke-width:2.051265; stroke-linecap:round; stroke-linejoin:round; stroke-dasharray:none; stroke:black" />
<line x1="338.693909" y1="68.777534" x2="343.997681" y2="44.515625" 
	style="stroke-width:1.025633; stroke-linecap:round; stroke-linejoin:round; stroke-dasharray:none; stroke:black" />
<line x1="343.997681" y1="44.515625" x2="357.443817" y2="44.515625" 
	style="stroke-width:1.025633; stroke-linecap:round; stroke-linejoin:round; stroke-dasharray:none; stroke:black" />
<line x1="320.168091" y1="41.025898" x2="368.499573" y2="41.025898" 
	style="stroke-width:1.262317; stroke-linecap:round; stroke-linejoin:round; stroke-dasharray:none; stroke:black" />
<line x1="437.448486" y1="41.358250" x2="440.735352" y2="39.197945" 
	style="stroke-width:1.262317; stroke-linecap:round; stroke-linejoin:round; stroke-dasharray:none; stroke:black" />
<line x1="440.735352" y1="39.862656" x2="445.516205" y2="49.667126" 
	style="stroke-width:2.524634; stroke-linecap:round; stroke-linejoin:round; stroke-dasharray:none; stroke:black" />
<line x1="446.113800" y1="49.667126" x2="452.612793" y2="20.004444" 
	style="stroke-width:1.262317; stroke-linecap:round; stroke-linejoin:round; stroke-dasharray:none; stroke:black" />
<line x1="452.612793" y1="20.004444" x2="468.598785" y2="20.004444" 
	style="stroke-width:1.262317; stroke-linecap:round; stroke-linejoin:round; stroke-dasharray:none; stroke:black" />
<line x1="491.009033" y1="61.964260" x2="493.772980" y2="60.219395" 
	style="stroke-width:1.025633; stroke-linecap:round; stroke-linejoin:round; stroke-dasharray:none; stroke:black" />
<line x1="493.772980" y1="60.801018" x2="497.657440" y2="68.777534" 
	style="stroke-width:2.051265; stroke-linecap:round; stroke-linejoin:round; stroke-dasharray:none; stroke:black" />
<line x1="498.105621" y1="68.777534" x2="503.409393" y2="44.515625" 
	style="stroke-width:1.025633; stroke-linecap:round; stroke-linejoin:round; stroke-dasharray:none; stroke:black" />
<line x1="503.409393" y1="44.515625" x2="516.855530" y2="44.515625" 
	style="stroke-width:1.025633; stroke-linecap:round; stroke-linejoin:round; stroke-dasharray:none; stroke:black" />
<line x1="479.729218" y1="41.025898" x2="527.687195" y2="41.025898" 
	style="stroke-width:1.262317; stroke-linecap:round; stroke-linejoin:round; stroke-dasharray:none; stroke:black" />
<line x1="577.213867" y1="41.358250" x2="580.500732" y2="39.197945" 
	style="stroke-width:1.262317; stroke-linecap:round; stroke-linejoin:round; stroke-dasharray:none; stroke:black" />
<line x1="580.500732" y1="39.862656" x2="585.281616" y2="49.667126" 
	style="stroke-width:2.524634; stroke-linecap:round; stroke-linejoin:round; stroke-dasharray:none; stroke:black" />
<line x1="585.879211" y1="49.667126" x2="592.378174" y2="20.004444" 
	style="stroke-width:1.262317; stroke-linecap:round; stroke-linejoin:round; stroke-dasharray:none; stroke:black" />
<line x1="592.378174" y1="20.004444" x2="608.364197" y2="20.004444" 
	style="stroke-width:1.262317; stroke-linecap:round; stroke-linejoin:round; stroke-dasharray:none; stroke:black" />
<line x1="630.923828" y1="61.964260" x2="633.687744" y2="60.219395" 
	style="stroke-width:1.025633; stroke-linecap:round; stroke-linejoin:round; stroke-dasharray:none; stroke:black" />
<line x1="633.687744" y1="60.801018" x2="637.572205" y2="68.777534" 
	style="stroke-width:2.051265; stroke-linecap:round; stroke-linejoin:round; stroke-dasharray:none; stroke:black" />
<line x1="638.020447" y1="68.777534" x2="643.324219" y2="44.515625" 
	style="stroke-width:1.025633; stroke-linecap:round; stroke-linejoin:round; stroke-dasharray:none; stroke:black" />
<line x1="643.324219" y1="44.515625" x2="656.770325" y2="44.515625" 
	style="stroke-width:1.025633; stroke-linecap:round; stroke-linejoin:round; stroke-dasharray:none; stroke:black" />
<line x1="619.494629" y1="41.025898" x2="667.826111" y2="41.025898" 
	style="stroke-width:1.262317; stroke-linecap:round; stroke-linejoin:round; stroke-dasharray:none; stroke:black" />
<text x="0" y="0" style="font-family:Times; font-style:normal; font-weight:normal; font-size:29.247236; fill:black" transform="matrix(1.000000 -0.000000 0.000000 1.000000 754.852661 48.337708)"
	>0</text>
<text x="0" y="0" style="font-family:Times; font-style:normal; font-weight:normal; font-size:29.247236; fill:black" transform="matrix(1.000000 -0.000000 0.000000 1.000000 703.159607 48.337708)"
	>32</text>
<text x="0" y="0" style="font-family:Times; font-style:normal; font-weight:normal; font-size:29.247236; fill:black" transform="matrix(1.000000 -0.000000 0.000000 1.000000 669.096008 48.337708)"
	>)</text>
<text x="0" y="0" style="font-family:Times; font-style:normal; font-weight:normal; font-size:29.247236; fill:black" transform="matrix(1.000000 -0.000000 0.000000 1.000000 609.634094 48.337708)"
	>(</text>
<text x="0" y="0" style="font-family:Times; font-style:normal; font-weight:normal; font-size:29.247236; fill:black" transform="matrix(1.000000 -0.000000 0.000000 1.000000 594.096313 48.337708)"
	>2</text>
<text x="0" y="0" style="font-family:Times; font-style:normal; font-weight:normal; font-size:29.247236; fill:black" transform="matrix(1.000000 -0.000000 0.000000 1.000000 563.020691 48.337708)"
	>8</text>
<text x="0" y="0" style="font-family:Times; font-style:normal; font-weight:normal; font-size:29.247236; fill:black" transform="matrix(1.000000 -0.000000 0.000000 1.000000 528.957092 48.337708)"
	>)</text>
<text x="0" y="0" style="font-family:Times; font-style:normal; font-weight:normal; font-size:29.247236; fill:black" transform="matrix(1.000000 -0.000000 0.000000 1.000000 469.868683 48.337708)"
	>(</text>
<text x="0" y="0" style="font-family:Times; font-style:normal; font-weight:normal; font-size:29.247236; fill:black" transform="matrix(1.000000 -0.000000 0.000000 1.000000 454.330902 48.337708)"
	>2</text>
<text x="0" y="0" style="font-family:Times; font-style:normal; font-weight:normal; font-size:29.247236; fill:black" transform="matrix(1.000000 -0.000000 0.000000 1.000000 423.255341 48.337708)"
	>8</text>
<text x="0" y="0" style="font-family:Times; font-style:normal; font-weight:normal; font-size:29.247236; fill:black" transform="matrix(1.000000 -0.000000 0.000000 1.000000 118.027428 48.337708)"
	>2</text>
<text x="0" y="0" style="font-family:Times; font-style:normal; font-weight:normal; font-size:23.929558; fill:black" transform="matrix(1.000000 -0.000000 0.000000 1.000000 645.117004 67.697380)"
	>2</text>
<text x="0" y="0" style="font-family:Times; font-style:normal; font-weight:normal; font-size:23.929558; fill:black" transform="matrix(1.000000 -0.000000 0.000000 1.000000 663.119934 32.800110)"
	>'</text>
<text x="0" y="0" style="font-family:Times; font-style:normal; font-weight:normal; font-size:23.929558; fill:black" transform="matrix(1.000000 -0.000000 0.000000 1.000000 633.015442 32.800110)"
	>'</text>
<text x="0" y="0" style="font-family:Times; font-style:normal; font-weight:normal; font-size:23.929558; fill:black" transform="matrix(1.000000 -0.000000 0.000000 1.000000 505.202209 67.697380)"
	>2</text>
<text x="0" y="0" style="font-family:Times; font-style:normal; font-weight:normal; font-size:23.929558; fill:black" transform="matrix(1.000000 -0.000000 0.000000 1.000000 522.981018 32.800110)"
	>'</text>
<text x="0" y="0" style="font-family:Times; font-style:normal; font-weight:normal; font-size:23.929558; fill:black" transform="matrix(1.000000 -0.000000 0.000000 1.000000 493.250061 32.800110)"
	>'</text>
<text x="0" y="0" style="font-family:Times; font-style:normal; font-weight:normal; font-size:23.929558; fill:black" transform="matrix(1.000000 -0.000000 0.000000 1.000000 384.112061 18.425758)"
	>2</text>
<text x="0" y="0" style="font-family:Times; font-style:normal; font-weight:normal; font-size:23.929558; fill:black" transform="matrix(1.000000 -0.000000 0.000000 1.000000 345.790497 67.697380)"
	>2</text>
<text x="0" y="0" style="font-family:Times; font-style:normal; font-weight:normal; font-size:23.929558; fill:black" transform="matrix(1.000000 -0.000000 0.000000 1.000000 363.793396 32.800110)"
	>'</text>
<text x="0" y="0" style="font-family:Times; font-style:normal; font-weight:normal; font-size:23.929558; fill:black" transform="matrix(1.000000 -0.000000 0.000000 1.000000 333.688934 32.800110)"
	>'</text>
<text x="0" y="0" style="font-family:Times; font-style:normal; font-weight:normal; font-size:23.929558; fill:black" transform="matrix(1.000000 -0.000000 0.000000 1.000000 244.794861 67.697380)"
	>2</text>
<text x="0" y="0" style="font-family:Times; font-style:normal; font-weight:normal; font-size:23.929558; fill:black" transform="matrix(1.000000 -0.000000 0.000000 1.000000 262.797791 32.800110)"
	>'</text>
<text x="0" y="0" style="font-family:Times; font-style:normal; font-weight:normal; font-size:23.929558; fill:black" transform="matrix(1.000000 -0.000000 0.000000 1.000000 232.693314 32.800110)"
	>'</text>
<text x="0" y="0" style="font-family:Times; font-style:normal; font-weight:normal; font-size:23.929558; fill:black" transform="matrix(1.000000 -0.000000 0.000000 1.000000 169.869858 67.697380)"
	>2</text>
<text x="0" y="0" style="font-family:Times; font-style:normal; font-weight:normal; font-size:23.929558; fill:black" transform="matrix(1.000000 -0.000000 0.000000 1.000000 187.648666 32.800110)"
	>'</text>
<text x="0" y="0" style="font-family:Times; font-style:normal; font-weight:normal; font-size:23.929558; fill:black" transform="matrix(1.000000 -0.000000 0.000000 1.000000 157.917709 32.800110)"
	>'</text>
<text x="0" y="0" style="font-family:Times; font-style:normal; font-weight:normal; font-size:23.929558; fill:black" transform="matrix(1.000000 -0.000000 0.000000 1.000000 77.166031 18.425758)"
	>2</text>
<text x="0" y="0" style="font-family:Times; font-style:normal; font-weight:normal; font-size:23.929558; fill:black" transform="matrix(1.000000 -0.000000 0.000000 1.000000 39.068573 67.697380)"
	>2</text>
<text x="0" y="0" style="font-family:Times; font-style:normal; font-weight:normal; font-size:23.929558; fill:black" transform="matrix(1.000000 -0.000000 0.000000 1.000000 56.847389 32.800110)"
	>'</text>
<text x="0" y="0" style="font-family:Times; font-style:normal; font-weight:normal; font-size:23.929558; fill:black" transform="matrix(1.000000 -0.000000 0.000000 1.000000 27.116428 32.800110)"
	>'</text>
<text x="0" y="0" style="font-family:Symbol; font-style:normal; font-weight:normal; font-size:29.247236; fill:black" transform="matrix(1.000000 -0.000000 0.000000 1.000000 734.982178 48.337708)"
	>=</text>
<text x="0" y="0" style="font-family:Symbol; font-style:normal; font-weight:normal; font-size:29.247236; fill:black" transform="matrix(1.000000 -0.000000 0.000000 1.000000 683.662659 48.337708)"
	>-</text>
<text x="0" y="0" style="font-family:Symbol; font-style:normal; font-weight:normal; font-size:29.247236; fill:black" transform="matrix(1.000000 -0.000000 0.000000 1.000000 543.523804 48.337708)"
	>+</text>
<text x="0" y="0" style="font-family:Symbol; font-style:normal; font-weight:normal; font-size:29.247236; fill:black" transform="matrix(1.000000 -0.000000 0.000000 1.000000 404.206604 48.337708)"
	>-</text>
<text x="0" y="0" style="font-family:Symbol; font-style:normal; font-weight:normal; font-size:29.247236; fill:black" transform="matrix(1.000000 -0.000000 0.000000 1.000000 371.786407 51.578167)"
	>÷</text>
<text x="0" y="0" style="font-family:Symbol; font-style:normal; font-weight:normal; font-size:29.247236; fill:black" transform="matrix(1.000000 -0.000000 0.000000 1.000000 371.786407 70.273132)"
	>ø</text>
<text x="0" y="0" style="font-family:Symbol; font-style:normal; font-weight:normal; font-size:29.247236; fill:black" transform="matrix(1.000000 -0.000000 0.000000 1.000000 371.786407 36.456017)"
	>ö</text>
<text x="0" y="0" style="font-family:Symbol; font-style:normal; font-weight:normal; font-size:29.247236; fill:black" transform="matrix(1.000000 -0.000000 0.000000 1.000000 306.572510 51.578167)"
	>ç</text>
<text x="0" y="0" style="font-family:Symbol; font-style:normal; font-weight:normal; font-size:29.247236; fill:black" transform="matrix(1.000000 -0.000000 0.000000 1.000000 306.572510 70.273132)"
	>è</text>
<text x="0" y="0" style="font-family:Symbol; font-style:normal; font-weight:normal; font-size:29.247236; fill:black" transform="matrix(1.000000 -0.000000 0.000000 1.000000 306.572510 36.456017)"
	>æ</text>
<text x="0" y="0" style="font-family:Symbol; font-style:normal; font-weight:normal; font-size:29.247236; fill:black" transform="matrix(1.000000 -0.000000 0.000000 1.000000 286.627380 48.337708)"
	>+</text>
<text x="0" y="0" style="font-family:Symbol; font-style:normal; font-weight:normal; font-size:29.247236; fill:black" transform="matrix(1.000000 -0.000000 0.000000 1.000000 270.790771 51.578167)"
	>÷</text>
<text x="0" y="0" style="font-family:Symbol; font-style:normal; font-weight:normal; font-size:29.247236; fill:black" transform="matrix(1.000000 -0.000000 0.000000 1.000000 270.790771 70.273132)"
	>ø</text>
<text x="0" y="0" style="font-family:Symbol; font-style:normal; font-weight:normal; font-size:29.247236; fill:black" transform="matrix(1.000000 -0.000000 0.000000 1.000000 270.790771 36.456017)"
	>ö</text>
<text x="0" y="0" style="font-family:Symbol; font-style:normal; font-weight:normal; font-size:29.247236; fill:black" transform="matrix(1.000000 -0.000000 0.000000 1.000000 205.576889 51.578167)"
	>ç</text>
<text x="0" y="0" style="font-family:Symbol; font-style:normal; font-weight:normal; font-size:29.247236; fill:black" transform="matrix(1.000000 -0.000000 0.000000 1.000000 205.576889 70.273132)"
	>è</text>
<text x="0" y="0" style="font-family:Symbol; font-style:normal; font-weight:normal; font-size:29.247236; fill:black" transform="matrix(1.000000 -0.000000 0.000000 1.000000 205.576889 36.456017)"
	>æ</text>
<text x="0" y="0" style="font-family:Symbol; font-style:normal; font-weight:normal; font-size:29.247236; fill:black" transform="matrix(1.000000 -0.000000 0.000000 1.000000 195.641663 51.578167)"
	>÷</text>
<text x="0" y="0" style="font-family:Symbol; font-style:normal; font-weight:normal; font-size:29.247236; fill:black" transform="matrix(1.000000 -0.000000 0.000000 1.000000 195.641663 70.273132)"
	>ø</text>
<text x="0" y="0" style="font-family:Symbol; font-style:normal; font-weight:normal; font-size:29.247236; fill:black" transform="matrix(1.000000 -0.000000 0.000000 1.000000 195.641663 36.456017)"
	>ö</text>
<text x="0" y="0" style="font-family:Symbol; font-style:normal; font-weight:normal; font-size:29.247236; fill:black" transform="matrix(1.000000 -0.000000 0.000000 1.000000 130.801285 51.578167)"
	>ç</text>
<text x="0" y="0" style="font-family:Symbol; font-style:normal; font-weight:normal; font-size:29.247236; fill:black" transform="matrix(1.000000 -0.000000 0.000000 1.000000 130.801285 70.273132)"
	>è</text>
<text x="0" y="0" style="font-family:Symbol; font-style:normal; font-weight:normal; font-size:29.247236; fill:black" transform="matrix(1.000000 -0.000000 0.000000 1.000000 130.801285 36.456017)"
	>æ</text>
<text x="0" y="0" style="font-family:Symbol; font-style:normal; font-weight:normal; font-size:29.247236; fill:black" transform="matrix(1.000000 -0.000000 0.000000 1.000000 97.260574 48.337708)"
	>+</text>
<text x="0" y="0" style="font-family:Symbol; font-style:normal; font-weight:normal; font-size:29.247236; fill:black" transform="matrix(1.000000 -0.000000 0.000000 1.000000 64.840385 51.578167)"
	>÷</text>
<text x="0" y="0" style="font-family:Symbol; font-style:normal; font-weight:normal; font-size:29.247236; fill:black" transform="matrix(1.000000 -0.000000 0.000000 1.000000 64.840385 70.273132)"
	>ø</text>
<text x="0" y="0" style="font-family:Symbol; font-style:normal; font-weight:normal; font-size:29.247236; fill:black" transform="matrix(1.000000 -0.000000 0.000000 1.000000 64.840385 36.456017)"
	>ö</text>
<text x="0" y="0" style="font-family:Symbol; font-style:normal; font-weight:normal; font-size:29.247236; fill:black" transform="matrix(1.000000 -0.000000 0.000000 1.000000 0.000000 51.578167)"
	>ç</text>
<text x="0" y="0" style="font-family:Symbol; font-style:normal; font-weight:normal; font-size:29.247236; fill:black" transform="matrix(1.000000 -0.000000 0.000000 1.000000 0.000000 70.273132)"
	>è</text>
<text x="0" y="0" style="font-family:Symbol; font-style:normal; font-weight:normal; font-size:29.247236; fill:black" transform="matrix(1.000000 -0.000000 0.000000 1.000000 0.000000 36.456017)"
	>æ</text>
<text x="0" y="0" style="font-family:Symbol; font-style:normal; font-weight:normal; font-size:23.929558; fill:black" transform="matrix(1.000000 -0.000000 0.000000 1.000000 637.124023 32.800110)"
	>+</text>
<text x="0" y="0" style="font-family:Symbol; font-style:normal; font-weight:normal; font-size:23.929558; fill:black" transform="matrix(1.000000 -0.000000 0.000000 1.000000 497.358612 32.800110)"
	>-</text>
<text x="0" y="0" style="font-family:Symbol; font-style:normal; font-weight:normal; font-size:23.929558; fill:black" transform="matrix(1.000000 -0.000000 0.000000 1.000000 337.797485 32.800110)"
	>+</text>
<text x="0" y="0" style="font-family:Symbol; font-style:normal; font-weight:normal; font-size:23.929558; fill:black" transform="matrix(1.000000 -0.000000 0.000000 1.000000 236.801865 32.800110)"
	>+</text>
<text x="0" y="0" style="font-family:Symbol; font-style:normal; font-weight:normal; font-size:23.929558; fill:black" transform="matrix(1.000000 -0.000000 0.000000 1.000000 162.026260 32.800110)"
	>-</text>
<text x="0" y="0" style="font-family:Symbol; font-style:normal; font-weight:normal; font-size:23.929558; fill:black" transform="matrix(1.000000 -0.000000 0.000000 1.000000 31.224977 32.800110)"
	>-</text>
<text x="0" y="0" style="font-family:Times; font-style:italic; font-weight:normal; font-size:23.929558; fill:black" transform="matrix(1.000000 -0.000000 0.000000 1.000000 652.288269 32.800110)"
	>y</text>
<text x="0" y="0" style="font-family:Times; font-style:italic; font-weight:normal; font-size:23.929558; fill:black" transform="matrix(1.000000 -0.000000 0.000000 1.000000 622.557312 32.800110)"
	>x</text>
<text x="0" y="0" style="font-family:Times; font-style:italic; font-weight:normal; font-size:23.929558; fill:black" transform="matrix(1.000000 -0.000000 0.000000 1.000000 512.149414 32.800110)"
	>y</text>
<text x="0" y="0" style="font-family:Times; font-style:italic; font-weight:normal; font-size:23.929558; fill:black" transform="matrix(1.000000 -0.000000 0.000000 1.000000 482.791931 32.800110)"
	>x</text>
<text x="0" y="0" style="font-family:Times; font-style:italic; font-weight:normal; font-size:23.929558; fill:black" transform="matrix(1.000000 -0.000000 0.000000 1.000000 352.961761 32.800110)"
	>y</text>
<text x="0" y="0" style="font-family:Times; font-style:italic; font-weight:normal; font-size:23.929558; fill:black" transform="matrix(1.000000 -0.000000 0.000000 1.000000 323.230804 32.800110)"
	>x</text>
<text x="0" y="0" style="font-family:Times; font-style:italic; font-weight:normal; font-size:23.929558; fill:black" transform="matrix(1.000000 -0.000000 0.000000 1.000000 251.966156 32.800110)"
	>y</text>
<text x="0" y="0" style="font-family:Times; font-style:italic; font-weight:normal; font-size:23.929558; fill:black" transform="matrix(1.000000 -0.000000 0.000000 1.000000 222.235184 32.800110)"
	>x</text>
<text x="0" y="0" style="font-family:Times; font-style:italic; font-weight:normal; font-size:23.929558; fill:black" transform="matrix(1.000000 -0.000000 0.000000 1.000000 176.817047 32.800110)"
	>y</text>
<text x="0" y="0" style="font-family:Times; font-style:italic; font-weight:normal; font-size:23.929558; fill:black" transform="matrix(1.000000 -0.000000 0.000000 1.000000 147.459579 32.800110)"
	>x</text>
<text x="0" y="0" style="font-family:Times; font-style:italic; font-weight:normal; font-size:23.929558; fill:black" transform="matrix(1.000000 -0.000000 0.000000 1.000000 46.015759 32.800110)"
	>y</text>
<text x="0" y="0" style="font-family:Times; font-style:italic; font-weight:normal; font-size:23.929558; fill:black" transform="matrix(1.000000 -0.000000 0.000000 1.000000 16.658302 32.800110)"
	>x</text>
</svg>
