<?xml version="1.0" standalone="no"?>
<!DOCTYPE svg PUBLIC "-//W3C//DTD SVG 20001102//EN"
"http://www.w3.org/TR/2000/CR-SVG-20001102/DTD/svg-20001102.dtd">
<svg width="768" height="149"
	xmlns:sodipodi="http://sodipodi.sourceforge.net/DTD/sodipodi-0.dtd">
<desc>wmf2svg</desc>
<text x="0" y="0" style="font-family:Symbol; font-style:normal; font-weight:normal; font-size:149.000000; fill:black" transform="matrix(1.000000 -0.000000 0.000000 1.000000 704.778870 114.730003)"
	>q</text>
<text x="0" y="0" style="font-family:Symbol; font-style:normal; font-weight:normal; font-size:149.000000; fill:black" transform="matrix(1.000000 -0.000000 0.000000 1.000000 239.358871 114.730003)"
	>q</text>
<text x="0" y="0" style="font-family:Times; font-style:normal; font-weight:normal; font-size:149.000000; fill:black" transform="matrix(1.000000 -0.000000 0.000000 1.000000 537.607605 114.730003)"
	>cos</text>
<text x="0" y="0" style="font-family:Times; font-style:normal; font-weight:normal; font-size:149.000000; fill:black" transform="matrix(1.000000 -0.000000 0.000000 1.000000 505.313202 114.730003)"
	>'</text>
<text x="0" y="0" style="font-family:Times; font-style:normal; font-weight:normal; font-size:149.000000; fill:black" transform="matrix(1.000000 -0.000000 0.000000 1.000000 87.384987 114.730003)"
	>sin</text>
<text x="0" y="0" style="font-family:Times; font-style:normal; font-weight:normal; font-size:149.000000; fill:black" transform="matrix(1.000000 -0.000000 0.000000 1.000000 56.990208 114.730003)"
	>'</text>
<text x="0" y="0" style="font-family:Times; font-style:italic; font-weight:normal; font-size:149.000000; fill:black" transform="matrix(1.000000 -0.000000 0.000000 1.000000 446.423309 114.730003)"
	>y</text>
<text x="0" y="0" style="font-family:Times; font-style:italic; font-weight:normal; font-size:149.000000; fill:black" transform="matrix(1.000000 -0.000000 0.000000 1.000000 0.000000 114.730003)"
	>x</text>
<text x="0" y="0" style="font-family:Symbol; font-style:normal; font-weight:normal; font-size:149.000000; fill:black" transform="matrix(1.000000 -0.000000 0.000000 1.000000 341.941284 114.730003)"
	>+</text>
</svg>
