<?xml version="1.0" standalone="no"?>
<!DOCTYPE svg PUBLIC "-//W3C//DTD SVG 20001102//EN"
"http://www.w3.org/TR/2000/CR-SVG-20001102/DTD/svg-20001102.dtd">
<svg width="768" height="203"
	xmlns:sodipodi="http://sodipodi.sourceforge.net/DTD/sodipodi-0.dtd">
<desc>wmf2svg</desc>
<text x="0" y="0" style="font-family:Times; font-style:italic; font-weight:normal; font-size:175.884460; fill:black" transform="matrix(1.000000 -0.000000 0.000000 1.000000 702.296753 135.431046)"
	>x</text>
<text x="0" y="0" style="font-family:Times; font-style:italic; font-weight:normal; font-size:175.884460; fill:black" transform="matrix(1.000000 -0.000000 0.000000 1.000000 140.770447 135.431046)"
	>x</text>
<text x="0" y="0" style="font-family:Times; font-style:italic; font-weight:normal; font-size:175.884460; fill:black" transform="matrix(1.000000 -0.000000 0.000000 1.000000 0.000000 135.431046)"
	>f</text>
<text x="0" y="0" style="font-family:Times; font-style:italic; font-weight:normal; font-size:102.599266; fill:black" transform="matrix(1.000000 -0.000000 0.000000 1.000000 614.023560 179.402145)"
	>b</text>
<text x="0" y="0" style="font-family:Times; font-style:normal; font-weight:normal; font-size:175.884460; fill:black" transform="matrix(1.000000 -0.000000 0.000000 1.000000 415.700562 135.431046)"
	>log</text>
<text x="0" y="0" style="font-family:Times; font-style:normal; font-weight:normal; font-size:175.884460; fill:black" transform="matrix(1.000000 -0.000000 0.000000 1.000000 214.266602 135.431046)"
	>)</text>
<text x="0" y="0" style="font-family:Times; font-style:normal; font-weight:normal; font-size:175.884460; fill:black" transform="matrix(1.000000 -0.000000 0.000000 1.000000 76.995995 135.431046)"
	>(</text>
<text x="0" y="0" style="font-family:Symbol; font-style:normal; font-weight:normal; font-size:175.884460; fill:black" transform="matrix(1.000000 -0.000000 0.000000 1.000000 300.206573 135.431046)"
	>=</text>
</svg>
