<?xml version="1.0" standalone="no"?>
<!DOCTYPE svg PUBLIC "-//W3C//DTD SVG 20001102//EN"
"http://www.w3.org/TR/2000/CR-SVG-20001102/DTD/svg-20001102.dtd">
<svg width="768" height="403"
	xmlns:sodipodi="http://sodipodi.sourceforge.net/DTD/sodipodi-0.dtd">
<desc>wmf2svg</desc>
<line x1="3.013008" y1="192.221420" x2="244.688004" y2="192.221420" 
	style="stroke-width:7.147457; stroke-linecap:round; stroke-linejoin:round; stroke-dasharray:none; stroke:black" />
<text x="0" y="0" style="font-family:Times; font-style:normal; font-weight:normal; font-size:167.118790; fill:black" transform="matrix(1.000000 -0.000000 0.000000 1.000000 12.527773 128.681473)"
	>2</text>
<text x="0" y="0" style="font-family:Times; font-style:normal; font-weight:normal; font-size:167.118790; fill:black" transform="matrix(1.000000 -0.000000 0.000000 1.000000 178.084671 128.681473)"
	>0</text>
<text x="0" y="0" style="font-family:Times; font-style:normal; font-weight:normal; font-size:167.118790; fill:black" transform="matrix(1.000000 -0.000000 0.000000 1.000000 438.789185 234.001114)"
	>1</text>
<text x="0" y="0" style="font-family:Times; font-style:normal; font-weight:normal; font-size:167.118790; fill:black" transform="matrix(1.000000 -0.000000 0.000000 1.000000 493.974823 234.001114)"
	> </text>
<text x="0" y="0" style="font-family:Times; font-style:normal; font-weight:normal; font-size:167.118790; fill:black" transform="matrix(1.000000 -0.000000 0.000000 1.000000 524.422058 234.001114)"
	> </text>
<text x="0" y="0" style="font-family:Times; font-style:normal; font-weight:normal; font-size:167.118790; fill:black" transform="matrix(1.000000 -0.000000 0.000000 1.000000 10.624820 364.562683)"
	>2</text>
<text x="0" y="0" style="font-family:Times; font-style:italic; font-weight:normal; font-size:167.118790; fill:black" transform="matrix(1.000000 -0.000000 0.000000 1.000000 178.084656 364.562683)"
	>h</text>
<text x="0" y="0" style="font-family:Symbol; font-style:normal; font-weight:normal; font-size:167.118790; fill:black" transform="matrix(1.000000 -0.000000 0.000000 1.000000 92.451782 128.681473)"
	>-</text>
<text x="0" y="0" style="font-family:Symbol; font-style:normal; font-weight:normal; font-size:167.118790; fill:black" transform="matrix(1.000000 -0.000000 0.000000 1.000000 277.038208 234.001114)"
	>=</text>
<text x="0" y="0" style="font-family:Symbol; font-style:normal; font-weight:normal; font-size:167.118790; fill:black" transform="matrix(1.000000 -0.000000 0.000000 1.000000 372.185852 234.001114)"
	>-</text>
<text x="0" y="0" style="font-family:Symbol; font-style:normal; font-weight:normal; font-size:167.118790; fill:black" transform="matrix(1.000000 -0.000000 0.000000 1.000000 90.548836 364.562683)"
	>-</text>
</svg>
