<?xml version="1.0" standalone="no"?>
<!DOCTYPE svg PUBLIC "-//W3C//DTD SVG 20001102//EN"
"http://www.w3.org/TR/2000/CR-SVG-20001102/DTD/svg-20001102.dtd">
<svg width="768" height="94"
	xmlns:sodipodi="http://sodipodi.sourceforge.net/DTD/sodipodi-0.dtd">
<desc>wmf2svg</desc>
<text x="0" y="0" style="font-family:Times; font-style:normal; font-weight:normal; font-size:48.388443; fill:black" transform="matrix(1.000000 -0.000000 0.000000 1.000000 60.325832 37.259102)"
	>2</text>
<text x="0" y="0" style="font-family:Times; font-style:normal; font-weight:normal; font-size:48.388443; fill:black" transform="matrix(1.000000 -0.000000 0.000000 1.000000 197.213348 37.259102)"
	>2</text>
<text x="0" y="0" style="font-family:Times; font-style:normal; font-weight:normal; font-size:83.698929; fill:black" transform="matrix(1.000000 -0.000000 0.000000 1.000000 0.000000 74.749245)"
	>9</text>
<text x="0" y="0" style="font-family:Times; font-style:normal; font-weight:normal; font-size:83.698929; fill:black" transform="matrix(1.000000 -0.000000 0.000000 1.000000 133.312653 74.749245)"
	>4</text>
<text x="0" y="0" style="font-family:Times; font-style:normal; font-weight:normal; font-size:83.698929; fill:black" transform="matrix(1.000000 -0.000000 0.000000 1.000000 269.306427 74.749245)"
	>7</text>
<text x="0" y="0" style="font-family:Times; font-style:normal; font-weight:normal; font-size:83.698929; fill:black" transform="matrix(1.000000 -0.000000 0.000000 1.000000 297.905365 74.749245)"
	>2</text>
<text x="0" y="0" style="font-family:Times; font-style:normal; font-weight:normal; font-size:83.698929; fill:black" transform="matrix(1.000000 -0.000000 0.000000 1.000000 405.151276 74.749245)"
	>8</text>
<text x="0" y="0" style="font-family:Times; font-style:normal; font-weight:normal; font-size:83.698929; fill:black" transform="matrix(1.000000 -0.000000 0.000000 1.000000 511.503479 74.749245)"
	>1</text>
<text x="0" y="0" style="font-family:Times; font-style:normal; font-weight:normal; font-size:83.698929; fill:black" transform="matrix(1.000000 -0.000000 0.000000 1.000000 540.102417 74.749245)"
	>7</text>
<text x="0" y="0" style="font-family:Times; font-style:normal; font-weight:normal; font-size:83.698929; fill:black" transform="matrix(1.000000 -0.000000 0.000000 1.000000 568.701294 74.749245)"
	>6</text>
<text x="0" y="0" style="font-family:Times; font-style:normal; font-weight:normal; font-size:83.698929; fill:black" transform="matrix(1.000000 -0.000000 0.000000 1.000000 653.604370 74.749245)"
	>0</text>
<text x="0" y="0" style="font-family:Times; font-style:italic; font-weight:normal; font-size:83.698929; fill:black" transform="matrix(1.000000 -0.000000 0.000000 1.000000 32.173779 74.749245)"
	>x</text>
<text x="0" y="0" style="font-family:Times; font-style:italic; font-weight:normal; font-size:83.698929; fill:black" transform="matrix(1.000000 -0.000000 0.000000 1.000000 168.167572 74.749245)"
	>y</text>
<text x="0" y="0" style="font-family:Times; font-style:italic; font-weight:normal; font-size:83.698929; fill:black" transform="matrix(1.000000 -0.000000 0.000000 1.000000 330.079132 74.749245)"
	>x</text>
<text x="0" y="0" style="font-family:Times; font-style:italic; font-weight:normal; font-size:83.698929; fill:black" transform="matrix(1.000000 -0.000000 0.000000 1.000000 439.112488 74.749245)"
	>y</text>
<text x="0" y="0" style="font-family:Symbol; font-style:normal; font-weight:normal; font-size:83.698929; fill:black" transform="matrix(1.000000 -0.000000 0.000000 1.000000 92.201706 74.749245)"
	>-</text>
<text x="0" y="0" style="font-family:Symbol; font-style:normal; font-weight:normal; font-size:83.698929; fill:black" transform="matrix(1.000000 -0.000000 0.000000 1.000000 229.089218 74.749245)"
	>-</text>
<text x="0" y="0" style="font-family:Symbol; font-style:normal; font-weight:normal; font-size:83.698929; fill:black" transform="matrix(1.000000 -0.000000 0.000000 1.000000 365.827759 74.749245)"
	>+</text>
<text x="0" y="0" style="font-family:Symbol; font-style:normal; font-weight:normal; font-size:83.698929; fill:black" transform="matrix(1.000000 -0.000000 0.000000 1.000000 475.754852 74.749245)"
	>+</text>
<text x="0" y="0" style="font-family:Symbol; font-style:normal; font-weight:normal; font-size:83.698929; fill:black" transform="matrix(1.000000 -0.000000 0.000000 1.000000 609.812256 74.749245)"
	>=</text>
</svg>
