<?xml version="1.0" standalone="no"?>
<!DOCTYPE svg PUBLIC "-//W3C//DTD SVG 20001102//EN"
"http://www.w3.org/TR/2000/CR-SVG-20001102/DTD/svg-20001102.dtd">
<svg width="768" height="418"
	xmlns:sodipodi="http://sodipodi.sourceforge.net/DTD/sodipodi-0.dtd">
<desc>wmf2svg</desc>
<line x1="241.889771" y1="322.613770" x2="260.535431" y2="311.544403" 
	style="stroke-width:6.701820; stroke-linecap:round; stroke-linejoin:round; stroke-dasharray:none; stroke:black" />
<line x1="260.535431" y1="315.234192" x2="286.740143" y2="365.836975" 
	style="stroke-width:13.403641; stroke-linecap:round; stroke-linejoin:round; stroke-dasharray:none; stroke:black" />
<line x1="289.763794" y1="365.836975" x2="325.543304" y2="211.920197" 
	style="stroke-width:6.701820; stroke-linecap:round; stroke-linejoin:round; stroke-dasharray:none; stroke:black" />
<line x1="325.543304" y1="211.920197" x2="416.251984" y2="211.920197" 
	style="stroke-width:6.701820; stroke-linecap:round; stroke-linejoin:round; stroke-dasharray:none; stroke:black" />
<line x1="222.740158" y1="180.820572" x2="432.377960" y2="180.820572" 
	style="stroke-width:8.248394; stroke-linecap:round; stroke-linejoin:round; stroke-dasharray:none; stroke:black" />
<line x1="555.338562" y1="322.613770" x2="573.984253" y2="311.544403" 
	style="stroke-width:6.701820; stroke-linecap:round; stroke-linejoin:round; stroke-dasharray:none; stroke:black" />
<line x1="573.984253" y1="315.234192" x2="600.188965" y2="365.836975" 
	style="stroke-width:13.403641; stroke-linecap:round; stroke-linejoin:round; stroke-dasharray:none; stroke:black" />
<line x1="603.212585" y1="365.836975" x2="638.992126" y2="211.920197" 
	style="stroke-width:6.701820; stroke-linecap:round; stroke-linejoin:round; stroke-dasharray:none; stroke:black" />
<line x1="638.992126" y1="211.920197" x2="729.700806" y2="211.920197" 
	style="stroke-width:6.701820; stroke-linecap:round; stroke-linejoin:round; stroke-dasharray:none; stroke:black" />
<line x1="536.188965" y1="180.820572" x2="745.826782" y2="180.820572" 
	style="stroke-width:8.248394; stroke-linecap:round; stroke-linejoin:round; stroke-dasharray:none; stroke:black" />
<text x="0" y="0" style="font-family:Symbol; font-style:normal; font-weight:normal; font-size:185.543503; fill:black" transform="matrix(1.000000 -0.000000 0.000000 1.000000 768.000000 256.724731)"
	>÷</text>
<text x="0" y="0" style="font-family:Symbol; font-style:normal; font-weight:normal; font-size:185.543503; fill:black" transform="matrix(1.000000 -0.000000 0.000000 1.000000 768.000000 375.324982)"
	>ø</text>
<text x="0" y="0" style="font-family:Symbol; font-style:normal; font-weight:normal; font-size:185.543503; fill:black" transform="matrix(1.000000 -0.000000 0.000000 1.000000 768.000000 142.868500)"
	>ö</text>
<text x="0" y="0" style="font-family:Symbol; font-style:normal; font-weight:normal; font-size:185.543503; fill:black" transform="matrix(1.000000 -0.000000 0.000000 1.000000 0.000000 256.724731)"
	>ç</text>
<text x="0" y="0" style="font-family:Symbol; font-style:normal; font-weight:normal; font-size:185.543503; fill:black" transform="matrix(1.000000 -0.000000 0.000000 1.000000 0.000000 375.324982)"
	>è</text>
<text x="0" y="0" style="font-family:Symbol; font-style:normal; font-weight:normal; font-size:185.543503; fill:black" transform="matrix(1.000000 -0.000000 0.000000 1.000000 0.000000 142.868500)"
	>æ</text>
<text x="0" y="0" style="font-family:Symbol; font-style:normal; font-weight:normal; font-size:185.543503; fill:black" transform="matrix(1.000000 -0.000000 0.000000 1.000000 89.196854 227.206451)"
	>-</text>
<text x="0" y="0" style="font-family:Times; font-style:normal; font-weight:normal; font-size:151.808319; fill:black" transform="matrix(1.000000 -0.000000 0.000000 1.000000 651.086609 358.984497)"
	>2</text>
<text x="0" y="0" style="font-family:Times; font-style:normal; font-weight:normal; font-size:151.808319; fill:black" transform="matrix(1.000000 -0.000000 0.000000 1.000000 607.244080 153.410736)"
	>2</text>
<text x="0" y="0" style="font-family:Times; font-style:normal; font-weight:normal; font-size:151.808319; fill:black" transform="matrix(1.000000 -0.000000 0.000000 1.000000 337.637787 358.984497)"
	>2</text>
<text x="0" y="0" style="font-family:Times; font-style:normal; font-weight:normal; font-size:151.808319; fill:black" transform="matrix(1.000000 -0.000000 0.000000 1.000000 293.795288 153.410736)"
	>2</text>
<text x="0" y="0" style="font-family:Times; font-style:normal; font-weight:normal; font-size:185.543503; fill:black" transform="matrix(1.000000 -0.000000 0.000000 1.000000 491.842529 227.206451)"
	> </text>
<text x="0" y="0" style="font-family:Times; font-style:normal; font-weight:normal; font-size:185.543503; fill:black" transform="matrix(1.000000 -0.000000 0.000000 1.000000 456.062988 227.206451)"
	>,</text>
</svg>
