<?xml version="1.0" standalone="no"?>
<!DOCTYPE svg PUBLIC "-//W3C//DTD SVG 20001102//EN"
"http://www.w3.org/TR/2000/CR-SVG-20001102/DTD/svg-20001102.dtd">
<svg width="768" height="141"
	xmlns:sodipodi="http://sodipodi.sourceforge.net/DTD/sodipodi-0.dtd">
<desc>wmf2svg</desc>
<text x="0" y="0" style="font-family:Times; font-style:normal; font-weight:normal; font-size:122.166054; fill:black" transform="matrix(1.000000 -0.000000 0.000000 1.000000 731.479187 94.067863)"
	>)</text>
<text x="0" y="0" style="font-family:Times; font-style:normal; font-weight:normal; font-size:122.166054; fill:black" transform="matrix(1.000000 -0.000000 0.000000 1.000000 681.408508 94.067863)"
	>3</text>
<text x="0" y="0" style="font-family:Times; font-style:normal; font-weight:normal; font-size:122.166054; fill:black" transform="matrix(1.000000 -0.000000 0.000000 1.000000 488.119019 94.067863)"
	>(</text>
<text x="0" y="0" style="font-family:Times; font-style:normal; font-weight:normal; font-size:122.166054; fill:black" transform="matrix(1.000000 -0.000000 0.000000 1.000000 299.025330 94.067863)"
	>log</text>
<text x="0" y="0" style="font-family:Times; font-style:normal; font-weight:normal; font-size:122.166054; fill:black" transform="matrix(1.000000 -0.000000 0.000000 1.000000 154.128113 94.067863)"
	>)</text>
<text x="0" y="0" style="font-family:Times; font-style:normal; font-weight:normal; font-size:122.166054; fill:black" transform="matrix(1.000000 -0.000000 0.000000 1.000000 55.385426 94.067863)"
	>(</text>
<text x="0" y="0" style="font-family:Times; font-style:normal; font-weight:normal; font-size:71.263535; fill:black" transform="matrix(1.000000 -0.000000 0.000000 1.000000 442.523926 124.609375)"
	>2</text>
<text x="0" y="0" style="font-family:Symbol; font-style:normal; font-weight:normal; font-size:122.166054; fill:black" transform="matrix(1.000000 -0.000000 0.000000 1.000000 604.484314 94.067863)"
	>-</text>
<text x="0" y="0" style="font-family:Symbol; font-style:normal; font-weight:normal; font-size:122.166054; fill:black" transform="matrix(1.000000 -0.000000 0.000000 1.000000 215.947205 94.067863)"
	>=</text>
<text x="0" y="0" style="font-family:Times; font-style:italic; font-weight:normal; font-size:122.166054; fill:black" transform="matrix(1.000000 -0.000000 0.000000 1.000000 533.993835 94.067863)"
	>x</text>
<text x="0" y="0" style="font-family:Times; font-style:italic; font-weight:normal; font-size:122.166054; fill:black" transform="matrix(1.000000 -0.000000 0.000000 1.000000 101.260216 94.067863)"
	>x</text>
<text x="0" y="0" style="font-family:Times; font-style:italic; font-weight:normal; font-size:122.166054; fill:black" transform="matrix(1.000000 -0.000000 0.000000 1.000000 0.000000 94.067863)"
	>f</text>
</svg>
