<?xml version="1.0" standalone="no"?>
<!DOCTYPE svg PUBLIC "-//W3C//DTD SVG 20001102//EN"
"http://www.w3.org/TR/2000/CR-SVG-20001102/DTD/svg-20001102.dtd">
<svg width="768" height="242"
	xmlns:sodipodi="http://sodipodi.sourceforge.net/DTD/sodipodi-0.dtd">
<desc>wmf2svg</desc>
<line x1="1.721973" y1="120.937271" x2="277.668152" y2="120.937271" 
	style="stroke-width:3.514433; stroke-linecap:round; stroke-linejoin:round; stroke-dasharray:none; stroke:black" />
<line x1="361.614349" y1="120.937271" x2="644.017944" y2="120.937271" 
	style="stroke-width:3.514433; stroke-linecap:round; stroke-linejoin:round; stroke-dasharray:none; stroke:black" />
<text x="0" y="0" style="font-family:Times; font-style:normal; font-weight:normal; font-size:86.038078; fill:black" transform="matrix(1.000000 -0.000000 0.000000 1.000000 726.672668 142.446793)"
	>1</text>
<text x="0" y="0" style="font-family:Times; font-style:normal; font-weight:normal; font-size:86.038078; fill:black" transform="matrix(1.000000 -0.000000 0.000000 1.000000 564.807190 88.224876)"
	>)</text>
<text x="0" y="0" style="font-family:Times; font-style:normal; font-weight:normal; font-size:86.038078; fill:black" transform="matrix(1.000000 -0.000000 0.000000 1.000000 365.919281 88.224876)"
	>(</text>
<text x="0" y="0" style="font-family:Times; font-style:normal; font-weight:normal; font-size:86.038078; fill:black" transform="matrix(1.000000 -0.000000 0.000000 1.000000 198.457397 88.224876)"
	>)</text>
<text x="0" y="0" style="font-family:Times; font-style:normal; font-weight:normal; font-size:86.038078; fill:black" transform="matrix(1.000000 -0.000000 0.000000 1.000000 6.026906 88.224876)"
	>(</text>
<text x="0" y="0" style="font-family:Times; font-style:normal; font-weight:normal; font-size:64.528557; fill:black" transform="matrix(1.000000 -0.000000 0.000000 1.000000 507.766815 183.673370)"
	>2</text>
<text x="0" y="0" style="font-family:Times; font-style:normal; font-weight:normal; font-size:64.528557; fill:black" transform="matrix(1.000000 -0.000000 0.000000 1.000000 598.816162 49.686989)"
	>2</text>
<text x="0" y="0" style="font-family:Times; font-style:normal; font-weight:normal; font-size:64.528557; fill:black" transform="matrix(1.000000 -0.000000 0.000000 1.000000 142.708527 183.673370)"
	>2</text>
<text x="0" y="0" style="font-family:Times; font-style:normal; font-weight:normal; font-size:64.528557; fill:black" transform="matrix(1.000000 -0.000000 0.000000 1.000000 232.466370 49.686989)"
	>2</text>
<text x="0" y="0" style="font-family:Symbol; font-style:normal; font-weight:normal; font-size:86.038078; fill:black" transform="matrix(1.000000 -0.000000 0.000000 1.000000 668.556030 142.446793)"
	>=</text>
<text x="0" y="0" style="font-family:Symbol; font-style:normal; font-weight:normal; font-size:86.038078; fill:black" transform="matrix(1.000000 -0.000000 0.000000 1.000000 458.905823 88.224876)"
	>-</text>
<text x="0" y="0" style="font-family:Symbol; font-style:normal; font-weight:normal; font-size:86.038078; fill:black" transform="matrix(1.000000 -0.000000 0.000000 1.000000 297.040344 142.446793)"
	>+</text>
<text x="0" y="0" style="font-family:Symbol; font-style:normal; font-weight:normal; font-size:86.038078; fill:black" transform="matrix(1.000000 -0.000000 0.000000 1.000000 93.847534 88.224876)"
	>-</text>
<text x="0" y="0" style="font-family:Times; font-style:italic; font-weight:normal; font-size:86.038078; fill:black" transform="matrix(1.000000 -0.000000 0.000000 1.000000 458.260101 222.211258)"
	>a</text>
<text x="0" y="0" style="font-family:Times; font-style:italic; font-weight:normal; font-size:86.038078; fill:black" transform="matrix(1.000000 -0.000000 0.000000 1.000000 520.896851 88.224876)"
	>k</text>
<text x="0" y="0" style="font-family:Times; font-style:italic; font-weight:normal; font-size:86.038078; fill:black" transform="matrix(1.000000 -0.000000 0.000000 1.000000 403.372192 88.224876)"
	>y</text>
<text x="0" y="0" style="font-family:Times; font-style:italic; font-weight:normal; font-size:86.038078; fill:black" transform="matrix(1.000000 -0.000000 0.000000 1.000000 94.493271 222.211258)"
	>b</text>
<text x="0" y="0" style="font-family:Times; font-style:italic; font-weight:normal; font-size:86.038078; fill:black" transform="matrix(1.000000 -0.000000 0.000000 1.000000 155.838562 88.224876)"
	>h</text>
<text x="0" y="0" style="font-family:Times; font-style:italic; font-weight:normal; font-size:86.038078; fill:black" transform="matrix(1.000000 -0.000000 0.000000 1.000000 39.605381 88.224876)"
	>x</text>
</svg>
