<?xml version="1.0" standalone="no"?>
<!DOCTYPE svg PUBLIC "-//W3C//DTD SVG 20001102//EN"
"http://www.w3.org/TR/2000/CR-SVG-20001102/DTD/svg-20001102.dtd">
<svg width="768" height="212"
	xmlns:sodipodi="http://sodipodi.sourceforge.net/DTD/sodipodi-0.dtd">
<desc>wmf2svg</desc>
<text x="0" y="0" style="font-family:Times; font-style:normal; font-weight:normal; font-size:126.651176; fill:black" transform="matrix(1.000000 -0.000000 0.000000 1.000000 711.315247 97.521408)"
	>2</text>
<text x="0" y="0" style="font-family:Times; font-style:normal; font-weight:normal; font-size:126.651176; fill:black" transform="matrix(1.000000 -0.000000 0.000000 1.000000 394.825226 97.521408)"
	>2</text>
<text x="0" y="0" style="font-family:Times; font-style:normal; font-weight:normal; font-size:126.651176; fill:black" transform="matrix(1.000000 -0.000000 0.000000 1.000000 90.538185 97.521408)"
	>2</text>
<text x="0" y="0" style="font-family:Times; font-style:italic; font-weight:normal; font-size:168.868240; fill:black" transform="matrix(1.000000 -0.000000 0.000000 1.000000 630.224487 173.160309)"
	>c</text>
<text x="0" y="0" style="font-family:Times; font-style:italic; font-weight:normal; font-size:168.868240; fill:black" transform="matrix(1.000000 -0.000000 0.000000 1.000000 306.648895 173.160309)"
	>b</text>
<text x="0" y="0" style="font-family:Times; font-style:italic; font-weight:normal; font-size:168.868240; fill:black" transform="matrix(1.000000 -0.000000 0.000000 1.000000 0.000000 173.160309)"
	>a</text>
<text x="0" y="0" style="font-family:Symbol; font-style:normal; font-weight:normal; font-size:168.868240; fill:black" transform="matrix(1.000000 -0.000000 0.000000 1.000000 509.769348 173.160309)"
	>=</text>
<text x="0" y="0" style="font-family:Symbol; font-style:normal; font-weight:normal; font-size:168.868240; fill:black" transform="matrix(1.000000 -0.000000 0.000000 1.000000 196.034851 173.160309)"
	>+</text>
</svg>
