<?xml version="1.0" standalone="no"?>
<!DOCTYPE svg PUBLIC "-//W3C//DTD SVG 20001102//EN"
"http://www.w3.org/TR/2000/CR-SVG-20001102/DTD/svg-20001102.dtd">
<svg width="768" height="251"
	xmlns:sodipodi="http://sodipodi.sourceforge.net/DTD/sodipodi-0.dtd">
<desc>wmf2svg</desc>
<line x1="440.236664" y1="155.273407" x2="461.982239" y2="140.071808" 
	style="stroke-width:7.893608; stroke-linecap:round; stroke-linejoin:round; stroke-dasharray:none; stroke:black" />
<line x1="461.982239" y1="144.415115" x2="493.491119" y2="214.993942" 
	style="stroke-width:15.787215; stroke-linecap:round; stroke-linejoin:round; stroke-dasharray:none; stroke:black" />
<line x1="497.041412" y1="214.993942" x2="538.757385" y2="4.343312" 
	style="stroke-width:7.893608; stroke-linecap:round; stroke-linejoin:round; stroke-dasharray:none; stroke:black" />
<line x1="538.757385" y1="4.343312" x2="702.070984" y2="4.343312" 
	style="stroke-width:7.893608; stroke-linecap:round; stroke-linejoin:round; stroke-dasharray:none; stroke:black" />
<text x="0" y="0" style="font-family:Times; font-style:normal; font-weight:normal; font-size:208.478973; fill:black" transform="matrix(1.000000 -0.000000 0.000000 1.000000 710.059143 203.049835)"
	>)</text>
<text x="0" y="0" style="font-family:Times; font-style:normal; font-weight:normal; font-size:208.478973; fill:black" transform="matrix(1.000000 -0.000000 0.000000 1.000000 530.769226 203.049835)"
	>13</text>
<text x="0" y="0" style="font-family:Times; font-style:normal; font-weight:normal; font-size:208.478973; fill:black" transform="matrix(1.000000 -0.000000 0.000000 1.000000 199.704132 203.049835)"
	>1</text>
<text x="0" y="0" style="font-family:Times; font-style:normal; font-weight:normal; font-size:208.478973; fill:black" transform="matrix(1.000000 -0.000000 0.000000 1.000000 178.402359 203.049835)"
	> </text>
<text x="0" y="0" style="font-family:Times; font-style:normal; font-weight:normal; font-size:208.478973; fill:black" transform="matrix(1.000000 -0.000000 0.000000 1.000000 143.786972 203.049835)"
	>,</text>
<text x="0" y="0" style="font-family:Times; font-style:normal; font-weight:normal; font-size:208.478973; fill:black" transform="matrix(1.000000 -0.000000 0.000000 1.000000 61.242603 203.049835)"
	>4</text>
<text x="0" y="0" style="font-family:Times; font-style:normal; font-weight:normal; font-size:208.478973; fill:black" transform="matrix(1.000000 -0.000000 0.000000 1.000000 0.000000 203.049835)"
	>(</text>
<text x="0" y="0" style="font-family:Symbol; font-style:normal; font-weight:normal; font-size:208.478973; fill:black" transform="matrix(1.000000 -0.000000 0.000000 1.000000 303.550293 203.049835)"
	>+</text>
</svg>
