<?xml version="1.0" standalone="no"?>
<!DOCTYPE svg PUBLIC "-//W3C//DTD SVG 20001102//EN"
"http://www.w3.org/TR/2000/CR-SVG-20001102/DTD/svg-20001102.dtd">
<svg width="768" height="94"
	xmlns:sodipodi="http://sodipodi.sourceforge.net/DTD/sodipodi-0.dtd">
<desc>wmf2svg</desc>
<line x1="1.058580" y1="62.666668" x2="7.542385" y2="58.190475" 
	style="stroke-width:2.337492; stroke-linecap:round; stroke-linejoin:round; stroke-dasharray:none; stroke:black" />
<line x1="7.542385" y1="59.469387" x2="16.937284" y2="91.442177" 
	style="stroke-width:4.674984; stroke-linecap:round; stroke-linejoin:round; stroke-dasharray:none; stroke:black" />
<line x1="17.995865" y1="91.442177" x2="30.434183" y2="1.278912" 
	style="stroke-width:2.337492; stroke-linecap:round; stroke-linejoin:round; stroke-dasharray:none; stroke:black" />
<line x1="30.434183" y1="1.278912" x2="304.606476" y2="1.278912" 
	style="stroke-width:2.337492; stroke-linecap:round; stroke-linejoin:round; stroke-dasharray:none; stroke:black" />
<line x1="357.270844" y1="62.666668" x2="363.754639" y2="58.190475" 
	style="stroke-width:2.337492; stroke-linecap:round; stroke-linejoin:round; stroke-dasharray:none; stroke:black" />
<line x1="363.754639" y1="59.469387" x2="373.149567" y2="91.442177" 
	style="stroke-width:4.674984; stroke-linecap:round; stroke-linejoin:round; stroke-dasharray:none; stroke:black" />
<line x1="374.208130" y1="91.442177" x2="386.646454" y2="1.278912" 
	style="stroke-width:2.337492; stroke-linecap:round; stroke-linejoin:round; stroke-dasharray:none; stroke:black" />
<line x1="386.646454" y1="1.278912" x2="660.024780" y2="1.278912" 
	style="stroke-width:2.337492; stroke-linecap:round; stroke-linejoin:round; stroke-dasharray:none; stroke:black" />
<text x="0" y="0" style="font-family:Times; font-style:italic; font-weight:normal; font-size:61.387756; fill:black" transform="matrix(1.000000 -0.000000 0.000000 1.000000 742.594055 75.455780)"
	>a</text>
<text x="0" y="0" style="font-family:Times; font-style:italic; font-weight:normal; font-size:61.387756; fill:black" transform="matrix(1.000000 -0.000000 0.000000 1.000000 604.184692 75.455780)"
	>y</text>
<text x="0" y="0" style="font-family:Times; font-style:italic; font-weight:normal; font-size:61.387756; fill:black" transform="matrix(1.000000 -0.000000 0.000000 1.000000 480.330811 75.455780)"
	>c</text>
<text x="0" y="0" style="font-family:Times; font-style:italic; font-weight:normal; font-size:61.387756; fill:black" transform="matrix(1.000000 -0.000000 0.000000 1.000000 409.670563 75.455780)"
	>x</text>
<text x="0" y="0" style="font-family:Times; font-style:italic; font-weight:normal; font-size:61.387756; fill:black" transform="matrix(1.000000 -0.000000 0.000000 1.000000 248.766373 75.455780)"
	>y</text>
<text x="0" y="0" style="font-family:Times; font-style:italic; font-weight:normal; font-size:61.387756; fill:black" transform="matrix(1.000000 -0.000000 0.000000 1.000000 124.912476 75.455780)"
	>c</text>
<text x="0" y="0" style="font-family:Times; font-style:italic; font-weight:normal; font-size:61.387756; fill:black" transform="matrix(1.000000 -0.000000 0.000000 1.000000 53.458305 75.455780)"
	>x</text>
<text x="0" y="0" style="font-family:Times; font-style:normal; font-weight:normal; font-size:61.387756; fill:black" transform="matrix(1.000000 -0.000000 0.000000 1.000000 716.394226 75.455780)"
	>2</text>
<text x="0" y="0" style="font-family:Times; font-style:normal; font-weight:normal; font-size:61.387756; fill:black" transform="matrix(1.000000 -0.000000 0.000000 1.000000 504.148865 75.455780)"
	>)</text>
<text x="0" y="0" style="font-family:Times; font-style:normal; font-weight:normal; font-size:61.387756; fill:black" transform="matrix(1.000000 -0.000000 0.000000 1.000000 389.028259 75.455780)"
	>(</text>
<text x="0" y="0" style="font-family:Times; font-style:normal; font-weight:normal; font-size:61.387756; fill:black" transform="matrix(1.000000 -0.000000 0.000000 1.000000 148.730530 75.455780)"
	>)</text>
<text x="0" y="0" style="font-family:Times; font-style:normal; font-weight:normal; font-size:61.387756; fill:black" transform="matrix(1.000000 -0.000000 0.000000 1.000000 32.815990 75.455780)"
	>(</text>
<text x="0" y="0" style="font-family:Times; font-style:normal; font-weight:normal; font-size:46.040817; fill:black" transform="matrix(1.000000 -0.000000 0.000000 1.000000 632.237061 47.959183)"
	>2</text>
<text x="0" y="0" style="font-family:Times; font-style:normal; font-weight:normal; font-size:46.040817; fill:black" transform="matrix(1.000000 -0.000000 0.000000 1.000000 525.055847 47.959183)"
	>2</text>
<text x="0" y="0" style="font-family:Times; font-style:normal; font-weight:normal; font-size:46.040817; fill:black" transform="matrix(1.000000 -0.000000 0.000000 1.000000 276.818756 47.959183)"
	>2</text>
<text x="0" y="0" style="font-family:Times; font-style:normal; font-weight:normal; font-size:46.040817; fill:black" transform="matrix(1.000000 -0.000000 0.000000 1.000000 169.637497 47.959183)"
	>2</text>
<text x="0" y="0" style="font-family:Symbol; font-style:normal; font-weight:normal; font-size:61.387756; fill:black" transform="matrix(1.000000 -0.000000 0.000000 1.000000 675.109558 75.455780)"
	>=</text>
<text x="0" y="0" style="font-family:Symbol; font-style:normal; font-weight:normal; font-size:61.387756; fill:black" transform="matrix(1.000000 -0.000000 0.000000 1.000000 560.518250 75.455780)"
	>+</text>
<text x="0" y="0" style="font-family:Symbol; font-style:normal; font-weight:normal; font-size:61.387756; fill:black" transform="matrix(1.000000 -0.000000 0.000000 1.000000 443.015839 75.455780)"
	>-</text>
<text x="0" y="0" style="font-family:Symbol; font-style:normal; font-weight:normal; font-size:61.387756; fill:black" transform="matrix(1.000000 -0.000000 0.000000 1.000000 316.515503 75.455780)"
	>+</text>
<text x="0" y="0" style="font-family:Symbol; font-style:normal; font-weight:normal; font-size:61.387756; fill:black" transform="matrix(1.000000 -0.000000 0.000000 1.000000 205.099930 75.455780)"
	>+</text>
<text x="0" y="0" style="font-family:Symbol; font-style:normal; font-weight:normal; font-size:61.387756; fill:black" transform="matrix(1.000000 -0.000000 0.000000 1.000000 86.803581 75.455780)"
	>+</text>
</svg>
