<?xml version="1.0" standalone="no"?>
<!DOCTYPE svg PUBLIC "-//W3C//DTD SVG 20001102//EN"
"http://www.w3.org/TR/2000/CR-SVG-20001102/DTD/svg-20001102.dtd">
<svg width="768" height="121"
	xmlns:sodipodi="http://sodipodi.sourceforge.net/DTD/sodipodi-0.dtd">
<desc>wmf2svg</desc>
<text x="0" y="0" style="font-family:Symbol; font-style:normal; font-weight:normal; font-size:121.000000; fill:black" transform="matrix(1.000000 -0.000000 0.000000 1.000000 717.515991 93.169998)"
	>q</text>
<text x="0" y="0" style="font-family:Symbol; font-style:normal; font-weight:normal; font-size:121.000000; fill:black" transform="matrix(1.000000 -0.000000 0.000000 1.000000 345.863953 93.169998)"
	>q</text>
<text x="0" y="0" style="font-family:Times; font-style:normal; font-weight:normal; font-size:121.000000; fill:black" transform="matrix(1.000000 -0.000000 0.000000 1.000000 584.024658 93.169998)"
	>cos</text>
<text x="0" y="0" style="font-family:Times; font-style:normal; font-weight:normal; font-size:121.000000; fill:black" transform="matrix(1.000000 -0.000000 0.000000 1.000000 558.236572 93.169998)"
	>'</text>
<text x="0" y="0" style="font-family:Times; font-style:normal; font-weight:normal; font-size:121.000000; fill:black" transform="matrix(1.000000 -0.000000 0.000000 1.000000 224.508179 93.169998)"
	>sin</text>
<text x="0" y="0" style="font-family:Times; font-style:normal; font-weight:normal; font-size:121.000000; fill:black" transform="matrix(1.000000 -0.000000 0.000000 1.000000 200.237030 93.169998)"
	>'</text>
<text x="0" y="0" style="font-family:Times; font-style:italic; font-weight:normal; font-size:121.000000; fill:black" transform="matrix(1.000000 -0.000000 0.000000 1.000000 511.211212 93.169998)"
	>y</text>
<text x="0" y="0" style="font-family:Times; font-style:italic; font-weight:normal; font-size:121.000000; fill:black" transform="matrix(1.000000 -0.000000 0.000000 1.000000 154.728607 93.169998)"
	>x</text>
<text x="0" y="0" style="font-family:Times; font-style:italic; font-weight:normal; font-size:121.000000; fill:black" transform="matrix(1.000000 -0.000000 0.000000 1.000000 0.000000 93.169998)"
	>y</text>
<text x="0" y="0" style="font-family:Symbol; font-style:normal; font-weight:normal; font-size:121.000000; fill:black" transform="matrix(1.000000 -0.000000 0.000000 1.000000 427.779114 93.169998)"
	>+</text>
<text x="0" y="0" style="font-family:Symbol; font-style:normal; font-weight:normal; font-size:121.000000; fill:black" transform="matrix(1.000000 -0.000000 0.000000 1.000000 71.296516 93.169998)"
	>=</text>
</svg>
