<?xml version="1.0" standalone="no"?>
<!DOCTYPE svg PUBLIC "-//W3C//DTD SVG 20001102//EN"
"http://www.w3.org/TR/2000/CR-SVG-20001102/DTD/svg-20001102.dtd">
<svg width="768" height="465"
	xmlns:sodipodi="http://sodipodi.sourceforge.net/DTD/sodipodi-0.dtd">
<desc>wmf2svg</desc>
<line x1="86.312256" y1="256.362183" x2="241.022903" y2="256.362183" 
	style="stroke-width:11.693820; stroke-linecap:round; stroke-linejoin:round; stroke-dasharray:none; stroke:black" />
<text x="0" y="0" style="font-family:Symbol; font-style:normal; font-weight:normal; font-size:411.137695; fill:black" transform="matrix(1.000000 -0.000000 0.000000 1.000000 0.000000 316.576050)"
	>(</text>
<text x="0" y="0" style="font-family:Symbol; font-style:normal; font-weight:normal; font-size:411.137695; fill:black" transform="matrix(1.000000 -0.000000 0.000000 1.000000 705.154907 316.576050)"
	>)</text>
<text x="0" y="0" style="font-family:Times; font-style:normal; font-weight:normal; font-size:248.625015; fill:black" transform="matrix(1.000000 -0.000000 0.000000 1.000000 539.044495 318.518433)"
	>2</text>
<text x="0" y="0" style="font-family:Times; font-style:normal; font-weight:normal; font-size:248.625015; fill:black" transform="matrix(1.000000 -0.000000 0.000000 1.000000 284.993317 318.518433)"
	>,</text>
<text x="0" y="0" style="font-family:Times; font-style:normal; font-weight:normal; font-size:186.468765; fill:black" transform="matrix(1.000000 -0.000000 0.000000 1.000000 109.111725 422.112183)"
	>2</text>
<text x="0" y="0" style="font-family:Times; font-style:normal; font-weight:normal; font-size:186.468765; fill:black" transform="matrix(1.000000 -0.000000 0.000000 1.000000 105.040390 233.053589)"
	>1</text>
<text x="0" y="0" style="font-family:Symbol; font-style:normal; font-weight:normal; font-size:248.625015; fill:black" transform="matrix(1.000000 -0.000000 0.000000 1.000000 368.048492 318.518433)"
	>-</text>
</svg>
