<?xml version="1.0" standalone="no"?>
<!DOCTYPE svg PUBLIC "-//W3C//DTD SVG 20001102//EN"
"http://www.w3.org/TR/2000/CR-SVG-20001102/DTD/svg-20001102.dtd">
<svg width="768" height="151"
	xmlns:sodipodi="http://sodipodi.sourceforge.net/DTD/sodipodi-0.dtd">
<desc>wmf2svg</desc>
<text x="0" y="0" style="font-family:Times; font-style:normal; font-weight:normal; font-size:130.830322; fill:black" transform="matrix(1.000000 -0.000000 0.000000 1.000000 731.465881 100.739342)"
	>)</text>
<text x="0" y="0" style="font-family:Times; font-style:normal; font-weight:normal; font-size:130.830322; fill:black" transform="matrix(1.000000 -0.000000 0.000000 1.000000 676.060242 100.739342)"
	>2</text>
<text x="0" y="0" style="font-family:Times; font-style:normal; font-weight:normal; font-size:130.830322; fill:black" transform="matrix(1.000000 -0.000000 0.000000 1.000000 481.301178 100.739342)"
	>(</text>
<text x="0" y="0" style="font-family:Times; font-style:normal; font-weight:normal; font-size:130.830322; fill:black" transform="matrix(1.000000 -0.000000 0.000000 1.000000 296.056183 100.739342)"
	>log</text>
<text x="0" y="0" style="font-family:Times; font-style:normal; font-weight:normal; font-size:130.830322; fill:black" transform="matrix(1.000000 -0.000000 0.000000 1.000000 152.785141 100.739342)"
	>1</text>
<text x="0" y="0" style="font-family:Times; font-style:normal; font-weight:normal; font-size:76.317688; fill:black" transform="matrix(1.000000 -0.000000 0.000000 1.000000 438.767578 133.446930)"
	>3</text>
<text x="0" y="0" style="font-family:Symbol; font-style:normal; font-weight:normal; font-size:130.830322; fill:black" transform="matrix(1.000000 -0.000000 0.000000 1.000000 597.708923 100.739342)"
	>-</text>
<text x="0" y="0" style="font-family:Symbol; font-style:normal; font-weight:normal; font-size:130.830322; fill:black" transform="matrix(1.000000 -0.000000 0.000000 1.000000 217.704834 100.739342)"
	>+</text>
<text x="0" y="0" style="font-family:Symbol; font-style:normal; font-weight:normal; font-size:130.830322; fill:black" transform="matrix(1.000000 -0.000000 0.000000 1.000000 77.791702 100.739342)"
	>=</text>
<text x="0" y="0" style="font-family:Times; font-style:italic; font-weight:normal; font-size:130.830322; fill:black" transform="matrix(1.000000 -0.000000 0.000000 1.000000 527.192688 100.739342)"
	>x</text>
<text x="0" y="0" style="font-family:Times; font-style:italic; font-weight:normal; font-size:130.830322; fill:black" transform="matrix(1.000000 -0.000000 0.000000 1.000000 0.000000 100.739342)"
	>y</text>
</svg>
