<?xml version="1.0" standalone="no"?>
<!DOCTYPE svg PUBLIC "-//W3C//DTD SVG 20001102//EN"
"http://www.w3.org/TR/2000/CR-SVG-20001102/DTD/svg-20001102.dtd">
<svg width="768" height="237"
	xmlns:sodipodi="http://sodipodi.sourceforge.net/DTD/sodipodi-0.dtd">
<desc>wmf2svg</desc>
<text x="0" y="0" style="font-family:Times; font-style:normal; font-weight:normal; font-size:163.576477; fill:black" transform="matrix(1.000000 -0.000000 0.000000 1.000000 722.804016 199.377396)"
	>)</text>
<text x="0" y="0" style="font-family:Times; font-style:normal; font-weight:normal; font-size:163.576477; fill:black" transform="matrix(1.000000 -0.000000 0.000000 1.000000 656.339294 199.377396)"
	>2</text>
<text x="0" y="0" style="font-family:Times; font-style:normal; font-weight:normal; font-size:163.576477; fill:black" transform="matrix(1.000000 -0.000000 0.000000 1.000000 560.796204 199.377396)"
	>'</text>
<text x="0" y="0" style="font-family:Times; font-style:normal; font-weight:normal; font-size:163.576477; fill:black" transform="matrix(1.000000 -0.000000 0.000000 1.000000 436.174835 199.377396)"
	>(</text>
<text x="0" y="0" style="font-family:Times; font-style:normal; font-weight:normal; font-size:163.576477; fill:black" transform="matrix(1.000000 -0.000000 0.000000 1.000000 371.598267 199.377396)"
	>8</text>
<text x="0" y="0" style="font-family:Times; font-style:normal; font-weight:normal; font-size:163.576477; fill:black" transform="matrix(1.000000 -0.000000 0.000000 1.000000 92.899574 125.953888)"
	>2</text>
<text x="0" y="0" style="font-family:Times; font-style:normal; font-weight:normal; font-size:163.576477; fill:black" transform="matrix(1.000000 -0.000000 0.000000 1.000000 62.310688 199.377396)"
	>'</text>
<text x="0" y="0" style="font-family:Symbol; font-style:normal; font-weight:normal; font-size:163.576477; fill:black" transform="matrix(1.000000 -0.000000 0.000000 1.000000 583.832275 199.377396)"
	>-</text>
<text x="0" y="0" style="font-family:Symbol; font-style:normal; font-weight:normal; font-size:163.576477; fill:black" transform="matrix(1.000000 -0.000000 0.000000 1.000000 299.091309 199.377396)"
	>-</text>
<text x="0" y="0" style="font-family:Symbol; font-style:normal; font-weight:normal; font-size:163.576477; fill:black" transform="matrix(1.000000 -0.000000 0.000000 1.000000 196.373093 199.377396)"
	>=</text>
<text x="0" y="0" style="font-family:Times; font-style:italic; font-weight:normal; font-size:163.576477; fill:black" transform="matrix(1.000000 -0.000000 0.000000 1.000000 496.219635 199.377396)"
	>y</text>
<text x="0" y="0" style="font-family:Times; font-style:italic; font-weight:normal; font-size:163.576477; fill:black" transform="matrix(1.000000 -0.000000 0.000000 1.000000 0.000000 199.377396)"
	>x</text>
</svg>
