<?xml version="1.0" standalone="no"?>
<!DOCTYPE svg PUBLIC "-//W3C//DTD SVG 20001102//EN"
"http://www.w3.org/TR/2000/CR-SVG-20001102/DTD/svg-20001102.dtd">
<svg width="768" height="194"
	xmlns:sodipodi="http://sodipodi.sourceforge.net/DTD/sodipodi-0.dtd">
<desc>wmf2svg</desc>
<text x="0" y="0" style="font-family:Times; font-style:italic; font-weight:normal; font-size:168.086624; fill:black" transform="matrix(1.000000 -0.000000 0.000000 1.000000 705.221252 129.426712)"
	>x</text>
<text x="0" y="0" style="font-family:Times; font-style:italic; font-weight:normal; font-size:168.086624; fill:black" transform="matrix(1.000000 -0.000000 0.000000 1.000000 134.504776 129.426712)"
	>x</text>
<text x="0" y="0" style="font-family:Times; font-style:italic; font-weight:normal; font-size:168.086624; fill:black" transform="matrix(1.000000 -0.000000 0.000000 1.000000 0.000000 129.426712)"
	>f</text>
<text x="0" y="0" style="font-family:Times; font-style:normal; font-weight:normal; font-size:98.050537; fill:black" transform="matrix(1.000000 -0.000000 0.000000 1.000000 580.377014 171.448364)"
	>10</text>
<text x="0" y="0" style="font-family:Times; font-style:normal; font-weight:normal; font-size:168.086624; fill:black" transform="matrix(1.000000 -0.000000 0.000000 1.000000 397.197815 129.426712)"
	>log</text>
<text x="0" y="0" style="font-family:Times; font-style:normal; font-weight:normal; font-size:168.086624; fill:black" transform="matrix(1.000000 -0.000000 0.000000 1.000000 204.729660 129.426712)"
	>)</text>
<text x="0" y="0" style="font-family:Times; font-style:normal; font-weight:normal; font-size:168.086624; fill:black" transform="matrix(1.000000 -0.000000 0.000000 1.000000 73.568916 129.426712)"
	>(</text>
<text x="0" y="0" style="font-family:Symbol; font-style:normal; font-weight:normal; font-size:168.086624; fill:black" transform="matrix(1.000000 -0.000000 0.000000 1.000000 286.844452 129.426712)"
	>=</text>
</svg>
