<?xml version="1.0" standalone="no"?>
<!DOCTYPE svg PUBLIC "-//W3C//DTD SVG 20001102//EN"
"http://www.w3.org/TR/2000/CR-SVG-20001102/DTD/svg-20001102.dtd">
<svg width="768" height="61"
	xmlns:sodipodi="http://sodipodi.sourceforge.net/DTD/sodipodi-0.dtd">
<desc>wmf2svg</desc>
<text x="0" y="0" style="font-family:Times; font-style:italic; font-weight:normal; font-size:61.000000; fill:black" transform="matrix(1.000000 -0.000000 0.000000 1.000000 747.396301 46.969997)"
	>y</text>
<text x="0" y="0" style="font-family:Times; font-style:italic; font-weight:normal; font-size:61.000000; fill:black" transform="matrix(1.000000 -0.000000 0.000000 1.000000 632.037048 46.969997)"
	>x</text>
<text x="0" y="0" style="font-family:Times; font-style:italic; font-weight:normal; font-size:61.000000; fill:black" transform="matrix(1.000000 -0.000000 0.000000 1.000000 480.460358 46.969997)"
	>y</text>
<text x="0" y="0" style="font-family:Times; font-style:italic; font-weight:normal; font-size:61.000000; fill:black" transform="matrix(1.000000 -0.000000 0.000000 1.000000 356.930817 46.969997)"
	>x</text>
<text x="0" y="0" style="font-family:Times; font-style:italic; font-weight:normal; font-size:61.000000; fill:black" transform="matrix(1.000000 -0.000000 0.000000 1.000000 175.843613 46.969997)"
	>y</text>
<text x="0" y="0" style="font-family:Times; font-style:italic; font-weight:normal; font-size:61.000000; fill:black" transform="matrix(1.000000 -0.000000 0.000000 1.000000 105.237885 46.969997)"
	>x</text>
<text x="0" y="0" style="font-family:Times; font-style:normal; font-weight:normal; font-size:61.000000; fill:black" transform="matrix(1.000000 -0.000000 0.000000 1.000000 658.255066 46.969997)"
	>sinh</text>
<text x="0" y="0" style="font-family:Times; font-style:normal; font-weight:normal; font-size:61.000000; fill:black" transform="matrix(1.000000 -0.000000 0.000000 1.000000 545.212769 46.969997)"
	>sinh</text>
<text x="0" y="0" style="font-family:Times; font-style:normal; font-weight:normal; font-size:61.000000; fill:black" transform="matrix(1.000000 -0.000000 0.000000 1.000000 383.758545 46.969997)"
	>cosh</text>
<text x="0" y="0" style="font-family:Times; font-style:normal; font-weight:normal; font-size:61.000000; fill:black" transform="matrix(1.000000 -0.000000 0.000000 1.000000 262.545959 46.969997)"
	>cosh</text>
<text x="0" y="0" style="font-family:Times; font-style:normal; font-weight:normal; font-size:61.000000; fill:black" transform="matrix(1.000000 -0.000000 0.000000 1.000000 199.378845 46.969997)"
	>)</text>
<text x="0" y="0" style="font-family:Times; font-style:normal; font-weight:normal; font-size:61.000000; fill:black" transform="matrix(1.000000 -0.000000 0.000000 1.000000 0.000000 46.969997)"
	>cosh(</text>
<text x="0" y="0" style="font-family:Symbol; font-style:normal; font-weight:normal; font-size:61.000000; fill:black" transform="matrix(1.000000 -0.000000 0.000000 1.000000 511.678070 46.969997)"
	>+</text>
<text x="0" y="0" style="font-family:Symbol; font-style:normal; font-weight:normal; font-size:61.000000; fill:black" transform="matrix(1.000000 -0.000000 0.000000 1.000000 226.328522 46.969997)"
	>=</text>
<text x="0" y="0" style="font-family:Symbol; font-style:normal; font-weight:normal; font-size:61.000000; fill:black" transform="matrix(1.000000 -0.000000 0.000000 1.000000 135.967834 46.969997)"
	>+</text>
</svg>
