<?xml version="1.0" standalone="no"?>
<!DOCTYPE svg PUBLIC "-//W3C//DTD SVG 20001102//EN"
"http://www.w3.org/TR/2000/CR-SVG-20001102/DTD/svg-20001102.dtd">
<svg width="768" height="231"
	xmlns:sodipodi="http://sodipodi.sourceforge.net/DTD/sodipodi-0.dtd">
<desc>wmf2svg</desc>
<text x="0" y="0" style="font-family:Times; font-style:normal; font-weight:normal; font-size:180.292694; fill:black" transform="matrix(1.000000 -0.000000 0.000000 1.000000 715.545471 161.737564)"
	>)</text>
<text x="0" y="0" style="font-family:Times; font-style:normal; font-weight:normal; font-size:180.292694; fill:black" transform="matrix(1.000000 -0.000000 0.000000 1.000000 270.388580 161.737564)"
	>(</text>
<text x="0" y="0" style="font-family:Times; font-style:normal; font-weight:normal; font-size:180.292694; fill:black" transform="matrix(1.000000 -0.000000 0.000000 1.000000 0.000000 161.737564)"
	>log</text>
<text x="0" y="0" style="font-family:Times; font-style:normal; font-weight:normal; font-size:105.170738; fill:black" transform="matrix(1.000000 -0.000000 0.000000 1.000000 418.238525 80.981468)"
	>3</text>
<text x="0" y="0" style="font-family:Times; font-style:italic; font-weight:normal; font-size:180.292694; fill:black" transform="matrix(1.000000 -0.000000 0.000000 1.000000 638.004578 161.737564)"
	>y</text>
<text x="0" y="0" style="font-family:Times; font-style:italic; font-weight:normal; font-size:180.292694; fill:black" transform="matrix(1.000000 -0.000000 0.000000 1.000000 336.278229 161.737564)"
	>x</text>
<text x="0" y="0" style="font-family:Times; font-style:italic; font-weight:normal; font-size:105.170738; fill:black" transform="matrix(1.000000 -0.000000 0.000000 1.000000 204.900726 206.810730)"
	>b</text>
<text x="0" y="0" style="font-family:Symbol; font-style:normal; font-weight:normal; font-size:180.292694; fill:black" transform="matrix(1.000000 -0.000000 0.000000 1.000000 506.627075 161.737564)"
	>+</text>
</svg>
