<?xml version="1.0" standalone="no"?>
<!DOCTYPE svg PUBLIC "-//W3C//DTD SVG 20001102//EN"
"http://www.w3.org/TR/2000/CR-SVG-20001102/DTD/svg-20001102.dtd">
<svg width="768" height="264"
	xmlns:sodipodi="http://sodipodi.sourceforge.net/DTD/sodipodi-0.dtd">
<desc>wmf2svg</desc>
<line x1="165.366699" y1="146.517593" x2="341.252930" y2="146.517593" 
	style="stroke-width:6.282887; stroke-linecap:round; stroke-linejoin:round; stroke-dasharray:none; stroke:black" />
<line x1="558.375610" y1="146.517593" x2="722.900757" y2="146.517593" 
	style="stroke-width:6.282887; stroke-linecap:round; stroke-linejoin:round; stroke-dasharray:none; stroke:black" />
<text x="0" y="0" style="font-family:Symbol; font-style:normal; font-weight:normal; font-size:234.789810; fill:black" transform="matrix(1.000000 -0.000000 0.000000 1.000000 0.000000 180.788162)"
	>(</text>
<text x="0" y="0" style="font-family:Symbol; font-style:normal; font-weight:normal; font-size:234.789810; fill:black" transform="matrix(1.000000 -0.000000 0.000000 1.000000 735.524170 180.788162)"
	>)</text>
<text x="0" y="0" style="font-family:Times; font-style:normal; font-weight:normal; font-size:104.999176; fill:black" transform="matrix(1.000000 -0.000000 0.000000 1.000000 633.695312 239.850189)"
	>C</text>
<text x="0" y="0" style="font-family:Times; font-style:normal; font-weight:normal; font-size:104.999176; fill:black" transform="matrix(1.000000 -0.000000 0.000000 1.000000 570.157471 239.850189)"
	>2</text>
<text x="0" y="0" style="font-family:Times; font-style:normal; font-weight:normal; font-size:104.999176; fill:black" transform="matrix(1.000000 -0.000000 0.000000 1.000000 603.819885 133.392700)"
	>E</text>
<text x="0" y="0" style="font-family:Times; font-style:normal; font-weight:normal; font-size:104.999176; fill:black" transform="matrix(1.000000 -0.000000 0.000000 1.000000 242.790298 239.850189)"
	>A</text>
<text x="0" y="0" style="font-family:Times; font-style:normal; font-weight:normal; font-size:104.999176; fill:black" transform="matrix(1.000000 -0.000000 0.000000 1.000000 177.148544 239.850189)"
	>2</text>
<text x="0" y="0" style="font-family:Times; font-style:normal; font-weight:normal; font-size:104.999176; fill:black" transform="matrix(1.000000 -0.000000 0.000000 1.000000 210.810989 133.392700)"
	>D</text>
<text x="0" y="0" style="font-family:Times; font-style:normal; font-weight:normal; font-size:139.998901; fill:black" transform="matrix(1.000000 -0.000000 0.000000 1.000000 396.795929 181.517319)"
	> </text>
<text x="0" y="0" style="font-family:Times; font-style:normal; font-weight:normal; font-size:139.998901; fill:black" transform="matrix(1.000000 -0.000000 0.000000 1.000000 363.975067 181.517319)"
	>,</text>
<text x="0" y="0" style="font-family:Symbol; font-style:normal; font-weight:normal; font-size:139.998901; fill:black" transform="matrix(1.000000 -0.000000 0.000000 1.000000 434.666168 181.517319)"
	>-</text>
<text x="0" y="0" style="font-family:Symbol; font-style:normal; font-weight:normal; font-size:139.998901; fill:black" transform="matrix(1.000000 -0.000000 0.000000 1.000000 41.657261 181.517319)"
	>-</text>
</svg>
