<?xml version="1.0" standalone="no"?>
<!DOCTYPE svg PUBLIC "-//W3C//DTD SVG 20001102//EN"
"http://www.w3.org/TR/2000/CR-SVG-20001102/DTD/svg-20001102.dtd">
<svg width="768" height="331"
	xmlns:sodipodi="http://sodipodi.sourceforge.net/DTD/sodipodi-0.dtd">
<desc>wmf2svg</desc>
<line x1="91.160118" y1="204.762924" x2="120.547256" y2="184.716202" 
	style="stroke-width:10.525535; stroke-linecap:round; stroke-linejoin:round; stroke-dasharray:none; stroke:black" />
<line x1="120.547256" y1="190.443848" x2="163.128632" y2="283.517883" 
	style="stroke-width:21.051069; stroke-linecap:round; stroke-linejoin:round; stroke-dasharray:none; stroke:black" />
<line x1="167.926514" y1="283.517883" x2="224.301865" y2="5.727634" 
	style="stroke-width:10.525535; stroke-linecap:round; stroke-linejoin:round; stroke-dasharray:none; stroke:black" />
<line x1="224.301865" y1="5.727634" x2="470.194275" y2="5.727634" 
	style="stroke-width:10.525535; stroke-linecap:round; stroke-linejoin:round; stroke-dasharray:none; stroke:black" />
<text x="0" y="0" style="font-family:Times; font-style:normal; font-weight:normal; font-size:274.926453; fill:black" transform="matrix(1.000000 -0.000000 0.000000 1.000000 689.698242 267.766907)"
	>)</text>
<text x="0" y="0" style="font-family:Times; font-style:normal; font-weight:normal; font-size:274.926453; fill:black" transform="matrix(1.000000 -0.000000 0.000000 1.000000 574.548645 267.766907)"
	>0</text>
<text x="0" y="0" style="font-family:Times; font-style:normal; font-weight:normal; font-size:274.926453; fill:black" transform="matrix(1.000000 -0.000000 0.000000 1.000000 524.170654 267.766907)"
	> </text>
<text x="0" y="0" style="font-family:Times; font-style:normal; font-weight:normal; font-size:274.926453; fill:black" transform="matrix(1.000000 -0.000000 0.000000 1.000000 477.391113 267.766907)"
	>,</text>
<text x="0" y="0" style="font-family:Times; font-style:normal; font-weight:normal; font-size:274.926453; fill:black" transform="matrix(1.000000 -0.000000 0.000000 1.000000 231.498703 267.766907)"
	>32</text>
<text x="0" y="0" style="font-family:Times; font-style:normal; font-weight:normal; font-size:274.926453; fill:black" transform="matrix(1.000000 -0.000000 0.000000 1.000000 0.000000 267.766907)"
	>(</text>
</svg>
