<?xml version="1.0" standalone="no"?>
<!DOCTYPE svg PUBLIC "-//W3C//DTD SVG 20001102//EN"
"http://www.w3.org/TR/2000/CR-SVG-20001102/DTD/svg-20001102.dtd">
<svg width="768" height="148"
	xmlns:sodipodi="http://sodipodi.sourceforge.net/DTD/sodipodi-0.dtd">
<desc>wmf2svg</desc>
<line x1="193.512970" y1="77.109886" x2="400.310577" y2="77.109886" 
	style="stroke-width:2.455401; stroke-linecap:round; stroke-linejoin:round; stroke-dasharray:none; stroke:black" />
<line x1="159.415726" y1="90.333275" x2="165.910431" y2="86.191010" 
	style="stroke-width:2.455401; stroke-linecap:round; stroke-linejoin:round; stroke-dasharray:none; stroke:black" />
<line x1="165.910431" y1="87.465553" x2="175.357300" y2="137.650696" 
	style="stroke-width:4.910801; stroke-linecap:round; stroke-linejoin:round; stroke-dasharray:none; stroke:black" />
<line x1="176.538147" y1="137.650696" x2="189.379974" y2="1.274544" 
	style="stroke-width:2.455401; stroke-linecap:round; stroke-linejoin:round; stroke-dasharray:none; stroke:black" />
<line x1="189.379974" y1="1.274544" x2="405.034027" y2="1.274544" 
	style="stroke-width:2.455401; stroke-linecap:round; stroke-linejoin:round; stroke-dasharray:none; stroke:black" />
<line x1="494.631561" y1="77.109886" x2="677.959656" y2="77.109886" 
	style="stroke-width:2.455401; stroke-linecap:round; stroke-linejoin:round; stroke-dasharray:none; stroke:black" />
<line x1="460.534302" y1="90.333275" x2="467.029022" y2="86.191010" 
	style="stroke-width:2.455401; stroke-linecap:round; stroke-linejoin:round; stroke-dasharray:none; stroke:black" />
<line x1="467.029022" y1="87.465553" x2="476.475891" y2="137.650696" 
	style="stroke-width:4.910801; stroke-linecap:round; stroke-linejoin:round; stroke-dasharray:none; stroke:black" />
<line x1="477.656738" y1="137.650696" x2="490.498566" y2="1.274544" 
	style="stroke-width:2.455401; stroke-linecap:round; stroke-linejoin:round; stroke-dasharray:none; stroke:black" />
<line x1="490.498566" y1="1.274544" x2="682.683044" y2="1.274544" 
	style="stroke-width:2.455401; stroke-linecap:round; stroke-linejoin:round; stroke-dasharray:none; stroke:black" />
<line x1="737.002502" y1="77.109886" x2="766.819153" y2="77.109886" 
	style="stroke-width:2.455401; stroke-linecap:round; stroke-linejoin:round; stroke-dasharray:none; stroke:black" />
<text x="0" y="0" style="font-family:Times; font-style:normal; font-weight:normal; font-size:56.079918; fill:black" transform="matrix(1.000000 -0.000000 0.000000 1.000000 739.364197 135.101608)"
	>5</text>
<text x="0" y="0" style="font-family:Times; font-style:normal; font-weight:normal; font-size:56.079918; fill:black" transform="matrix(1.000000 -0.000000 0.000000 1.000000 739.807007 55.601963)"
	>3</text>
<text x="0" y="0" style="font-family:Times; font-style:normal; font-weight:normal; font-size:56.079918; fill:black" transform="matrix(1.000000 -0.000000 0.000000 1.000000 574.191833 135.101608)"
	>2</text>
<text x="0" y="0" style="font-family:Times; font-style:normal; font-weight:normal; font-size:56.079918; fill:black" transform="matrix(1.000000 -0.000000 0.000000 1.000000 624.525879 55.601963)"
	>25</text>
<text x="0" y="0" style="font-family:Times; font-style:normal; font-weight:normal; font-size:56.079918; fill:black" transform="matrix(1.000000 -0.000000 0.000000 1.000000 600.023071 55.601963)"
	>/</text>
<text x="0" y="0" style="font-family:Times; font-style:normal; font-weight:normal; font-size:56.079918; fill:black" transform="matrix(1.000000 -0.000000 0.000000 1.000000 565.040161 55.601963)"
	>7</text>
<text x="0" y="0" style="font-family:Times; font-style:normal; font-weight:normal; font-size:56.079918; fill:black" transform="matrix(1.000000 -0.000000 0.000000 1.000000 492.860260 55.601963)"
	>1</text>
<text x="0" y="0" style="font-family:Times; font-style:normal; font-weight:normal; font-size:56.079918; fill:black" transform="matrix(1.000000 -0.000000 0.000000 1.000000 284.734192 135.101608)"
	>2</text>
<text x="0" y="0" style="font-family:Times; font-style:normal; font-weight:normal; font-size:56.079918; fill:black" transform="matrix(1.000000 -0.000000 0.000000 1.000000 342.005768 55.601963)"
	>2</text>
<text x="0" y="0" style="font-family:Times; font-style:normal; font-weight:normal; font-size:56.079918; fill:black" transform="matrix(1.000000 -0.000000 0.000000 1.000000 264.807220 55.601963)"
	>cos</text>
<text x="0" y="0" style="font-family:Times; font-style:normal; font-weight:normal; font-size:56.079918; fill:black" transform="matrix(1.000000 -0.000000 0.000000 1.000000 191.741684 55.601963)"
	>1</text>
<text x="0" y="0" style="font-family:Times; font-style:normal; font-weight:normal; font-size:56.079918; fill:black" transform="matrix(1.000000 -0.000000 0.000000 1.000000 0.000000 91.129860)"
	>cos</text>
<text x="0" y="0" style="font-family:Symbol; font-style:normal; font-weight:normal; font-size:56.079918; fill:black" transform="matrix(1.000000 -0.000000 0.000000 1.000000 696.115295 91.129860)"
	>=</text>
<text x="0" y="0" style="font-family:Symbol; font-style:normal; font-weight:normal; font-size:56.079918; fill:black" transform="matrix(1.000000 -0.000000 0.000000 1.000000 525.776672 55.601963)"
	>-</text>
<text x="0" y="0" style="font-family:Symbol; font-style:normal; font-weight:normal; font-size:56.079918; fill:black" transform="matrix(1.000000 -0.000000 0.000000 1.000000 418.466278 91.129860)"
	>=</text>
<text x="0" y="0" style="font-family:Symbol; font-style:normal; font-weight:normal; font-size:56.079918; fill:black" transform="matrix(1.000000 -0.000000 0.000000 1.000000 224.658081 55.601963)"
	>+</text>
<text x="0" y="0" style="font-family:Symbol; font-style:normal; font-weight:normal; font-size:56.079918; fill:black" transform="matrix(1.000000 -0.000000 0.000000 1.000000 117.347687 91.129860)"
	>=</text>
<text x="0" y="0" style="font-family:Symbol; font-style:normal; font-weight:normal; font-size:56.079918; fill:black" transform="matrix(1.000000 -0.000000 0.000000 1.000000 363.999237 55.601963)"
	>q</text>
<text x="0" y="0" style="font-family:Symbol; font-style:normal; font-weight:normal; font-size:56.079918; fill:black" transform="matrix(1.000000 -0.000000 0.000000 1.000000 72.327507 91.129860)"
	>q</text>
</svg>
