<?xml version="1.0" standalone="no"?>
<!DOCTYPE svg PUBLIC "-//W3C//DTD SVG 20001102//EN"
"http://www.w3.org/TR/2000/CR-SVG-20001102/DTD/svg-20001102.dtd">
<svg width="768" height="186"
	xmlns:sodipodi="http://sodipodi.sourceforge.net/DTD/sodipodi-0.dtd">
<desc>wmf2svg</desc>
<text x="0" y="0" style="font-family:Times; font-style:italic; font-weight:normal; font-size:161.155228; fill:black" transform="matrix(1.000000 -0.000000 0.000000 1.000000 708.311096 124.089523)"
	>x</text>
<text x="0" y="0" style="font-family:Times; font-style:italic; font-weight:normal; font-size:161.155228; fill:black" transform="matrix(1.000000 -0.000000 0.000000 1.000000 127.884598 124.089523)"
	>x</text>
<text x="0" y="0" style="font-family:Times; font-style:italic; font-weight:normal; font-size:161.155228; fill:black" transform="matrix(1.000000 -0.000000 0.000000 1.000000 0.000000 124.089523)"
	>f</text>
<text x="0" y="0" style="font-family:Times; font-style:normal; font-weight:normal; font-size:94.007217; fill:black" transform="matrix(1.000000 -0.000000 0.000000 1.000000 630.944458 164.378326)"
	>5</text>
<text x="0" y="0" style="font-family:Times; font-style:normal; font-weight:normal; font-size:161.155228; fill:black" transform="matrix(1.000000 -0.000000 0.000000 1.000000 451.835358 124.089523)"
	>log</text>
<text x="0" y="0" style="font-family:Times; font-style:normal; font-weight:normal; font-size:161.155228; fill:black" transform="matrix(1.000000 -0.000000 0.000000 1.000000 377.648163 124.089523)"
	>3</text>
<text x="0" y="0" style="font-family:Times; font-style:normal; font-weight:normal; font-size:161.155228; fill:black" transform="matrix(1.000000 -0.000000 0.000000 1.000000 194.653076 124.089523)"
	>)</text>
<text x="0" y="0" style="font-family:Times; font-style:normal; font-weight:normal; font-size:161.155228; fill:black" transform="matrix(1.000000 -0.000000 0.000000 1.000000 69.947929 124.089523)"
	>(</text>
<text x="0" y="0" style="font-family:Symbol; font-style:normal; font-weight:normal; font-size:161.155228; fill:black" transform="matrix(1.000000 -0.000000 0.000000 1.000000 272.726288 124.089523)"
	>=</text>
</svg>
