<?xml version="1.0" standalone="no"?>
<!DOCTYPE svg PUBLIC "-//W3C//DTD SVG 20001102//EN"
"http://www.w3.org/TR/2000/CR-SVG-20001102/DTD/svg-20001102.dtd">
<svg width="768" height="213"
	xmlns:sodipodi="http://sodipodi.sourceforge.net/DTD/sodipodi-0.dtd">
<desc>wmf2svg</desc>
<text x="0" y="0" style="font-family:Times; font-style:normal; font-weight:normal; font-size:169.664780; fill:black" transform="matrix(1.000000 -0.000000 0.000000 1.000000 634.796753 173.977097)"
	>25</text>
<text x="0" y="0" style="font-family:Times; font-style:normal; font-weight:normal; font-size:169.664780; fill:black" transform="matrix(1.000000 -0.000000 0.000000 1.000000 0.000000 173.977097)"
	>5</text>
<text x="0" y="0" style="font-family:Times; font-style:normal; font-weight:normal; font-size:127.248589; fill:black" transform="matrix(1.000000 -0.000000 0.000000 1.000000 425.279144 97.981415)"
	>2</text>
<text x="0" y="0" style="font-family:Times; font-style:normal; font-weight:normal; font-size:127.248589; fill:black" transform="matrix(1.000000 -0.000000 0.000000 1.000000 144.303528 97.981415)"
	>2</text>
<text x="0" y="0" style="font-family:Symbol; font-style:normal; font-weight:normal; font-size:169.664780; fill:black" transform="matrix(1.000000 -0.000000 0.000000 1.000000 526.569092 173.977097)"
	>=</text>
<text x="0" y="0" style="font-family:Symbol; font-style:normal; font-weight:normal; font-size:169.664780; fill:black" transform="matrix(1.000000 -0.000000 0.000000 1.000000 237.268295 173.977097)"
	>+</text>
<text x="0" y="0" style="font-family:Times; font-style:italic; font-weight:normal; font-size:169.664780; fill:black" transform="matrix(1.000000 -0.000000 0.000000 1.000000 351.739838 173.977097)"
	>y</text>
<text x="0" y="0" style="font-family:Times; font-style:italic; font-weight:normal; font-size:169.664780; fill:black" transform="matrix(1.000000 -0.000000 0.000000 1.000000 72.845528 173.977097)"
	>x</text>
</svg>
