<?xml version="1.0" standalone="no"?>
<!DOCTYPE svg PUBLIC "-//W3C//DTD SVG 20001102//EN"
"http://www.w3.org/TR/2000/CR-SVG-20001102/DTD/svg-20001102.dtd">
<svg width="768" height="78"
	xmlns:sodipodi="http://sodipodi.sourceforge.net/DTD/sodipodi-0.dtd">
<desc>wmf2svg</desc>
<text x="0" y="0" style="font-family:Times; font-style:normal; font-weight:normal; font-size:69.205177; fill:black" transform="matrix(1.000000 -0.000000 0.000000 1.000000 749.879639 62.082809)"
	>)</text>
<text x="0" y="0" style="font-family:Times; font-style:normal; font-weight:normal; font-size:69.205177; fill:black" transform="matrix(1.000000 -0.000000 0.000000 1.000000 466.055115 62.082809)"
	>(</text>
<text x="0" y="0" style="font-family:Times; font-style:normal; font-weight:normal; font-size:69.205177; fill:black" transform="matrix(1.000000 -0.000000 0.000000 1.000000 174.874756 62.082809)"
	>)</text>
<text x="0" y="0" style="font-family:Times; font-style:normal; font-weight:normal; font-size:69.205177; fill:black" transform="matrix(1.000000 -0.000000 0.000000 1.000000 0.000000 62.082809)"
	>(</text>
<text x="0" y="0" style="font-family:Times; font-style:normal; font-weight:normal; font-size:40.369686; fill:black" transform="matrix(1.000000 -0.000000 0.000000 1.000000 727.118164 31.084658)"
	>2</text>
<text x="0" y="0" style="font-family:Times; font-style:normal; font-weight:normal; font-size:40.369686; fill:black" transform="matrix(1.000000 -0.000000 0.000000 1.000000 618.168396 31.084658)"
	>2</text>
<text x="0" y="0" style="font-family:Times; font-style:normal; font-weight:normal; font-size:40.369686; fill:black" transform="matrix(1.000000 -0.000000 0.000000 1.000000 513.104736 31.084658)"
	>2</text>
<text x="0" y="0" style="font-family:Times; font-style:normal; font-weight:normal; font-size:40.369686; fill:black" transform="matrix(1.000000 -0.000000 0.000000 1.000000 443.987579 31.084658)"
	>2</text>
<text x="0" y="0" style="font-family:Times; font-style:normal; font-weight:normal; font-size:40.369686; fill:black" transform="matrix(1.000000 -0.000000 0.000000 1.000000 333.372375 31.084658)"
	>2</text>
<text x="0" y="0" style="font-family:Times; font-style:normal; font-weight:normal; font-size:40.369686; fill:black" transform="matrix(1.000000 -0.000000 0.000000 1.000000 225.116562 31.084658)"
	>2</text>
<text x="0" y="0" style="font-family:Times; font-style:normal; font-weight:normal; font-size:40.369686; fill:black" transform="matrix(1.000000 -0.000000 0.000000 1.000000 152.113281 31.084658)"
	>2</text>
<text x="0" y="0" style="font-family:Times; font-style:normal; font-weight:normal; font-size:40.369686; fill:black" transform="matrix(1.000000 -0.000000 0.000000 1.000000 47.049637 31.084658)"
	>2</text>
<text x="0" y="0" style="font-family:Times; font-style:italic; font-weight:normal; font-size:69.205177; fill:black" transform="matrix(1.000000 -0.000000 0.000000 1.000000 698.249939 62.082809)"
	>y</text>
<text x="0" y="0" style="font-family:Times; font-style:italic; font-weight:normal; font-size:69.205177; fill:black" transform="matrix(1.000000 -0.000000 0.000000 1.000000 586.663208 62.082809)"
	>a</text>
<text x="0" y="0" style="font-family:Times; font-style:italic; font-weight:normal; font-size:69.205177; fill:black" transform="matrix(1.000000 -0.000000 0.000000 1.000000 485.624451 62.082809)"
	>c</text>
<text x="0" y="0" style="font-family:Times; font-style:italic; font-weight:normal; font-size:69.205177; fill:black" transform="matrix(1.000000 -0.000000 0.000000 1.000000 412.482361 62.082809)"
	>a</text>
<text x="0" y="0" style="font-family:Times; font-style:italic; font-weight:normal; font-size:69.205177; fill:black" transform="matrix(1.000000 -0.000000 0.000000 1.000000 304.504150 62.082809)"
	>y</text>
<text x="0" y="0" style="font-family:Times; font-style:italic; font-weight:normal; font-size:69.205177; fill:black" transform="matrix(1.000000 -0.000000 0.000000 1.000000 196.942291 62.082809)"
	>x</text>
<text x="0" y="0" style="font-family:Times; font-style:italic; font-weight:normal; font-size:69.205177; fill:black" transform="matrix(1.000000 -0.000000 0.000000 1.000000 120.608070 62.082809)"
	>a</text>
<text x="0" y="0" style="font-family:Times; font-style:italic; font-weight:normal; font-size:69.205177; fill:black" transform="matrix(1.000000 -0.000000 0.000000 1.000000 19.569319 62.082809)"
	>c</text>
<text x="0" y="0" style="font-family:Symbol; font-style:normal; font-weight:normal; font-size:69.205177; fill:black" transform="matrix(1.000000 -0.000000 0.000000 1.000000 651.200317 62.082809)"
	>+</text>
<text x="0" y="0" style="font-family:Symbol; font-style:normal; font-weight:normal; font-size:69.205177; fill:black" transform="matrix(1.000000 -0.000000 0.000000 1.000000 546.136658 62.082809)"
	>-</text>
<text x="0" y="0" style="font-family:Symbol; font-style:normal; font-weight:normal; font-size:69.205177; fill:black" transform="matrix(1.000000 -0.000000 0.000000 1.000000 369.180054 62.082809)"
	>=</text>
<text x="0" y="0" style="font-family:Symbol; font-style:normal; font-weight:normal; font-size:69.205177; fill:black" transform="matrix(1.000000 -0.000000 0.000000 1.000000 258.148468 62.082809)"
	>-</text>
<text x="0" y="0" style="font-family:Symbol; font-style:normal; font-weight:normal; font-size:69.205177; fill:black" transform="matrix(1.000000 -0.000000 0.000000 1.000000 80.081535 62.082809)"
	>-</text>
</svg>
