<?xml version="1.0" standalone="no"?>
<!DOCTYPE svg PUBLIC "-//W3C//DTD SVG 20001102//EN"
"http://www.w3.org/TR/2000/CR-SVG-20001102/DTD/svg-20001102.dtd">
<svg width="768" height="96"
	xmlns:sodipodi="http://sodipodi.sourceforge.net/DTD/sodipodi-0.dtd">
<desc>wmf2svg</desc>
<text x="0" y="0" style="font-family:Times; font-style:normal; font-weight:normal; font-size:49.417984; fill:black" transform="matrix(1.000000 -0.000000 0.000000 1.000000 84.846001 38.051849)"
	>2</text>
<text x="0" y="0" style="font-family:Times; font-style:normal; font-weight:normal; font-size:49.417984; fill:black" transform="matrix(1.000000 -0.000000 0.000000 1.000000 391.713287 38.051849)"
	>2</text>
<text x="0" y="0" style="font-family:Times; font-style:normal; font-weight:normal; font-size:85.479752; fill:black" transform="matrix(1.000000 -0.000000 0.000000 1.000000 0.000000 76.339653)"
	>4</text>
<text x="0" y="0" style="font-family:Times; font-style:normal; font-weight:normal; font-size:85.479752; fill:black" transform="matrix(1.000000 -0.000000 0.000000 1.000000 29.038204 76.339653)"
	>(</text>
<text x="0" y="0" style="font-family:Times; font-style:normal; font-weight:normal; font-size:85.479752; fill:black" transform="matrix(1.000000 -0.000000 0.000000 1.000000 158.953918 76.339653)"
	>2</text>
<text x="0" y="0" style="font-family:Times; font-style:normal; font-weight:normal; font-size:85.479752; fill:black" transform="matrix(1.000000 -0.000000 0.000000 1.000000 222.474991 76.339653)"
	>)</text>
<text x="0" y="0" style="font-family:Times; font-style:normal; font-weight:normal; font-size:85.479752; fill:black" transform="matrix(1.000000 -0.000000 0.000000 1.000000 294.163055 76.339653)"
	> </text>
<text x="0" y="0" style="font-family:Times; font-style:normal; font-weight:normal; font-size:85.479752; fill:black" transform="matrix(1.000000 -0.000000 0.000000 1.000000 310.497040 76.339653)"
	>9</text>
<text x="0" y="0" style="font-family:Times; font-style:normal; font-weight:normal; font-size:85.479752; fill:black" transform="matrix(1.000000 -0.000000 0.000000 1.000000 339.535248 76.339653)"
	>(</text>
<text x="0" y="0" style="font-family:Times; font-style:normal; font-weight:normal; font-size:85.479752; fill:black" transform="matrix(1.000000 -0.000000 0.000000 1.000000 463.098846 76.339653)"
	>8</text>
<text x="0" y="0" style="font-family:Times; font-style:normal; font-weight:normal; font-size:85.479752; fill:black" transform="matrix(1.000000 -0.000000 0.000000 1.000000 522.082703 76.339653)"
	>)</text>
<text x="0" y="0" style="font-family:Times; font-style:normal; font-weight:normal; font-size:85.479752; fill:black" transform="matrix(1.000000 -0.000000 0.000000 1.000000 593.770752 76.339653)"
	>1</text>
<text x="0" y="0" style="font-family:Times; font-style:normal; font-weight:normal; font-size:85.479752; fill:black" transform="matrix(1.000000 -0.000000 0.000000 1.000000 622.808960 76.339653)"
	>7</text>
<text x="0" y="0" style="font-family:Times; font-style:normal; font-weight:normal; font-size:85.479752; fill:black" transform="matrix(1.000000 -0.000000 0.000000 1.000000 651.847168 76.339653)"
	>6</text>
<text x="0" y="0" style="font-family:Times; font-style:italic; font-weight:normal; font-size:85.479752; fill:black" transform="matrix(1.000000 -0.000000 0.000000 1.000000 55.354076 76.339653)"
	>y</text>
<text x="0" y="0" style="font-family:Times; font-style:italic; font-weight:normal; font-size:85.479752; fill:black" transform="matrix(1.000000 -0.000000 0.000000 1.000000 194.344223 76.339653)"
	>y</text>
<text x="0" y="0" style="font-family:Times; font-style:italic; font-weight:normal; font-size:85.479752; fill:black" transform="matrix(1.000000 -0.000000 0.000000 1.000000 363.128784 76.339653)"
	>x</text>
<text x="0" y="0" style="font-family:Times; font-style:italic; font-weight:normal; font-size:85.479752; fill:black" transform="matrix(1.000000 -0.000000 0.000000 1.000000 494.859406 76.339653)"
	>x</text>
<text x="0" y="0" style="font-family:Symbol; font-style:normal; font-weight:normal; font-size:85.479752; fill:black" transform="matrix(1.000000 -0.000000 0.000000 1.000000 117.211502 76.339653)"
	>-</text>
<text x="0" y="0" style="font-family:Symbol; font-style:normal; font-weight:normal; font-size:85.479752; fill:black" transform="matrix(1.000000 -0.000000 0.000000 1.000000 251.513199 76.339653)"
	>-</text>
<text x="0" y="0" style="font-family:Symbol; font-style:normal; font-weight:normal; font-size:85.479752; fill:black" transform="matrix(1.000000 -0.000000 0.000000 1.000000 424.078766 76.339653)"
	>-</text>
<text x="0" y="0" style="font-family:Symbol; font-style:normal; font-weight:normal; font-size:85.479752; fill:black" transform="matrix(1.000000 -0.000000 0.000000 1.000000 554.750671 76.339653)"
	>=</text>
</svg>
