<?xml version="1.0" standalone="no"?>
<!DOCTYPE svg PUBLIC "-//W3C//DTD SVG 20001102//EN"
"http://www.w3.org/TR/2000/CR-SVG-20001102/DTD/svg-20001102.dtd">
<svg width="768" height="321"
	xmlns:sodipodi="http://sodipodi.sourceforge.net/DTD/sodipodi-0.dtd">
<desc>wmf2svg</desc>
<line x1="382.939178" y1="152.762711" x2="765.171265" y2="152.762711" 
	style="stroke-width:5.601947; stroke-linecap:round; stroke-linejoin:round; stroke-dasharray:none; stroke:black" />
<text x="0" y="0" style="font-family:Times; font-style:normal; font-weight:normal; font-size:133.114471; fill:black" transform="matrix(1.000000 -0.000000 0.000000 1.000000 691.270691 290.383667)"
	>2</text>
<text x="0" y="0" style="font-family:Times; font-style:normal; font-weight:normal; font-size:133.114471; fill:black" transform="matrix(1.000000 -0.000000 0.000000 1.000000 391.071808 290.383667)"
	>2</text>
<text x="0" y="0" style="font-family:Times; font-style:normal; font-weight:normal; font-size:133.114471; fill:black" transform="matrix(1.000000 -0.000000 0.000000 1.000000 540.287292 102.498146)"
	>1</text>
<text x="0" y="0" style="font-family:Times; font-style:normal; font-weight:normal; font-size:133.114471; fill:black" transform="matrix(1.000000 -0.000000 0.000000 1.000000 194.828720 186.041336)"
	>)</text>
<text x="0" y="0" style="font-family:Times; font-style:normal; font-weight:normal; font-size:133.114471; fill:black" transform="matrix(1.000000 -0.000000 0.000000 1.000000 70.011047 186.041336)"
	>(</text>
<text x="0" y="0" style="font-family:Times; font-style:normal; font-weight:normal; font-size:77.650108; fill:black" transform="matrix(1.000000 -0.000000 0.000000 1.000000 466.386719 230.759476)"
	>3</text>
<text x="0" y="0" style="font-family:Symbol; font-style:normal; font-weight:normal; font-size:133.114471; fill:black" transform="matrix(1.000000 -0.000000 0.000000 1.000000 592.265137 290.383667)"
	>-</text>
<text x="0" y="0" style="font-family:Symbol; font-style:normal; font-weight:normal; font-size:133.114471; fill:black" transform="matrix(1.000000 -0.000000 0.000000 1.000000 272.972351 186.041336)"
	>=</text>
<text x="0" y="0" style="font-family:Times; font-style:italic; font-weight:normal; font-size:77.650108; fill:black" transform="matrix(1.000000 -0.000000 0.000000 1.000000 512.353577 230.759476)"
	>x</text>
<text x="0" y="0" style="font-family:Times; font-style:italic; font-weight:normal; font-size:133.114471; fill:black" transform="matrix(1.000000 -0.000000 0.000000 1.000000 127.999992 186.041336)"
	>x</text>
<text x="0" y="0" style="font-family:Times; font-style:italic; font-weight:normal; font-size:133.114471; fill:black" transform="matrix(1.000000 -0.000000 0.000000 1.000000 0.000000 186.041336)"
	>f</text>
</svg>
