<?xml version="1.0" standalone="no"?>
<!DOCTYPE svg PUBLIC "-//W3C//DTD SVG 20001102//EN"
"http://www.w3.org/TR/2000/CR-SVG-20001102/DTD/svg-20001102.dtd">
<svg width="768" height="99"
	xmlns:sodipodi="http://sodipodi.sourceforge.net/DTD/sodipodi-0.dtd">
<desc>wmf2svg</desc>
<text x="0" y="0" style="font-family:Symbol; font-style:normal; font-weight:normal; font-size:53.892857; fill:black" transform="matrix(1.000000 -0.000000 0.000000 1.000000 68.974831 57.180000)"
	>(</text>
<text x="0" y="0" style="font-family:Symbol; font-style:normal; font-weight:normal; font-size:53.892857; fill:black" transform="matrix(1.000000 -0.000000 0.000000 1.000000 121.420181 57.180000)"
	>)</text>
<line x1="134.480499" y1="30.179998" x2="145.296082" y2="30.179998" 
	style="stroke-width:0.836707; stroke-linecap:round; stroke-linejoin:round; stroke-dasharray:none; stroke:black" />
<line x1="340.180573" y1="47.215714" x2="363.852417" y2="47.215714" 
	style="stroke-width:1.673413; stroke-linecap:round; stroke-linejoin:round; stroke-dasharray:none; stroke:black" />
<text x="0" y="0" style="font-family:Times; font-style:italic; font-weight:normal; font-size:41.142857; fill:black" transform="matrix(1.000000 -0.000000 0.000000 1.000000 753.111267 57.501427)"
	>z</text>
<text x="0" y="0" style="font-family:Times; font-style:italic; font-weight:normal; font-size:41.142857; fill:black" transform="matrix(1.000000 -0.000000 0.000000 1.000000 588.938904 57.501427)"
	>y</text>
<text x="0" y="0" style="font-family:Times; font-style:italic; font-weight:normal; font-size:41.142857; fill:black" transform="matrix(1.000000 -0.000000 0.000000 1.000000 457.519409 57.501427)"
	>x</text>
<text x="0" y="0" style="font-family:Times; font-style:italic; font-weight:normal; font-size:41.142857; fill:black" transform="matrix(1.000000 -0.000000 0.000000 1.000000 282.531494 57.501427)"
	>z</text>
<text x="0" y="0" style="font-family:Times; font-style:italic; font-weight:normal; font-size:41.142857; fill:black" transform="matrix(1.000000 -0.000000 0.000000 1.000000 83.259552 57.501427)"
	>xy</text>
<text x="0" y="0" style="font-family:Times; font-style:italic; font-weight:normal; font-size:24.000000; fill:black" transform="matrix(1.000000 -0.000000 0.000000 1.000000 730.459717 67.787140)"
	>b</text>
<text x="0" y="0" style="font-family:Times; font-style:italic; font-weight:normal; font-size:24.000000; fill:black" transform="matrix(1.000000 -0.000000 0.000000 1.000000 563.838623 67.787140)"
	>b</text>
<text x="0" y="0" style="font-family:Times; font-style:italic; font-weight:normal; font-size:24.000000; fill:black" transform="matrix(1.000000 -0.000000 0.000000 1.000000 434.357758 67.787140)"
	>b</text>
<text x="0" y="0" style="font-family:Times; font-style:italic; font-weight:normal; font-size:24.000000; fill:black" transform="matrix(1.000000 -0.000000 0.000000 1.000000 259.880005 67.787140)"
	>b</text>
<text x="0" y="0" style="font-family:Times; font-style:italic; font-weight:normal; font-size:24.000000; fill:black" transform="matrix(1.000000 -0.000000 0.000000 1.000000 52.037220 67.787140)"
	>b</text>
<text x="0" y="0" style="font-family:Times; font-style:normal; font-weight:normal; font-size:41.142857; fill:black" transform="matrix(1.000000 -0.000000 0.000000 1.000000 678.422546 57.501427)"
	>log</text>
<text x="0" y="0" style="font-family:Times; font-style:normal; font-weight:normal; font-size:41.142857; fill:black" transform="matrix(1.000000 -0.000000 0.000000 1.000000 656.995422 57.501427)"
	>3</text>
<text x="0" y="0" style="font-family:Times; font-style:normal; font-weight:normal; font-size:41.142857; fill:black" transform="matrix(1.000000 -0.000000 0.000000 1.000000 608.631409 57.501427)"
	>)</text>
<text x="0" y="0" style="font-family:Times; font-style:normal; font-weight:normal; font-size:41.142857; fill:black" transform="matrix(1.000000 -0.000000 0.000000 1.000000 511.801392 57.501427)"
	>log</text>
<text x="0" y="0" style="font-family:Times; font-style:normal; font-weight:normal; font-size:41.142857; fill:black" transform="matrix(1.000000 -0.000000 0.000000 1.000000 369.158173 57.501427)"
	>(log</text>
<text x="0" y="0" style="font-family:Times; font-style:normal; font-weight:normal; font-size:41.142857; fill:black" transform="matrix(1.000000 -0.000000 0.000000 1.000000 342.527344 89.537140)"
	>2</text>
<text x="0" y="0" style="font-family:Times; font-style:normal; font-weight:normal; font-size:41.142857; fill:black" transform="matrix(1.000000 -0.000000 0.000000 1.000000 342.323303 31.679998)"
	>1</text>
<text x="0" y="0" style="font-family:Times; font-style:normal; font-weight:normal; font-size:41.142857; fill:black" transform="matrix(1.000000 -0.000000 0.000000 1.000000 207.842789 57.501427)"
	>log</text>
<text x="0" y="0" style="font-family:Times; font-style:normal; font-weight:normal; font-size:41.142857; fill:black" transform="matrix(1.000000 -0.000000 0.000000 1.000000 186.415695 57.501427)"
	>3</text>
<text x="0" y="0" style="font-family:Times; font-style:normal; font-weight:normal; font-size:41.142857; fill:black" transform="matrix(1.000000 -0.000000 0.000000 1.000000 0.000000 57.501427)"
	>log</text>
<text x="0" y="0" style="font-family:Times; font-style:normal; font-weight:normal; font-size:17.142857; fill:black" transform="matrix(1.000000 -0.000000 0.000000 1.000000 136.011017 46.787144)"
	>2</text>
<text x="0" y="0" style="font-family:Times; font-style:normal; font-weight:normal; font-size:17.142857; fill:black" transform="matrix(1.000000 -0.000000 0.000000 1.000000 135.908981 26.644285)"
	>1</text>
<text x="0" y="0" style="font-family:Symbol; font-style:normal; font-weight:normal; font-size:41.142857; fill:black" transform="matrix(1.000000 -0.000000 0.000000 1.000000 628.936157 57.501427)"
	>-</text>
<text x="0" y="0" style="font-family:Symbol; font-style:normal; font-weight:normal; font-size:41.142857; fill:black" transform="matrix(1.000000 -0.000000 0.000000 1.000000 483.231934 57.501427)"
	>+</text>
<text x="0" y="0" style="font-family:Symbol; font-style:normal; font-weight:normal; font-size:41.142857; fill:black" transform="matrix(1.000000 -0.000000 0.000000 1.000000 308.448090 57.501427)"
	>=</text>
<text x="0" y="0" style="font-family:Symbol; font-style:normal; font-weight:normal; font-size:41.142857; fill:black" transform="matrix(1.000000 -0.000000 0.000000 1.000000 158.356415 57.501427)"
	>-</text>
</svg>
