<?xml version="1.0" standalone="no"?>
<!DOCTYPE svg PUBLIC "-//W3C//DTD SVG 20001102//EN"
"http://www.w3.org/TR/2000/CR-SVG-20001102/DTD/svg-20001102.dtd">
<svg width="768" height="129"
	xmlns:sodipodi="http://sodipodi.sourceforge.net/DTD/sodipodi-0.dtd">
<desc>wmf2svg</desc>
<line x1="181.194809" y1="2.168067" x2="181.194809" y2="126.831932" 
	style="stroke-width:3.830405; stroke-linecap:round; stroke-linejoin:round; stroke-dasharray:none; stroke:black" />
<line x1="299.636353" y1="2.168067" x2="299.636353" y2="126.831932" 
	style="stroke-width:3.830405; stroke-linecap:round; stroke-linejoin:round; stroke-dasharray:none; stroke:black" />
<text x="0" y="0" style="font-family:Times; font-style:normal; font-weight:normal; font-size:104.067230; fill:black" transform="matrix(1.000000 -0.000000 0.000000 1.000000 728.103882 90.516808)"
	>6</text>
<text x="0" y="0" style="font-family:Times; font-style:normal; font-weight:normal; font-size:104.067230; fill:black" transform="matrix(1.000000 -0.000000 0.000000 1.000000 617.142883 90.516808)"
	>)</text>
<text x="0" y="0" style="font-family:Times; font-style:normal; font-weight:normal; font-size:104.067230; fill:black" transform="matrix(1.000000 -0.000000 0.000000 1.000000 577.246765 90.516808)"
	>4</text>
<text x="0" y="0" style="font-family:Times; font-style:normal; font-weight:normal; font-size:104.067230; fill:black" transform="matrix(1.000000 -0.000000 0.000000 1.000000 504.935059 90.516808)"
	>(</text>
<text x="0" y="0" style="font-family:Times; font-style:normal; font-weight:normal; font-size:104.067230; fill:black" transform="matrix(1.000000 -0.000000 0.000000 1.000000 391.480530 90.516808)"
	>2</text>
<text x="0" y="0" style="font-family:Times; font-style:normal; font-weight:normal; font-size:104.067230; fill:black" transform="matrix(1.000000 -0.000000 0.000000 1.000000 0.000000 90.516808)"
	>4</text>
<text x="0" y="0" style="font-family:Symbol; font-style:normal; font-weight:normal; font-size:104.067230; fill:black" transform="matrix(1.000000 -0.000000 0.000000 1.000000 664.519470 90.516808)"
	>=</text>
<text x="0" y="0" style="font-family:Symbol; font-style:normal; font-weight:normal; font-size:104.067230; fill:black" transform="matrix(1.000000 -0.000000 0.000000 1.000000 533.610413 90.516808)"
	>-</text>
<text x="0" y="0" style="font-family:Symbol; font-style:normal; font-weight:normal; font-size:104.067230; fill:black" transform="matrix(1.000000 -0.000000 0.000000 1.000000 446.337677 90.516808)"
	>-</text>
<text x="0" y="0" style="font-family:Symbol; font-style:normal; font-weight:normal; font-size:104.067230; fill:black" transform="matrix(1.000000 -0.000000 0.000000 1.000000 326.649353 90.516808)"
	>=</text>
<text x="0" y="0" style="font-family:Symbol; font-style:normal; font-weight:normal; font-size:104.067230; fill:black" transform="matrix(1.000000 -0.000000 0.000000 1.000000 113.454544 90.516808)"
	>=</text>
<text x="0" y="0" style="font-family:Times; font-style:italic; font-weight:normal; font-size:104.067230; fill:black" transform="matrix(1.000000 -0.000000 0.000000 1.000000 195.740265 90.516808)"
	>AB</text>
<text x="0" y="0" style="font-family:Times; font-style:italic; font-weight:normal; font-size:104.067230; fill:black" transform="matrix(1.000000 -0.000000 0.000000 1.000000 51.116882 90.516808)"
	>p</text>
</svg>
