<?xml version="1.0" standalone="no"?>
<!DOCTYPE svg PUBLIC "-//W3C//DTD SVG 20001102//EN"
"http://www.w3.org/TR/2000/CR-SVG-20001102/DTD/svg-20001102.dtd">
<svg width="768" height="144"
	xmlns:sodipodi="http://sodipodi.sourceforge.net/DTD/sodipodi-0.dtd">
<desc>wmf2svg</desc>
<text x="0" y="0" style="font-family:Times; font-style:normal; font-weight:normal; font-size:144.000000; fill:black" transform="matrix(1.000000 -0.000000 0.000000 1.000000 728.329285 110.880005)"
	>)</text>
<text x="0" y="0" style="font-family:Times; font-style:normal; font-weight:normal; font-size:144.000000; fill:black" transform="matrix(1.000000 -0.000000 0.000000 1.000000 621.070068 110.880005)"
	>(</text>
<text x="0" y="0" style="font-family:Times; font-style:normal; font-weight:normal; font-size:144.000000; fill:black" transform="matrix(1.000000 -0.000000 0.000000 1.000000 480.387390 110.880005)"
	>8</text>
<text x="0" y="0" style="font-family:Times; font-style:normal; font-weight:normal; font-size:144.000000; fill:black" transform="matrix(1.000000 -0.000000 0.000000 1.000000 326.031403 110.880005)"
	>)</text>
<text x="0" y="0" style="font-family:Times; font-style:normal; font-weight:normal; font-size:144.000000; fill:black" transform="matrix(1.000000 -0.000000 0.000000 1.000000 271.642212 110.880005)"
	>3</text>
<text x="0" y="0" style="font-family:Times; font-style:normal; font-weight:normal; font-size:144.000000; fill:black" transform="matrix(1.000000 -0.000000 0.000000 1.000000 60.162369 110.880005)"
	>(</text>
<text x="0" y="0" style="font-family:Times; font-style:italic; font-weight:normal; font-size:144.000000; fill:black" transform="matrix(1.000000 -0.000000 0.000000 1.000000 670.901550 110.880005)"
	>x</text>
<text x="0" y="0" style="font-family:Times; font-style:italic; font-weight:normal; font-size:144.000000; fill:black" transform="matrix(1.000000 -0.000000 0.000000 1.000000 560.907715 110.880005)"
	>f</text>
<text x="0" y="0" style="font-family:Times; font-style:italic; font-weight:normal; font-size:144.000000; fill:black" transform="matrix(1.000000 -0.000000 0.000000 1.000000 109.993820 110.880005)"
	>x</text>
<text x="0" y="0" style="font-family:Times; font-style:italic; font-weight:normal; font-size:144.000000; fill:black" transform="matrix(1.000000 -0.000000 0.000000 1.000000 0.000000 110.880005)"
	>f</text>
<text x="0" y="0" style="font-family:Symbol; font-style:normal; font-weight:normal; font-size:144.000000; fill:black" transform="matrix(1.000000 -0.000000 0.000000 1.000000 393.182343 110.880005)"
	>=</text>
<text x="0" y="0" style="font-family:Symbol; font-style:normal; font-weight:normal; font-size:144.000000; fill:black" transform="matrix(1.000000 -0.000000 0.000000 1.000000 186.564117 110.880005)"
	>+</text>
</svg>
