<?xml version="1.0" standalone="no"?>
<!DOCTYPE svg PUBLIC "-//W3C//DTD SVG 20001102//EN"
"http://www.w3.org/TR/2000/CR-SVG-20001102/DTD/svg-20001102.dtd">
<svg width="768" height="187"
	xmlns:sodipodi="http://sodipodi.sourceforge.net/DTD/sodipodi-0.dtd">
<desc>wmf2svg</desc>
<line x1="539.728760" y1="41.482304" x2="568.357605" y2="41.482304" 
	style="stroke-width:2.473221; stroke-linecap:round; stroke-linejoin:round; stroke-dasharray:none; stroke:black" />
<line x1="664.188843" y1="41.482304" x2="690.858887" y2="41.482304" 
	style="stroke-width:2.473221; stroke-linecap:round; stroke-linejoin:round; stroke-dasharray:none; stroke:black" />
<line x1="551.481689" y1="135.933151" x2="602.712219" y2="135.933151" 
	style="stroke-width:2.473221; stroke-linecap:round; stroke-linejoin:round; stroke-dasharray:none; stroke:black" />
<line x1="698.543457" y1="135.933151" x2="727.172302" y2="135.933151" 
	style="stroke-width:2.473221; stroke-linecap:round; stroke-linejoin:round; stroke-dasharray:none; stroke:black" />
<text x="0" y="0" style="font-family:Times; font-style:italic; font-weight:normal; font-size:60.854237; fill:black" transform="matrix(1.000000 -0.000000 0.000000 1.000000 742.541443 151.146713)"
	>y</text>
<text x="0" y="0" style="font-family:Times; font-style:italic; font-weight:normal; font-size:60.854237; fill:black" transform="matrix(1.000000 -0.000000 0.000000 1.000000 615.369141 151.146713)"
	>x</text>
<text x="0" y="0" style="font-family:Times; font-style:italic; font-weight:normal; font-size:60.854237; fill:black" transform="matrix(1.000000 -0.000000 0.000000 1.000000 337.217468 151.146713)"
	>y</text>
<text x="0" y="0" style="font-family:Times; font-style:italic; font-weight:normal; font-size:60.854237; fill:black" transform="matrix(1.000000 -0.000000 0.000000 1.000000 133.802109 151.146713)"
	>x</text>
<text x="0" y="0" style="font-family:Times; font-style:italic; font-weight:normal; font-size:60.854237; fill:black" transform="matrix(1.000000 -0.000000 0.000000 1.000000 2.712205 151.146713)"
	>y</text>
<text x="0" y="0" style="font-family:Times; font-style:italic; font-weight:normal; font-size:60.854237; fill:black" transform="matrix(1.000000 -0.000000 0.000000 1.000000 706.228027 56.695866)"
	>y</text>
<text x="0" y="0" style="font-family:Times; font-style:italic; font-weight:normal; font-size:60.854237; fill:black" transform="matrix(1.000000 -0.000000 0.000000 1.000000 581.014587 56.695866)"
	>x</text>
<text x="0" y="0" style="font-family:Times; font-style:italic; font-weight:normal; font-size:60.854237; fill:black" transform="matrix(1.000000 -0.000000 0.000000 1.000000 333.601196 56.695866)"
	>y</text>
<text x="0" y="0" style="font-family:Times; font-style:italic; font-weight:normal; font-size:60.854237; fill:black" transform="matrix(1.000000 -0.000000 0.000000 1.000000 122.049225 56.695866)"
	>x</text>
<text x="0" y="0" style="font-family:Times; font-style:italic; font-weight:normal; font-size:60.854237; fill:black" transform="matrix(1.000000 -0.000000 0.000000 1.000000 0.000000 56.695866)"
	>x</text>
<text x="0" y="0" style="font-family:Times; font-style:normal; font-weight:normal; font-size:45.640678; fill:black" transform="matrix(1.000000 -0.000000 0.000000 1.000000 702.461060 176.502640)"
	>5</text>
<text x="0" y="0" style="font-family:Times; font-style:normal; font-weight:normal; font-size:45.640678; fill:black" transform="matrix(1.000000 -0.000000 0.000000 1.000000 702.762451 130.228073)"
	>4</text>
<text x="0" y="0" style="font-family:Times; font-style:normal; font-weight:normal; font-size:45.640678; fill:black" transform="matrix(1.000000 -0.000000 0.000000 1.000000 566.700134 176.502640)"
	>5</text>
<text x="0" y="0" style="font-family:Times; font-style:normal; font-weight:normal; font-size:45.640678; fill:black" transform="matrix(1.000000 -0.000000 0.000000 1.000000 579.658447 129.594177)"
	>3</text>
<text x="0" y="0" style="font-family:Times; font-style:normal; font-weight:normal; font-size:45.640678; fill:black" transform="matrix(1.000000 -0.000000 0.000000 1.000000 667.051758 82.051796)"
	>5</text>
<text x="0" y="0" style="font-family:Times; font-style:normal; font-weight:normal; font-size:45.640678; fill:black" transform="matrix(1.000000 -0.000000 0.000000 1.000000 667.353088 35.143322)"
	>3</text>
<text x="0" y="0" style="font-family:Times; font-style:normal; font-weight:normal; font-size:45.640678; fill:black" transform="matrix(1.000000 -0.000000 0.000000 1.000000 543.646423 82.051796)"
	>5</text>
<text x="0" y="0" style="font-family:Times; font-style:normal; font-weight:normal; font-size:45.640678; fill:black" transform="matrix(1.000000 -0.000000 0.000000 1.000000 543.947754 35.777222)"
	>4</text>
<text x="0" y="0" style="font-family:Times; font-style:normal; font-weight:normal; font-size:60.854237; fill:black" transform="matrix(1.000000 -0.000000 0.000000 1.000000 371.572083 151.146713)"
	>cos</text>
<text x="0" y="0" style="font-family:Times; font-style:normal; font-weight:normal; font-size:60.854237; fill:black" transform="matrix(1.000000 -0.000000 0.000000 1.000000 166.348572 151.146713)"
	>sin</text>
<text x="0" y="0" style="font-family:Times; font-style:normal; font-weight:normal; font-size:60.854237; fill:black" transform="matrix(1.000000 -0.000000 0.000000 1.000000 37.066799 151.146713)"
	> </text>
<text x="0" y="0" style="font-family:Times; font-style:normal; font-weight:normal; font-size:60.854237; fill:black" transform="matrix(1.000000 -0.000000 0.000000 1.000000 30.738323 151.146713)"
	>'</text>
<text x="0" y="0" style="font-family:Times; font-style:normal; font-weight:normal; font-size:60.854237; fill:black" transform="matrix(1.000000 -0.000000 0.000000 1.000000 367.051727 56.695866)"
	>sin</text>
<text x="0" y="0" style="font-family:Times; font-style:normal; font-weight:normal; font-size:60.854237; fill:black" transform="matrix(1.000000 -0.000000 0.000000 1.000000 155.499756 56.695866)"
	>cos</text>
<text x="0" y="0" style="font-family:Times; font-style:normal; font-weight:normal; font-size:60.854237; fill:black" transform="matrix(1.000000 -0.000000 0.000000 1.000000 76.845810 56.695866)"
	>   </text>
<text x="0" y="0" style="font-family:Times; font-style:normal; font-weight:normal; font-size:60.854237; fill:black" transform="matrix(1.000000 -0.000000 0.000000 1.000000 33.450527 56.695866)"
	> </text>
<text x="0" y="0" style="font-family:Times; font-style:normal; font-weight:normal; font-size:60.854237; fill:black" transform="matrix(1.000000 -0.000000 0.000000 1.000000 27.122049 56.695866)"
	>'</text>
<text x="0" y="0" style="font-family:Symbol; font-style:normal; font-weight:normal; font-size:60.854237; fill:black" transform="matrix(1.000000 -0.000000 0.000000 1.000000 653.340027 151.146713)"
	>+</text>
<text x="0" y="0" style="font-family:Symbol; font-style:normal; font-weight:normal; font-size:60.854237; fill:black" transform="matrix(1.000000 -0.000000 0.000000 1.000000 503.566040 151.146713)"
	>=</text>
<text x="0" y="0" style="font-family:Symbol; font-style:normal; font-weight:normal; font-size:60.854237; fill:black" transform="matrix(1.000000 -0.000000 0.000000 1.000000 287.493713 151.146713)"
	>+</text>
<text x="0" y="0" style="font-family:Symbol; font-style:normal; font-weight:normal; font-size:60.854237; fill:black" transform="matrix(1.000000 -0.000000 0.000000 1.000000 97.639381 151.146713)"
	>-</text>
<text x="0" y="0" style="font-family:Symbol; font-style:normal; font-weight:normal; font-size:60.854237; fill:black" transform="matrix(1.000000 -0.000000 0.000000 1.000000 50.627827 151.146713)"
	>=</text>
<text x="0" y="0" style="font-family:Symbol; font-style:normal; font-weight:normal; font-size:60.854237; fill:black" transform="matrix(1.000000 -0.000000 0.000000 1.000000 618.985413 56.695866)"
	>+</text>
<text x="0" y="0" style="font-family:Symbol; font-style:normal; font-weight:normal; font-size:60.854237; fill:black" transform="matrix(1.000000 -0.000000 0.000000 1.000000 491.813171 56.695866)"
	>=</text>
<text x="0" y="0" style="font-family:Symbol; font-style:normal; font-weight:normal; font-size:60.854237; fill:black" transform="matrix(1.000000 -0.000000 0.000000 1.000000 283.877441 56.695866)"
	>+</text>
<text x="0" y="0" style="font-family:Symbol; font-style:normal; font-weight:normal; font-size:60.854237; fill:black" transform="matrix(1.000000 -0.000000 0.000000 1.000000 47.011551 56.695866)"
	>=</text>
<text x="0" y="0" style="font-family:Symbol; font-style:normal; font-weight:normal; font-size:45.640678; fill:black" transform="matrix(1.000000 -0.000000 0.000000 1.000000 555.700684 129.594177)"
	>-</text>
<text x="0" y="0" style="font-family:Symbol; font-style:normal; font-weight:normal; font-size:60.854237; fill:black" transform="matrix(1.000000 -0.000000 0.000000 1.000000 451.130096 151.146713)"
	>q</text>
<text x="0" y="0" style="font-family:Symbol; font-style:normal; font-weight:normal; font-size:60.854237; fill:black" transform="matrix(1.000000 -0.000000 0.000000 1.000000 238.674042 151.146713)"
	>q</text>
<text x="0" y="0" style="font-family:Symbol; font-style:normal; font-weight:normal; font-size:60.854237; fill:black" transform="matrix(1.000000 -0.000000 0.000000 1.000000 439.377197 56.695866)"
	>q</text>
<text x="0" y="0" style="font-family:Symbol; font-style:normal; font-weight:normal; font-size:60.854237; fill:black" transform="matrix(1.000000 -0.000000 0.000000 1.000000 235.057755 56.695866)"
	>q</text>
</svg>
