<?xml version="1.0" standalone="no"?>
<!DOCTYPE svg PUBLIC "-//W3C//DTD SVG 20001102//EN"
"http://www.w3.org/TR/2000/CR-SVG-20001102/DTD/svg-20001102.dtd">
<svg width="768" height="256"
	xmlns:sodipodi="http://sodipodi.sourceforge.net/DTD/sodipodi-0.dtd">
<desc>wmf2svg</desc>
<line x1="446.101166" y1="122.093155" x2="557.422852" y2="122.093155" 
	style="stroke-width:4.388580; stroke-linecap:round; stroke-linejoin:round; stroke-dasharray:none; stroke:black" />
<text x="0" y="0" style="font-family:Times; font-style:normal; font-weight:normal; font-size:106.389610; fill:black" transform="matrix(1.000000 -0.000000 0.000000 1.000000 732.550842 148.690552)"
	>)</text>
<text x="0" y="0" style="font-family:Times; font-style:normal; font-weight:normal; font-size:106.389610; fill:black" transform="matrix(1.000000 -0.000000 0.000000 1.000000 636.705566 148.690552)"
	>(</text>
<text x="0" y="0" style="font-family:Times; font-style:normal; font-weight:normal; font-size:106.389610; fill:black" transform="matrix(1.000000 -0.000000 0.000000 1.000000 452.346069 231.530396)"
	>25</text>
<text x="0" y="0" style="font-family:Times; font-style:normal; font-weight:normal; font-size:106.389610; fill:black" transform="matrix(1.000000 -0.000000 0.000000 1.000000 475.967957 81.920006)"
	>1</text>
<text x="0" y="0" style="font-family:Times; font-style:normal; font-weight:normal; font-size:106.389610; fill:black" transform="matrix(1.000000 -0.000000 0.000000 1.000000 301.654541 148.690552)"
	>)</text>
<text x="0" y="0" style="font-family:Times; font-style:normal; font-weight:normal; font-size:106.389610; fill:black" transform="matrix(1.000000 -0.000000 0.000000 1.000000 247.894318 148.690552)"
	>2</text>
<text x="0" y="0" style="font-family:Times; font-style:normal; font-weight:normal; font-size:106.389610; fill:black" transform="matrix(1.000000 -0.000000 0.000000 1.000000 58.919022 148.690552)"
	>(</text>
<text x="0" y="0" style="font-family:Times; font-style:italic; font-weight:normal; font-size:106.389610; fill:black" transform="matrix(1.000000 -0.000000 0.000000 1.000000 681.234253 148.690552)"
	>x</text>
<text x="0" y="0" style="font-family:Times; font-style:italic; font-weight:normal; font-size:106.389610; fill:black" transform="matrix(1.000000 -0.000000 0.000000 1.000000 577.786560 148.690552)"
	>g</text>
<text x="0" y="0" style="font-family:Times; font-style:italic; font-weight:normal; font-size:106.389610; fill:black" transform="matrix(1.000000 -0.000000 0.000000 1.000000 103.447685 148.690552)"
	>x</text>
<text x="0" y="0" style="font-family:Times; font-style:italic; font-weight:normal; font-size:106.389610; fill:black" transform="matrix(1.000000 -0.000000 0.000000 1.000000 0.000000 148.690552)"
	>g</text>
<text x="0" y="0" style="font-family:Symbol; font-style:normal; font-weight:normal; font-size:106.389610; fill:black" transform="matrix(1.000000 -0.000000 0.000000 1.000000 361.659637 148.690552)"
	>=</text>
<text x="0" y="0" style="font-family:Symbol; font-style:normal; font-weight:normal; font-size:106.389610; fill:black" transform="matrix(1.000000 -0.000000 0.000000 1.000000 171.869781 148.690552)"
	>-</text>
</svg>
