<?xml version="1.0" standalone="no"?>
<!DOCTYPE svg PUBLIC "-//W3C//DTD SVG 20001102//EN"
"http://www.w3.org/TR/2000/CR-SVG-20001102/DTD/svg-20001102.dtd">
<svg width="768" height="162"
	xmlns:sodipodi="http://sodipodi.sourceforge.net/DTD/sodipodi-0.dtd">
<desc>wmf2svg</desc>
<text x="0" y="0" style="font-family:Symbol; font-style:normal; font-weight:normal; font-size:159.393860; fill:black" transform="matrix(1.000000 -0.000000 0.000000 1.000000 189.760941 122.733276)"
	>(</text>
<text x="0" y="0" style="font-family:Symbol; font-style:normal; font-weight:normal; font-size:159.393860; fill:black" transform="matrix(1.000000 -0.000000 0.000000 1.000000 324.944611 122.733276)"
	>)</text>
<text x="0" y="0" style="font-family:Times; font-style:italic; font-weight:normal; font-size:100.175522; fill:black" transform="matrix(1.000000 -0.000000 0.000000 1.000000 714.262390 123.515900)"
	>u</text>
<text x="0" y="0" style="font-family:Times; font-style:italic; font-weight:normal; font-size:100.175522; fill:black" transform="matrix(1.000000 -0.000000 0.000000 1.000000 459.848389 123.515900)"
	>r</text>
<text x="0" y="0" style="font-family:Times; font-style:italic; font-weight:normal; font-size:100.175522; fill:black" transform="matrix(1.000000 -0.000000 0.000000 1.000000 216.069977 123.515900)"
	>u</text>
<text x="0" y="0" style="font-family:Times; font-style:italic; font-weight:normal; font-size:58.435722; fill:black" transform="matrix(1.000000 -0.000000 0.000000 1.000000 658.565613 148.559784)"
	>b</text>
<text x="0" y="0" style="font-family:Times; font-style:italic; font-weight:normal; font-size:58.435722; fill:black" transform="matrix(1.000000 -0.000000 0.000000 1.000000 280.163269 78.645615)"
	>r</text>
<text x="0" y="0" style="font-family:Times; font-style:italic; font-weight:normal; font-size:58.435722; fill:black" transform="matrix(1.000000 -0.000000 0.000000 1.000000 142.740524 148.559784)"
	>b</text>
<text x="0" y="0" style="font-family:Times; font-style:normal; font-weight:normal; font-size:100.175522; fill:black" transform="matrix(1.000000 -0.000000 0.000000 1.000000 515.825073 123.515900)"
	>log</text>
<text x="0" y="0" style="font-family:Times; font-style:normal; font-weight:normal; font-size:100.175522; fill:black" transform="matrix(1.000000 -0.000000 0.000000 1.000000 0.000000 123.515900)"
	>log</text>
<text x="0" y="0" style="font-family:Symbol; font-style:normal; font-weight:normal; font-size:100.175522; fill:black" transform="matrix(1.000000 -0.000000 0.000000 1.000000 373.924194 123.515900)"
	>=</text>
</svg>
