<?xml version="1.0" standalone="no"?>
<!DOCTYPE svg PUBLIC "-//W3C//DTD SVG 20001102//EN"
"http://www.w3.org/TR/2000/CR-SVG-20001102/DTD/svg-20001102.dtd">
<svg width="768" height="193"
	xmlns:sodipodi="http://sodipodi.sourceforge.net/DTD/sodipodi-0.dtd">
<desc>wmf2svg</desc>
<line x1="119.658997" y1="106.901543" x2="210.749710" y2="106.901543" 
	style="stroke-width:4.019086; stroke-linecap:round; stroke-linejoin:round; stroke-dasharray:none; stroke:black" />
<line x1="420.094421" y1="106.901543" x2="481.446014" y2="106.901543" 
	style="stroke-width:4.019086; stroke-linecap:round; stroke-linejoin:round; stroke-dasharray:none; stroke:black" />
<line x1="410.259430" y1="29.386122" x2="410.259430" y2="184.416992" 
	style="stroke-width:4.019086; stroke-linecap:round; stroke-linejoin:round; stroke-dasharray:none; stroke:black" />
<line x1="489.875977" y1="29.386122" x2="489.875977" y2="184.416992" 
	style="stroke-width:4.019086; stroke-linecap:round; stroke-linejoin:round; stroke-dasharray:none; stroke:black" />
<line x1="354.293671" y1="129.163773" x2="364.596985" y2="122.190063" 
	style="stroke-width:4.019086; stroke-linecap:round; stroke-linejoin:round; stroke-dasharray:none; stroke:black" />
<line x1="364.596985" y1="124.335823" x2="379.583649" y2="188.708496" 
	style="stroke-width:8.038173; stroke-linecap:round; stroke-linejoin:round; stroke-dasharray:none; stroke:black" />
<line x1="381.456970" y1="188.708496" x2="401.829437" y2="10.074319" 
	style="stroke-width:4.019086; stroke-linecap:round; stroke-linejoin:round; stroke-dasharray:none; stroke:black" />
<line x1="401.829437" y1="10.074319" x2="500.647614" y2="10.074319" 
	style="stroke-width:4.019086; stroke-linecap:round; stroke-linejoin:round; stroke-dasharray:none; stroke:black" />
<line x1="647.469910" y1="106.901543" x2="744.883118" y2="106.901543" 
	style="stroke-width:4.019086; stroke-linecap:round; stroke-linejoin:round; stroke-dasharray:none; stroke:black" />
<text x="0" y="0" style="font-family:Symbol; font-style:normal; font-weight:normal; font-size:168.441833; fill:black" transform="matrix(1.000000 -0.000000 0.000000 1.000000 505.096771 129.700211)"
	>(</text>
<text x="0" y="0" style="font-family:Symbol; font-style:normal; font-weight:normal; font-size:168.441833; fill:black" transform="matrix(1.000000 -0.000000 0.000000 1.000000 751.439758 129.700211)"
	>)</text>
<text x="0" y="0" style="font-family:Times; font-style:normal; font-weight:normal; font-size:77.247208; fill:black" transform="matrix(1.000000 -0.000000 0.000000 1.000000 690.088196 174.761063)"
	>A</text>
<text x="0" y="0" style="font-family:Times; font-style:normal; font-weight:normal; font-size:77.247208; fill:black" transform="matrix(1.000000 -0.000000 0.000000 1.000000 654.026550 174.761063)"
	>2</text>
<text x="0" y="0" style="font-family:Times; font-style:normal; font-weight:normal; font-size:77.247208; fill:black" transform="matrix(1.000000 -0.000000 0.000000 1.000000 672.525757 98.050308)"
	>D</text>
<text x="0" y="0" style="font-family:Times; font-style:normal; font-weight:normal; font-size:77.247208; fill:black" transform="matrix(1.000000 -0.000000 0.000000 1.000000 428.758545 174.761063)"
	>C</text>
<text x="0" y="0" style="font-family:Times; font-style:normal; font-weight:normal; font-size:77.247208; fill:black" transform="matrix(1.000000 -0.000000 0.000000 1.000000 426.651062 98.050308)"
	>A</text>
<text x="0" y="0" style="font-family:Times; font-style:normal; font-weight:normal; font-size:77.247208; fill:black" transform="matrix(1.000000 -0.000000 0.000000 1.000000 161.106445 174.761063)"
	>C</text>
<text x="0" y="0" style="font-family:Times; font-style:normal; font-weight:normal; font-size:77.247208; fill:black" transform="matrix(1.000000 -0.000000 0.000000 1.000000 126.215660 174.761063)"
	>2</text>
<text x="0" y="0" style="font-family:Times; font-style:normal; font-weight:normal; font-size:77.247208; fill:black" transform="matrix(1.000000 -0.000000 0.000000 1.000000 144.714798 98.050308)"
	>E</text>
<text x="0" y="0" style="font-family:Symbol; font-style:normal; font-weight:normal; font-size:94.413254; fill:black" transform="matrix(1.000000 -0.000000 0.000000 1.000000 583.308350 130.504852)"
	>+</text>
<text x="0" y="0" style="font-family:Symbol; font-style:normal; font-weight:normal; font-size:94.413254; fill:black" transform="matrix(1.000000 -0.000000 0.000000 1.000000 302.308746 130.504852)"
	>±</text>
<text x="0" y="0" style="font-family:Symbol; font-style:normal; font-weight:normal; font-size:94.413254; fill:black" transform="matrix(1.000000 -0.000000 0.000000 1.000000 235.337173 130.504852)"
	>=</text>
<text x="0" y="0" style="font-family:Symbol; font-style:normal; font-weight:normal; font-size:94.413254; fill:black" transform="matrix(1.000000 -0.000000 0.000000 1.000000 55.497421 130.504852)"
	>+</text>
<text x="0" y="0" style="font-family:Times; font-style:italic; font-weight:normal; font-size:94.413254; fill:black" transform="matrix(1.000000 -0.000000 0.000000 1.000000 529.215881 130.504852)"
	>x</text>
<text x="0" y="0" style="font-family:Times; font-style:italic; font-weight:normal; font-size:94.413254; fill:black" transform="matrix(1.000000 -0.000000 0.000000 1.000000 0.000000 130.504852)"
	>y</text>
</svg>
