<?xml version="1.0" standalone="no"?>
<!DOCTYPE svg PUBLIC "-//W3C//DTD SVG 20001102//EN"
"http://www.w3.org/TR/2000/CR-SVG-20001102/DTD/svg-20001102.dtd">
<svg width="768" height="111"
	xmlns:sodipodi="http://sodipodi.sourceforge.net/DTD/sodipodi-0.dtd">
<desc>wmf2svg</desc>
<text x="0" y="0" style="font-family:Times; font-style:normal; font-weight:normal; font-size:57.139542; fill:black" transform="matrix(1.000000 -0.000000 0.000000 1.000000 198.925156 43.997448)"
	>2</text>
<text x="0" y="0" style="font-family:Times; font-style:normal; font-weight:normal; font-size:57.139542; fill:black" transform="matrix(1.000000 -0.000000 0.000000 1.000000 510.730377 43.997448)"
	>2</text>
<text x="0" y="0" style="font-family:Times; font-style:normal; font-weight:normal; font-size:98.835968; fill:black" transform="matrix(1.000000 -0.000000 0.000000 1.000000 0.000000 88.267723)"
	>4</text>
<text x="0" y="0" style="font-family:Times; font-style:normal; font-weight:normal; font-size:98.835968; fill:black" transform="matrix(1.000000 -0.000000 0.000000 1.000000 33.240757 88.267723)"
	>(</text>
<text x="0" y="0" style="font-family:Times; font-style:normal; font-weight:normal; font-size:98.835968; fill:black" transform="matrix(1.000000 -0.000000 0.000000 1.000000 146.467087 88.267723)"
	>1</text>
<text x="0" y="0" style="font-family:Times; font-style:normal; font-weight:normal; font-size:98.835968; fill:black" transform="matrix(1.000000 -0.000000 0.000000 1.000000 174.513977 88.267723)"
	>)</text>
<text x="0" y="0" style="font-family:Times; font-style:normal; font-weight:normal; font-size:98.835968; fill:black" transform="matrix(1.000000 -0.000000 0.000000 1.000000 284.797119 88.267723)"
	> </text>
<text x="0" y="0" style="font-family:Times; font-style:normal; font-weight:normal; font-size:98.835968; fill:black" transform="matrix(1.000000 -0.000000 0.000000 1.000000 303.495026 88.267723)"
	>9</text>
<text x="0" y="0" style="font-family:Times; font-style:normal; font-weight:normal; font-size:98.835968; fill:black" transform="matrix(1.000000 -0.000000 0.000000 1.000000 336.735809 88.267723)"
	>(</text>
<text x="0" y="0" style="font-family:Times; font-style:normal; font-weight:normal; font-size:98.835968; fill:black" transform="matrix(1.000000 -0.000000 0.000000 1.000000 453.078461 88.267723)"
	>4</text>
<text x="0" y="0" style="font-family:Times; font-style:normal; font-weight:normal; font-size:98.835968; fill:black" transform="matrix(1.000000 -0.000000 0.000000 1.000000 486.319214 88.267723)"
	>)</text>
<text x="0" y="0" style="font-family:Times; font-style:normal; font-weight:normal; font-size:98.835968; fill:black" transform="matrix(1.000000 -0.000000 0.000000 1.000000 601.796204 88.267723)"
	>3</text>
<text x="0" y="0" style="font-family:Times; font-style:normal; font-weight:normal; font-size:98.835968; fill:black" transform="matrix(1.000000 -0.000000 0.000000 1.000000 635.036987 88.267723)"
	>6</text>
<text x="0" y="0" style="font-family:Times; font-style:italic; font-weight:normal; font-size:98.835968; fill:black" transform="matrix(1.000000 -0.000000 0.000000 1.000000 63.365192 88.267723)"
	>y</text>
<text x="0" y="0" style="font-family:Times; font-style:italic; font-weight:normal; font-size:98.835968; fill:black" transform="matrix(1.000000 -0.000000 0.000000 1.000000 363.743927 88.267723)"
	>x</text>
<text x="0" y="0" style="font-family:Symbol; font-style:normal; font-weight:normal; font-size:98.835968; fill:black" transform="matrix(1.000000 -0.000000 0.000000 1.000000 105.954918 88.267723)"
	>-</text>
<text x="0" y="0" style="font-family:Symbol; font-style:normal; font-weight:normal; font-size:98.835968; fill:black" transform="matrix(1.000000 -0.000000 0.000000 1.000000 235.974747 88.267723)"
	>-</text>
<text x="0" y="0" style="font-family:Symbol; font-style:normal; font-weight:normal; font-size:98.835968; fill:black" transform="matrix(1.000000 -0.000000 0.000000 1.000000 405.294861 88.267723)"
	>-</text>
<text x="0" y="0" style="font-family:Symbol; font-style:normal; font-weight:normal; font-size:98.835968; fill:black" transform="matrix(1.000000 -0.000000 0.000000 1.000000 551.935059 88.267723)"
	>=</text>
</svg>
