<?xml version="1.0" standalone="no"?>
<!DOCTYPE svg PUBLIC "-//W3C//DTD SVG 20001102//EN"
"http://www.w3.org/TR/2000/CR-SVG-20001102/DTD/svg-20001102.dtd">
<svg width="768" height="129"
	xmlns:sodipodi="http://sodipodi.sourceforge.net/DTD/sodipodi-0.dtd">
<desc>wmf2svg</desc>
<text x="0" y="0" style="font-family:Times; font-style:normal; font-weight:normal; font-size:66.405418; fill:black" transform="matrix(1.000000 -0.000000 0.000000 1.000000 206.493317 51.132172)"
	>2</text>
<text x="0" y="0" style="font-family:Times; font-style:normal; font-weight:normal; font-size:114.863419; fill:black" transform="matrix(1.000000 -0.000000 0.000000 1.000000 0.000000 102.581413)"
	>(</text>
<text x="0" y="0" style="font-family:Times; font-style:normal; font-weight:normal; font-size:114.863419; fill:black" transform="matrix(1.000000 -0.000000 0.000000 1.000000 179.154755 102.581413)"
	>)</text>
<text x="0" y="0" style="font-family:Times; font-style:normal; font-weight:normal; font-size:114.863419; fill:black" transform="matrix(1.000000 -0.000000 0.000000 1.000000 358.503418 102.581413)"
	>4</text>
<text x="0" y="0" style="font-family:Times; font-style:normal; font-weight:normal; font-size:114.863419; fill:black" transform="matrix(1.000000 -0.000000 0.000000 1.000000 445.754089 102.581413)"
	>(</text>
<text x="0" y="0" style="font-family:Times; font-style:normal; font-weight:normal; font-size:114.863419; fill:black" transform="matrix(1.000000 -0.000000 0.000000 1.000000 619.092163 102.581413)"
	>)</text>
<text x="0" y="0" style="font-family:Times; font-style:italic; font-weight:normal; font-size:114.863419; fill:black" transform="matrix(1.000000 -0.000000 0.000000 1.000000 33.736935 102.581413)"
	>y</text>
<text x="0" y="0" style="font-family:Times; font-style:italic; font-weight:normal; font-size:114.863419; fill:black" transform="matrix(1.000000 -0.000000 0.000000 1.000000 139.601105 102.581413)"
	>k</text>
<text x="0" y="0" style="font-family:Times; font-style:italic; font-weight:normal; font-size:114.863419; fill:black" transform="matrix(1.000000 -0.000000 0.000000 1.000000 406.200439 102.581413)"
	>p</text>
<text x="0" y="0" style="font-family:Times; font-style:italic; font-weight:normal; font-size:114.863419; fill:black" transform="matrix(1.000000 -0.000000 0.000000 1.000000 476.001007 102.581413)"
	>x</text>
<text x="0" y="0" style="font-family:Times; font-style:italic; font-weight:normal; font-size:114.863419; fill:black" transform="matrix(1.000000 -0.000000 0.000000 1.000000 580.701843 102.581413)"
	>h</text>
<text x="0" y="0" style="font-family:Symbol; font-style:normal; font-weight:normal; font-size:114.863419; fill:black" transform="matrix(1.000000 -0.000000 0.000000 1.000000 83.760666 102.581413)"
	>-</text>
<text x="0" y="0" style="font-family:Symbol; font-style:normal; font-weight:normal; font-size:114.863419; fill:black" transform="matrix(1.000000 -0.000000 0.000000 1.000000 257.292603 102.581413)"
	>=</text>
<text x="0" y="0" style="font-family:Symbol; font-style:normal; font-weight:normal; font-size:114.863419; fill:black" transform="matrix(1.000000 -0.000000 0.000000 1.000000 317.786407 102.581413)"
	>-</text>
<text x="0" y="0" style="font-family:Symbol; font-style:normal; font-weight:normal; font-size:114.863419; fill:black" transform="matrix(1.000000 -0.000000 0.000000 1.000000 524.861389 102.581413)"
	>-</text>
</svg>
