<?xml version="1.0" standalone="no"?>
<!DOCTYPE svg PUBLIC "-//W3C//DTD SVG 20001102//EN"
"http://www.w3.org/TR/2000/CR-SVG-20001102/DTD/svg-20001102.dtd">
<svg width="768" height="80"
	xmlns:sodipodi="http://sodipodi.sourceforge.net/DTD/sodipodi-0.dtd">
<desc>wmf2svg</desc>
<text x="0" y="0" style="font-family:Times; font-style:italic; font-weight:normal; font-size:70.979668; fill:black" transform="matrix(1.000000 -0.000000 0.000000 1.000000 740.716064 63.674675)"
	>x</text>
<text x="0" y="0" style="font-family:Times; font-style:italic; font-weight:normal; font-size:70.979668; fill:black" transform="matrix(1.000000 -0.000000 0.000000 1.000000 537.733704 63.674675)"
	>x</text>
<text x="0" y="0" style="font-family:Times; font-style:italic; font-weight:normal; font-size:70.979668; fill:black" transform="matrix(1.000000 -0.000000 0.000000 1.000000 325.385406 63.674675)"
	>x</text>
<text x="0" y="0" style="font-family:Times; font-style:italic; font-weight:normal; font-size:70.979668; fill:black" transform="matrix(1.000000 -0.000000 0.000000 1.000000 120.142303 63.674675)"
	>x</text>
<text x="0" y="0" style="font-family:Times; font-style:normal; font-weight:normal; font-size:41.404804; fill:black" transform="matrix(1.000000 -0.000000 0.000000 1.000000 704.059753 31.881699)"
	>2</text>
<text x="0" y="0" style="font-family:Times; font-style:normal; font-weight:normal; font-size:41.404804; fill:black" transform="matrix(1.000000 -0.000000 0.000000 1.000000 501.077393 31.881699)"
	>2</text>
<text x="0" y="0" style="font-family:Times; font-style:normal; font-weight:normal; font-size:41.404804; fill:black" transform="matrix(1.000000 -0.000000 0.000000 1.000000 288.729095 31.881699)"
	>2</text>
<text x="0" y="0" style="font-family:Times; font-style:normal; font-weight:normal; font-size:41.404804; fill:black" transform="matrix(1.000000 -0.000000 0.000000 1.000000 83.485985 31.881699)"
	>2</text>
<text x="0" y="0" style="font-family:Times; font-style:normal; font-weight:normal; font-size:70.979668; fill:black" transform="matrix(1.000000 -0.000000 0.000000 1.000000 622.834534 63.674675)"
	>cot</text>
<text x="0" y="0" style="font-family:Times; font-style:normal; font-weight:normal; font-size:70.979668; fill:black" transform="matrix(1.000000 -0.000000 0.000000 1.000000 419.852142 63.674675)"
	>tan</text>
<text x="0" y="0" style="font-family:Times; font-style:normal; font-weight:normal; font-size:70.979668; fill:black" transform="matrix(1.000000 -0.000000 0.000000 1.000000 205.243103 63.674675)"
	>csc</text>
<text x="0" y="0" style="font-family:Times; font-style:normal; font-weight:normal; font-size:70.979668; fill:black" transform="matrix(1.000000 -0.000000 0.000000 1.000000 0.000000 63.674675)"
	>sec</text>
<text x="0" y="0" style="font-family:Symbol; font-style:normal; font-weight:normal; font-size:70.979668; fill:black" transform="matrix(1.000000 -0.000000 0.000000 1.000000 578.427063 63.674675)"
	>-</text>
<text x="0" y="0" style="font-family:Symbol; font-style:normal; font-weight:normal; font-size:70.979668; fill:black" transform="matrix(1.000000 -0.000000 0.000000 1.000000 369.631378 63.674675)"
	>=</text>
<text x="0" y="0" style="font-family:Symbol; font-style:normal; font-weight:normal; font-size:70.979668; fill:black" transform="matrix(1.000000 -0.000000 0.000000 1.000000 160.835663 63.674675)"
	>-</text>
</svg>
