<?xml version="1.0" standalone="no"?>
<!DOCTYPE svg PUBLIC "-//W3C//DTD SVG 20001102//EN"
"http://www.w3.org/TR/2000/CR-SVG-20001102/DTD/svg-20001102.dtd">
<svg width="768" height="125"
	xmlns:sodipodi="http://sodipodi.sourceforge.net/DTD/sodipodi-0.dtd">
<desc>wmf2svg</desc>
<text x="0" y="0" style="font-family:Times; font-style:normal; font-weight:normal; font-size:99.568535; fill:black" transform="matrix(1.000000 -0.000000 0.000000 1.000000 728.741211 102.099236)"
	>7</text>
<text x="0" y="0" style="font-family:Times; font-style:normal; font-weight:normal; font-size:99.568535; fill:black" transform="matrix(1.000000 -0.000000 0.000000 1.000000 516.498352 102.099236)"
	>4</text>
<text x="0" y="0" style="font-family:Times; font-style:normal; font-weight:normal; font-size:99.568535; fill:black" transform="matrix(1.000000 -0.000000 0.000000 1.000000 360.690094 102.099236)"
	>6</text>
<text x="0" y="0" style="font-family:Times; font-style:normal; font-weight:normal; font-size:99.568535; fill:black" transform="matrix(1.000000 -0.000000 0.000000 1.000000 157.035141 102.099236)"
	>2</text>
<text x="0" y="0" style="font-family:Times; font-style:normal; font-weight:normal; font-size:74.676407; fill:black" transform="matrix(1.000000 -0.000000 0.000000 1.000000 248.230011 57.500828)"
	>2</text>
<text x="0" y="0" style="font-family:Times; font-style:normal; font-weight:normal; font-size:74.676407; fill:black" transform="matrix(1.000000 -0.000000 0.000000 1.000000 42.121403 57.500828)"
	>2</text>
<text x="0" y="0" style="font-family:Symbol; font-style:normal; font-weight:normal; font-size:99.568535; fill:black" transform="matrix(1.000000 -0.000000 0.000000 1.000000 685.801880 102.099236)"
	>-</text>
<text x="0" y="0" style="font-family:Symbol; font-style:normal; font-weight:normal; font-size:99.568535; fill:black" transform="matrix(1.000000 -0.000000 0.000000 1.000000 622.006348 102.099236)"
	>=</text>
<text x="0" y="0" style="font-family:Symbol; font-style:normal; font-weight:normal; font-size:99.568535; fill:black" transform="matrix(1.000000 -0.000000 0.000000 1.000000 456.383392 102.099236)"
	>+</text>
<text x="0" y="0" style="font-family:Symbol; font-style:normal; font-weight:normal; font-size:99.568535; fill:black" transform="matrix(1.000000 -0.000000 0.000000 1.000000 303.028748 102.099236)"
	>-</text>
<text x="0" y="0" style="font-family:Symbol; font-style:normal; font-weight:normal; font-size:99.568535; fill:black" transform="matrix(1.000000 -0.000000 0.000000 1.000000 96.920128 102.099236)"
	>+</text>
<text x="0" y="0" style="font-family:Times; font-style:italic; font-weight:normal; font-size:99.568535; fill:black" transform="matrix(1.000000 -0.000000 0.000000 1.000000 564.345032 102.099236)"
	>y</text>
<text x="0" y="0" style="font-family:Times; font-style:italic; font-weight:normal; font-size:99.568535; fill:black" transform="matrix(1.000000 -0.000000 0.000000 1.000000 404.856201 102.099236)"
	>x</text>
<text x="0" y="0" style="font-family:Times; font-style:italic; font-weight:normal; font-size:99.568535; fill:black" transform="matrix(1.000000 -0.000000 0.000000 1.000000 204.881790 102.099236)"
	>y</text>
<text x="0" y="0" style="font-family:Times; font-style:italic; font-weight:normal; font-size:99.568535; fill:black" transform="matrix(1.000000 -0.000000 0.000000 1.000000 0.000000 102.099236)"
	>x</text>
</svg>
