<?xml version="1.0" standalone="no"?>
<!DOCTYPE svg PUBLIC "-//W3C//DTD SVG 20001102//EN"
"http://www.w3.org/TR/2000/CR-SVG-20001102/DTD/svg-20001102.dtd">
<svg width="768" height="85"
	xmlns:sodipodi="http://sodipodi.sourceforge.net/DTD/sodipodi-0.dtd">
<desc>wmf2svg</desc>
<text x="0" y="0" style="font-family:Times; font-style:normal; font-weight:normal; font-size:75.415894; fill:black" transform="matrix(1.000000 -0.000000 0.000000 1.000000 748.040039 67.654343)"
	>)</text>
<text x="0" y="0" style="font-family:Times; font-style:normal; font-weight:normal; font-size:75.415894; fill:black" transform="matrix(1.000000 -0.000000 0.000000 1.000000 558.927917 67.654343)"
	>(</text>
<text x="0" y="0" style="font-family:Times; font-style:normal; font-weight:normal; font-size:75.415894; fill:black" transform="matrix(1.000000 -0.000000 0.000000 1.000000 189.112106 67.654343)"
	>)</text>
<text x="0" y="0" style="font-family:Times; font-style:normal; font-weight:normal; font-size:75.415894; fill:black" transform="matrix(1.000000 -0.000000 0.000000 1.000000 0.000000 67.654343)"
	>(</text>
<text x="0" y="0" style="font-family:Times; font-style:normal; font-weight:normal; font-size:43.992607; fill:black" transform="matrix(1.000000 -0.000000 0.000000 1.000000 722.661987 33.874306)"
	>2</text>
<text x="0" y="0" style="font-family:Times; font-style:normal; font-weight:normal; font-size:43.992607; fill:black" transform="matrix(1.000000 -0.000000 0.000000 1.000000 615.493408 33.874306)"
	>2</text>
<text x="0" y="0" style="font-family:Times; font-style:normal; font-weight:normal; font-size:43.992607; fill:black" transform="matrix(1.000000 -0.000000 0.000000 1.000000 534.314331 33.874306)"
	>2</text>
<text x="0" y="0" style="font-family:Times; font-style:normal; font-weight:normal; font-size:43.992607; fill:black" transform="matrix(1.000000 -0.000000 0.000000 1.000000 416.291229 33.874306)"
	>2</text>
<text x="0" y="0" style="font-family:Times; font-style:normal; font-weight:normal; font-size:43.992607; fill:black" transform="matrix(1.000000 -0.000000 0.000000 1.000000 357.126801 33.874306)"
	>2</text>
<text x="0" y="0" style="font-family:Times; font-style:normal; font-weight:normal; font-size:43.992607; fill:black" transform="matrix(1.000000 -0.000000 0.000000 1.000000 244.760284 33.874306)"
	>2</text>
<text x="0" y="0" style="font-family:Times; font-style:normal; font-weight:normal; font-size:43.992607; fill:black" transform="matrix(1.000000 -0.000000 0.000000 1.000000 163.734085 33.874306)"
	>2</text>
<text x="0" y="0" style="font-family:Times; font-style:normal; font-weight:normal; font-size:43.992607; fill:black" transform="matrix(1.000000 -0.000000 0.000000 1.000000 56.565464 33.874306)"
	>2</text>
<text x="0" y="0" style="font-family:Times; font-style:italic; font-weight:normal; font-size:75.415894; fill:black" transform="matrix(1.000000 -0.000000 0.000000 1.000000 692.086060 67.654343)"
	>c</text>
<text x="0" y="0" style="font-family:Times; font-style:italic; font-weight:normal; font-size:75.415894; fill:black" transform="matrix(1.000000 -0.000000 0.000000 1.000000 580.483948 67.654343)"
	>a</text>
<text x="0" y="0" style="font-family:Times; font-style:italic; font-weight:normal; font-size:75.415894; fill:black" transform="matrix(1.000000 -0.000000 0.000000 1.000000 499.304871 67.654343)"
	>a</text>
<text x="0" y="0" style="font-family:Times; font-style:italic; font-weight:normal; font-size:75.415894; fill:black" transform="matrix(1.000000 -0.000000 0.000000 1.000000 384.339386 67.654343)"
	>y</text>
<text x="0" y="0" style="font-family:Times; font-style:italic; font-weight:normal; font-size:75.415894; fill:black" transform="matrix(1.000000 -0.000000 0.000000 1.000000 322.117371 67.654343)"
	>a</text>
<text x="0" y="0" style="font-family:Times; font-style:italic; font-weight:normal; font-size:75.415894; fill:black" transform="matrix(1.000000 -0.000000 0.000000 1.000000 213.419968 67.654343)"
	>x</text>
<text x="0" y="0" style="font-family:Times; font-style:italic; font-weight:normal; font-size:75.415894; fill:black" transform="matrix(1.000000 -0.000000 0.000000 1.000000 133.158157 67.654343)"
	>c</text>
<text x="0" y="0" style="font-family:Times; font-style:italic; font-weight:normal; font-size:75.415894; fill:black" transform="matrix(1.000000 -0.000000 0.000000 1.000000 21.556028 67.654343)"
	>a</text>
<text x="0" y="0" style="font-family:Symbol; font-style:normal; font-weight:normal; font-size:75.415894; fill:black" transform="matrix(1.000000 -0.000000 0.000000 1.000000 649.891296 67.654343)"
	>-</text>
<text x="0" y="0" style="font-family:Symbol; font-style:normal; font-weight:normal; font-size:75.415894; fill:black" transform="matrix(1.000000 -0.000000 0.000000 1.000000 453.899628 67.654343)"
	>=</text>
<text x="0" y="0" style="font-family:Symbol; font-style:normal; font-weight:normal; font-size:75.415894; fill:black" transform="matrix(1.000000 -0.000000 0.000000 1.000000 279.158203 67.654343)"
	>+</text>
<text x="0" y="0" style="font-family:Symbol; font-style:normal; font-weight:normal; font-size:75.415894; fill:black" transform="matrix(1.000000 -0.000000 0.000000 1.000000 90.963379 67.654343)"
	>-</text>
</svg>
